<svg xmlns="http://www.w3.org/2000/svg" xmlns:xlink="http://www.w3.org/1999/xlink" viewBox="0 0 380.72 210.33"><defs><style>.cls-1{fill:url(#linear-gradient);}.cls-10,.cls-2,.cls-7,.cls-9{fill:none;}.cls-10,.cls-11,.cls-2,.cls-3,.cls-4,.cls-8,.cls-9{stroke:#1d1d1b;stroke-miterlimit:10;}.cls-3{fill:#dadada;}.cls-4{fill:#fff;}.cls-5{opacity:0.17;}.cls-11,.cls-6,.cls-8{fill:#1d1d1b;}.cls-10,.cls-8,.cls-9{stroke-width:0.75px;}.cls-9{opacity:0.8;}</style><linearGradient id="linear-gradient" x1="301.04" y1="322.82" x2="468.21" y2="213.2" gradientTransform="matrix(0.78, 0.28, -0.32, 0.67, 162.7, -5.12)" gradientUnits="userSpaceOnUse"><stop offset="0.09"/><stop offset="0.19" stop-color="#050505"/><stop offset="0.3" stop-color="#131313"/><stop offset="0.42" stop-color="#2b2b2b"/><stop offset="0.55" stop-color="#4c4c4c"/><stop offset="0.68" stop-color="#777"/><stop offset="0.81" stop-color="#ababab"/><stop offset="0.95" stop-color="#e7e7e7"/><stop offset="1" stop-color="#fff"/></linearGradient></defs><g id="Layer_4" data-name="Layer 4"><ellipse class="cls-1" cx="370.63" cy="284.13" rx="89.26" ry="33.85" transform="matrix(0.99, -0.15, 0.15, 0.99, -186.29, -50.88)"/><line class="cls-2" x1="8.2" y1="134.3" x2="380.72" y2="134.3"/></g><g id="muodot"><circle class="cls-3" cx="188.98" cy="120.74" r="86.06"/><circle class="cls-4" cx="183.32" cy="123.77" r="86.06"/><circle class="cls-4" cx="183.32" cy="123.77" r="18.12"/><circle class="cls-4" cx="180.18" cy="125.86" r="18.12"/><circle class="cls-4" cx="180.18" cy="125.86" r="5.12"/><circle class="cls-4" cx="180.18" cy="48.59" r="2.74"/><circle class="cls-4" cx="180.18" cy="198.95" r="2.74"/><circle class="cls-4" cx="107.74" cy="125.86" r="2.74"/><circle class="cls-4" cx="255.47" cy="125.86" r="2.74"/></g><g id="Layer_3" data-name="Layer 3"><g class="cls-5"><path class="cls-6" d="M328.3,160.33c3.22,0,3.23-5,0-5s-3.22,5,0,5Z" transform="translate(-147.47 -110.4)"/></g><g class="cls-5"><path class="cls-6" d="M403.43,237.54c3.22,0,3.23-5,0-5s-3.22,5,0,5Z" transform="translate(-147.47 -110.4)"/></g><g class="cls-5"><path class="cls-6" d="M256.3,238.33c3.22,0,3.23-5,0-5s-3.22,5,0,5Z" transform="translate(-147.47 -110.4)"/></g><g class="cls-5"><path class="cls-6" d="M328.57,311.11c3.21,0,3.22-5,0-5s-3.23,5,0,5Z" transform="translate(-147.47 -110.4)"/></g><g class="cls-5"><path class="cls-6" d="M327.78,241.09a5,5,0,1,0-5-5,5.05,5.05,0,0,0,5,5Z" transform="translate(-147.47 -110.4)"/></g><g class="cls-5"><path class="cls-6" d="M328.83,239.32a3.75,3.75,0,1,0-3.75-3.75,3.8,3.8,0,0,0,3.75,3.75Z" transform="translate(-147.47 -110.4)"/></g><g class="cls-5"><path class="cls-6" d="M328.57,239.32a3.75,3.75,0,1,0-3.75-3.75,3.8,3.8,0,0,0,3.75,3.75Z" transform="translate(-147.47 -110.4)"/></g><g class="cls-5"><path class="cls-6" d="M328,240.36a3.75,3.75,0,1,0-3.75-3.75,3.79,3.79,0,0,0,3.75,3.75Z" transform="translate(-147.47 -110.4)"/></g><g class="cls-5"><path class="cls-6" d="M329.87,239.05a3.75,3.75,0,1,0-3.75-3.75,3.79,3.79,0,0,0,3.75,3.75Z" transform="translate(-147.47 -110.4)"/></g><g class="cls-5"><path class="cls-6" d="M328.3,159.08a1.25,1.25,0,0,0,0-2.5,1.25,1.25,0,0,0,0,2.5Z" transform="translate(-147.47 -110.4)"/></g><g class="cls-5"><path class="cls-6" d="M403.7,236.82a1.25,1.25,0,0,0,0-2.5,1.25,1.25,0,0,0,0,2.5Z" transform="translate(-147.47 -110.4)"/></g><g class="cls-5"><path class="cls-6" d="M403.43,237.34a1.25,1.25,0,0,0,0-2.5,1.25,1.25,0,0,0,0,2.5Z" transform="translate(-147.47 -110.4)"/></g><g class="cls-5"><path class="cls-6" d="M255.52,237.08a1.25,1.25,0,0,0,0-2.5,1.25,1.25,0,0,0,0,2.5Z" transform="translate(-147.47 -110.4)"/></g><g class="cls-5"><path class="cls-6" d="M255.78,237.6a1.25,1.25,0,0,0,0-2.5,1.25,1.25,0,0,0,0,2.5Z" transform="translate(-147.47 -110.4)"/></g><g class="cls-5"><path class="cls-6" d="M328.3,309.6a1.25,1.25,0,0,0,0-2.5,1.25,1.25,0,0,0,0,2.5Z" transform="translate(-147.47 -110.4)"/></g><g class="cls-5"><path class="cls-6" d="M327.52,310.38a1.25,1.25,0,0,0,0-2.5,1.25,1.25,0,0,0,0,2.5Z" transform="translate(-147.47 -110.4)"/></g><g class="cls-5"><path class="cls-6" d="M328.83,310.38a1.25,1.25,0,0,0,0-2.5,1.25,1.25,0,0,0,0,2.5Z" transform="translate(-147.47 -110.4)"/></g><path class="cls-6" d="M178.77,113.56v3.85a2.11,2.11,0,0,1,2-1.15c.85,0,2,.43,2,2.33v3.81h-.6v-3.69c0-1.19-.54-1.86-1.54-1.86-1.18,0-1.87.73-1.87,2.21v3.34h-.6v-8.84Z" transform="translate(-147.47 -110.4)"/><path class="cls-6" d="M184.88,119.48c0,1.54.79,2.5,1.94,2.5a1.68,1.68,0,0,0,1.73-1.13h.61a2.29,2.29,0,0,1-2.36,1.7c-1.82,0-2.53-1.58-2.53-3.1,0-1.71.85-3.19,2.6-3.19a2.48,2.48,0,0,1,2.44,2.72,4.1,4.1,0,0,1,0,.5Zm3.8-.53a1.9,1.9,0,0,0-1.83-2.13c-1.24,0-1.8.87-1.93,2.13Z" transform="translate(-147.47 -110.4)"/><path class="cls-6" d="M190.83,113.56h.6v1.17h-.6Zm0,2.85h.6v6h-.6Z" transform="translate(-147.47 -110.4)"/><path class="cls-6" d="M193.4,122.4v-8.84h.6v8.84Z" transform="translate(-147.47 -110.4)"/><path class="cls-6" d="M200.46,120.65c0,.59,0,1.52,0,1.75h-.58a10.28,10.28,0,0,1,0-1,1.84,1.84,0,0,1-1.93,1.19c-.86,0-2-.34-2-2.17v-4h.58v3.82c0,.88.28,1.73,1.47,1.73,1.34,0,1.84-.76,1.84-2.47v-3.08h.61Z" transform="translate(-147.47 -110.4)"/><path class="cls-6" d="M202.43,118c0-1,0-1.44,0-1.63H203c0,.19,0,.57,0,1.34a2.28,2.28,0,0,1,2.09-1.49v.65a2.16,2.16,0,0,0-2.09,2.37v3.12h-.59Z" transform="translate(-147.47 -110.4)"/><path class="cls-6" d="M206.22,113.56h.6v1.17h-.6Zm0,2.85h.6v6h-.6Z" transform="translate(-147.47 -110.4)"/><path class="cls-6" d="M208.79,117.92c0-.53,0-1,0-1.51h.59a10.79,10.79,0,0,1,0,1.13,2,2,0,0,1,2-1.28c1.06,0,2,.6,2,2.26v3.88h-.6v-3.79c0-1.07-.44-1.76-1.49-1.76-1.42,0-1.92,1.19-1.92,2.49v3.06h-.59Z" transform="translate(-147.47 -110.4)"/><path class="cls-6" d="M219.08,119.5c.55-.59,2.23-2.29,3-3.09h.76l-2.37,2.38,2.67,3.61h-.74l-2.36-3.22-1,1v2.26h-.6v-8.84h.6Z" transform="translate(-147.47 -110.4)"/><path class="cls-6" d="M224.19,113.56h.6v1.17h-.6Zm0,2.85h.6v6h-.6Z" transform="translate(-147.47 -110.4)"/><path class="cls-6" d="M226.76,113.56h.6v1.17h-.6Zm0,2.85h.6v6h-.6Z" transform="translate(-147.47 -110.4)"/><path class="cls-6" d="M229.33,117.92c0-.53,0-1,0-1.51h.59c0,.19,0,1,0,1.13a2,2,0,0,1,2-1.28c1.07,0,2,.6,2,2.26v3.88h-.6v-3.79c0-1.07-.45-1.76-1.49-1.76-1.43,0-1.92,1.19-1.92,2.49v3.06h-.6Z" transform="translate(-147.47 -110.4)"/><path class="cls-6" d="M235.91,117.92c0-.53,0-1,0-1.51h.59a10.87,10.87,0,0,1,0,1.13,2,2,0,0,1,2-1.28c1.06,0,2,.6,2,2.26v3.88h-.6v-3.79c0-1.07-.44-1.76-1.49-1.76-1.42,0-1.91,1.19-1.91,2.49v3.06h-.6Z" transform="translate(-147.47 -110.4)"/><path class="cls-6" d="M242.48,113.56h.6v1.17h-.6Zm0,2.85h.6v6h-.6Z" transform="translate(-147.47 -110.4)"/><path class="cls-6" d="M244.24,116.41h1.11v-1.88h.6v1.88h1.43V117H246v3.9c0,.67.14,1,.72,1a2.23,2.23,0,0,0,.62-.07v.53a2.17,2.17,0,0,1-.74.11c-.77,0-1.2-.39-1.2-1.35V117h-1.11Z" transform="translate(-147.47 -110.4)"/><path class="cls-6" d="M248.81,116.41c1.21,3.43,1.73,4.84,1.94,5.49h0c.24-.73.72-2.12,1.88-5.49h.63L251,122.75c-.63,1.77-1.06,2.17-2.14,2.17a3.36,3.36,0,0,1-.56,0v-.6a3.19,3.19,0,0,0,.54,0c.87,0,1.14-.42,1.59-1.65l-2.29-6.26Z" transform="translate(-147.47 -110.4)"/><path class="cls-6" d="M254.59,120.75a1.58,1.58,0,0,0,1.7,1.24c1.07,0,1.5-.49,1.5-1.16s-.29-1-1.63-1.34c-1.55-.37-1.93-.84-1.93-1.63s.62-1.6,2-1.6a1.92,1.92,0,0,1,2.1,1.68h-.6a1.43,1.43,0,0,0-1.53-1.13c-1,0-1.34.52-1.34,1s.29.83,1.48,1.11c1.69.41,2.11,1,2.11,1.86,0,1.09-.89,1.77-2.15,1.77a2.08,2.08,0,0,1-2.3-1.8Z" transform="translate(-147.47 -110.4)"/><path class="cls-6" d="M260.43,121.51v3.29h-.6v-6.92c0-.49,0-1,0-1.47h.59c0,.22,0,.58,0,1.07a2.24,2.24,0,0,1,2.12-1.22c1.41,0,2.39,1.19,2.39,3,0,2.16-1.15,3.3-2.6,3.3A2,2,0,0,1,260.43,121.51Zm3.88-2.24c0-1.39-.67-2.43-1.86-2.43-1.45,0-2.05.91-2.05,2.54s.47,2.6,2,2.6C263.61,122,264.31,120.93,264.31,119.27Z" transform="translate(-147.47 -110.4)"/><path class="cls-6" d="M266.5,113.56h.59v1.17h-.59Zm0,2.85h.59v6h-.59Z" transform="translate(-147.47 -110.4)"/><path class="cls-6" d="M269,120.75a1.59,1.59,0,0,0,1.71,1.24c1.06,0,1.49-.49,1.49-1.16s-.28-1-1.63-1.34c-1.54-.37-1.93-.84-1.93-1.63s.63-1.6,2-1.6a1.91,1.91,0,0,1,2.1,1.68h-.6a1.42,1.42,0,0,0-1.52-1.13c-1.05,0-1.35.52-1.35,1s.29.83,1.48,1.11c1.69.41,2.11,1,2.11,1.86,0,1.09-.89,1.77-2.15,1.77a2.09,2.09,0,0,1-2.3-1.8Z" transform="translate(-147.47 -110.4)"/><path class="cls-6" d="M273.4,116.41h1.11v-1.88h.6v1.88h1.43V117h-1.43v3.9c0,.67.14,1,.72,1a2.23,2.23,0,0,0,.62-.07v.53a2.17,2.17,0,0,1-.74.11c-.77,0-1.2-.39-1.2-1.35V117H273.4Z" transform="translate(-147.47 -110.4)"/><path class="cls-6" d="M277.82,119.48c0,1.54.79,2.5,1.95,2.5a1.67,1.67,0,0,0,1.72-1.13h.61a2.29,2.29,0,0,1-2.36,1.7c-1.82,0-2.53-1.58-2.53-3.1,0-1.71.85-3.19,2.6-3.19a2.48,2.48,0,0,1,2.44,2.72c0,.17,0,.34,0,.5Zm3.8-.53a1.9,1.9,0,0,0-1.83-2.13c-1.24,0-1.8.87-1.93,2.13Z" transform="translate(-147.47 -110.4)"/><line class="cls-7" x1="207.7" y1="115.25" x2="255.47" y2="125.42"/><line class="cls-7" x1="207.7" y1="115.25" x2="255.47" y2="125.42"/><line class="cls-8" x1="180.05" y1="48.59" x2="134.78" y2="15.86"/><path class="cls-6" d="M421.64,114.77c0-.53,0-1,0-1.51h.59c0,.19,0,1,0,1.14a2,2,0,0,1,2-1.29c1.07,0,2,.6,2,2.26v3.89h-.6v-3.79c0-1.07-.45-1.77-1.49-1.77-1.43,0-1.92,1.19-1.92,2.5v3.06h-.6Z" transform="translate(-147.47 -110.4)"/><path class="cls-6" d="M432.26,118.12a8,8,0,0,0,.08,1.14h-.57a3.67,3.67,0,0,1-.11-.93,2,2,0,0,1-2,1.07,1.79,1.79,0,0,1-2-1.8c0-1.32,1-1.92,2.82-1.92h1.14v-.61c0-.6-.18-1.4-1.55-1.4-1.21,0-1.39.63-1.52,1.12H428a1.86,1.86,0,0,1,2.13-1.68c1.37,0,2.14.58,2.14,1.9Zm-.59-1.92h-1.18c-1.33,0-2.15.34-2.15,1.38a1.25,1.25,0,0,0,1.37,1.27c1.72,0,2-1.14,2-2.44Z" transform="translate(-147.47 -110.4)"/><path class="cls-6" d="M434.24,114.89c0-1,0-1.44,0-1.63h.59c0,.19,0,.57,0,1.34a2.27,2.27,0,0,1,2.09-1.49v.65a2.17,2.17,0,0,0-2.09,2.38v3.12h-.6Z" transform="translate(-147.47 -110.4)"/><path class="cls-6" d="M442.48,117.5c0,.59,0,1.53,0,1.76h-.57a8.18,8.18,0,0,1,0-1.05A1.84,1.84,0,0,1,440,119.4c-.86,0-2-.34-2-2.17v-4h.59v3.82c0,.88.28,1.73,1.46,1.73,1.35,0,1.85-.75,1.85-2.47v-3.08h.6Z" transform="translate(-147.47 -110.4)"/><path class="cls-6" d="M445.05,116.35c.55-.58,2.23-2.29,3-3.09h.77l-2.37,2.39,2.67,3.61h-.74L446.05,116l-1,1v2.27h-.6v-8.84h.6Z" transform="translate(-147.47 -110.4)"/><path class="cls-6" d="M450.13,116.33c0,1.55.79,2.51,1.94,2.51a1.7,1.7,0,0,0,1.73-1.13h.61a2.3,2.3,0,0,1-2.36,1.69c-1.83,0-2.53-1.57-2.53-3.09,0-1.72.85-3.2,2.6-3.2a2.48,2.48,0,0,1,2.43,2.73c0,.17,0,.33,0,.49Zm3.8-.53a1.89,1.89,0,0,0-1.84-2.12c-1.23,0-1.8.86-1.93,2.12Z" transform="translate(-147.47 -110.4)"/><path class="cls-6" d="M456.67,110.42v3.85a2.08,2.08,0,0,1,2-1.16c.85,0,2,.44,2,2.33v3.82h-.6v-3.7c0-1.19-.54-1.86-1.53-1.86-1.19,0-1.87.73-1.87,2.21v3.35h-.6v-8.84Z" transform="translate(-147.47 -110.4)"/><path class="cls-6" d="M466.69,118.12a6.7,6.7,0,0,0,.08,1.14h-.58a4.5,4.5,0,0,1-.1-.93,2,2,0,0,1-2,1.07,1.79,1.79,0,0,1-2-1.8c0-1.32,1-1.92,2.82-1.92h1.14v-.61c0-.6-.18-1.4-1.55-1.4-1.21,0-1.39.63-1.52,1.12h-.6a1.86,1.86,0,0,1,2.13-1.68c1.37,0,2.14.58,2.14,1.9Zm-.59-1.92h-1.18c-1.33,0-2.16.34-2.16,1.38a1.25,1.25,0,0,0,1.38,1.27c1.72,0,2-1.14,2-2.44Zm-2.8-4.63V110.4h.6v1.17Zm2.08,0V110.4h.6v1.17Z" transform="translate(-147.47 -110.4)"/><line class="cls-2" x1="196.75" y1="107.74" x2="292.75" y2="11.99"/><path class="cls-6" d="M148.08,274.66c.55-.59,2.23-2.29,3-3.1h.76L149.51,274l2.67,3.61h-.74l-2.36-3.23-1,1v2.27h-.6v-8.84h.6Z" transform="translate(-147.47 -110.4)"/><path class="cls-6" d="M153.16,274.63c0,1.55.79,2.51,1.94,2.51a1.7,1.7,0,0,0,1.73-1.13h.61a2.3,2.3,0,0,1-2.36,1.69c-1.83,0-2.53-1.57-2.53-3.09,0-1.72.85-3.19,2.6-3.19a2.47,2.47,0,0,1,2.43,2.72c0,.17,0,.34,0,.49Zm3.8-.52a1.9,1.9,0,0,0-1.84-2.13c-1.23,0-1.79.87-1.93,2.13Z" transform="translate(-147.47 -110.4)"/><path class="cls-6" d="M159.19,275.9a1.6,1.6,0,0,0,1.71,1.25c1.06,0,1.5-.49,1.5-1.16s-.29-1-1.63-1.34c-1.55-.38-1.94-.84-1.94-1.64s.63-1.59,2-1.59a1.91,1.91,0,0,1,2.1,1.68h-.6a1.4,1.4,0,0,0-1.52-1.13c-1,0-1.34.52-1.34,1s.28.82,1.47,1.11c1.69.41,2.11,1,2.11,1.86,0,1.09-.89,1.76-2.14,1.76a2.09,2.09,0,0,1-2.31-1.8Z" transform="translate(-147.47 -110.4)"/><path class="cls-6" d="M165,274.66c.55-.59,2.23-2.29,3-3.1h.77L166.45,274l2.68,3.61h-.75L166,274.33l-1,1v2.27h-.6v-8.84h.6Z" transform="translate(-147.47 -110.4)"/><path class="cls-6" d="M170.14,268.72h.6v1.16h-.6Zm0,2.84h.6v6h-.6Z" transform="translate(-147.47 -110.4)"/><path class="cls-6" d="M173.31,276.67V280h-.6V273c0-.49,0-1,0-1.48h.58a10.13,10.13,0,0,1,0,1.08,2.2,2.2,0,0,1,2.11-1.22c1.41,0,2.4,1.19,2.4,3,0,2.15-1.15,3.29-2.61,3.29A2,2,0,0,1,173.31,276.67Zm3.87-2.24c0-1.39-.67-2.44-1.86-2.44-1.45,0-2,.92-2,2.55s.47,2.6,2,2.6C176.49,277.14,177.18,276.08,177.18,274.43Z" transform="translate(-147.47 -110.4)"/><path class="cls-6" d="M179.37,268.72h.6v1.16h-.6Zm0,2.84h.6v6h-.6Z" transform="translate(-147.47 -110.4)"/><path class="cls-6" d="M181.88,275.9a1.58,1.58,0,0,0,1.7,1.25c1.07,0,1.5-.49,1.5-1.16s-.29-1-1.63-1.34c-1.55-.38-1.93-.84-1.93-1.64s.62-1.59,2-1.59a1.91,1.91,0,0,1,2.1,1.68H185a1.4,1.4,0,0,0-1.52-1.13c-1,0-1.34.52-1.34,1s.29.82,1.47,1.11c1.69.41,2.11,1,2.11,1.86,0,1.09-.88,1.76-2.14,1.76a2.09,2.09,0,0,1-2.31-1.8Z" transform="translate(-147.47 -110.4)"/><path class="cls-6" d="M186.27,271.56h1.11v-1.87h.6v1.87h1.43v.57H188V276c0,.68.15,1.06.72,1.06a2.34,2.34,0,0,0,.63-.07v.53a2.27,2.27,0,0,1-.75.1c-.77,0-1.2-.38-1.2-1.34v-4.17h-1.11Z" transform="translate(-147.47 -110.4)"/><path class="cls-6" d="M190.7,274.63c0,1.55.79,2.51,1.94,2.51a1.7,1.7,0,0,0,1.73-1.13H195a2.3,2.3,0,0,1-2.37,1.69c-1.82,0-2.53-1.57-2.53-3.09,0-1.72.86-3.19,2.61-3.19a2.48,2.48,0,0,1,2.43,2.72c0,.17,0,.34,0,.49Zm3.8-.52a1.9,1.9,0,0,0-1.84-2.13c-1.23,0-1.8.87-1.93,2.13Z" transform="translate(-147.47 -110.4)"/><path class="cls-6" d="M199.34,278.17l3.38-9.13h.61L200,278.17Z" transform="translate(-147.47 -110.4)"/><path class="cls-6" d="M148.08,291.07v3.29h-.6v-6.92c0-.49,0-1,0-1.48h.59c0,.23,0,.59,0,1.08a2.2,2.2,0,0,1,2.11-1.22c1.42,0,2.4,1.19,2.4,3,0,2.15-1.15,3.29-2.6,3.29A2,2,0,0,1,148.08,291.07Zm3.88-2.24c0-1.39-.68-2.43-1.86-2.43-1.45,0-2,.91-2,2.54s.46,2.6,2,2.6C151.26,291.54,152,290.48,152,288.83Z" transform="translate(-147.47 -110.4)"/><path class="cls-6" d="M154.05,286c1.21,3.43,1.74,4.85,1.94,5.5h0c.24-.74.72-2.13,1.88-5.5h.63l-2.26,6.35c-.63,1.77-1.06,2.17-2.14,2.17a3.36,3.36,0,0,1-.56,0v-.6a3.19,3.19,0,0,0,.54,0c.87,0,1.14-.42,1.59-1.66L153.39,286Z" transform="translate(-147.47 -110.4)"/><path class="cls-6" d="M164.58,289c0,1.67-.92,3.15-2.71,3.15-1.62,0-2.63-1.33-2.63-3.14s.95-3.14,2.69-3.14C163.52,285.82,164.58,287.07,164.58,289Zm-4.7,0c0,1.43.77,2.58,2,2.58s2-1.07,2-2.58-.72-2.58-2.05-2.58S159.88,287.52,159.88,289Zm.68-4.69v-1.16h.6v1.16Zm2.08,0v-1.16h.6v1.16Z" transform="translate(-147.47 -110.4)"/><path class="cls-6" d="M166.07,287.59c0-1,0-1.43,0-1.63h.59c0,.2,0,.58,0,1.35a2.28,2.28,0,0,1,2.09-1.49v.65a2.16,2.16,0,0,0-2.09,2.37V292h-.6Z" transform="translate(-147.47 -110.4)"/><path class="cls-6" d="M173.87,290.82A7.72,7.72,0,0,0,174,292h-.57a3.56,3.56,0,0,1-.11-.92,2,2,0,0,1-2,1.06,1.79,1.79,0,0,1-2-1.8c0-1.31,1-1.91,2.82-1.91h1.14v-.62c0-.6-.18-1.4-1.55-1.4-1.21,0-1.39.64-1.52,1.13h-.6a1.86,1.86,0,0,1,2.13-1.68c1.37,0,2.14.58,2.14,1.89Zm-.59-1.92H172.1c-1.33,0-2.15.35-2.15,1.38a1.25,1.25,0,0,0,1.38,1.27c1.71,0,1.95-1.14,1.95-2.43Zm-2.79-4.63v-1.16h.59v1.16Zm2.07,0v-1.16h.6v1.16Z" transform="translate(-147.47 -110.4)"/><path class="cls-6" d="M176.45,283.12V287a2.1,2.1,0,0,1,2-1.15c.85,0,2,.43,2,2.33V292h-.6v-3.69c0-1.19-.54-1.86-1.54-1.86-1.19,0-1.87.73-1.87,2.2V292h-.6v-8.84Z" transform="translate(-147.47 -110.4)"/><path class="cls-6" d="M187.06,283.12v7.11c0,.58,0,1.13,0,1.73h-.58c0-.14,0-.71,0-1a2,2,0,0,1-2,1.15c-1.56,0-2.49-1.27-2.49-3.07s1-3.21,2.65-3.21c1.2,0,1.68.51,1.86.9v-3.6ZM182.58,289c0,1.64.85,2.53,1.88,2.53,1.59,0,2-1.09,2-2.72s-.37-2.44-1.91-2.44C183.39,286.38,182.58,287.33,182.58,289Z" transform="translate(-147.47 -110.4)"/><path class="cls-6" d="M189,286c1.21,3.43,1.74,4.85,1.94,5.5h0c.24-.74.72-2.13,1.89-5.5h.62l-2.25,6.35c-.64,1.77-1.07,2.17-2.15,2.17a3.16,3.16,0,0,1-.55,0v-.6a3.19,3.19,0,0,0,.54,0c.86,0,1.14-.42,1.58-1.66L188.33,286Z" transform="translate(-147.47 -110.4)"/><path class="cls-6" d="M194.77,290.3a1.6,1.6,0,0,0,1.71,1.25c1.06,0,1.5-.49,1.5-1.16s-.29-1-1.64-1.34c-1.54-.38-1.93-.84-1.93-1.64s.63-1.59,2-1.59a1.91,1.91,0,0,1,2.1,1.68h-.6a1.41,1.41,0,0,0-1.52-1.13c-1,0-1.34.52-1.34,1s.28.82,1.47,1.11c1.69.41,2.11,1,2.11,1.86,0,1.09-.89,1.76-2.15,1.76a2.09,2.09,0,0,1-2.3-1.8Z" transform="translate(-147.47 -110.4)"/><path class="cls-6" d="M204.26,290.82a6.24,6.24,0,0,0,.09,1.14h-.58a4.11,4.11,0,0,1-.11-.92,2,2,0,0,1-2,1.06,1.79,1.79,0,0,1-2-1.8c0-1.31,1-1.91,2.81-1.91h1.14v-.62c0-.6-.18-1.4-1.54-1.4s-1.39.64-1.53,1.13H200a1.87,1.87,0,0,1,2.14-1.68c1.37,0,2.13.58,2.13,1.89Zm-.58-1.92H202.5c-1.33,0-2.16.35-2.16,1.38a1.25,1.25,0,0,0,1.38,1.27c1.72,0,2-1.14,2-2.43Z" transform="translate(-147.47 -110.4)"/><path class="cls-6" d="M206.84,289.06c.56-.59,2.24-2.29,3-3.1h.77l-2.38,2.39L211,292h-.75l-2.36-3.23-1,1V292h-.59v-8.84h.59Z" transform="translate(-147.47 -110.4)"/><path class="cls-6" d="M212.11,290.3a1.6,1.6,0,0,0,1.71,1.25c1.06,0,1.49-.49,1.49-1.16s-.28-1-1.63-1.34c-1.54-.38-1.93-.84-1.93-1.64s.63-1.59,2-1.59a1.91,1.91,0,0,1,2.1,1.68h-.6a1.41,1.41,0,0,0-1.52-1.13c-1.05,0-1.35.52-1.35,1s.29.82,1.48,1.11c1.69.41,2.11,1,2.11,1.86,0,1.09-.89,1.76-2.15,1.76a2.09,2.09,0,0,1-2.3-1.8Z" transform="translate(-147.47 -110.4)"/><path class="cls-6" d="M217.57,289c0,1.55.79,2.51,2,2.51a1.68,1.68,0,0,0,1.72-1.13h.61a2.29,2.29,0,0,1-2.36,1.69c-1.82,0-2.53-1.57-2.53-3.09,0-1.72.85-3.19,2.6-3.19a2.48,2.48,0,0,1,2.44,2.72c0,.17,0,.34,0,.49Zm3.8-.52a1.9,1.9,0,0,0-1.83-2.13c-1.24,0-1.8.87-1.93,2.13Z" transform="translate(-147.47 -110.4)"/><path class="cls-6" d="M223.51,292v-8.84h.6V292Z" transform="translate(-147.47 -110.4)"/><path class="cls-6" d="M226.08,283.12h.6v1.16h-.6Zm0,2.84h.6v6h-.6Z" transform="translate(-147.47 -110.4)"/><line class="cls-9" x1="74.4" y1="165.2" x2="180.35" y2="127.23"/><path class="cls-6" d="M326.23,234.53a.86.86,0,0,0,0,.32,4,4,0,0,0,.16,1,4.83,4.83,0,0,0,.39.87,6.08,6.08,0,0,0,.59.75,5.32,5.32,0,0,0,.74.59,4.47,4.47,0,0,0,.87.39,1.58,1.58,0,0,0,.31.09,4.38,4.38,0,0,0,1,.09,1.84,1.84,0,0,0,1-.22,1.93,1.93,0,0,0,.81-.51,2.05,2.05,0,0,0,.52-.81,2,2,0,0,0,.21-1l-.09-.67a2.5,2.5,0,0,0-.64-1.1l-.51-.39a2.43,2.43,0,0,0-1.26-.34H330l.66.09a1.15,1.15,0,0,1-.33-.1l.59.25a2,2,0,0,1-.32-.18l.51.39a1.48,1.48,0,0,1-.28-.28l.39.5a1.38,1.38,0,0,1-.2-.33l.25.59a1.24,1.24,0,0,1-.09-.33l.09.66a.86.86,0,0,1,0-.32,1.9,1.9,0,0,0-.22-1,2.54,2.54,0,0,0-2.28-1.53l-.67.09a2.41,2.41,0,0,0-1.1.64l-.39.5a2.44,2.44,0,0,0-.34,1.27Z" transform="translate(-147.47 -110.4)"/><path class="cls-6" d="M329.09,236.63c3.21,0,3.22-5,0-5s-3.23,5,0,5Z" transform="translate(-147.47 -110.4)"/><path class="cls-6" d="M255.91,237a1.25,1.25,0,0,0,0-2.5,1.25,1.25,0,0,0,0,2.5Z" transform="translate(-147.47 -110.4)"/><path class="cls-6" d="M256.3,237.34a1.25,1.25,0,0,0,0-2.5,1.25,1.25,0,0,0,0,2.5Z" transform="translate(-147.47 -110.4)"/><path class="cls-6" d="M328.3,159.08a1.25,1.25,0,0,0,0-2.5,1.25,1.25,0,0,0,0,2.5Z" transform="translate(-147.47 -110.4)"/><path class="cls-6" d="M329.09,160.25a1.25,1.25,0,0,0,0-2.5,1.25,1.25,0,0,0,0,2.5Z" transform="translate(-147.47 -110.4)"/><path class="cls-6" d="M327.91,160.25a1.25,1.25,0,0,0,0-2.5,1.25,1.25,0,0,0,0,2.5Z" transform="translate(-147.47 -110.4)"/><path class="cls-6" d="M403.83,236.55a1.25,1.25,0,0,0,0-2.5,1.25,1.25,0,0,0,0,2.5Z" transform="translate(-147.47 -110.4)"/><path class="cls-6" d="M403.83,237.34a1.25,1.25,0,0,0,0-2.5,1.25,1.25,0,0,0,0,2.5Z" transform="translate(-147.47 -110.4)"/><path class="cls-6" d="M403,237.34a1.25,1.25,0,0,0,0-2.5,1.25,1.25,0,0,0,0,2.5Z" transform="translate(-147.47 -110.4)"/><path class="cls-6" d="M404.61,237.34a1.25,1.25,0,0,0,0-2.5,1.25,1.25,0,0,0,0,2.5Z" transform="translate(-147.47 -110.4)"/><path class="cls-6" d="M328.7,309.73a1.25,1.25,0,0,0,0-2.5,1.25,1.25,0,0,0,0,2.5Z" transform="translate(-147.47 -110.4)"/><path class="cls-6" d="M328.3,310.51a1.25,1.25,0,0,0,0-2.5,1.25,1.25,0,0,0,0,2.5Z" transform="translate(-147.47 -110.4)"/><path class="cls-6" d="M327.91,309.73a1.25,1.25,0,0,0,0-2.5,1.25,1.25,0,0,0,0,2.5Z" transform="translate(-147.47 -110.4)"/><line class="cls-2" x1="207.44" y1="120.33" x2="244.75" y2="126.2"/><line class="cls-10" x1="207.44" y1="120.33" x2="207.44" y2="130.98"/><line class="cls-11" x1="244.75" y1="126.2" x2="207.44" y2="130.98"/><line class="cls-10" x1="196.11" y1="114.49" x2="196.11" y2="114.49"/></g></svg>