<svg id="Layer_1" data-name="Layer 1" xmlns="http://www.w3.org/2000/svg" xmlns:xlink="http://www.w3.org/1999/xlink" viewBox="0 0 217.9 233.6">
  <defs>
    <style>
      .cls-1 {
        opacity: 0.3;
        fill: url(#Orange_Yellow);
      }

      .cls-2, .cls-4, .cls-5, .cls-6, .cls-7, .cls-8, .cls-9 {
        fill: none;
        stroke-miterlimit: 10;
      }

      .cls-2, .cls-9 {
        stroke: #1d1d1b;
      }

      .cls-3 {
        fill: #1d1d1b;
      }

      .cls-4 {
        stroke: #e94e1b;
      }

      .cls-4, .cls-8 {
        stroke-width: 0.5px;
      }

      .cls-5, .cls-6, .cls-7, .cls-8 {
        stroke: #f39200;
      }

      .cls-5, .cls-6, .cls-7, .cls-9 {
        stroke-width: 0.25px;
      }

      .cls-6 {
        stroke-dasharray: 2.03 2.03;
      }

      .cls-7 {
        stroke-dasharray: 2.07 2.07;
      }

      .cls-8, .cls-9 {
        stroke-dasharray: 2;
      }
    </style>
    <linearGradient id="Orange_Yellow" data-name="Orange, Yellow" x1="253.57" y1="444.75" x2="299.74" y2="444.75" gradientUnits="userSpaceOnUse">
      <stop offset="0" stop-color="#ffef26"/>
      <stop offset="0.02" stop-color="#ffea21"/>
      <stop offset="0.1" stop-color="#fed70f"/>
      <stop offset="0.19" stop-color="#fdcc04"/>
      <stop offset="0.28" stop-color="#fdc800"/>
      <stop offset="0.67" stop-color="#f18f34"/>
      <stop offset="0.89" stop-color="#e95f32"/>
      <stop offset="1" stop-color="#e3312d"/>
    </linearGradient>
  </defs>
  <path class="cls-1" d="M253.6,505.5V384c7.7,45.9,22.6,79,46.1,96.7v24.8Z" transform="translate(-185.6 -289.5)"/>
  <g>
    <line class="cls-2" x1="20.7" y1="4.1" x2="20.7" y2="216"/>
    <path class="cls-3" d="M206.3,294.5l1.8,1.1h0l-1.1-2.9c-.3-1.1-.5-2.1-.7-3.1-.2,1-.5,2-.7,3.1l-1.1,2.9h0Z" transform="translate(-185.6 -289.5)"/>
  </g>
  <g>
    <line class="cls-2" x1="196.6" y1="216" x2="20.7" y2="216"/>
    <path class="cls-3" d="M381.3,505.5l-1.1,1.8h.1l2.9-1.1,3.1-.7-3.1-.7-2.9-1.1h-.1Z" transform="translate(-185.6 -289.5)"/>
  </g>
  <path class="cls-3" d="M190.9,301.6l-.4,1.3,1.2-1a1.9,1.9,0,0,1,1-.3,1,1,0,0,1,.9.4,1.8,1.8,0,0,1,.4,1.1,4.5,4.5,0,0,1-1.1,2.6,3,3,0,0,1-2.4,1.3H190l-.6-.3-.4,1.6a1.3,1.3,0,0,0-.1.5.4.4,0,0,0,.1.3h.8v.3H187v-.3h.8c.1-.1.2-.5.4-.9l1.4-5.2a3.9,3.9,0,0,0,.2-.6c0-.1,0-.2-.1-.2h-.8v-.2Zm-1.3,4.7a1.2,1.2,0,0,0,1,.4.7.7,0,0,0,.6-.2,1.3,1.3,0,0,0,.6-.5,1.8,1.8,0,0,0,.5-.7,11.7,11.7,0,0,0,.5-1.1,3.6,3.6,0,0,0,.2-1.1,1.2,1.2,0,0,0-.2-.7l-.5-.3a1.6,1.6,0,0,0-1.3.7,5.6,5.6,0,0,0-.9,1.7Z" transform="translate(-185.6 -289.5)"/>
  <path class="cls-3" d="M370.1,523.1l.7-6.6v-.7a.6.6,0,0,0-.2-.5h-.8V515H373v.2h-.7c-.1,0-.2.2-.3.3a3.5,3.5,0,0,0-.1.7l-.5,4.8,3.1-4.2.7-1c0-.1.1-.2.1-.3s-.1-.2-.2-.3h-.5V515H377v.2h-.4l-.7.4-1,1.3-4.5,6.1Z" transform="translate(-185.6 -289.5)"/>
  <path class="cls-4" d="M219.4,297.9c13.9,153.6,6.5,188.2,166.9,191.7" transform="translate(-185.6 -289.5)"/>
  <path class="cls-4" d="M237.6,303c17.8,103.4,24.2,172.5,148.7,176.2" transform="translate(-185.6 -289.5)"/>
  <g>
    <path class="cls-3" d="M395.7,473.9h6l-.6,2.1h-.3a2.5,2.5,0,0,0,.1-.8.8.8,0,0,0-.2-.7l-1-.2H399l-1.5,5.5a6.6,6.6,0,0,0-.3,1.3.6.6,0,0,0,.1.4h1v.2h-3.5v-.2h.9l.3-.4.4-1.1,1.6-5.7h-.5l-1.1.2a1,1,0,0,0-.6.5,3.1,3.1,0,0,0-.5,1h-.2Z" transform="translate(-185.6 -289.5)"/>
    <path class="cls-3" d="M403.5,481.1l-1.1,3.8a1.1,1.1,0,0,0-.1.5c0,.1,0,.1.1.2h-.8a1.6,1.6,0,0,0,.3-.6l.8-2.7v-.3c.1-.1.1-.1.1-.2h-.6l1.1-.3Z" transform="translate(-185.6 -289.5)"/>
  </g>
  <g>
    <path class="cls-3" d="M395.1,489h6l-.6,2.1h-.3a2.5,2.5,0,0,0,.1-.8.8.8,0,0,0-.2-.7h-1.7l-1.5,5.4a8.7,8.7,0,0,0-.3,1.3c0,.2,0,.3.2.4h.9v.2h-3.4v-.2h.9l.3-.4.4-1.1,1.6-5.6h-1.6c-.2.2-.5.3-.6.6a1.9,1.9,0,0,0-.5.9h-.2Z" transform="translate(-185.6 -289.5)"/>
    <path class="cls-3" d="M402.4,500.9h-2.3a9.5,9.5,0,0,0,2.3-2.4,1.6,1.6,0,0,0,.3-.9.8.8,0,0,0-.2-.5.9.9,0,0,0-.6-.3,1,1,0,0,0-.8.5H401a1.8,1.8,0,0,1,.5-.7l.7-.2a1.1,1.1,0,0,1,.8.3,1.1,1.1,0,0,1,.3.7c0,.2-.1.4-.1.6a2.4,2.4,0,0,1-.6.9l-1.8,1.7h1.6l.3-.3h.1Z" transform="translate(-185.6 -289.5)"/>
  </g>
  <path class="cls-2" d="M246.9,323.7c7.1,106.1,28.2,152.6,83.4,174.2" transform="translate(-185.6 -289.5)"/>
  <path class="cls-3" d="M253.6,385.2a1.2,1.2,0,0,0,0-2.4,1.2,1.2,0,0,0,0,2.4Z" transform="translate(-185.6 -289.5)"/>
  <path class="cls-3" d="M299.7,481.9a1.3,1.3,0,0,0,0-2.5,1.3,1.3,0,0,0,0,2.5Z" transform="translate(-185.6 -289.5)"/>
  <g>
    <polyline class="cls-5" points="68 215 68 216 68 215"/>
    <line class="cls-6" x1="68" y1="213" x2="68" y2="96.5"/>
    <polyline class="cls-5" points="68 95.5 68 94.5 68 95.5"/>
    <line class="cls-6" x1="68" y1="97.5" x2="68" y2="214"/>
  </g>
  <g>
    <polyline class="cls-5" points="114.2 191.9 114.2 190.9 114.2 191.9"/>
    <line class="cls-7" x1="114.2" y1="194" x2="114.2" y2="213.6"/>
    <polyline class="cls-5" points="114.2 214.6 114.2 215.6 114.2 214.6"/>
    <line class="cls-7" x1="114.2" y1="212.6" x2="114.2" y2="192.9"/>
  </g>
  <path class="cls-8" d="M253.6,384" transform="translate(-185.6 -289.5)"/>
  <path class="cls-8" d="M253.6,505.5" transform="translate(-185.6 -289.5)"/>
  <line class="cls-9" x1="114.2" y1="191.2" x2="20.7" y2="191.2"/>
  <line class="cls-9" x1="68" y1="94.5" x2="20.7" y2="94.5"/>
  <g>
    <path class="cls-3" d="M192.4,378.4l-.4,1.4a5.7,5.7,0,0,1,1.2-1.1,1.7,1.7,0,0,1,1-.3,1.8,1.8,0,0,1,.9.4,2.1,2.1,0,0,1,.4,1.1,4.2,4.2,0,0,1-1.1,2.6,3.1,3.1,0,0,1-2.4,1.4h-.6l-.5-.2-.4,1.5a1.8,1.8,0,0,0-.1.6v.2h.9v.2h-2.7v-.2a1.5,1.5,0,0,0,.8-.2,4.1,4.1,0,0,0,.4-.9l1.4-5.2a3.9,3.9,0,0,0,.2-.6V379h-.8v-.2Zm-1.3,4.7a1.1,1.1,0,0,0,1,.4h.6l.6-.5a3.5,3.5,0,0,0,.5-.8l.5-1a5,5,0,0,0,.2-1.2.8.8,0,0,0-.3-.7.5.5,0,0,0-.5-.3,1.7,1.7,0,0,0-1.2.8,3.9,3.9,0,0,0-.9,1.7Z" transform="translate(-185.6 -289.5)"/>
    <path class="cls-3" d="M198.7,383l-1.1,3.8a1.1,1.1,0,0,0-.1.5c0,.1,0,.2.1.2h-1.3c.1,0,.3,0,.3-.1h.2a1.6,1.6,0,0,0,.3-.6l.8-2.7v-.3c0-.1.1-.1.1-.2h-.6l1.1-.3Z" transform="translate(-185.6 -289.5)"/>
  </g>
  <g>
    <path class="cls-3" d="M189.6,477.4l-.4,1.4a5.6,5.6,0,0,1,1.1-1.1,1.9,1.9,0,0,1,1-.3,1,1,0,0,1,.9.4,1.5,1.5,0,0,1,.4,1.1,4.2,4.2,0,0,1-1.1,2.6,3,3,0,0,1-2.4,1.3h-.5l-.5-.2-.5,1.5a1.2,1.2,0,0,1-.1.5.4.4,0,0,0,.1.3h.8v.2h-2.7v-.2l.8-.2a4.1,4.1,0,0,0,.4-.9l1.5-5.2a1.8,1.8,0,0,0,.1-.6c0-.1,0-.2-.1-.2h-.7v-.2Zm-1.4,4.7a1.2,1.2,0,0,0,1,.4h.6l.6-.5.6-.8.4-1a5,5,0,0,0,.2-1.2,1.2,1.2,0,0,0-.2-.7c-.2-.2-.3-.3-.5-.3a1.9,1.9,0,0,0-1.3.7,5.6,5.6,0,0,0-.9,1.7Z" transform="translate(-185.6 -289.5)"/>
    <path class="cls-3" d="M195.3,486.7H193a14.9,14.9,0,0,0,2.3-2.4,1.6,1.6,0,0,0,.3-.9,1.4,1.4,0,0,0-.2-.6l-.6-.2a1,1,0,0,0-.8.5h-.1a1.8,1.8,0,0,1,.5-.7l.7-.2a1.1,1.1,0,0,1,.8.3.9.9,0,0,1,.3.7,1.3,1.3,0,0,1-.1.6l-.6.9-1.8,1.7h1.6l.3-.3h.1Z" transform="translate(-185.6 -289.5)"/>
  </g>
  <g>
    <path class="cls-3" d="M297,518.2l.6-6.6a2.6,2.6,0,0,0,.1-.7.5.5,0,0,0-.2-.4.7.7,0,0,0-.6-.2h-.3v-.2h3.1v.2h-.7q-.3.2-.3.3c-.1.1-.1.4-.1.8l-.5,4.7,3.1-4.2.6-1a.5.5,0,0,0,0-.6h-.5v-.2h2.4v.2h-.5a1.3,1.3,0,0,0-.6.5,7.6,7.6,0,0,0-1,1.2l-4.5,6.1Z" transform="translate(-185.6 -289.5)"/>
    <path class="cls-3" d="M304.9,522h-2.3a21.6,21.6,0,0,0,2.3-2.4,1.6,1.6,0,0,0,.3-.9,1.4,1.4,0,0,0-.2-.6l-.6-.2a1,1,0,0,0-.8.5h-.1a1.8,1.8,0,0,1,.5-.7l.7-.2a1.1,1.1,0,0,1,.8.3.9.9,0,0,1,.3.7,1.4,1.4,0,0,1-.2.6l-.6.9a13.5,13.5,0,0,1-1.7,1.7h1.6c.1-.1.2-.2.2-.3h.2Z" transform="translate(-185.6 -289.5)"/>
  </g>
  <g>
    <path class="cls-3" d="M250.8,518.6l.7-6.6v-.7a.4.4,0,0,0-.2-.4.8.8,0,0,0-.6-.2h-.2v-.2h3.1v.2h-.7l-.3.4a2.6,2.6,0,0,1-.1.7l-.5,4.7,3.1-4.2a7.6,7.6,0,0,0,.7-.9c0-.2.1-.3.1-.4a.2.2,0,0,0-.2-.2.6.6,0,0,0-.5-.2v-.2h2.4v.2h-.4l-.7.5-1,1.3-4.5,6Z" transform="translate(-185.6 -289.5)"/>
    <path class="cls-3" d="M259.3,517.7l-1.1,3.8a1.3,1.3,0,0,0-.1.5c0,.1,0,.2.1.2h-1c.1-.1.2-.1.2-.2a.8.8,0,0,0,.2-.6l.8-2.7a.8.8,0,0,0,.1-.3h0c0-.1,0-.2-.1-.2a.1.1,0,0,0-.1-.1H258V518l1.2-.3Z" transform="translate(-185.6 -289.5)"/>
  </g>
  <path class="cls-3" d="M264,377.6l-1.1,4-.2.5h0c0,.1,0,.1.1.2h.3a1.4,1.4,0,0,0,.6-.7l.2.2a3.6,3.6,0,0,1-.8.9l-.8.3h-.4c-.1-.1-.1-.2-.1-.4a2,2,0,0,1,.1-.7v-.5a3.7,3.7,0,0,1-1.4,1.4,1.6,1.6,0,0,1-.9.3.9.9,0,0,1-.7-.3,1.7,1.7,0,0,1-.3-1,5.3,5.3,0,0,1,.5-2,5.6,5.6,0,0,1,1.4-1.6,2,2,0,0,1,1.3-.5c.3,0,.5,0,.6.2a.9.9,0,0,1,.4.6l.2-.7Zm-2.1.3-.8.3a5.6,5.6,0,0,0-1,1.5,4.9,4.9,0,0,0-.5,1.8.8.8,0,0,0,.2.6c.1.2.3.2.5.2a2.1,2.1,0,0,0,1.4-.9,4.4,4.4,0,0,0,1-2.6,1.4,1.4,0,0,0-.2-.7A1.1,1.1,0,0,0,261.9,377.9Z" transform="translate(-185.6 -289.5)"/>
  <path class="cls-3" d="M307.1,470.8l-1.1,4.1a3,3,0,0,1,.9-.8,1.5,1.5,0,0,1,2,.2,1.8,1.8,0,0,1,.4,1.1,3.3,3.3,0,0,1-.6,1.9,4.7,4.7,0,0,1-1.3,1.5,3.7,3.7,0,0,1-1.6.5,2.7,2.7,0,0,1-1.8-.7l1.7-6.1.3-.8c0-.1-.1-.2-.1-.3h-.8v-.3Zm-2.3,7.9,1.1.3a1.4,1.4,0,0,0,1-.4,2.5,2.5,0,0,0,1-1.2,3.9,3.9,0,0,0,.4-1.8,1.2,1.2,0,0,0-.3-.9.6.6,0,0,0-.6-.3,2.1,2.1,0,0,0-1,.4,2.4,2.4,0,0,0-.8,1.3Z" transform="translate(-185.6 -289.5)"/>
  <path class="cls-3" d="M271.3,495.6l.7-6.6v-.6a.8.8,0,0,0-.2-.5,1,1,0,0,0-.7-.2v-.2h3v.2a1.3,1.3,0,0,0-.8.2,1.4,1.4,0,0,0-.3,1.1l-.5,4.3,3.1-4.7v-.2a.8.8,0,0,0-.2-.5,1.7,1.7,0,0,0-.9-.2v-.2h3.2v.2H277l-.3.2a4.3,4.3,0,0,0-.1.5s-.1.5-.2,1.3-.2,2-.3,3.5l2.5-3.9.5-.8a.9.9,0,0,0,.1-.5c0-.1,0-.2-.1-.2l-.5-.2v-.2H281v.2h-.5l-.6.5-.8,1.1-4,6.2h-.2l.7-6.2-4,6.2Z" transform="translate(-185.6 -289.5)"/>
  <line class="cls-2" x1="85.5" y1="160.2" x2="90.4" y2="163.2"/>
  <line class="cls-2" x1="90.2" y1="157.6" x2="90.4" y2="163.4"/>
</svg>
