<svg xmlns="http://www.w3.org/2000/svg" xmlns:xlink="http://www.w3.org/1999/xlink" viewBox="0 0 490.7 546.5">
  <defs>
    <style>
      .cls-1, .cls-10, .cls-12, .cls-13, .cls-14, .cls-3, .cls-9 {
        fill: none;
      }

      .cls-1, .cls-10, .cls-12, .cls-13, .cls-14, .cls-2, .cls-3, .cls-4, .cls-6, .cls-7, .cls-9 {
        stroke: #1d1d1b;
        stroke-miterlimit: 10;
      }

      .cls-2 {
        fill: url(#linear-gradient);
      }

      .cls-3, .cls-9 {
        opacity: 0.3;
      }

      .cls-11, .cls-4, .cls-5, .cls-7, .cls-8 {
        fill: #1d1d1b;
      }

      .cls-4, .cls-5 {
        opacity: 0.2;
      }

      .cls-6 {
        fill: #c6c6c6;
      }

      .cls-8 {
        opacity: 0.1;
      }

      .cls-10, .cls-9 {
        stroke-width: 0.5px;
      }

      .cls-12, .cls-13 {
        stroke-width: 0.25px;
      }

      .cls-13 {
        stroke-dasharray: 2 2;
      }

      .cls-14 {
        opacity: 0.6;
      }
    </style>
    <linearGradient id="linear-gradient" x1="189.24" y1="0.5" x2="383.02" y2="0.5" gradientUnits="userSpaceOnUse">
      <stop offset="0" stop-color="#fff"/>
      <stop offset="1"/>
    </linearGradient>
  </defs>
  <g id="Layer_1" data-name="Layer 1">
    <path class="cls-1" d="M126,439.4c-.3,1.3,0,94.4,0,141.6v85" transform="translate(-58.8 -260.5)"/>
    <path class="cls-1" d="M126,360v28.1" transform="translate(-58.8 -260.5)"/>
    <path class="cls-1" d="M144,388.6c4.1,1.6,17.9,9.6,18,25.4.1,11.5-7.1,22.1-17.8,25.8" transform="translate(-58.8 -260.5)"/>
    <path class="cls-1" d="M125.7,439.4c-9.3-3.6-17.8-13.5-17.7-25.4.1-15.2,13-23.7,18.8-25.7" transform="translate(-58.8 -260.5)"/>
    <path class="cls-1" d="M144,439.8c.2,2.1,0,150.8,0,226.2" transform="translate(-58.8 -260.5)"/>
    <path class="cls-1" d="M144,360v29.3" transform="translate(-58.8 -260.5)"/>
    <path class="cls-1" d="M234,666a54,54,0,0,1-108,0" transform="translate(-58.8 -260.5)"/>
    <path class="cls-1" d="M216,666a36,36,0,0,1-72,0" transform="translate(-58.8 -260.5)"/>
    <line class="cls-1" x1="157.2" y1="405.5" x2="157.2" y2="27.5"/>
    <line class="cls-1" x1="175.2" y1="405.5" x2="175.2" y2="36.5"/>
    <path class="cls-1" d="M261,292.5" transform="translate(-58.8 -260.5)"/>
    <path class="cls-1" d="M216,288a27,27,0,0,1,27-27" transform="translate(-58.8 -260.5)"/>
    <path class="cls-1" d="M467.2,288a27,27,0,0,0-27-27" transform="translate(-58.8 -260.5)"/>
    <path class="cls-1" d="M234,297a18.1,18.1,0,0,1,18-18" transform="translate(-58.8 -260.5)"/>
    <line class="cls-1" x1="184.2" y1="0.5" x2="193.2" y2="0.5"/>
    <line class="cls-2" x1="383" y1="0.5" x2="189.2" y2="0.5"/>
    <line class="cls-1" x1="382" y1="18.5" x2="193.2" y2="18.5"/>
    <path class="cls-1" d="M276.5,531c-4.3,0-4.3.1-5.3,0a8.9,8.9,0,0,1-5.1-2,6.6,6.6,0,0,1-2.2-4.8V510.8a7.1,7.1,0,0,1,7.3-6.8h53.3" transform="translate(-58.8 -260.5)"/>
    <path class="cls-1" d="M302.3,531H284.9" transform="translate(-58.8 -260.5)"/>
    <path class="cls-1" d="M324.5,531H311.4" transform="translate(-58.8 -260.5)"/>
    <line class="cls-1" x1="226.2" y1="267.1" x2="226.2" y2="346.2"/>
    <path class="cls-1" d="M275.9,527.6v79.1" transform="translate(-58.8 -260.5)"/>
    <path class="cls-3" d="M302.4,597.8v9.8" transform="translate(-58.8 -260.5)"/>
    <path class="cls-1" d="M302.4,527.2v69.4" transform="translate(-58.8 -260.5)"/>
    <path class="cls-3" d="M311.4,597.3v10.3" transform="translate(-58.8 -260.5)"/>
    <path class="cls-1" d="M311.4,527.6v68.6" transform="translate(-58.8 -260.5)"/>
    <path class="cls-1" d="M263.9,522h-7.6c-.7,0-1.4-1.1-1.4-2.4v-4.2c0-1.3.7-2.4,1.4-2.4h7.6" transform="translate(-58.8 -260.5)"/>
    <rect class="cls-1" x="310.3" y="512.7" width="38.3" height="9.7" rx="4.5" transform="translate(-246.7 586.5) rotate(-90)"/>
    <path class="cls-1" d="M334.6,511.6a11,11,0,0,0,9.6-3.2,21.3,21.3,0,0,0,5.1-8.7,15.6,15.6,0,0,1,1.9-3.9,4.6,4.6,0,0,1,3.9-2,4.4,4.4,0,0,1,3.4,2.3,9.3,9.3,0,0,1,1.2,4c1.3,9.8.2,19.7.8,29.5.2,2,.4,4.1-.5,5.9s-3.4,3.1-5.3,2.1a4.9,4.9,0,0,1-1.6-1.6c-2.6-3.7-3.7-8.4-7.2-11.3s-7.7-3.2-12-3.5" transform="translate(-58.8 -260.5)"/>
    <path class="cls-1" d="M327,527.6" transform="translate(-58.8 -260.5)"/>
    <ellipse class="cls-1" cx="221.7" cy="346.2" rx="4.5" ry="1.6"/>
    <path class="cls-1" d="M275.9,527.6c0-.7,2-1.3,4.5-1.3s4.5.6,4.5,1.3" transform="translate(-58.8 -260.5)"/>
    <path class="cls-1" d="M301,598.2c-.5,12.2-1.1,37.2-.7,59,.4,19.5.6,29.4,2.4,37.2,2.5,11.3,9.8,43.6,39.7,59.4,1.6.9,31.1,16,58.4,5,16.1-6.6,20.2-17.8,42-25.6,11-3.8,9.9-4.5,16.2-4.8" transform="translate(-58.8 -260.5)"/>
    <path class="cls-1" d="M313.4,598.1c-2.3,30.6-3.6,60.1-3.1,76.3a95.9,95.9,0,0,0,1.5,16.3c1.9,10.8,6.3,35.2,26.9,50.5,1.2.9,25.6,18.5,51.9,11.7,15.6-4,18-13,38.9-23,14.8-7.1,22-8.8,31.5-9.9" transform="translate(-58.8 -260.5)"/>
    <line class="cls-1" x1="229.2" y1="243.6" x2="229.2" y2="74.6"/>
    <line class="cls-1" x1="238.9" y1="243.6" x2="238.9" y2="77.3"/>
    <path class="cls-1" d="M288,335.1a13,13,0,0,1,13-13" transform="translate(-58.8 -260.5)"/>
    <path class="cls-1" d="M297.6,339.4a8.7,8.7,0,0,1,8.7-8.7" transform="translate(-58.8 -260.5)"/>
    <line class="cls-1" x1="400" y1="36.5" x2="400.2" y2="90.1"/>
    <line class="cls-1" x1="408.5" y1="90.1" x2="408.5" y2="27.5"/>
    <line class="cls-1" x1="242.2" y1="61.6" x2="382.2" y2="61.6"/>
    <line class="cls-1" x1="247.5" y1="70.2" x2="375.7" y2="70.2"/>
    <path class="cls-1" d="M441,322.1c4.1,0,7.4,4.3,7.4,9.6" transform="translate(-58.8 -260.5)"/>
    <line class="cls-1" x1="389.7" y1="90.1" x2="389.7" y2="71.2"/>
    <line class="cls-1" x1="382.2" y1="90.1" x2="382.2" y2="78.9"/>
    <path class="cls-1" d="M440.8,339.4c0-4.8-3.4-8.7-7.5-8.7" transform="translate(-58.8 -260.5)"/>
    <rect class="cls-4" x="327.6" y="382.7" width="145.3" height="0.98"/>
    <path class="cls-5" d="M142,504c0,.4-7,.8-7,.8s-7-.4-7-.8,3.1-.8,7-.8S142,503.6,142,504Z" transform="translate(-58.8 -260.5)"/>
    <ellipse class="cls-6" cx="444.4" cy="467.9" rx="44.1" ry="26.4"/>
    <path class="cls-7" d="M128,674.3" transform="translate(-58.8 -260.5)"/>
    <path class="cls-5" d="M232,568.4c0,.4-3.1.8-7,.8s-7-.4-7-.8,3.1-.8,7-.8S232,568,232,568.4Z" transform="translate(-58.8 -260.5)"/>
    <path class="cls-8" d="M128,568.4V666a52,52,0,1,0,104,0V568.4H218V669c0,19.3-17,34.9-38,34.9s-38-15.6-38-34.9V568.4Z" transform="translate(-58.8 -260.5)"/>
    <path class="cls-9" d="M145.8,395a18.3,18.3,0,0,1,8.5,7.9,21.1,21.1,0,0,1,2.4,12c-.4,3.4-1.8,7.2-2.6,7.1s.1-7-2-14.4a30.8,30.8,0,0,0-8.2-13.6" transform="translate(-58.8 -260.5)"/>
    <path class="cls-9" d="M492.1,399.8c13.1,5.8,20.6,13.4,24.5,18.2.5.7,2.2,2.7,4.2,5.8s7.2,11.8,10.7,26.8c2.8,12.2,2.8,20.1,3.4,20.1s.1-9.5,1-27.6c.6-11.7,1.3-15-1-19.3s-5.9-6.6-15.7-11.5C512.2,408.8,503.1,404.4,492.1,399.8Z" transform="translate(-58.8 -260.5)"/>
    <path class="cls-3" d="M275.9,527.6c0,.7,2,1.3,4.5,1.3s4.5-.6,4.5-1.3" transform="translate(-58.8 -260.5)"/>
    <path class="cls-1" d="M302.4,527.6c0-.7,2-1.3,4.5-1.3s4.5.6,4.5,1.3" transform="translate(-58.8 -260.5)"/>
    <path class="cls-3" d="M302.4,527.6c0,.7,2,1.3,4.5,1.3s4.5-.6,4.5-1.3" transform="translate(-58.8 -260.5)"/>
    <line class="cls-3" x1="252.6" y1="267.1" x2="239.7" y2="246.4"/>
    <line class="cls-3" x1="243.6" y1="267.1" x2="230.9" y2="246.4"/>
    <ellipse class="cls-3" cx="235.3" cy="245.8" rx="4.4" ry="1.1"/>
    <line class="cls-3" x1="217.6" y1="245.6" x2="229.7" y2="267.1"/>
    <line class="cls-3" x1="226.6" y1="245.6" x2="238.7" y2="267.1"/>
    <ellipse class="cls-3" cx="233.7" cy="266.5" rx="4.5" ry="1.3"/>
    <ellipse class="cls-3" cx="222.2" cy="246.2" rx="4.5" ry="1.3"/>
    <path class="cls-1" d="M125.9,360c0-.9,4.1-1.6,9.1-1.6s9,.7,9,1.6" transform="translate(-58.8 -260.5)"/>
    <path class="cls-3" d="M311.4,607.6c0,.9-2,1.6-4.5,1.6s-4.5-.7-4.5-1.6,2-1.6,4.5-1.6S311.4,606.7,311.4,607.6Z" transform="translate(-58.8 -260.5)"/>
    <path class="cls-1" d="M458.8,297a18.1,18.1,0,0,0-18-18" transform="translate(-58.8 -260.5)"/>
    <path class="cls-1" d="M301,598.1c0-1.2,2.8-2.1,6.2-2.1s6.2.9,6.2,2.1" transform="translate(-58.8 -260.5)"/>
    <path class="cls-1" d="M302.2,593.6" transform="translate(-58.8 -260.5)"/>
    <line class="cls-10" x1="39.2" y1="448.3" x2="62.2" y2="423.5"/>
    <line class="cls-10" x1="282.3" y1="131.1" x2="259.2" y2="237.8"/>
    <line class="cls-10" x1="384.6" y1="527.1" x2="406" y2="494.3"/>
    <g>
      <path class="cls-11" d="M434.7,523.6l1.7-.7h.2v1.3a4.9,4.9,0,0,1,.8-1,1.6,1.6,0,0,1,.9-.3,1.8,1.8,0,0,1,1.4.6,3.2,3.2,0,0,1,.6,2,3,3,0,0,1-.8,2.3,2.1,2.1,0,0,1-1.6.8h-.8l-.5-.4v1.6c0,.4,0,.6.1.7s.1.2.2.3h.6v.2h-2.8v-.2h.1a1.1,1.1,0,0,0,.6-.2c.1,0,.1-.1.2-.2V524a.2.2,0,0,0-.2-.2h-.6Zm1.9.9v2a2,2,0,0,0,.1.9.7.7,0,0,0,.4.6,1.5,1.5,0,0,0,.8.2,1,1,0,0,0,.9-.4,2.9,2.9,0,0,0,.5-1.7,2.7,2.7,0,0,0-.6-1.9,1,1,0,0,0-.8-.5l-.6.2Z" transform="translate(-58.8 -260.5)"/>
      <path class="cls-11" d="M444.2,527.6l-1.1.8h-.7a1.2,1.2,0,0,1-.9-.4,1.3,1.3,0,0,1-.3-1,1.3,1.3,0,0,1,.1-.6,3.6,3.6,0,0,1,.9-.8l2-.8v-.2a1.7,1.7,0,0,0-.3-1.2.9.9,0,0,0-.7-.3.8.8,0,0,0-.6.2.6.6,0,0,0-.2.5v.3a.8.8,0,0,1-.2.5h-.7a.7.7,0,0,1-.1-.5,1.1,1.1,0,0,1,.5-.9,2,2,0,0,1,1.4-.4l1.2.2c.2.2.4.3.5.6a2.5,2.5,0,0,1,.1,1v1.9c0,.5,0,.8.1.9v.2h.4a1.2,1.2,0,0,0,.4-.4v.3q-.6.9-1.2.9c-.2,0-.4,0-.5-.2S444.2,528,444.2,527.6Zm0-.3v-2.1l-1.2.5a1.7,1.7,0,0,0-.6.6c-.2.1-.2.3-.2.6a.8.8,0,0,0,.2.7.7.7,0,0,0,.6.2A1.9,1.9,0,0,0,444.2,527.3Z" transform="translate(-58.8 -260.5)"/>
      <path class="cls-11" d="M448.3,522.9v4.3c0,.3,0,.6.1.7a.2.2,0,0,0,.2.2h.5v.2h-2.6v-.2h.5a.2.2,0,0,0,.2-.2c.1-.1.1-.4.1-.7V524l-.2-.3h-.6v-.3l1.6-.6Zm-.5-2.8c.2,0,.3,0,.4.2a.5.5,0,0,1,.2.4.8.8,0,0,1-.2.4l-.4.2-.4-.2-.2-.4a.5.5,0,0,1,.2-.4C447.5,520.1,447.6,520.1,447.8,520.1Z" transform="translate(-58.8 -260.5)"/>
      <path class="cls-11" d="M451.3,524a3,3,0,0,1,1.8-1.1l.8.2a1.8,1.8,0,0,1,.5.7,3.4,3.4,0,0,1,.1,1.1v2.3a5.6,5.6,0,0,0,.1.7c.1.1.1.2.2.2h.5v.2h-2.6v-.2h.6c.1-.1.2-.2.2-.3s.1-.3.1-.6V525a3.1,3.1,0,0,0-.2-1.1.9.9,0,0,0-.7-.3,2.3,2.3,0,0,0-1.4.8v2.8a3.5,3.5,0,0,0,.1.7c.1.1.1.2.2.2h.6v.2h-2.6v-.2h.1l.5-.2a1.3,1.3,0,0,0,.2-.8v-2a3.5,3.5,0,0,0-.1-1.2.4.4,0,0,0-.1-.3h-.6v-.3l1.6-.6h.2Z" transform="translate(-58.8 -260.5)"/>
      <path class="cls-11" d="M456.7,525.1a2.4,2.4,0,0,0,.6,1.8,1.5,1.5,0,0,0,1.3.7,1.7,1.7,0,0,0,1-.3,2.9,2.9,0,0,0,.6-1l.2.2a2.7,2.7,0,0,1-.7,1.4,1.8,1.8,0,0,1-1.5.7,2.3,2.3,0,0,1-1.7-.8,3,3,0,0,1-.7-2,2.9,2.9,0,0,1,.8-2.1,1.9,1.9,0,0,1,1.7-.8,2,2,0,0,1,1.5.6,2.1,2.1,0,0,1,.6,1.6Zm0-.4h2.5c-.1-.3-.1-.6-.2-.7a1,1,0,0,0-.4-.5l-.6-.2a1.2,1.2,0,0,0-.9.4A1.5,1.5,0,0,0,456.7,524.7Z" transform="translate(-58.8 -260.5)"/>
      <path class="cls-11" d="M464.1,527.6a7.8,7.8,0,0,1-1,.8h-.7a1.2,1.2,0,0,1-.9-.4,1.3,1.3,0,0,1-.3-1,1.3,1.3,0,0,1,.1-.6,3.6,3.6,0,0,1,.9-.8l1.9-.8v-.2c0-.6,0-1-.2-1.2a1,1,0,0,0-.8-.3l-.5.2c-.2.2-.3.3-.3.5v.3a.7.7,0,0,1-.1.5h-.7a.7.7,0,0,1-.1-.5,1.1,1.1,0,0,1,.5-.9,2,2,0,0,1,1.4-.4l1.2.2c.2.2.4.3.5.6a2.5,2.5,0,0,1,.1,1v2.8a.3.3,0,0,1,.1.2h.4a1.2,1.2,0,0,0,.4-.4v.3q-.6.9-1.2.9c-.2,0-.4,0-.5-.2A1,1,0,0,1,464.1,527.6Zm0-.3v-2.1l-1.1.5-.7.6a.8.8,0,0,0-.2.6.9.9,0,0,0,.3.7.7.7,0,0,0,.6.2A1.5,1.5,0,0,0,464.1,527.3Z" transform="translate(-58.8 -260.5)"/>
      <path class="cls-11" d="M469.9,522.9v1.8h-.2a2,2,0,0,0-.6-1.2,1.2,1.2,0,0,0-.9-.3.7.7,0,0,0-.6.3.5.5,0,0,0-.3.4,1.1,1.1,0,0,0,.2.6c.1.2.4.3.8.5l.8.4a1.8,1.8,0,0,1,1.2,1.6,1.4,1.4,0,0,1-.6,1.1,1.7,1.7,0,0,1-1.2.5l-1.1-.2h-.3a.2.2,0,0,0-.2.2h-.2v-1.9h.2a2.3,2.3,0,0,0,.6,1.2,1.3,1.3,0,0,0,1,.4.8.8,0,0,0,.7-.2,1,1,0,0,0-.1-1.3,3.2,3.2,0,0,0-1.1-.6,3.8,3.8,0,0,1-1.1-.8,1.2,1.2,0,0,1-.3-.9,1.5,1.5,0,0,1,1.7-1.5h1.3c0-.1.1-.1.1-.2Z" transform="translate(-58.8 -260.5)"/>
      <path class="cls-11" d="M472.7,521.3v1.8h1.2v.4h-1.2v3.4c0,.4,0,.6.1.7s.2.2.4.2h.4c.1-.1.2-.2.2-.3h.3l-.6.8a1.3,1.3,0,0,1-.8.3h-.5a1,1,0,0,1-.4-.5,1.7,1.7,0,0,1-.1-.8v-3.6h-.9v-.2a1.8,1.8,0,0,0,.7-.5l.6-.7.4-.8Z" transform="translate(-58.8 -260.5)"/>
      <path class="cls-11" d="M476.3,522.9v4.3c0,.3,0,.6.1.7a.2.2,0,0,0,.2.2h.5v.2h-2.6v-.2h.5a.2.2,0,0,0,.2-.2c.1-.1.1-.4.1-.7V524l-.2-.3h-.6v-.3l1.6-.6Zm-.5-2.8c.2,0,.3,0,.4.2a.5.5,0,0,1,.2.4.8.8,0,0,1-.2.4l-.4.2-.4-.2-.2-.4a.5.5,0,0,1,.2-.4C475.5,520.1,475.6,520.1,475.8,520.1Z" transform="translate(-58.8 -260.5)"/>
      <path class="cls-11" d="M480.8,527.6a7.8,7.8,0,0,1-1,.8h-.7a1,1,0,0,1-.9-.4,1.1,1.1,0,0,1-.4-1,1.4,1.4,0,0,1,.2-.6,3,3,0,0,1,.8-.8l2-.8v-.2a2.9,2.9,0,0,0-.2-1.2,1.1,1.1,0,0,0-.8-.3l-.6.2c-.1.2-.2.3-.2.5v.3a.7.7,0,0,1-.1.5h-.7a.8.8,0,0,1-.2-.5,1.4,1.4,0,0,1,.5-.9,2.4,2.4,0,0,1,1.5-.4l1.2.2c.2.2.4.3.5.6s.1.5.1,1v2.8a.3.3,0,0,0,.1.2h.3c.1,0,.3-.1.5-.4v.3a1.7,1.7,0,0,1-1.3.9c-.2,0-.3,0-.4-.2A1,1,0,0,1,480.8,527.6Zm0-.3v-2.1l-1.1.5a2.2,2.2,0,0,0-.7.6.8.8,0,0,0-.2.6.9.9,0,0,0,.3.7c.1.2.3.2.5.2A1.9,1.9,0,0,0,480.8,527.3Z" transform="translate(-58.8 -260.5)"/>
    </g>
    <g>
      <path class="cls-11" d="M448.3,540.1l-.4,1.4a5.6,5.6,0,0,1,1.1-1.1,2.3,2.3,0,0,1,1.1-.3,1.8,1.8,0,0,1,.9.4,2,2,0,0,1,.3,1.1,3.9,3.9,0,0,1-1,2.6,3.1,3.1,0,0,1-2.5,1.4h-.5l-.5-.2-.4,1.5a3.9,3.9,0,0,0-.2.6c0,.1.1.1.1.2h.8v.2h-2.8v-.2a1,1,0,0,0,.7-.2,1.9,1.9,0,0,0,.4-.9l1.5-5.1a2.8,2.8,0,0,0,.1-.6c0-.2,0-.2-.1-.3s-.1-.1-.2-.1h-.5v-.3Zm-1.4,4.7a1.4,1.4,0,0,0,1,.5l.6-.2a1.8,1.8,0,0,0,.7-.5,5.6,5.6,0,0,0,.5-.8,3,3,0,0,0,.4-1,2.5,2.5,0,0,0,.2-1.2.8.8,0,0,0-.2-.7.5.5,0,0,0-.5-.3,1.7,1.7,0,0,0-1.2.8,2.8,2.8,0,0,0-.9,1.7Z" transform="translate(-58.8 -260.5)"/>
      <path class="cls-11" d="M454.1,544.7a.8.8,0,0,1,.7.4,1.6,1.6,0,0,1,.3,1.1,6.8,6.8,0,0,1-.2,1.4,6.7,6.7,0,0,1-.6,1.2l-.7.6h-.5a.8.8,0,0,1-.7-.4,1.6,1.6,0,0,1-.3-1.1,4.5,4.5,0,0,1,.3-1.6,2.8,2.8,0,0,1,.9-1.4A1.1,1.1,0,0,1,454.1,544.7Zm0,.2h-.4c-.2.1-.3.4-.4.7a5.9,5.9,0,0,0-.5,1.3,11.1,11.1,0,0,0-.2,1.7.7.7,0,0,0,.1.5l.4.2.4-.2a3.3,3.3,0,0,0,.6-1.2,9.3,9.3,0,0,0,.5-2.4.8.8,0,0,0-.2-.5C454.3,544.9,454.2,544.9,454.1,544.9Z" transform="translate(-58.8 -260.5)"/>
      <path class="cls-11" d="M459.2,544.6v-2.9h-2.9v-.5h2.9v-2.9h.5v2.9h2.9v.5h-2.9v2.9Z" transform="translate(-58.8 -260.5)"/>
      <path class="cls-11" d="M468.9,540.1l-.4,1.4a5.6,5.6,0,0,1,1.1-1.1,2.3,2.3,0,0,1,1.1-.3,1.8,1.8,0,0,1,.9.4,2,2,0,0,1,.3,1.1,3.9,3.9,0,0,1-1,2.6,3.1,3.1,0,0,1-2.5,1.4h-.5l-.5-.2-.4,1.5a3.9,3.9,0,0,0-.2.6c0,.1.1.1.1.2h.8v.2h-2.8v-.2l.7-.2a1.9,1.9,0,0,0,.4-.9l1.5-5.1a2.8,2.8,0,0,0,.1-.6c0-.2,0-.2-.1-.3s-.1-.1-.2-.1h-.5v-.3Zm-1.4,4.7a1.4,1.4,0,0,0,1,.5l.6-.2.7-.5a5.6,5.6,0,0,0,.5-.8,3,3,0,0,0,.4-1,2.5,2.5,0,0,0,.2-1.2,1.4,1.4,0,0,0-.2-.7.5.5,0,0,0-.5-.3,1.7,1.7,0,0,0-1.2.8,3.7,3.7,0,0,0-1,1.7Z" transform="translate(-58.8 -260.5)"/>
      <path class="cls-11" d="M475.2,544.7l-1.1,3.8a1.3,1.3,0,0,0-.1.5c0,.1,0,.2.1.2h-1c.1-.1.2-.1.2-.2a.8.8,0,0,0,.2-.6l.8-2.7a.8.8,0,0,0,.1-.3h0v-.2h-.5l1.1-.3Z" transform="translate(-58.8 -260.5)"/>
    </g>
    <rect class="cls-8" x="69.2" y="243.5" width="14.1" height="64.42"/>
    <g>
      <line class="cls-12" x1="34" y1="242.7" x2="35" y2="242.7"/>
      <line class="cls-13" x1="37" y1="242.7" x2="127.8" y2="242.7"/>
      <line class="cls-12" x1="128.8" y1="242.7" x2="129.8" y2="242.7"/>
    </g>
    <g>
      <line class="cls-12" x1="94.3" y1="307.1" x2="95.3" y2="307.1"/>
      <line class="cls-13" x1="97.3" y1="307.1" x2="188.1" y2="307.1"/>
      <line class="cls-12" x1="189.1" y1="307.1" x2="190.1" y2="307.1"/>
    </g>
    <g>
      <line class="cls-10" x1="121.2" y1="245.7" x2="121.2" y2="266.5"/>
      <path class="cls-11" d="M180,503.2a14,14,0,0,1-2.4,4.3l2.4-.9,2.4.9A14,14,0,0,1,180,503.2Z" transform="translate(-58.8 -260.5)"/>
    </g>
    <g>
      <line class="cls-10" x1="121.2" y1="303.4" x2="121.2" y2="282.4"/>
      <path class="cls-11" d="M180,566.9a14,14,0,0,1,2.4-4.3l-2.4.9-2.4-.9A14,14,0,0,1,180,566.9Z" transform="translate(-58.8 -260.5)"/>
    </g>
    <g>
      <path class="cls-11" d="M181.2,530.9l-.3,1.8h-.3a1.9,1.9,0,0,0-.3-1.2.9.9,0,0,0-.7-.3c-.3,0-.5,0-.6.2s-.2.3-.2.5a.4.4,0,0,0,.1.3.9.9,0,0,0,.3.5,6.4,6.4,0,0,1,1,1.3,1.1,1.1,0,0,1,.2.8,1.1,1.1,0,0,1-.5,1,1.4,1.4,0,0,1-1.3.5l-.9-.2h-.3c-.2,0-.3.1-.4.3h-.2l.3-1.9h.2a3.3,3.3,0,0,0,.4,1.3,1.2,1.2,0,0,0,.9.3.8.8,0,0,0,.7-.2.9.9,0,0,0,.3-.6c0-.2,0-.3-.1-.4a4.6,4.6,0,0,0-.7-1,4.6,4.6,0,0,1-.7-1,1.3,1.3,0,0,1-.1-.6,1,1,0,0,1,.4-.9,1.4,1.4,0,0,1,1.1-.4h1.1a.4.4,0,0,0,.4-.2Z" transform="translate(-58.8 -260.5)"/>
      <path class="cls-11" d="M184.5,535.4l-1.1,3.9a1.1,1.1,0,0,0-.1.5.3.3,0,0,0,.1.2h.4v.2H182V540h.4a.2.2,0,0,0,.2-.2.8.8,0,0,0,.2-.5l.8-2.8a.4.4,0,0,0,.1-.3h0c0-.1,0-.1-.1-.2h-.5l1.2-.4Z" transform="translate(-58.8 -260.5)"/>
    </g>
    <g>
      <path class="cls-11" d="M148.4,306.8h6l-.6,2.1h-.2c0-.3.1-.6.1-.8a.6.6,0,0,0-.3-.6c-.1-.2-.5-.2-1-.2h-.6l-1.6,5.5a6.3,6.3,0,0,0-.3,1.2.5.5,0,0,0,.2.4h.9v.3h-3.4v-.3h.8l.3-.4a5.3,5.3,0,0,0,.4-1.1l1.6-5.6h-.4c-.5,0-.9,0-1.1.2a1.8,1.8,0,0,0-.7.5,1.9,1.9,0,0,0-.4.9h-.3Z" transform="translate(-58.8 -260.5)"/>
      <path class="cls-11" d="M155.7,314a.9.9,0,0,1,.8.4,1.6,1.6,0,0,1,.3,1.1,5.9,5.9,0,0,1-.2,1.4,3.5,3.5,0,0,1-.7,1.2,1.7,1.7,0,0,1-.6.6h-.5a1.1,1.1,0,0,1-.8-.3,2.1,2.1,0,0,1-.3-1.2,5,5,0,0,1,.3-1.6,8.5,8.5,0,0,1,.9-1.4A1.3,1.3,0,0,1,155.7,314Zm0,.2-.4.2-.4.6a10.4,10.4,0,0,0-.4,1.3,5.6,5.6,0,0,0-.2,1.7.7.7,0,0,0,.1.5c.1.2.2.2.4.2h.3a3.2,3.2,0,0,0,.7-1.3,8.6,8.6,0,0,0,.5-2.4.8.8,0,0,0-.2-.5A.5.5,0,0,0,155.7,314.2Z" transform="translate(-58.8 -260.5)"/>
      <path class="cls-11" d="M164.7,309.5l-.4,1.3a3.5,3.5,0,0,1,1.2-1,1.7,1.7,0,0,1,1-.3,1.2,1.2,0,0,1,.9.4,1.5,1.5,0,0,1,.3,1,4.3,4.3,0,0,1-1,2.7,3,3,0,0,1-2.5,1.3h-.5l-.5-.2-.4,1.5a1.8,1.8,0,0,0-.1.6v.2l.3.2h.6v.2h-2.8v-.2a1,1,0,0,0,.7-.2c.2-.1.3-.4.4-.9l1.5-5.1.2-.6c0-.1-.1-.2-.1-.3h-.8v-.2Zm-1.3,4.6a1.1,1.1,0,0,0,.9.5l.7-.2.6-.5a2.2,2.2,0,0,0,.5-.8,3,3,0,0,0,.4-1,2.5,2.5,0,0,0,.2-1.2.8.8,0,0,0-.2-.7c-.1-.2-.3-.2-.5-.2a1.5,1.5,0,0,0-1.2.7,4.6,4.6,0,0,0-.9,1.7Z" transform="translate(-58.8 -260.5)"/>
      <path class="cls-11" d="M170.5,314a.8.8,0,0,1,.7.4,1.6,1.6,0,0,1,.3,1.1,5.9,5.9,0,0,1-.2,1.4,3.4,3.4,0,0,1-.6,1.2,1.9,1.9,0,0,1-.7.6h-.5a.9.9,0,0,1-.7-.3,2.1,2.1,0,0,1-.3-1.2,5,5,0,0,1,.3-1.6,3.4,3.4,0,0,1,.9-1.4A1.1,1.1,0,0,1,170.5,314Zm0,.2-.4.2a1.5,1.5,0,0,0-.4.6,4,4,0,0,0-.4,1.3,6.1,6.1,0,0,0-.3,1.7c0,.2,0,.4.2.5s.2.2.3.2h.4a5,5,0,0,0,.7-1.3,8,8,0,0,0,.4-2.4.7.7,0,0,0-.1-.5Z" transform="translate(-58.8 -260.5)"/>
    </g>
    <path class="cls-3" d="M126,360c0,.9,4,1.6,9,1.6s9-.7,9-1.6" transform="translate(-58.8 -260.5)"/>
  </g>
  <g id="Layer_3" data-name="Layer 3">
    <g>
      <path class="cls-11" d="M64.4,728.8v-.2h2.8v.2h-.3a1,1,0,0,0-.7.4c-.1.1-.1.4-.1.9v3.2a7.4,7.4,0,0,1-.2,1.8,2.3,2.3,0,0,1-1,1.2,4.7,4.7,0,0,1-3.8,0,2.3,2.3,0,0,1-1-1.2,8.1,8.1,0,0,1-.2-2V730a1.4,1.4,0,0,0-.2-.9.6.6,0,0,0-.6-.3h-.3v-.2h3.4v.2h-.3a.8.8,0,0,0-.7.3,2,2,0,0,0-.2.9v3.5c0,.3.1.6.1,1a6.2,6.2,0,0,0,.3,1,1.8,1.8,0,0,0,.7.5,1.6,1.6,0,0,0,1,.2,3.2,3.2,0,0,0,1.4-.3,1.4,1.4,0,0,0,.8-.9,3.6,3.6,0,0,0,.3-1.8V730a1.4,1.4,0,0,0-.2-.9.9.9,0,0,0-.7-.3Z" transform="translate(-58.8 -260.5)"/>
      <path class="cls-11" d="M67.8,733.4h3.1v.9H67.8Z" transform="translate(-58.8 -260.5)"/>
      <path class="cls-11" d="M71.3,731.7l1.7-.6h.2v1.2a3,3,0,0,1,.9-1,1.1,1.1,0,0,1,.8-.3,1.6,1.6,0,0,1,1.4.7,3.2,3.2,0,0,1,.6,2,3.5,3.5,0,0,1-.7,2.3,2.2,2.2,0,0,1-1.7.7h-.8l-.5-.4v1.7c0,.3,0,.6.1.7a.2.2,0,0,0,.2.2h.6v.2H71.3v-.2H72l.2-.2v-6.5a.3.3,0,0,0-.1-.2h-.7Zm1.9,1v2c0,.4,0,.7.1.8s.2.4.4.6a1.1,1.1,0,0,0,.8.3,1.1,1.1,0,0,0,.9-.5,2.6,2.6,0,0,0,.5-1.7,3.6,3.6,0,0,0-.5-1.9,1.2,1.2,0,0,0-.9-.4h-.6A4.3,4.3,0,0,0,73.2,732.7Z" transform="translate(-58.8 -260.5)"/>
      <path class="cls-11" d="M82.4,731.2v3.2a10.5,10.5,0,0,0,.1,1.2c0,.1.1.2.1.3h.7v.2l-1.6.6h-.2v-1.1a3.5,3.5,0,0,1-1.1.9,1.1,1.1,0,0,1-.8.2l-.7-.2a1.2,1.2,0,0,1-.5-.7,4.1,4.1,0,0,1-.1-1.2v-2.4a.7.7,0,0,0-.1-.5c-.1-.1-.1-.2-.2-.2h-.6v-.2h1.9v3.6c0,.5,0,.8.2,1l.6.2.6-.2.8-.6v-3a.8.8,0,0,0-.2-.6,1,1,0,0,0-.7-.2v-.2Z" transform="translate(-58.8 -260.5)"/>
      <path class="cls-11" d="M85.3,729.4v1.8h1.2v.4H85.3v3.5c0,.3,0,.6.1.7l.4.2a.5.5,0,0,0,.4-.2c.1,0,.2-.2.3-.3h.2a1.5,1.5,0,0,1-.6.9l-.7.2h-.6l-.4-.4c0-.2-.1-.5-.1-.9v-3.6h-.8v-.2l.6-.4a1.6,1.6,0,0,0,.6-.8,1.9,1.9,0,0,0,.4-.8Z" transform="translate(-58.8 -260.5)"/>
      <path class="cls-11" d="M88.7,728.2v5.4l1.3-1.3c.3-.2.5-.4.5-.5h.1a.3.3,0,0,0-.1-.2h-.3v-.2h2.3v.2h-.8l-.7.5-1.4,1.3L91,735c.4.5.6.8.8.9a1,1,0,0,0,.5.4h.5v.3H90.2v-.3h.3v-.2c0-.1,0-.2-.2-.4l-1.6-2.1V736l.2.3h.6v.3H86.8v-.3h.6a.2.2,0,0,0,.2-.2c.1-.1.1-.3.1-.6v-4.9a2.5,2.5,0,0,0-.1-1.1c0-.2,0-.3-.1-.3h-.6v-.2l1.6-.7Z" transform="translate(-58.8 -260.5)"/>
      <path class="cls-11" d="M94.9,731v4.3c0,.4,0,.6.1.7s.1.2.2.3h.5v.3H93.1v-.3h.6l.2-.3v-3.9a.3.3,0,0,0-.1-.2h-.7v-.2l1.7-.7Zm-.5-2.8.5.2a.6.6,0,0,1,.1.4c0,.2,0,.3-.1.4a.6.6,0,0,1-.5.2.4.4,0,0,1-.4-.2.5.5,0,0,1-.2-.4l.2-.4Z" transform="translate(-58.8 -260.5)"/>
    </g>
    <g>
      <path class="cls-11" d="M313.2,379.1v5.4l1.3-1.3c.3-.3.5-.4.5-.5h.1c0-.1,0-.2-.1-.2h-.3v-.2H317v.2h-.8l-.7.5-1.4,1.3,1.4,1.7c.4.5.6.8.8.9l.5.4h.5v.2h-2.6v-.2h.3c0-.1.1-.1.1-.2s-.1-.2-.3-.4l-1.6-2.1v2.4l.3.3h.5v.2h-2.7v-.2h.6a.2.2,0,0,0,.2-.2c.1-.1.1-.3.1-.6v-6.1c-.1-.1-.1-.2-.2-.2s-.1-.1-.2-.1h-.4v-.2l1.6-.7Z" transform="translate(-58.8 -260.5)"/>
      <path class="cls-11" d="M320.6,386.7l-1,.7-.7.2a1.3,1.3,0,0,1-.9-.4,1.8,1.8,0,0,1-.4-1,1.4,1.4,0,0,1,.2-.7,3.6,3.6,0,0,1,.9-.8l1.9-.8v-.2a2.3,2.3,0,0,0-.2-1.1,1,1,0,0,0-.8-.3.7.7,0,0,0-.6.2.8.8,0,0,0-.2.4v.4c0,.2,0,.3-.1.4H318a.8.8,0,0,1-.2-.4,1.2,1.2,0,0,1,.6-1,2.6,2.6,0,0,1,1.4-.4,2.1,2.1,0,0,1,1.2.3l.5.5a2.8,2.8,0,0,1,.1,1.1v2.7c0,.1.1.2.1.3h.3a2.3,2.3,0,0,0,.5-.5v.4q-.6.9-1.2.9l-.5-.2A1.4,1.4,0,0,1,320.6,386.7Zm0-.4v-2.1l-1.1.5-.7.6a1.4,1.4,0,0,0-.2.6.9.9,0,0,0,.3.7.6.6,0,0,0,.6.3C319.8,386.9,320.1,386.7,320.6,386.3Z" transform="translate(-58.8 -260.5)"/>
      <path class="cls-11" d="M324.5,379.1v5.4l1.4-1.3.5-.5h0c0-.1,0-.2-.1-.2H326v-.2h2.3v.2h-.8l-.7.5-1.3,1.3,1.3,1.7.8.9.5.4h.5v.2H326v-.2h.3c.1-.1.1-.1.1-.2s-.1-.2-.3-.4l-1.6-2.1v1.7c0,.4,0,.6.1.7s.1.2.2.3h.6v.2h-2.8v-.2h.7a.3.3,0,0,0,.1-.2c.1-.1.1-.3.1-.6V380h-.7v-.2l1.6-.7Z" transform="translate(-58.8 -260.5)"/>
      <path class="cls-11" d="M332.4,381.9v1.9h-.2a3.3,3.3,0,0,0-.6-1.2,1.2,1.2,0,0,0-.9-.3c-.2,0-.5,0-.6.2a.5.5,0,0,0-.3.5.8.8,0,0,0,.2.5,1.3,1.3,0,0,0,.7.5l.9.5a1.7,1.7,0,0,1,1.2,1.5,1.4,1.4,0,0,1-.6,1.2,1.6,1.6,0,0,1-1.2.4,2.3,2.3,0,0,1-1.1-.2h-.8v-1.9h.2a3.2,3.2,0,0,0,.7,1.3,1.8,1.8,0,0,0,1,.4.9.9,0,0,0,.7-.3.8.8,0,0,0,.2-.5.9.9,0,0,0-.3-.7l-1.1-.7a3.8,3.8,0,0,1-1.1-.8,1.1,1.1,0,0,1-.3-.8,1.4,1.4,0,0,1,.5-1.1,1.7,1.7,0,0,1,1.2-.5l.7.2h.6a.3.3,0,0,1,.1-.2Z" transform="translate(-58.8 -260.5)"/>
      <path class="cls-11" d="M335.4,381.9v4.3a3.5,3.5,0,0,0,.1.7l.2.3h.5v.2h-2.6v-.2h.6l.2-.3a3.5,3.5,0,0,0,.1-.7v-2c0-.6-.1-1-.1-1.2a.3.3,0,0,0-.1-.2h-.7v-.2l1.6-.7Zm-.5-2.8.5.2c.1.1.1.2.1.4s0,.3-.1.4l-.5.2-.4-.2c-.1-.1-.1-.2-.1-.4s0-.3.1-.4Z" transform="translate(-58.8 -260.5)"/>
      <path class="cls-11" d="M338.5,380.3v1.8h1.2v.4h-1.2V386c0,.3,0,.6.1.7l.4.2.4-.2c.1,0,.2-.2.3-.3h.2a1,1,0,0,1-.6.8,1.1,1.1,0,0,1-.8.3H338c-.2-.1-.3-.3-.4-.4a2.2,2.2,0,0,1-.1-.9v-3.6h-.8v-.2l.6-.4.6-.8a5.6,5.6,0,0,0,.4-.8Z" transform="translate(-58.8 -260.5)"/>
      <path class="cls-11" d="M342.1,381.9v4.3c0,.4,0,.6.1.7s.1.2.2.3h.5v.2h-2.6v-.2h.5l.3-.3V383l-.2-.2c0-.1-.1-.1-.2-.1h-.4v-.2l1.6-.7Zm-.5-2.8a.5.5,0,0,1,.4.2c.2.1.2.2.2.4s0,.3-.2.4l-.4.2-.4-.2a.6.6,0,0,1,.4-1Z" transform="translate(-58.8 -260.5)"/>
      <path class="cls-11" d="M344.5,384.1a2.9,2.9,0,0,0,.6,1.9,1.9,1.9,0,0,0,1.3.7,1.7,1.7,0,0,0,1-.3,4.4,4.4,0,0,0,.6-1h.2a3.4,3.4,0,0,1-.7,1.5,2,2,0,0,1-1.5.6,2.3,2.3,0,0,1-1.7-.7,3.3,3.3,0,0,1-.6-2.1,2.8,2.8,0,0,1,.7-2.1,2.1,2.1,0,0,1,1.7-.8,2,2,0,0,1,1.5.6,2.1,2.1,0,0,1,.6,1.6Zm0-.3H347a1.5,1.5,0,0,0-.2-.8.7.7,0,0,0-.4-.5l-.6-.2a1.8,1.8,0,0,0-.9.4A1.8,1.8,0,0,0,344.5,383.8Z" transform="translate(-58.8 -260.5)"/>
      <path class="cls-11" d="M348.6,382.1h2.6v.2h-.6c0,.1-.1.2-.1.3a1.7,1.7,0,0,0,.2.5l1.2,3,1.3-3.1a4.3,4.3,0,0,1,.1-.5c0-.1,0-.1-.1-.1s-.1-.1-.1-.2h-.4v-.2h1.7v.2H354a1.5,1.5,0,0,0-.4.6l-1.9,4.6h-.2l-1.9-4.5-.3-.5-.3-.2h-.4Z" transform="translate(-58.8 -260.5)"/>
      <path class="cls-11" d="M355.8,384.1a2.9,2.9,0,0,0,.6,1.9,1.9,1.9,0,0,0,1.4.7,1.6,1.6,0,0,0,.9-.3,2.4,2.4,0,0,0,.6-1h.2a3.4,3.4,0,0,1-.7,1.5,2,2,0,0,1-1.5.6,2,2,0,0,1-1.6-.7,3.5,3.5,0,0,1,0-4.2,2.3,2.3,0,0,1,1.8-.8,1.7,1.7,0,0,1,1.4.6,2.1,2.1,0,0,1,.6,1.6Zm0-.3h2.5c0-.4-.1-.6-.1-.8a1.2,1.2,0,0,0-.5-.5l-.6-.2a1.2,1.2,0,0,0-.8.4A1.9,1.9,0,0,0,355.8,383.8Z" transform="translate(-58.8 -260.5)"/>
      <path class="cls-11" d="M361.8,383.1a2.4,2.4,0,0,1,1.8-1.2l.8.2a2.8,2.8,0,0,1,.5.8c0,.2.1.6.1,1v2.3c0,.4,0,.6.1.7s.1.2.2.3h.5v.2h-2.6v-.2h.6l.2-.3V384a1.5,1.5,0,0,0-.2-1,.7.7,0,0,0-.6-.4,2.1,2.1,0,0,0-1.4.8v2.8c0,.4,0,.6.1.7s.1.2.2.3h.6v.2H360v-.2h.1c.3,0,.5,0,.6-.2s.1-.4.1-.8v-3.1a.4.4,0,0,0-.1-.3H360v-.2l1.6-.7h.3Z" transform="translate(-58.8 -260.5)"/>
      <path class="cls-11" d="M367.8,380.3v1.8H369v.4h-1.2V386c0,.3,0,.6.1.7l.4.2a.5.5,0,0,0,.4-.2c.1,0,.2-.2.3-.3h.2a1,1,0,0,1-.6.8,1.1,1.1,0,0,1-.7.3h-.6c-.1-.1-.3-.3-.3-.4a2,2,0,0,1-.2-.9v-3.6H366v-.2l.6-.4a1.6,1.6,0,0,0,.6-.8,1.9,1.9,0,0,0,.4-.8Z" transform="translate(-58.8 -260.5)"/>
      <path class="cls-11" d="M371.1,380.3v1.8h1.3v.4h-1.3V386a1.2,1.2,0,0,0,.2.7.5.5,0,0,0,.4.2l.3-.2a.3.3,0,0,0,.3-.3h.2a1.2,1.2,0,0,1-.5.8,1.3,1.3,0,0,1-.8.3h-.5c-.2-.1-.3-.3-.4-.4a2.2,2.2,0,0,1-.1-.9v-3.6h-.9v-.2l.7-.4.6-.8a2.2,2.2,0,0,0,.3-.8Z" transform="translate(-58.8 -260.5)"/>
      <path class="cls-11" d="M374.8,381.9v5l.2.3h.6v.2H373v-.2h.5c.1-.1.2-.2.2-.3s.1-.3.1-.7v-2a3.5,3.5,0,0,0-.1-1.2c0-.1,0-.2-.1-.2H373v-.2l1.6-.7Zm-.5-2.8.4.2a.5.5,0,0,1,0,.8l-.4.2-.5-.2c-.1-.1-.1-.2-.1-.4s0-.3.1-.4Z" transform="translate(-58.8 -260.5)"/>
      <path class="cls-11" d="M378.1,381.9v4.3c0,.4,0,.6.1.7s.1.2.2.3h.5v.2h-2.6v-.2h.5c.1-.1.2-.2.2-.3s.1-.3.1-.7V383l-.2-.2c0-.1-.1-.1-.2-.1h-.4v-.2l1.6-.7Zm-.5-2.8a.6.6,0,0,1,.4,1l-.4.2a.6.6,0,0,1,0-1.2Z" transform="translate(-58.8 -260.5)"/>
      <path class="cls-11" d="M381.4,379.1v7.1c0,.4,0,.6.1.7s.1.2.2.3h.6v.2h-2.6v-.2h.5l.2-.3V380h-.6v-.2l1.6-.7Z" transform="translate(-58.8 -260.5)"/>
      <path class="cls-11" d="M384.8,381.9v5l.2.3h.6v.2H383v-.2h.5c.1-.1.2-.2.2-.3s.1-.3.1-.7v-2a3.5,3.5,0,0,0-.1-1.2c0-.1,0-.2-.1-.2H383v-.2l1.6-.7Zm-.5-2.8.4.2a.5.5,0,0,1,0,.8l-.4.2-.4-.2c-.2-.1-.2-.2-.2-.4s0-.3.1-.4Z" transform="translate(-58.8 -260.5)"/>
    </g>
    <g>
      <path class="cls-11" d="M413.4,796.1v5.3l1.4-1.2c.2-.3.4-.5.5-.5v-.2a.3.3,0,0,0-.1-.2h-.3V799h2.3v.2l-.8.2-.7.5-1.4,1.2,1.4,1.8.8.9c.2.2.3.3.5.3h.5v.2h-2.6v-.2h.4a.9.9,0,0,0-.3-.5l-1.6-2.1v1.8c0,.4,0,.6.1.7a.2.2,0,0,0,.2.2h.6v.2h-2.8v-.2h.6a.2.2,0,0,0,.2-.2c.1-.1.1-.3.1-.7v-6l-.2-.3h-.6v-.2l1.6-.6Z" transform="translate(-58.8 -260.5)"/>
      <path class="cls-11" d="M420.8,803.6a7.8,7.8,0,0,1-1,.8h-.7a1.2,1.2,0,0,1-.9-.4,1.3,1.3,0,0,1-.3-1,1.3,1.3,0,0,1,.1-.6,2.4,2.4,0,0,1,.9-.8l1.9-.8v-.3c0-.5,0-.9-.2-1.1a1,1,0,0,0-.8-.3l-.5.2c-.2.2-.3.3-.3.5v.3a.7.7,0,0,1-.1.5h-.7a.9.9,0,0,1-.1-.5,1.1,1.1,0,0,1,.5-.9,2,2,0,0,1,1.4-.4l1.2.2a1,1,0,0,1,.5.6,2.5,2.5,0,0,1,.1,1v2.8a.3.3,0,0,1,.1.2h.4l.4-.4v.3q-.6.9-1.2.9c-.2,0-.4,0-.5-.2A1,1,0,0,1,420.8,803.6Zm-1.7-7c.2,0,.3,0,.4.2a.5.5,0,0,1,.2.4c0,.2-.1.3-.2.5h-.9c-.1-.2-.2-.3-.2-.5a.5.5,0,0,1,.2-.4C418.7,796.6,418.9,796.6,419.1,796.6Zm1.7,6.7v-2.1l-1.1.5-.7.5a1.4,1.4,0,0,0-.2.7,1.1,1.1,0,0,0,.3.7.7.7,0,0,0,.6.2A2.1,2.1,0,0,0,420.8,803.3Zm.3-6.7c.2,0,.4,0,.5.2a.5.5,0,0,1,.2.4c0,.2-.1.3-.2.5h-.9c-.1-.2-.2-.3-.2-.5a.5.5,0,0,1,.2-.4A.4.4,0,0,1,421.1,796.6Z" transform="translate(-58.8 -260.5)"/>
      <path class="cls-11" d="M426.6,798.9v1.8h-.2a2,2,0,0,0-.6-1.2,1.2,1.2,0,0,0-.9-.3l-.6.2a.9.9,0,0,0-.3.5,1.4,1.4,0,0,0,.2.6c.1.2.4.3.8.5l.8.4q1.2.6,1.2,1.5a1.4,1.4,0,0,1-.6,1.2,1.7,1.7,0,0,1-1.2.5l-1.1-.2h-.3a.2.2,0,0,0-.2.2h-.2v-1.9h.2a2.3,2.3,0,0,0,.6,1.2,1.3,1.3,0,0,0,1,.4.8.8,0,0,0,.7-.2,1.4,1.4,0,0,0,.2-.6,1.1,1.1,0,0,0-.3-.7l-1.1-.7a2.6,2.6,0,0,1-1.1-.7,1.2,1.2,0,0,1-.3-.9,1.5,1.5,0,0,1,1.7-1.5h1.3c0-.1.1-.1.1-.2Z" transform="translate(-58.8 -260.5)"/>
      <path class="cls-11" d="M429.6,798.9v4.3a5.6,5.6,0,0,0,.1.7c.1.1.1.2.2.2h.6v.2h-2.6v-.2h.5c.1,0,.1-.1.2-.2a5.6,5.6,0,0,0,.1-.7v-2.1a2.8,2.8,0,0,0-.1-1.1.4.4,0,0,0-.1-.3h-.6v-.3l1.6-.6Zm-.4-2.8a.4.4,0,0,1,.4.2.5.5,0,0,1,.2.4l-.2.4-.4.2-.5-.2a.6.6,0,0,1-.1-.4c0-.2,0-.3.1-.4A.6.6,0,0,1,429.2,796.1Z" transform="translate(-58.8 -260.5)"/>
      <path class="cls-11" d="M430.7,799.6l1.7-.7h.2v1.3a3,3,0,0,1,.9-1,1.1,1.1,0,0,1,.8-.3,1.8,1.8,0,0,1,1.4.6,3.2,3.2,0,0,1,.6,2,3,3,0,0,1-.8,2.3,1.9,1.9,0,0,1-1.6.8h-.8l-.5-.4v1.6c0,.4,0,.6.1.7s.1.2.2.3h.6v.2h-2.8v-.2h.2l.5-.2c.1,0,.1-.1.2-.2V800a.2.2,0,0,0-.2-.2h-.6Zm1.9.9v2a2.2,2.2,0,0,0,.1.9c0,.2.2.4.4.6l.8.2a1,1,0,0,0,.9-.4,2.9,2.9,0,0,0,.5-1.7,3.3,3.3,0,0,0-.5-1.9,1.4,1.4,0,0,0-.9-.5l-.6.2Z" transform="translate(-58.8 -260.5)"/>
      <path class="cls-11" d="M441.8,799v3.3a2.5,2.5,0,0,0,.1,1.1.4.4,0,0,0,.1.3h.7v.2l-1.6.7h-.2v-1.2c-.5.5-.8.9-1.1,1l-.8.2a.9.9,0,0,1-.7-.3,1.2,1.2,0,0,1-.5-.7,3.1,3.1,0,0,1-.1-1.1v-2.4a2,2,0,0,0-.1-.5c-.1-.1-.1-.2-.3-.3h-.5V799h1.8v3.6c0,.5.1.9.3,1a.9.9,0,0,0,.6.3l.6-.2.8-.6v-3a1,1,0,0,0-.2-.7H440V799Z" transform="translate(-58.8 -260.5)"/>
      <path class="cls-11" d="M444.7,800l.7-.6.6-.4h.6a1.6,1.6,0,0,1,.9.3,1.2,1.2,0,0,1,.4.8l1.1-.9.8-.2.8.2a1.8,1.8,0,0,1,.5.7,3.4,3.4,0,0,1,.1,1.1v2.3a5.6,5.6,0,0,0,.1.7c0,.1.1.1.2.2h.5v.2h-2.6v-.2h.6c.1-.1.2-.2.2-.3a3.5,3.5,0,0,0,.1-.6v-2.3a1.7,1.7,0,0,0-.2-.9.8.8,0,0,0-.7-.4h-.7l-.7.6h0v3.5l.3.2h.6v.2h-2.8v-.2h.7l.2-.3v-2.9a1.5,1.5,0,0,0-.2-1,.9.9,0,0,0-.7-.3h-.6a2.8,2.8,0,0,0-.8.6v2.9c0,.4,0,.6.1.7a.2.2,0,0,0,.2.2h.6v.2h-2.7v-.2h.6c.1,0,.1-.1.2-.2a5.6,5.6,0,0,0,.1-.7v-2.1c0-.5-.1-.9-.1-1.1s-.1-.2-.1-.3h-.7v-.3l1.6-.6h.2Z" transform="translate(-58.8 -260.5)"/>
      <path class="cls-11" d="M452.1,799.6l1.6-.7h.3v1.3a2.1,2.1,0,0,1,.8-1,1.6,1.6,0,0,1,2.2.3,2.7,2.7,0,0,1,.7,2,3.4,3.4,0,0,1-.8,2.3,2.3,2.3,0,0,1-1.7.8h-.7a1,1,0,0,1-.5-.4v2.3c.1.1.1.2.3.3h.6v.2H452v-.2h.2l.5-.2a.2.2,0,0,0,.2-.2c.1-.1.1-.3.1-.7v-5.1c0-.3,0-.5-.1-.6s0-.2-.1-.2h-.7Zm1.9.9v2.9l.4.6.8.2a1.3,1.3,0,0,0,1-.4,2.9,2.9,0,0,0,.4-1.7,2.7,2.7,0,0,0-.5-1.9,1.4,1.4,0,0,0-.9-.5l-.6.2C454.5,799.9,454.3,800.2,454,800.5Z" transform="translate(-58.8 -260.5)"/>
      <path class="cls-11" d="M458.1,799.6l1.6-.7h.3v1.3a2.1,2.1,0,0,1,.8-1,1.6,1.6,0,0,1,2.2.3,2.7,2.7,0,0,1,.7,2,3.4,3.4,0,0,1-.8,2.3,2.3,2.3,0,0,1-1.7.8h-.7a1,1,0,0,1-.5-.4v2.3c.1.1.1.2.3.3h.6v.2H458v-.2h.2l.5-.2a.2.2,0,0,0,.2-.2c.1-.1.1-.3.1-.7v-5.1c0-.3,0-.5-.1-.6s0-.2-.1-.2h-.7Zm1.9.9v2.9l.4.6.8.2a1.3,1.3,0,0,0,1-.4,2.9,2.9,0,0,0,.4-1.7,2.7,2.7,0,0,0-.5-1.9,1.4,1.4,0,0,0-.9-.5l-.6.2C460.5,799.9,460.3,800.2,460,800.5Z" transform="translate(-58.8 -260.5)"/>
      <path class="cls-11" d="M469.2,799v4.4c0,.2.1.3.2.3h.6v.2l-1.6.7h-.3v-1.2c-.5.5-.8.9-1.1,1l-.7.2a1.1,1.1,0,0,1-.8-.3,1.8,1.8,0,0,1-.5-.7c0-.2-.1-.6-.1-1.1v-2.4c0-.3,0-.4-.1-.5s-.1-.2-.2-.3h-.6V799H466v3.6a1.9,1.9,0,0,0,.2,1,.9.9,0,0,0,.7.3l.5-.2a2.1,2.1,0,0,0,.8-.6v-3a1,1,0,0,0-.2-.7h-.7V799Z" transform="translate(-58.8 -260.5)"/>
    </g>
  </g>
  <g id="Layer_2" data-name="Layer 2">
    <path class="cls-14" d="M477,369" transform="translate(-58.8 -260.5)"/>
    <path class="cls-14" d="M441,369" transform="translate(-58.8 -260.5)"/>
    <path class="cls-14" d="M441,360" transform="translate(-58.8 -260.5)"/>
    <path class="cls-14" d="M441,333" transform="translate(-58.8 -260.5)"/>
    <path class="cls-14" d="M548.9,440.7v.4h0V623.8A24.2,24.2,0,0,1,524.8,648H393.2A24.2,24.2,0,0,1,369,623.8V440.7c0-24.7,9-26.7,44.7-44.7h.3l18-9" transform="translate(-58.8 -260.5)"/>
    <path class="cls-14" d="M486,387l18,9h-.1C540,414,549,414,549,441.1" transform="translate(-58.8 -260.5)"/>
    <line class="cls-14" x1="373.2" y1="126.5" x2="373.2" y2="117.5"/>
    <line class="cls-14" x1="427.2" y1="126.5" x2="427.2" y2="117.5"/>
    <line class="cls-14" x1="373.2" y1="117.5" x2="427.2" y2="117.5"/>
    <line class="cls-14" x1="378.1" y1="117.5" x2="373.2" y2="90.1"/>
    <line class="cls-14" x1="421.9" y1="117.5" x2="427.2" y2="90.6"/>
    <line class="cls-14" x1="373.2" y1="90.1" x2="427.2" y2="90.1"/>
  </g>
</svg>
