<svg id="Layer_1" data-name="Layer 1" xmlns="http://www.w3.org/2000/svg" xmlns:xlink="http://www.w3.org/1999/xlink" viewBox="0 0 216.9 233.6">
  <defs>
    <style>
      .cls-1, .cls-10, .cls-11, .cls-3, .cls-4, .cls-5, .cls-7, .cls-8, .cls-9 {
        fill: none;
        stroke-miterlimit: 10;
      }

      .cls-1, .cls-10, .cls-11, .cls-5 {
        stroke: #1d1d1b;
      }

      .cls-2 {
        fill: #1d1d1b;
      }

      .cls-3, .cls-7, .cls-8, .cls-9 {
        stroke: #f39200;
      }

      .cls-3, .cls-4 {
        stroke-width: 0.75px;
      }

      .cls-4 {
        stroke: #e6332a;
      }

      .cls-5, .cls-7, .cls-8, .cls-9 {
        stroke-width: 0.5px;
      }

      .cls-6 {
        opacity: 0.2;
        fill: url(#Orange_Yellow);
      }

      .cls-8 {
        stroke-dasharray: 2 2;
      }

      .cls-9 {
        stroke-dasharray: 1.94 1.94;
      }

      .cls-10, .cls-11 {
        stroke-width: 0.25px;
      }

      .cls-11 {
        stroke-dasharray: 1.97 1.97;
      }
    </style>
    <linearGradient id="Orange_Yellow" data-name="Orange, Yellow" x1="82.32" y1="198" x2="136.32" y2="198" gradientUnits="userSpaceOnUse">
      <stop offset="0" stop-color="#ffef26"/>
      <stop offset="0.02" stop-color="#ffea21"/>
      <stop offset="0.1" stop-color="#fed70f"/>
      <stop offset="0.19" stop-color="#fdcc04"/>
      <stop offset="0.28" stop-color="#fdc800"/>
      <stop offset="0.67" stop-color="#f18f34"/>
      <stop offset="0.89" stop-color="#e95f32"/>
      <stop offset="1" stop-color="#e3312d"/>
    </linearGradient>
  </defs>
  <g>
    <line class="cls-1" x1="19.3" y1="4.1" x2="19.3" y2="216"/>
    <path class="cls-2" d="M144,365l1.8,1.1h0l-1.1-2.9c-.2-1.1-.5-2.1-.7-3.1-.2,1-.5,2-.7,3.1l-1.1,2.9h0Z" transform="translate(-124.7 -360)"/>
  </g>
  <g>
    <line class="cls-1" x1="195.2" y1="216" x2="19.3" y2="216"/>
    <path class="cls-2" d="M319,576l-1.1,1.8h.1l2.9-1.1,3.1-.7-3.1-.7-2.9-1.1h-.1Z" transform="translate(-124.7 -360)"/>
  </g>
  <path class="cls-2" d="M128.7,372.1l-.5,1.3,1.2-1a1.9,1.9,0,0,1,1-.3,1,1,0,0,1,.9.4,1.8,1.8,0,0,1,.4,1.1,4.5,4.5,0,0,1-1.1,2.6,3,3,0,0,1-2.4,1.3h-.5c-.2-.1-.4-.1-.5-.3l-.5,1.6a1.3,1.3,0,0,0-.1.5.4.4,0,0,0,.1.3h.8v.3h-2.7v-.3h.8c.1-.1.2-.5.4-.9l1.5-5.2a3.5,3.5,0,0,1,.1-.6c0-.1,0-.2-.1-.2h-.8v-.2Zm-1.4,4.7a1.2,1.2,0,0,0,1,.4.7.7,0,0,0,.6-.2,1.3,1.3,0,0,0,.6-.5,1.8,1.8,0,0,0,.5-.7,3.7,3.7,0,0,0,.5-1.1,3.6,3.6,0,0,0,.2-1.1,1.2,1.2,0,0,0-.2-.7l-.5-.3a1.6,1.6,0,0,0-1.3.7,5.6,5.6,0,0,0-.9,1.7Z" transform="translate(-124.7 -360)"/>
  <path class="cls-2" d="M307.8,593.6l.7-6.6v-.7a.6.6,0,0,0-.2-.5h-.8v-.2h3.1v.2h-.7c-.1,0-.2.2-.3.3a3.5,3.5,0,0,0-.1.7l-.5,4.8,3.1-4.2.7-1c0-.1.1-.2.1-.3s-.1-.2-.2-.3h-.5v-.2h2.4v.2h-.4l-.7.4-1,1.3-4.5,6.1Z" transform="translate(-124.7 -360)"/>
  <path class="cls-3" d="M157.1,368.4C171,522,163.6,556.6,324,560.1" transform="translate(-124.7 -360)"/>
  <path class="cls-4" d="M175.3,373.5C193.1,476.9,199.5,546,324,549.7" transform="translate(-124.7 -360)"/>
  <g>
    <path class="cls-2" d="M333.4,544.4h6l-.6,2.1h-.3a2.5,2.5,0,0,0,.1-.8.8.8,0,0,0-.2-.7,2.2,2.2,0,0,0-1-.2h-.7l-1.5,5.5a6.6,6.6,0,0,0-.3,1.3.6.6,0,0,0,.1.4h1v.2h-3.4v-.2h.9l.3-.4.4-1.1,1.6-5.7h-.5l-1.1.2a1.5,1.5,0,0,0-.6.5,3.1,3.1,0,0,0-.5,1h-.2Z" transform="translate(-124.7 -360)"/>
    <path class="cls-2" d="M340.7,556.3h-2.3a15.3,15.3,0,0,0,2.3-2.4,1.6,1.6,0,0,0,.3-.9,1.4,1.4,0,0,0-.2-.6l-.6-.2a1,1,0,0,0-.8.5h-.1a1.8,1.8,0,0,1,.5-.7l.7-.2a1.1,1.1,0,0,1,.8.3.9.9,0,0,1,.3.7c0,.2-.1.4-.1.6l-.6.9-1.8,1.7h1.6l.3-.3h.1Z" transform="translate(-124.7 -360)"/>
  </g>
  <g>
    <path class="cls-2" d="M332.8,559.5h6l-.6,2.1h-.3a3.1,3.1,0,0,0,.2-.8.9.9,0,0,0-.3-.7h-1.7l-1.5,5.4a8.7,8.7,0,0,0-.3,1.3c0,.2,0,.3.2.4h.9v.2h-3.4v-.2h.9l.3-.4.4-1.1,1.6-5.6h-1.6c-.2.2-.5.3-.6.6a1.9,1.9,0,0,0-.5.9h-.2Z" transform="translate(-124.7 -360)"/>
    <path class="cls-2" d="M340.6,566.7l-1.1,3.8a2,2,0,0,1-.1.5c0,.1,0,.2.1.2h-1l.3-.2a3.9,3.9,0,0,1,.2-.6l.8-2.7c0-.2,0-.3.1-.3h0a.3.3,0,0,0-.1-.2c0-.1-.1-.1-.2-.1h-.3l1.2-.3Z" transform="translate(-124.7 -360)"/>
  </g>
  <g>
    <line class="cls-5" x1="82.3" y1="138" x2="82.3" y2="180"/>
    <path class="cls-2" d="M207,495a14,14,0,0,1-2.4,4.3l2.4-.9,2.4.9A14,14,0,0,1,207,495Z" transform="translate(-124.7 -360)"/>
  </g>
  <g>
    <line class="cls-5" x1="135.1" y1="180" x2="82.3" y2="180"/>
    <path class="cls-2" d="M262.8,540a14,14,0,0,1-4.3-2.4l.9,2.4-.9,2.4A14,14,0,0,1,262.8,540Z" transform="translate(-124.7 -360)"/>
  </g>
  <g>
    <line class="cls-5" x1="84.2" y1="225" x2="100.3" y2="225"/>
    <path class="cls-2" d="M205.8,585a14,14,0,0,1,4.3,2.4l-.9-2.4.9-2.4A14,14,0,0,1,205.8,585Z" transform="translate(-124.7 -360)"/>
  </g>
  <g>
    <path class="cls-2" d="M232.6,588.5h-5.9l3.1-6.8Zm-1.2-.4-1.9-4.7-2.2,4.7Z" transform="translate(-124.7 -360)"/>
    <path class="cls-2" d="M234.7,588.6l.5-5.5v-.5c0-.2,0-.3-.1-.4l-.5-.2h1.8c-.1.1-.2.2-.2.3s-.1.3-.1.6l-.4,4,2.6-3.6.5-.8c0-.1.1-.1.1-.2a.2.2,0,0,0-.2-.2c0-.1-.2-.1-.4-.2h1.6l-.5.4a3.8,3.8,0,0,0-.8,1.1l-3.8,5Z" transform="translate(-124.7 -360)"/>
  </g>
  <g>
    <line class="cls-5" x1="133.9" y1="225.4" x2="117.7" y2="225.4"/>
    <path class="cls-2" d="M261.6,585.4a16.1,16.1,0,0,1-4.3-2.3l.9,2.3-.9,2.4A19.9,19.9,0,0,1,261.6,585.4Z" transform="translate(-124.7 -360)"/>
  </g>
  <g>
    <line class="cls-5" x1="9.8" y1="138" x2="9.8" y2="152.3"/>
    <path class="cls-2" d="M134.5,495a14,14,0,0,1-2.4,4.3l2.4-.9,2.4.9A14,14,0,0,1,134.5,495Z" transform="translate(-124.7 -360)"/>
  </g>
  <g>
    <line class="cls-5" x1="9.8" y1="178.2" x2="9.8" y2="167.2"/>
    <path class="cls-2" d="M134.5,541.2a14,14,0,0,1,2.4-4.3l-2.4.9-2.4-.9A14,14,0,0,1,134.5,541.2Z" transform="translate(-124.7 -360)"/>
  </g>
  <g>
    <path class="cls-2" d="M134.9,521.9H129l3.1-6.8Zm-1.1-.4-2-4.7-2.1,4.7Z" transform="translate(-124.7 -360)"/>
    <path class="cls-2" d="M137.7,517.5l-.4,1.1,1-.9.8-.2a1.1,1.1,0,0,1,.8.3,1.2,1.2,0,0,1,.3.9,3.5,3.5,0,0,1-.9,2.2,2.7,2.7,0,0,1-2,1.1h-.5l-.4-.2-.3,1.2a1.3,1.3,0,0,0-.1.5v.2h-1.6l.6-.2a2.7,2.7,0,0,0,.4-.8l1.2-4.2a1.8,1.8,0,0,0,.1-.5c0-.1,0-.2-.1-.2s-.1-.1-.2-.1H136v-.2Zm-1.2,3.9a1.1,1.1,0,0,0,.8.3h.6l.5-.4a4.3,4.3,0,0,0,.4-.7,2,2,0,0,0,.4-.8,3.4,3.4,0,0,0,.1-1c0-.3,0-.5-.1-.6l-.4-.2a1.5,1.5,0,0,0-1.1.6,3.7,3.7,0,0,0-.7,1.4Z" transform="translate(-124.7 -360)"/>
  </g>
  <rect class="cls-6" x="82.3" y="180" width="54" height="36"/>
  <path class="cls-2" d="M230.5,562.2l.8-7v-.7a.8.8,0,0,0-.2-.5l-.7-.2v-.3h3.2v.3a1.3,1.3,0,0,0-.8.2c-.2.2-.3.5-.3,1.2l-.5,4.5,3.2-4.9v-.3a.8.8,0,0,0-.2-.5,1.4,1.4,0,0,0-.9-.2v-.3h3.4v.3h-.8c-.1,0-.1.1-.2.2s-.1.3-.2.5a13.6,13.6,0,0,1-.1,1.5c-.1.9-.3,2.1-.4,3.6l2.6-4,.6-1a.8.8,0,0,0,.1-.4c0-.2,0-.3-.1-.3a.8.8,0,0,0-.6-.2v-.3h2.5v.3h-.6a1.7,1.7,0,0,0-.6.6,3.5,3.5,0,0,0-.9,1.2l-4.2,6.5h-.3l.7-6.5-4.2,6.5Z" transform="translate(-124.7 -360)"/>
  <g>
    <line class="cls-7" x1="82.3" y1="216" x2="82.3" y2="215"/>
    <line class="cls-8" x1="82.3" y1="213" x2="82.3" y2="182"/>
    <line class="cls-7" x1="82.3" y1="181" x2="82.3" y2="180"/>
  </g>
  <g>
    <line class="cls-7" x1="136.3" y1="216" x2="136.3" y2="215"/>
    <line class="cls-9" x1="136.3" y1="213.1" x2="136.3" y2="183"/>
    <line class="cls-7" x1="136.3" y1="182" x2="136.3" y2="181"/>
  </g>
  <g>
    <line class="cls-10" x1="82.3" y1="135" x2="81.3" y2="135"/>
    <line class="cls-11" x1="79.4" y1="135" x2="21.3" y2="135"/>
    <line class="cls-10" x1="20.3" y1="135" x2="19.3" y2="135"/>
  </g>
  <g>
    <line class="cls-10" x1="82.3" y1="180" x2="81.3" y2="180"/>
    <line class="cls-11" x1="79.4" y1="180" x2="21.3" y2="180"/>
    <line class="cls-10" x1="20.3" y1="180" x2="19.3" y2="180"/>
  </g>
</svg>
