<svg xmlns="http://www.w3.org/2000/svg" viewBox="0 0 444.4 466.9">
  <defs>
    <style>
      .cls-1, .cls-10, .cls-11, .cls-12, .cls-14, .cls-3, .cls-5, .cls-6, .cls-7, .cls-8, .cls-9 {
        fill: none;
      }

      .cls-1, .cls-10, .cls-11, .cls-12, .cls-14, .cls-2, .cls-3, .cls-5, .cls-6, .cls-7, .cls-8, .cls-9 {
        stroke: #1d1d1b;
        stroke-miterlimit: 10;
      }

      .cls-2 {
        fill: #fff;
      }

      .cls-3, .cls-9 {
        stroke-width: 0.5px;
      }

      .cls-13, .cls-4 {
        fill: #1d1d1b;
      }

      .cls-5, .cls-6, .cls-7 {
        stroke-width: 0.75px;
      }

      .cls-5 {
        opacity: 0.3;
      }

      .cls-12, .cls-6 {
        opacity: 0.4;
      }

      .cls-13, .cls-14, .cls-8 {
        opacity: 0.2;
      }

      .cls-9 {
        opacity: 0.6;
      }

      .cls-10 {
        opacity: 0.5;
      }

      .cls-11, .cls-14 {
        stroke-width: 3px;
      }
    </style>
  </defs>
  <g id="Layer_1" data-name="Layer 1">
    <path class="cls-1" d="M411,184V373" transform="translate(-113.2 -26.2)"/>
    <path class="cls-1" d="M411,102.5v78.8" transform="translate(-113.2 -26.2)"/>
    <path class="cls-1" d="M411,57V96.3" transform="translate(-113.2 -26.2)"/>
    <path class="cls-1" d="M415.7,183.6V373" transform="translate(-113.2 -26.2)"/>
    <path class="cls-1" d="M415.7,98.8v82.4" transform="translate(-113.2 -26.2)"/>
    <path class="cls-1" d="M415.7,57V96.3" transform="translate(-113.2 -26.2)"/>
    <line class="cls-1" x1="297.8" y1="337.8" x2="198.8" y2="337.8"/>
    <line class="cls-1" x1="302.5" y1="337.8" x2="333.8" y2="337.8"/>
    <line class="cls-1" x1="351.8" y1="355.8" x2="333.8" y2="337.8"/>
    <line class="cls-1" x1="198.8" y1="337.8" x2="180.8" y2="355.8"/>
    <line class="cls-1" x1="351.8" y1="355.8" x2="180.8" y2="355.8"/>
    <line class="cls-1" x1="180.8" y1="355.8" x2="180.8" y2="360.3"/>
    <line class="cls-1" x1="351.8" y1="360.3" x2="180.8" y2="360.3"/>
    <line class="cls-1" x1="351.8" y1="355.8" x2="351.8" y2="360.3"/>
    <path class="cls-1" d="M410.7,57a3.7,3.7,0,0,1,5,0" transform="translate(-113.2 -26.2)"/>
    <path class="cls-2" d="M409.3,184.1a3.8,3.8,0,0,0-1,.3,4.1,4.1,0,0,0-1.2,1.9c-.2.5-.3,1.2.1,1.5l.4.2,5.1,2a19.4,19.4,0,0,0,.7-2.2,8.1,8.1,0,0,0,.1-2.2c-.1-1-.2-3.3-1.8-2.6S410.2,183.8,409.3,184.1Z" transform="translate(-113.2 -26.2)"/>
    <path class="cls-1" d="M415.8,180.7a4.5,4.5,0,0,0,2-.4l.3-.2c.2-.1.2-.3.3-.5s.1-1.2-.3-1.4a.7.7,0,0,0-.6-.2h-2.1" transform="translate(-113.2 -26.2)"/>
    <line class="cls-3" x1="260.4" y1="78.9" x2="358.6" y2="131.6"/>
    <g>
      <path class="cls-4" d="M480,149.9a2.3,2.3,0,0,1,1.9.9,2.4,2.4,0,0,1,.7,1.8,4.2,4.2,0,0,1-.4,1.5,2,2,0,0,1-.9,1.1,2.3,2.3,0,0,1-1.4.4,2.2,2.2,0,0,1-1.9-1,2.8,2.8,0,0,1-.6-1.8,2.8,2.8,0,0,1,.4-1.5,2.4,2.4,0,0,1,.9-1.1A2.8,2.8,0,0,1,480,149.9Zm-.2.4a.7.7,0,0,0-.6.2,1,1,0,0,0-.5.6,2.2,2.2,0,0,0-.2,1.2,4.2,4.2,0,0,0,.4,2c.4.6.8.9,1.3.9a1.2,1.2,0,0,0,.9-.5,2.4,2.4,0,0,0,.4-1.6,3.9,3.9,0,0,0-.6-2.3A1.6,1.6,0,0,0,479.8,150.3Z" transform="translate(-113.2 -26.2)"/>
      <path class="cls-4" d="M483,150.6l1.6-.7h.2v1.3a3,3,0,0,1,.9-1l.9-.3a1.8,1.8,0,0,1,1.3.6,3.2,3.2,0,0,1,.7,2,3.4,3.4,0,0,1-.8,2.3,2.3,2.3,0,0,1-1.7.8h-.7l-.6-.4v1.6a3.5,3.5,0,0,0,.1.7l.2.3h.7v.2h-2.9v-.2h.2l.5-.2.2-.2c.1-.1.1-.3.1-.7v-5.1c0-.3,0-.5-.1-.6v-.2H483Zm1.8.9v2c0,.4.1.7.1.9l.4.6.8.2a1.3,1.3,0,0,0,1-.4,2.9,2.9,0,0,0,.4-1.7,3.3,3.3,0,0,0-.5-1.9,1.4,1.4,0,0,0-.9-.5l-.6.2Z" transform="translate(-113.2 -26.2)"/>
      <path class="cls-4" d="M490.9,148.3V150h1.3v.5h-1.3v3.4a1,1,0,0,0,.2.7c.1.2.2.2.3.2h.4l.3-.4h.2a1.9,1.9,0,0,1-.5.9l-.8.3h-.5a1,1,0,0,1-.4-.5,1.5,1.5,0,0,1-.2-.8v-3.6h-.8v-.2l.7-.5.6-.7c0-.2.2-.4.3-.8Z" transform="translate(-113.2 -26.2)"/>
      <path class="cls-4" d="M494.5,149.9v4.3a5.6,5.6,0,0,0,.1.7c.1.1.1.2.2.2h.6v.2h-2.7v-.2h.6l.2-.2a5.6,5.6,0,0,0,.1-.7v-2.1a3.1,3.1,0,0,0-.1-1.1c0-.1-.1-.2-.1-.3h-.7v-.3l1.6-.6Zm-.4-2.8a.4.4,0,0,1,.4.2c.1.1.1.2.1.4a.6.6,0,0,1-.1.4l-.4.2-.5-.2a.6.6,0,0,1-.1-.4c0-.2,0-.3.1-.4S493.9,147.1,494.1,147.1Z" transform="translate(-113.2 -26.2)"/>
      <path class="cls-4" d="M497.6,151a2.6,2.6,0,0,1,1.8-1.1l.7.2a1.2,1.2,0,0,1,.5.7,3.1,3.1,0,0,1,.2,1.1v2.3c0,.3,0,.6.1.7l.2.2h.5v.2h-2.7v-.2h.7l.2-.3V152a3.1,3.1,0,0,0-.2-1.1.6.6,0,0,0-.6-.3,1.9,1.9,0,0,0-1.4.8v2.8c0,.4,0,.6.1.7l.2.2h.6v.2h-2.7v-.2h.1l.6-.2c.1-.1.1-.4.1-.8V151l-.2-.3h-.6v-.3l1.6-.6h.3Z" transform="translate(-113.2 -26.2)"/>
      <path class="cls-4" d="M502.9,152.1a2.4,2.4,0,0,0,.6,1.8,1.7,1.7,0,0,0,1.4.7l.9-.3a2,2,0,0,0,.7-1v.2a2.1,2.1,0,0,1-.7,1.4,1.8,1.8,0,0,1-1.5.7,2.1,2.1,0,0,1-1.6-.8,2.7,2.7,0,0,1-.7-2,2.8,2.8,0,0,1,.7-2.1,2.2,2.2,0,0,1,1.8-.8,2,2,0,0,1,1.5.6,2.5,2.5,0,0,1,.5,1.6Zm0-.4h2.5a5.6,5.6,0,0,0-.1-.7l-.4-.5-.7-.2a.9.9,0,0,0-.8.4A1.6,1.6,0,0,0,502.9,151.7Z" transform="translate(-113.2 -26.2)"/>
      <path class="cls-4" d="M508.9,151a2.6,2.6,0,0,1,1.8-1.1l.8.2.5.7a3.4,3.4,0,0,1,.1,1.1v2.3c0,.3,0,.6.1.7a.2.2,0,0,0,.2.2h.5v.2h-2.6v-.2h.6l.2-.3V152a1.8,1.8,0,0,0-.2-1.1.6.6,0,0,0-.6-.3,2.1,2.1,0,0,0-1.4.8v2.8c0,.4,0,.6.1.7l.2.2h.6v.2h-2.7v-.2h.1l.6-.2c.1-.1.1-.4.1-.8V151c0-.1-.1-.2-.1-.3h-.7v-.3l1.7-.6h.2Z" transform="translate(-113.2 -26.2)"/>
      <path class="cls-4" d="M479.2,161.5v7.1c0,.3,0,.6.1.7a.2.2,0,0,0,.2.2h.6v.2h-2.7v-.2h.5l.3-.2v-7h-.7v-.2l1.6-.6Z" transform="translate(-113.2 -26.2)"/>
      <path class="cls-4" d="M483.7,169l-1,.8H482a1,1,0,0,1-.9-.4,1.3,1.3,0,0,1-.4-1,1.4,1.4,0,0,1,.2-.6,2.4,2.4,0,0,1,.9-.8l1.9-.8V166a2.7,2.7,0,0,0-.2-1.1,1,1,0,0,0-.8-.3l-.6.2c-.1.2-.2.3-.2.5v.3a.7.7,0,0,1-.1.5h-.7a.8.8,0,0,1-.2-.5,1.2,1.2,0,0,1,.6-.9,2,2,0,0,1,1.4-.4l1.2.2c.2.2.4.3.5.6a2.5,2.5,0,0,1,.1,1v3h.3l.5-.4v.3q-.6.9-1.2.9c-.2,0-.4,0-.5-.2A1,1,0,0,1,483.7,169Zm0-.3v-2.1l-1.1.5-.7.6a.8.8,0,0,0-.2.6,1.1,1.1,0,0,0,.3.7c.1.2.3.2.6.2A1.7,1.7,0,0,0,483.7,168.7Z" transform="translate(-113.2 -26.2)"/>
      <path class="cls-4" d="M489.5,164.3v1.8h-.2a2.7,2.7,0,0,0-.6-1.2,1.2,1.2,0,0,0-.9-.3.7.7,0,0,0-.6.3.5.5,0,0,0-.3.4,1.1,1.1,0,0,0,.2.6c.1.2.4.3.7.5l.9.4q1.2.6,1.2,1.5a1.4,1.4,0,0,1-.6,1.2,1.7,1.7,0,0,1-1.2.5l-1.1-.2h-.3l-.3.2h-.2V168h.2a3.5,3.5,0,0,0,.7,1.2,1.3,1.3,0,0,0,1,.4.8.8,0,0,0,.7-.2,1.4,1.4,0,0,0,.2-.6,1.1,1.1,0,0,0-.3-.7l-1.1-.7a2.6,2.6,0,0,1-1.1-.7,1.2,1.2,0,0,1-.3-.9,1.5,1.5,0,0,1,1.7-1.5h1.3v-.2Z" transform="translate(-113.2 -26.2)"/>
      <path class="cls-4" d="M492.3,161.5v5.3l1.3-1.2.5-.5v-.4h-.3v-.2h2.3v.2l-.8.2-.7.5-1.4,1.2,1.4,1.8c.4.5.6.8.8.9s.3.3.5.3h.5v.2h-2.6v-.2h.4a.9.9,0,0,0-.3-.5l-1.6-2.1v2.5l.3.2h.5v.2h-2.7v-.2h.6a.2.2,0,0,0,.2-.2c.1-.1.1-.3.1-.7v-6l-.2-.3h-.6v-.2l1.6-.6Z" transform="translate(-113.2 -26.2)"/>
      <path class="cls-4" d="M501.4,164.4v4.4c.1.2.1.3.2.3h.6v.2l-1.6.7h-.3v-1.2a4.5,4.5,0,0,1-1,1l-.8.2a1.1,1.1,0,0,1-.8-.3,1,1,0,0,1-.4-.7,2.7,2.7,0,0,1-.2-1.1v-2.4c0-.3,0-.4-.1-.5l-.2-.3h-.6v-.3h1.9V168c0,.5.1.9.3,1a.6.6,0,0,0,.6.3l.6-.2.7-.6v-3c0-.3,0-.6-.1-.7h-.7v-.3Z" transform="translate(-113.2 -26.2)"/>
      <path class="cls-4" d="M504.3,164.3v1.2c.4-.8.9-1.2,1.3-1.2l.6.2a.8.8,0,0,1,.2.4.5.5,0,0,1-.2.4l-.3.2-.5-.2-.4-.2h-.2a1.6,1.6,0,0,0-.5.8v2.6c0,.3,0,.5.1.6s.1.2.2.3h.6v.2h-2.8v-.2h.7l.2-.3v-3.8l-.2-.2h-.7v-.3l1.6-.6Z" transform="translate(-113.2 -26.2)"/>
      <path class="cls-4" d="M508.5,164.3v4.3a5.6,5.6,0,0,0,.1.7c.1.1.1.2.2.2h.5v.2h-2.6v-.2h.6l.2-.2a5.6,5.6,0,0,0,.1-.7v-2.1c0-.5-.1-.9-.1-1.1v-.3h-.7v-.3l1.6-.6Zm-.5-2.8c.2,0,.4,0,.5.2s.1.2.1.4a.6.6,0,0,1-.1.4l-.5.2-.4-.2-.2-.4a.5.5,0,0,1,.2-.4A.4.4,0,0,1,508,161.5Z" transform="translate(-113.2 -26.2)"/>
    </g>
    <polyline class="cls-1" points="267.4 70.6 316.1 70.7 316.1 72.6 266.3 72.6"/>
    <path class="cls-2" d="M409.8,99.1l-1,.4a3.7,3.7,0,0,0-1.2,1.9,1.4,1.4,0,0,0,.1,1.5l.4.2,5.1,2a11.6,11.6,0,0,0,.6-2.2,8.6,8.6,0,0,0,.2-2.3c-.1-1-.2-3.2-1.8-2.6A10.4,10.4,0,0,1,409.8,99.1Z" transform="translate(-113.2 -26.2)"/>
    <path class="cls-1" d="M416.1,96.3a4.5,4.5,0,0,0,2-.4l.3-.2a.8.8,0,0,0,.2-.5c.1-.5.2-1.2-.2-1.5h-2.7" transform="translate(-113.2 -26.2)"/>
  </g>
  <g id="pullo">
    <path class="cls-1" d="M322.2,205.1a35.2,35.2,0,0,1,8.9-2.7V166.1" transform="translate(-113.2 -26.2)"/>
    <path class="cls-1" d="M313.9,257.5c-10.2-9.3-10.2-23.3-10.2-23.3,0-15.6,12-24.8,13.2-25.7" transform="translate(-113.2 -26.2)"/>
    <path class="cls-1" d="M354.9,259.9c-8,6.4-19.1,6.4-19.1,6.4a32.3,32.3,0,0,1-19-6.4" transform="translate(-113.2 -26.2)"/>
    <path class="cls-1" d="M340.7,166.1v36.2h-.2A32.3,32.3,0,0,1,368,234.2c0,11.4-6.2,20-10.6,23.5" transform="translate(-113.2 -26.2)"/>
    <path class="cls-1" d="M335.8,234.2" transform="translate(-113.2 -26.2)"/>
    <path class="cls-1" d="M331,202" transform="translate(-113.2 -26.2)"/>
    <path class="cls-1" d="M362.7,251.9c5.3,1,8.8,1.7,8.8,2.6s-16.1,4-36,4-36-1.8-36-4,4.6-1.7,9.5-2.5" transform="translate(-113.2 -26.2)"/>
    <path class="cls-1" d="M335.5,250.5" transform="translate(-113.2 -26.2)"/>
    <path class="cls-1" d="M361.4,253.5c3.9.5,13.1,1.7,13.1,3s-17.5,4-39,4-39-1.8-39-4,5.3-2.3,13.7-3" transform="translate(-113.2 -26.2)"/>
    <polyline class="cls-1" points="189.9 232.3 175.8 318.6 169.3 359"/>
    <line class="cls-1" x1="252.1" y1="233.1" x2="264.4" y2="369.8"/>
    <line class="cls-1" x1="223.3" y1="240.1" x2="223.3" y2="332.3"/>
    <path class="cls-1" d="M329,165.2c0,.7,3.1,1.4,6.9,1.4s6.9-.7,6.9-1.4" transform="translate(-113.2 -26.2)"/>
    <line class="cls-1" x1="215.7" y1="139.5" x2="215.7" y2="135.8"/>
    <path class="cls-1" d="M342.8,165.6v0Z" transform="translate(-113.2 -26.2)"/>
    <line class="cls-1" x1="204.9" y1="186.3" x2="202.9" y2="179.9"/>
    <line class="cls-1" x1="207.5" y1="176.6" x2="213.5" y2="183.6"/>
    <path class="cls-1" d="M312.7,196.9c-.9.9-1.9,2.5-1.4,3.5s3.3,1.3,5,.3,3.2-3,2.5-4.3-3-1-4-.7" transform="translate(-113.2 -26.2)"/>
    <path class="cls-1" d="M319.2,196.8l2.2,4.2-.5-1c.9,1.7,0,3.9-2.1,5s-4.4.7-5.3-.9h-.1l-1.7-3.2" transform="translate(-113.2 -26.2)"/>
    <path class="cls-5" d="M318.1,206.6l29.4,53.9" transform="translate(-113.2 -26.2)"/>
    <path class="cls-6" d="M315.6,202.1l.6,1" transform="translate(-113.2 -26.2)"/>
    <path class="cls-7" d="M311.5,194.5l2.9,5.2" transform="translate(-113.2 -26.2)"/>
    <path class="cls-7" d="M316.3,198.8c0-.1-2.7-5.1-2.8-5.3" transform="translate(-113.2 -26.2)"/>
    <path class="cls-6" d="M318.1,202l-.5-.9" transform="translate(-113.2 -26.2)"/>
    <path class="cls-5" d="M348.5,258.5,320,205.6" transform="translate(-113.2 -26.2)"/>
    <path class="cls-1" d="M193.3,272.1" transform="translate(-113.2 -26.2)"/>
    <path class="cls-1" d="M175.5,272.1" transform="translate(-113.2 -26.2)"/>
    <path class="cls-1" d="M191.9,264.9c1.4.5,3.6,1.3,3.6,2.2S190.8,270,185,270s-10.5-1.3-10.5-2.9,2.7-1.8,4-2.2" transform="translate(-113.2 -26.2)"/>
    <path class="cls-1" d="M153.5,354.6v7.9" transform="translate(-113.2 -26.2)"/>
    <path class="cls-1" d="M175.5,272.5c1,19-17,8-22,25v51.1" transform="translate(-113.2 -26.2)"/>
    <path class="cls-1" d="M195.4,271.3c0,1.6-4.7,2.9-10.5,2.9s-10.4-1.3-10.4-2.9" transform="translate(-113.2 -26.2)"/>
    <line class="cls-1" x1="61.3" y1="241.3" x2="61.3" y2="245.3"/>
    <line class="cls-1" x1="82.3" y1="241.3" x2="82.3" y2="245.3"/>
    <path class="cls-1" d="M187.1,253c2.7.3,6.4,1.2,6.4,2.2s-3.6,2.2-8,2.2-8-1-8-2.2,4.6-2,6.1-2.1" transform="translate(-113.2 -26.2)"/>
    <path class="cls-1" d="M178.7,264.8" transform="translate(-113.2 -26.2)"/>
    <path class="cls-1" d="M177.5,255.5" transform="translate(-113.2 -26.2)"/>
    <path class="cls-1" d="M183.5,256V243.7c-19-33,6-70,62-77,31.7-3.5,52.1,8.7,68.3,25.8.3.6-.2,1.5-1.2,2s-2,.5-2.3-.1C298,176,275.2,169.9,262,168.5s-31.2,3.6-35,4.4a71.6,71.6,0,0,0-18,6.6c-18.9,9.7-41.5,34.5-21.5,63.5v13" transform="translate(-113.2 -26.2)"/>
    <line class="cls-1" x1="34.3" y1="322.3" x2="44.3" y2="322.3"/>
    <line class="cls-1" x1="34.3" y1="328.3" x2="44.3" y2="328.3"/>
    <path class="cls-1" d="M145.8,350.1c.2-.3.6-1.6,1.3-1.6s1.5,1.6,1.5,3-.7,3-1.5,3-1.2-1.2-1.4-1.9" transform="translate(-113.2 -26.2)"/>
    <path class="cls-1" d="M241.5,406.1a73.1,73.1,0,0,1-8.8-.2h-.1c-.7-4.2-.9-8.1,2.9-9.3l19,4" transform="translate(-113.2 -26.2)"/>
    <line class="cls-1" x1="126.3" y1="393.3" x2="128.3" y2="379.5"/>
    <path class="cls-1" d="M245.5,420.5s11-16.3,8.4-20.1" transform="translate(-113.2 -26.2)"/>
    <path class="cls-1" d="M248.7,395.6c-.8-.4-3.3-2.4-3-3.7s3.9-2.1,6.6-1.3,5.4,2.9,5,4.5-5.2,1.6-5.9,1.5" transform="translate(-113.2 -26.2)"/>
    <path class="cls-1" d="M239.5,419.5c-14,23,64.3,35,182.3,15" transform="translate(-113.2 -26.2)"/>
    <path class="cls-1" d="M245.5,420.5c-14,23,75,27,176,12" transform="translate(-113.2 -26.2)"/>
    <rect class="cls-1" x="316.3" y="394.3" width="75" height="26"/>
    <line class="cls-1" x1="305.9" y1="409.1" x2="316.3" y2="420.3"/>
    <line class="cls-1" x1="305.3" y1="389.3" x2="316.3" y2="394.3"/>
    <line class="cls-1" x1="305.3" y1="406.5" x2="305.3" y2="388.8"/>
    <line class="cls-1" x1="378.3" y1="389.3" x2="305.3" y2="389.3"/>
    <line class="cls-1" x1="377.5" y1="389.3" x2="391.3" y2="394.3"/>
    <path class="cls-1" d="M504.4,431l28.4-2c4.7-.3,9.5-.7,13.9-2.4s8.5-4.9,9.9-9.4-1-12-5.3-16.1-9.9-6.3-15.4-8.5l-24-9.7c-5.4-2.2-11-4.5-15-8.8s-5.7-11.2-2.4-16.1,7.4-5.3,12-5.8,9.2-.4,13.5-1.9,9.8-6.6,12.9-11.6c7.5-12.2,8.8-27.2,8.9-41.6a195.7,195.7,0,0,0-.9-23c-1.5-15.3-5.1-30.6-2.8-45.8" transform="translate(-113.2 -26.2)"/>
    <path class="cls-1" d="M333.6,101.1v34.8a2.2,2.2,0,0,0-1.5,2c0,1.5.9,1.3,1.5,2s-1.7,3.3-2,5,0,17,0,17" transform="translate(-113.2 -26.2)"/>
    <ellipse class="cls-1" cx="222.8" cy="135.7" rx="6.9" ry="1.4"/>
    <path class="cls-1" d="M340.6,161.9v-17c.3-2.1-3-4.5-2-5s1.1-.5,1.5-1.7-1.5-2.3-1.5-2.3V101.1" transform="translate(-113.2 -26.2)"/>
    <path class="cls-1" d="M182.2,241.3c.3-1.6,2.6-1.8,3.1-1.7" transform="translate(-113.2 -26.2)"/>
    <line class="cls-1" x1="220.4" y1="61.3" x2="220.4" y2="35.9"/>
    <line class="cls-1" x1="225.4" y1="61.3" x2="225.4" y2="35.9"/>
    <path class="cls-1" d="M338.6,62.6" transform="translate(-113.2 -26.2)"/>
    <path class="cls-1" d="M333.6,62.6" transform="translate(-113.2 -26.2)"/>
    <path class="cls-1" d="M333.6,62.1c0-.6,1.1-1,2.5-1s2.5.4,2.5,1" transform="translate(-113.2 -26.2)"/>
    <path class="cls-1" d="M321.7,205.2" transform="translate(-113.2 -26.2)"/>
    <path class="cls-1" d="M316.9,208.3" transform="translate(-113.2 -26.2)"/>
    <path class="cls-1" d="M232.5,399.3c-96-9-136.8-40.6-85.8-46.6h0a4.2,4.2,0,0,0,.1-2.7h0c-52,9-25.6,39.8,85.4,51.8" transform="translate(-113.2 -26.2)"/>
    <path class="cls-1" d="M239.5,419.5c1.9-1,3.8-.5,5.7,1.4" transform="translate(-113.2 -26.2)"/>
    <path class="cls-1" d="M247.5,398.5l2-5c1.2-1.1,2.2-.7,3,.8l-3,5.2" transform="translate(-113.2 -26.2)"/>
    <path class="cls-1" d="M183.4,255.5a4.3,4.3,0,0,0,4.1,0" transform="translate(-113.2 -26.2)"/>
    <path class="cls-1" d="M177.5,255.2l1.7,12.3a28.3,28.3,0,0,0,12.3,0l2-12.1" transform="translate(-113.2 -26.2)"/>
    <path class="cls-1" d="M421.1,432.6c.7-.2.8.9.6,2.4" transform="translate(-113.2 -26.2)"/>
    <path class="cls-8" d="M310.6,253.4a350.2,350.2,0,0,1,51.2.1" transform="translate(-113.2 -26.2)"/>
    <path class="cls-8" d="M309,252a370.3,370.3,0,0,1,53.7-.1" transform="translate(-113.2 -26.2)"/>
    <line class="cls-8" x1="223.3" y1="226.2" x2="223.3" y2="240"/>
    <line class="cls-8" x1="219" y1="137.1" x2="220.7" y2="144.1"/>
    <line class="cls-8" x1="226.7" y1="137" x2="225" y2="144.2"/>
    <path class="cls-9" d="M195.6,288.7c.8-1.4,10.9.8,14.2,7.7a14.1,14.1,0,0,1,.9,2.7c2.2,9.7.9,21.3-.1,21.3s1.3-9.6-4.1-19.4S194.8,289.9,195.6,288.7Z" transform="translate(-113.2 -26.2)"/>
    <path class="cls-9" d="M346,209c6.5,6.1,8.5,11.7,9,15.8s-.5,9.4,1.2,10.2,4.5-1.6,5.5-4.4c1.7-4.6-2-9.7-3.9-12.4A27.4,27.4,0,0,0,346,209Z" transform="translate(-113.2 -26.2)"/>
    <path class="cls-1" d="M411,373a3.8,3.8,0,0,0,4.7,0" transform="translate(-113.2 -26.2)"/>
    <path class="cls-10" d="M333.6,62.1a6.2,6.2,0,0,0,5,0" transform="translate(-113.2 -26.2)"/>
    <path class="cls-1" d="M193.7,272.6c-.9,19,17.1,8.1,22.2,25.1v64.8" transform="translate(-113.2 -26.2)"/>
    <path class="cls-1" d="M216,362.5c0,5-14,9-31.2,9s-31.3-4-31.3-9" transform="translate(-113.2 -26.2)"/>
  </g>
  <g id="Layer_4" data-name="Layer 4">
    <path class="cls-1" d="M345.6,183.9h86.7v-2.5H345.6" transform="translate(-113.2 -26.2)"/>
    <line class="cls-1" x1="187.4" y1="77.3" x2="240.4" y2="77.3"/>
    <path class="cls-1" d="M328.6,98.5" transform="translate(-113.2 -26.2)"/>
    <path class="cls-1" d="M300.6,103.5" transform="translate(-113.2 -26.2)"/>
    <line class="cls-1" x1="240.4" y1="77.3" x2="267.4" y2="72.3"/>
    <rect class="cls-1" x="215.4" y="61.3" width="52" height="11"/>
    <line class="cls-1" x1="187.4" y1="77.3" x2="187.4" y2="69.3"/>
    <path class="cls-1" d="M308.6,102.1" transform="translate(-113.2 -26.2)"/>
    <line class="cls-1" x1="204.4" y1="64.3" x2="204.4" y2="74.3"/>
    <line class="cls-1" x1="196.4" y1="66.3" x2="196.4" y2="75.3"/>
    <line class="cls-1" x1="187.4" y1="77.3" x2="196.4" y2="75.3"/>
    <line class="cls-1" x1="204.4" y1="74.3" x2="215.4" y2="72.3"/>
    <line class="cls-1" x1="204.4" y1="74.3" x2="237.4" y2="74.3"/>
    <line class="cls-1" x1="195.9" y1="75.3" x2="229.4" y2="75.3"/>
    <line class="cls-1" x1="196.4" y1="66.3" x2="187.4" y2="69.3"/>
    <line class="cls-1" x1="204.4" y1="64.3" x2="215.4" y2="61.3"/>
    <line class="cls-1" x1="196.4" y1="66.3" x2="204.4" y2="66.3"/>
    <line class="cls-11" x1="235.8" y1="76.3" x2="235.8" y2="88.9"/>
    <line class="cls-11" x1="240.4" y1="74.8" x2="240.4" y2="87.4"/>
    <path class="cls-12" d="M353.7,113.3c-.6,7.8,2.1,15.3,4.8,22.6a42.1,42.1,0,0,0,2.8,6.6c5,9.2,15.1,13.3,24.1,17.6s19.5,18.9,20.7,21.1" transform="translate(-113.2 -26.2)"/>
    <path class="cls-12" d="M348.7,114.7a78.2,78.2,0,0,0,3.9,18.5c1.9,5.7,4.5,11.3,9.2,15.5a36.2,36.2,0,0,0,6.4,4.4c6.7,3.9,13.9,7.1,20.3,11.4s12,10,14.2,16.9" transform="translate(-113.2 -26.2)"/>
    <path class="cls-12" d="M415.7,201.2a58.8,58.8,0,0,0,27.4,27.2c17.1,8.2,37.1,7.5,55.5,3a51.9,51.9,0,0,0,12.7-4.5c2.4-1.3,4.7-2.9,7.2-4.1,6.6-3.3,14.2-3.7,21.5-4" transform="translate(-113.2 -26.2)"/>
    <path class="cls-12" d="M415.8,193.2c2.4,7.5,8,13.7,14.4,18.1s13.7,7.3,21,10.1a62.8,62.8,0,0,0,12.7,4.1c12.1,2.1,24.2-2.7,36-6a156.7,156.7,0,0,1,42-6" transform="translate(-113.2 -26.2)"/>
    <path class="cls-2" d="M345.6,187.1a27.3,27.3,0,0,1-16.5,0v-7.6a43.6,43.6,0,0,0,16.5,0Z" transform="translate(-113.2 -26.2)"/>
    <path class="cls-1" d="M340.6,176.4l3.5.2v2.6" transform="translate(-113.2 -26.2)"/>
    <path class="cls-1" d="M328.8,184l-1.2.2v-7.6l3.3-.2" transform="translate(-113.2 -26.2)"/>
    <path class="cls-8" d="M331.7,176.4H340" transform="translate(-113.2 -26.2)"/>
    <path class="cls-10" d="M403.8,184.2c1.6,1.3,1.7,3.5,2.5,5.4a7.5,7.5,0,0,0,1,2,14.2,14.2,0,0,0,2.5,3,1.5,1.5,0,0,1,.6,1.1" transform="translate(-113.2 -26.2)"/>
    <rect class="cls-2" x="232.4" y="154.2" width="8" height="4.93"/>
    <polyline class="cls-1" points="238.8 153.8 238.8 151.7 230.9 151.7"/>
    <path class="cls-1" d="M349.4,182.2c-.2-.1-.3,0-.4.1l-1.2,1.1a.5.5,0,0,0-.2.6,19.3,19.3,0,0,0,3.4.1h.3v-.3a2,2,0,0,0-2-1.9" transform="translate(-113.2 -26.2)"/>
    <path class="cls-1" d="M347,178.1v-1.5a.4.4,0,0,0,.1-.3.6.6,0,0,1,.8,0,1.9,1.9,0,0,1,.2.8c.1.3.1.5.3.7" transform="translate(-113.2 -26.2)"/>
  </g>
  <g id="TEKSTIT">
    <line class="cls-3" x1="96.9" y1="95.7" x2="206.8" y2="159.4"/>
    <g>
      <path class="cls-4" d="M173.7,112.4l1.6-.6h.3V113a2.1,2.1,0,0,1,.8-1,1.6,1.6,0,0,1,.9-.3,1.5,1.5,0,0,1,1.3.7,2.6,2.6,0,0,1,.7,2,3.6,3.6,0,0,1-.8,2.3,2.1,2.1,0,0,1-1.7.7h-.7l-.5-.4v2.4l.3.2h.6v.2h-2.8v-.2h.7c0-.1.1-.1.1-.2s.1-.4.1-.8v-5c0-.4,0-.6-.1-.7s0-.2-.1-.2h-.6Zm1.9,1v2.8l.4.6a1.1,1.1,0,0,0,.8.3,1.4,1.4,0,0,0,1-.5,3.2,3.2,0,0,0-.1-3.6,1,1,0,0,0-.9-.4h-.5A2.2,2.2,0,0,0,175.6,113.4Z" transform="translate(-113.2 -26.2)"/>
      <path class="cls-4" d="M183.1,116.5l-1,.7-.7.2a1.3,1.3,0,0,1-.9-.4,1.8,1.8,0,0,1-.4-1,1.4,1.4,0,0,1,.2-.7,1.9,1.9,0,0,1,.8-.7,7.7,7.7,0,0,1,2-.9v-.2a2.7,2.7,0,0,0-.2-1.1,1.1,1.1,0,0,0-.8-.3l-.6.2a.8.8,0,0,0-.2.4v.4c0,.2,0,.3-.1.4h-.7a.5.5,0,0,1-.2-.4,1.2,1.2,0,0,1,.6-1,2.6,2.6,0,0,1,1.4-.4,2.1,2.1,0,0,1,1.2.3,1.2,1.2,0,0,1,.5.5,2.8,2.8,0,0,1,.1,1.1v2.7c0,.1.1.2.1.3h.3l.5-.4v.3q-.6.9-1.2.9l-.5-.2A1.4,1.4,0,0,1,183.1,116.5Zm0-.4v-2l-1.1.5a1.3,1.3,0,0,0-.7.5,1.4,1.4,0,0,0-.2.6.9.9,0,0,0,.3.7.5.5,0,0,0,.5.3A2.2,2.2,0,0,0,183.1,116.1Z" transform="translate(-113.2 -26.2)"/>
      <path class="cls-4" d="M187.3,111.7v5l.2.3h.6v.3h-2.6V117h.5l.2-.3c.1-.1.1-.3.1-.7v-2a3.5,3.5,0,0,0-.1-1.2c0-.1,0-.2-.1-.2h-.6v-.2l1.6-.7Zm-.5-2.8.4.2a.5.5,0,0,1,0,.8.4.4,0,0,1-.4.2.6.6,0,0,1-.5-.2c-.1-.1-.1-.2-.1-.4s0-.3.1-.4Z" transform="translate(-113.2 -26.2)"/>
      <path class="cls-4" d="M190.3,112.9a2.4,2.4,0,0,1,1.8-1.2l.8.2a2.8,2.8,0,0,1,.5.8c0,.2.1.6.1,1V116c0,.4,0,.6.1.7l.2.3h.5v.3h-2.6V117h.6c.1,0,.2-.2.2-.3v-2.8a1.5,1.5,0,0,0-.2-1,.7.7,0,0,0-.6-.4,2.1,2.1,0,0,0-1.4.8V116c0,.4,0,.6.1.7l.2.3h.6v.3h-2.7V117h.1c.3,0,.5,0,.6-.2s.1-.4.1-.8v-3.1a.4.4,0,0,0-.1-.3h-.7v-.2l1.7-.7h.2Z" transform="translate(-113.2 -26.2)"/>
      <path class="cls-4" d="M195.6,113.9a2.9,2.9,0,0,0,.6,1.9,2.1,2.1,0,0,0,1.4.7,1.2,1.2,0,0,0,.9-.3,2.6,2.6,0,0,0,.7-1h.2a3.7,3.7,0,0,1-.8,1.5,2,2,0,0,1-1.4.6,2.2,2.2,0,0,1-1.7-.7,3.5,3.5,0,0,1,0-4.2,2.5,2.5,0,0,1,1.8-.8,2,2,0,0,1,1.5.6,2.1,2.1,0,0,1,.6,1.6Zm0-.3h2.5a1.7,1.7,0,0,0-.1-.8l-.4-.5-.6-.2a1.3,1.3,0,0,0-.9.4A1.9,1.9,0,0,0,195.6,113.6Z" transform="translate(-113.2 -26.2)"/>
      <path class="cls-4" d="M203.1,116.5l-1,.7-.7.2a1.3,1.3,0,0,1-.9-.4,1.3,1.3,0,0,1-.4-1,1.4,1.4,0,0,1,.2-.7,1.9,1.9,0,0,1,.8-.7,7.7,7.7,0,0,1,2-.9v-.2a2.7,2.7,0,0,0-.2-1.1,1.1,1.1,0,0,0-.8-.3l-.6.2a.8.8,0,0,0-.2.4v.4c0,.2,0,.3-.1.4h-.7a.5.5,0,0,1-.2-.4,1.4,1.4,0,0,1,.5-1,3.3,3.3,0,0,1,1.5-.4,2.1,2.1,0,0,1,1.2.3,1.2,1.2,0,0,1,.5.5,10.4,10.4,0,0,1,.1,1.1v2.7c0,.1.1.2.1.3h.3l.5-.4v.3a1.7,1.7,0,0,1-1.3.9l-.4-.2A1.4,1.4,0,0,1,203.1,116.5Zm0-.4v-2l-1.1.5a1.3,1.3,0,0,0-.7.5,1.4,1.4,0,0,0-.2.6.9.9,0,0,0,.3.7.5.5,0,0,0,.5.3A2.2,2.2,0,0,0,203.1,116.1Z" transform="translate(-113.2 -26.2)"/>
      <path class="cls-4" d="M208.9,111.7v1.9h-.2a3.3,3.3,0,0,0-.6-1.2,1.2,1.2,0,0,0-.9-.3.8.8,0,0,0-.7.2.7.7,0,0,0,0,1,1,1,0,0,0,.7.5l.9.5a1.7,1.7,0,0,1,1.2,1.5,1.4,1.4,0,0,1-.6,1.2,1.9,1.9,0,0,1-1.2.4,2.7,2.7,0,0,1-1.2-.2h-.7v-1.9h.2a2.3,2.3,0,0,0,.6,1.3,2.5,2.5,0,0,0,1.1.4.6.6,0,0,0,.6-.3.5.5,0,0,0,.3-.5.9.9,0,0,0-.3-.7l-1.1-.7c-.6-.3-1-.5-1.1-.8a1.1,1.1,0,0,1-.3-.8,1.4,1.4,0,0,1,.5-1.1,1.6,1.6,0,0,1,1.1-.5l.8.2h.5l.2-.2Z" transform="translate(-113.2 -26.2)"/>
      <path class="cls-4" d="M211.6,110.1v1.8h1.3v.4h-1.3v3.5a1.2,1.2,0,0,0,.2.7.5.5,0,0,0,.4.2l.3-.2.3-.3h.2a1.9,1.9,0,0,1-.5.9l-.8.2h-.5l-.4-.4a2.2,2.2,0,0,1-.1-.9v-3.6h-.9v-.2l.7-.4.6-.8a2.2,2.2,0,0,0,.3-.8Z" transform="translate(-113.2 -26.2)"/>
      <path class="cls-4" d="M215.2,111.7V116a3.5,3.5,0,0,0,.1.7l.2.3h.6v.3h-2.6V117h.5l.2-.3a3.5,3.5,0,0,0,.1-.7v-2a3.5,3.5,0,0,0-.1-1.2c0-.1,0-.2-.1-.2h-.6v-.2l1.6-.7Zm-.4-2.8.4.2a.5.5,0,0,1,0,.8.4.4,0,0,1-.4.2.6.6,0,0,1-.5-.2c-.1-.1-.1-.2-.1-.4s0-.3.1-.4Z" transform="translate(-113.2 -26.2)"/>
      <path class="cls-4" d="M219.8,116.5c-.6.4-.9.7-1.1.7l-.6.2a1.8,1.8,0,0,1-1-.4,1.7,1.7,0,0,1-.3-1,.8.8,0,0,1,.2-.7c.1-.3.4-.5.8-.7a6.3,6.3,0,0,1,2-.9v-.2a1.6,1.6,0,0,0-.3-1.1.9.9,0,0,0-.7-.3l-.6.2a.4.4,0,0,0-.2.4v.4a.5.5,0,0,1-.2.4h-.7c-.1-.1-.1-.2-.1-.4a1.4,1.4,0,0,1,.5-1,2.7,2.7,0,0,1,1.5-.4,2,2,0,0,1,1.1.3.8.8,0,0,1,.5.5,2.8,2.8,0,0,1,.1,1.1v1.8c0,.5,0,.8.1.9a.4.4,0,0,0,.1.3h.3l.5-.4v.3c-.5.6-.9.9-1.3.9l-.5-.2A1.5,1.5,0,0,1,219.8,116.5Zm0-.4v-2l-1.2.5a1,1,0,0,0-.6.5.7.7,0,0,0-.2.6,1.4,1.4,0,0,0,.2.7l.6.3A2.2,2.2,0,0,0,219.8,116.1Z" transform="translate(-113.2 -26.2)"/>
    </g>
    <line class="cls-3" x1="229.1" y1="51.4" x2="311.1" y2="13.8"/>
    <g>
      <path class="cls-4" d="M427.1,29.7l1.6-.7h.3v1.2a1.8,1.8,0,0,1,.8-.9,1.6,1.6,0,0,1,2.2.3,2.7,2.7,0,0,1,.7,2,3.6,3.6,0,0,1-.8,2.3,2.1,2.1,0,0,1-1.7.8l-.7-.2c-.2,0-.3-.1-.5-.3v2.3l.3.3h.6v.3h-2.8v-.3h.7a.3.3,0,0,0,.1-.2c.1-.1.1-.3.1-.7V30c-.1,0-.1-.1-.2-.2h-.7Zm1.9.9v2.8a.9.9,0,0,0,.4.6,1.1,1.1,0,0,0,.8.3,1.1,1.1,0,0,0,1-.5,2.5,2.5,0,0,0,.5-1.6,2.5,2.5,0,0,0-.6-1.9,1.1,1.1,0,0,0-.9-.5l-.5.2C429.5,30,429.3,30.2,429,30.6Z" transform="translate(-113.2 -26.2)"/>
      <path class="cls-4" d="M433.2,29.1h2.5v.2h-.1c-.2,0-.4.1-.4.2l-.2.2a2.5,2.5,0,0,0,.2.7l1.3,2.7,1.2-3a.7.7,0,0,0,.1-.5h0c0-.1-.1-.1-.2-.1h-.3v-.2H439v.2h-.3l-.3.3c0,.1-.1.2-.2.5l-2.1,5.3a2.7,2.7,0,0,1-.9,1.2,1.8,1.8,0,0,1-1,.4l-.5-.2c-.2-.1-.2-.3-.2-.5a.6.6,0,0,1,.1-.4h1.3l.4-.2.4-.7.4-.9-2-4.1-.2-.4c-.1-.2-.2-.2-.3-.3l-.4-.2Z" transform="translate(-113.2 -26.2)"/>
      <path class="cls-4" d="M443,29v1.8h-.2a3.3,3.3,0,0,0-.6-1.2,1.2,1.2,0,0,0-.9-.3l-.7.2c-.1.2-.2.3-.2.5a.7.7,0,0,0,.2.6l.7.5.9.4q1.2.6,1.2,1.5a1.4,1.4,0,0,1-.6,1.2,2.1,2.1,0,0,1-1.2.5l-1.2-.2h-.3c-.1,0-.1.1-.2.2h-.2V32.7h.2a2.3,2.3,0,0,0,.6,1.2,1.5,1.5,0,0,0,1.1.4l.6-.2a.9.9,0,0,0,.3-.6.9.9,0,0,0-.3-.7l-1.1-.7c-.6-.3-1-.5-1.1-.7a1.4,1.4,0,0,1-.3-.9,1.5,1.5,0,0,1,.4-1.1,1.7,1.7,0,0,1,1.2-.4H443Z" transform="translate(-113.2 -26.2)"/>
      <path class="cls-4" d="M445.7,27.4v1.7H447v.4h-1.3V33a1,1,0,0,0,.2.7l.3.2h.4l.3-.4h.2a1.5,1.5,0,0,1-.6.9,1.1,1.1,0,0,1-.7.3l-.6-.2-.3-.4a2,2,0,0,1-.2-.9V29.5h-.8v-.2c.2,0,.4-.2.7-.4l.6-.7c0-.2.2-.4.3-.8Z" transform="translate(-113.2 -26.2)"/>
      <path class="cls-4" d="M447.2,29.1h2.5v.2h-.1a.5.5,0,0,0-.4.2l-.2.2a2.5,2.5,0,0,0,.2.7l1.3,2.7,1.2-3a.7.7,0,0,0,.1-.5h0c0-.1-.1-.1-.2-.1h-.3v-.2H453v.2h-.3l-.2.3a.6.6,0,0,0-.2.5l-2.2,5.3a2.7,2.7,0,0,1-.9,1.2,1.8,1.8,0,0,1-1,.4l-.5-.2c-.2-.1-.2-.3-.2-.5a.6.6,0,0,1,.1-.4h1.3l.4-.2.4-.7.4-.9-2-4.1-.2-.4c-.1-.2-.2-.2-.3-.3l-.4-.2Z" transform="translate(-113.2 -26.2)"/>
      <path class="cls-4" d="M457,29v1.8h-.2a3.3,3.3,0,0,0-.6-1.2,1.2,1.2,0,0,0-.9-.3l-.7.2c-.1.2-.2.3-.2.5a1.4,1.4,0,0,0,.2.6l.7.5.9.4q1.2.6,1.2,1.5a1.4,1.4,0,0,1-.6,1.2,2.1,2.1,0,0,1-1.2.5l-1.2-.2h-.3c-.1,0-.1.1-.2.2h-.2V32.7h.2a2.3,2.3,0,0,0,.6,1.2,1.7,1.7,0,0,0,1.1.4l.6-.2a.9.9,0,0,0,.3-.6.9.9,0,0,0-.3-.7l-1.1-.7c-.6-.3-1-.5-1.1-.7a1.4,1.4,0,0,1-.3-.9,1.3,1.3,0,0,1,.5-1.1,1.4,1.4,0,0,1,1.1-.4H457Z" transform="translate(-113.2 -26.2)"/>
      <path class="cls-4" d="M462.9,29.1v4.4a.4.4,0,0,0,.1.3h.7V34l-1.6.7h-.3V33.5l-1.1,1-.7.2a1.1,1.1,0,0,1-.8-.3,1.8,1.8,0,0,1-.5-.7,3.1,3.1,0,0,1-.1-1.1V30.2c0-.3,0-.5-.1-.6s-.1-.1-.2-.2h-.6v-.2h1.9v3.6a2.2,2.2,0,0,0,.2,1,.8.8,0,0,0,.7.2h.5l.8-.6V30.1a.8.8,0,0,0-.2-.6,1,1,0,0,0-.7-.2v-.2Z" transform="translate(-113.2 -26.2)"/>
      <path class="cls-4" d="M466.8,29a2.3,2.3,0,0,1,1.9.9,2.4,2.4,0,0,1,.7,1.8,2.8,2.8,0,0,1-.4,1.5,2.4,2.4,0,0,1-.9,1.1,3.3,3.3,0,0,1-1.4.4,2.4,2.4,0,0,1-1.9-1,3.2,3.2,0,0,1-.6-1.8,2.8,2.8,0,0,1,.4-1.5,2,2,0,0,1,.9-1.1A2.8,2.8,0,0,1,466.8,29Zm-.2.3-.6.2a1.8,1.8,0,0,0-.5.7,2.2,2.2,0,0,0-.2,1.2,4.2,4.2,0,0,0,.4,2,1.5,1.5,0,0,0,1.3.8,1.1,1.1,0,0,0,.9-.4,2.4,2.4,0,0,0,.4-1.6,3.9,3.9,0,0,0-.6-2.3A1.4,1.4,0,0,0,466.6,29.3Z" transform="translate(-113.2 -26.2)"/>
      <path class="cls-4" d="M471.7,29v1.2c.5-.8.9-1.2,1.4-1.2s.4,0,.5.2.3.2.3.4a.5.5,0,0,1-.2.4l-.4.2-.4-.2-.4-.2h-.2a1.8,1.8,0,0,0-.6.8v2.5a5.6,5.6,0,0,0,.1.7l.3.3h.6v.2h-2.8v-.2h.6c.1-.1.2-.2.2-.3s.1-.3.1-.6V31.2a8,8,0,0,0-.1-1.1.4.4,0,0,0-.1-.3h-.7v-.2l1.6-.6Z" transform="translate(-113.2 -26.2)"/>
      <path class="cls-4" d="M477.2,33.7l-1,.8h-.7a1,1,0,0,1-.9-.4,1.2,1.2,0,0,1-.4-1,1.9,1.9,0,0,1,.2-.7,1.9,1.9,0,0,1,.8-.7l2-.9v-.2a1.6,1.6,0,0,0-.3-1.1.8.8,0,0,0-.7-.3l-.6.2c-.1.2-.2.3-.2.5v.3c0,.2,0,.3-.1.4a.5.5,0,0,1-.4.2l-.4-.2c0-.1-.1-.2-.1-.4a1.4,1.4,0,0,1,.5-.9,2.4,2.4,0,0,1,1.5-.4,1.8,1.8,0,0,1,1.1.2c.3.1.4.3.6.6a7.7,7.7,0,0,1,.1,1v2.8c0,.1,0,.2.1.2h.3l.5-.4v.3c-.5.6-.9.9-1.3.9l-.4-.2A1.2,1.2,0,0,1,477.2,33.7Zm0-.4v-2l-1.1.5c-.4.2-.6.3-.7.5a1.4,1.4,0,0,0-.2.6,1.2,1.2,0,0,0,.2.7l.6.3A2.2,2.2,0,0,0,477.2,33.3Z" transform="translate(-113.2 -26.2)"/>
      <path class="cls-4" d="M482.1,29.7l1.6-.7h.3v1.2a1.8,1.8,0,0,1,.8-.9,1.6,1.6,0,0,1,2.2.3,2.7,2.7,0,0,1,.7,2,3.6,3.6,0,0,1-.8,2.3,2.1,2.1,0,0,1-1.7.8l-.7-.2c-.2,0-.3-.1-.5-.3v2.3l.3.3h.6v.3h-2.8v-.3h.7a.3.3,0,0,0,.1-.2c.1-.1.1-.3.1-.7V30.7c0-.3,0-.6-.1-.7a.3.3,0,0,0-.1-.2h-.7Zm1.9.9v2.8a.9.9,0,0,0,.4.6,1.1,1.1,0,0,0,.8.3,1.1,1.1,0,0,0,1-.5,2.5,2.5,0,0,0,.5-1.6,2.5,2.5,0,0,0-.6-1.9,1.1,1.1,0,0,0-.9-.5l-.5.2C484.5,30,484.3,30.2,484,30.6Z" transform="translate(-113.2 -26.2)"/>
      <path class="cls-4" d="M493.2,29.1v4.4c.1.2.1.3.2.3s.1.1.2.1h.4V34l-1.6.7h-.3V33.5a9.1,9.1,0,0,1-1,1l-.8.2a1.1,1.1,0,0,1-.8-.3,1,1,0,0,1-.4-.7,2.7,2.7,0,0,1-.2-1.1V30.2c0-.3,0-.5-.1-.6s-.1-.1-.2-.2h-.6v-.2H490v3.6a1.3,1.3,0,0,0,.3,1c.1.2.3.2.6.2h.6l.7-.6V30.1c0-.3,0-.5-.1-.6l-.7-.2v-.2Z" transform="translate(-113.2 -26.2)"/>
      <path class="cls-4" d="M496,27.4v1.7h1.3v.4H496V33a1,1,0,0,0,.2.7.5.5,0,0,0,.4.2h.3c.2-.1.3-.2.3-.4h.3a3.5,3.5,0,0,1-.6.9,1.3,1.3,0,0,1-.8.3l-.5-.2a.8.8,0,0,1-.4-.4,2.2,2.2,0,0,1-.1-.9V29.5h-.9v-.2a1.3,1.3,0,0,0,.7-.4l.6-.7.4-.8Z" transform="translate(-113.2 -26.2)"/>
      <path class="cls-4" d="M499.4,26.2v5.3l1.4-1.2c.3-.3.4-.5.5-.5v-.2c0-.1,0-.1-.1-.2h-.3v-.2h2.3v.2l-.8.2c-.2,0-.4.2-.7.4l-1.3,1.3,1.3,1.8.8.9.5.3h.5v.2h-2.6v-.2h.3c.1,0,.1-.1.1-.2l-.3-.4-1.6-2.1v1.8c0,.3,0,.6.1.7a.2.2,0,0,0,.2.2h.6v.2h-2.8v-.2h.7c0-.1.1-.1.1-.2s.1-.4.1-.7v-6c0-.2-.1-.2-.1-.3h-.7v-.2l1.6-.6Z" transform="translate(-113.2 -26.2)"/>
      <path class="cls-4" d="M505.7,29v5l.3.2h.5v.2h-2.6v-.2h.5a.2.2,0,0,0,.2-.2,1.5,1.5,0,0,0,.1-.7V31.2a2.8,2.8,0,0,0-.1-1.1.4.4,0,0,0-.1-.3h-.6v-.2l1.6-.6Zm-.5-2.8h.4a.8.8,0,0,1,.2.5l-.2.4h-.8a.4.4,0,0,1-.2-.4c0-.2,0-.4.2-.5Z" transform="translate(-113.2 -26.2)"/>
    </g>
    <line class="cls-3" x1="118" y1="41.7" x2="215.9" y2="105.2"/>
    <g>
      <path class="cls-4" d="M208.7,56.9v1.9h-.2c-.2-.6-.3-1-.6-1.2a1.2,1.2,0,0,0-.9-.3l-.6.2c-.2.2-.3.3-.3.5a1.4,1.4,0,0,0,.2.6l.7.5.9.4q1.2.6,1.2,1.5a1.4,1.4,0,0,1-.6,1.2,1.6,1.6,0,0,1-1.2.4h-1.4l-.3.2h-.1v-2h.1a3.2,3.2,0,0,0,.7,1.3,1.3,1.3,0,0,0,1,.4l.7-.2a1.4,1.4,0,0,0,.2-.6.9.9,0,0,0-.3-.7l-1.1-.7a2.6,2.6,0,0,1-1.1-.8,1.1,1.1,0,0,1-.3-.8,1.6,1.6,0,0,1,.5-1.1,1.7,1.7,0,0,1,1.2-.5l.7.2h.6a.3.3,0,0,1,.1-.2Z" transform="translate(-113.2 -26.2)"/>
      <path class="cls-4" d="M209.6,57.1h2.5v.2h-.5c-.1.1-.2.2-.2.3a2.5,2.5,0,0,0,.2.7l1.3,2.7,1.2-3a.9.9,0,0,0,.1-.5h0c0-.1-.1-.1-.2-.1s-.1-.1-.3-.1v-.2h1.7v.2h-.3c-.1.1-.2.1-.3.3l-.2.4-2.1,5.4a2.7,2.7,0,0,1-.9,1.2,1.8,1.8,0,0,1-1,.4l-.5-.2a.6.6,0,0,1-.2-.5c0-.2,0-.3.1-.4h1.3l.4-.2.4-.7.4-.9-2-4.1a.8.8,0,0,0-.2-.4l-.3-.3-.4-.2Z" transform="translate(-113.2 -26.2)"/>
      <path class="cls-4" d="M217.7,54.1v7.2a3.5,3.5,0,0,0,.1.6l.2.3h.6v.2H216v-.2h.5l.2-.3a3.5,3.5,0,0,0,.1-.6V56.4a8,8,0,0,0-.1-1.1.4.4,0,0,0-.1-.3H216v-.2l1.6-.7Z" transform="translate(-113.2 -26.2)"/>
      <path class="cls-4" d="M221.1,56.9v5l.3.3h.5v.2h-2.6v-.2h.5c.1-.1.2-.2.2-.3s.1-.3.1-.6V59.2a2.5,2.5,0,0,0-.1-1.1c0-.2,0-.3-.1-.3h-.6v-.2l1.6-.7Zm-.5-2.8.4.2a.8.8,0,0,1,.2.4c0,.2-.1.3-.2.5h-.8a.6.6,0,0,1-.2-.5.4.4,0,0,1,.2-.4Z" transform="translate(-113.2 -26.2)"/>
      <path class="cls-4" d="M224.1,58.1a2.4,2.4,0,0,1,1.8-1.2,1.1,1.1,0,0,1,.8.3,1.3,1.3,0,0,1,.5.7,3.1,3.1,0,0,1,.1,1.1v2.3c0,.3,0,.5.1.6s.1.2.2.3h.5v.2h-2.6v-.2h.1l.5-.2c.1,0,.2-.1.2-.3V59.1c0-.5,0-.9-.2-1.1a.6.6,0,0,0-.6-.3,1.9,1.9,0,0,0-1.4.7v2.9c0,.3,0,.5.1.6s.1.2.2.3h.6v.2h-2.7v-.2h.2l.5-.2a1.9,1.9,0,0,0,.2-.8v-2a8.4,8.4,0,0,0-.1-1.2c0-.2-.1-.2-.1-.3h-.7v-.2l1.7-.7h.2Z" transform="translate(-113.2 -26.2)"/>
      <path class="cls-4" d="M230.1,55.3v1.8h1.3v.4h-1.3V61a1.2,1.2,0,0,0,.2.7l.3.2h.4l.3-.4h.2a1.9,1.9,0,0,1-.5.9l-.8.3-.6-.2-.3-.4a2,2,0,0,1-.2-.9V57.5h-.8v-.2l.7-.4.6-.7a9.2,9.2,0,0,1,.3-.9Z" transform="translate(-113.2 -26.2)"/>
      <path class="cls-4" d="M232.8,59.1a2.9,2.9,0,0,0,.6,1.9,1.6,1.6,0,0,0,1.3.7,1.7,1.7,0,0,0,1-.3,2.9,2.9,0,0,0,.6-1h.2a3.4,3.4,0,0,1-.7,1.5,2,2,0,0,1-1.5.6,2.3,2.3,0,0,1-1.7-.7,3.2,3.2,0,0,1-.6-2,2.9,2.9,0,0,1,.7-2.2,2.1,2.1,0,0,1,1.7-.8,2,2,0,0,1,1.5.6,2.3,2.3,0,0,1,.6,1.6Zm0-.3h2.5a3.5,3.5,0,0,0-.1-.7c-.1-.3-.3-.4-.5-.6h-.6a1.6,1.6,0,0,0-.9.3A1.8,1.8,0,0,0,232.8,58.8Z" transform="translate(-113.2 -26.2)"/>
      <path class="cls-4" d="M238.8,56.9v1.3c.4-.9.9-1.3,1.4-1.3l.5.2c.1.2.2.3.2.5a.6.6,0,0,1-.1.4h-.4a.6.6,0,0,1-.5-.2l-.3-.2-.3.2-.5.7v2.6a1.5,1.5,0,0,0,.1.7q0,.1.3.3h.5v.2H237v-.2l.6-.2c.1,0,.1-.1.2-.3V58.1c0-.2-.1-.2-.2-.3H237v-.2l1.6-.7Z" transform="translate(-113.2 -26.2)"/>
      <path class="cls-4" d="M243.1,56.9v5l.3.3h.5v.2h-2.6v-.2h.5c.1-.1.2-.2.2-.3s.1-.3.1-.6V59.2a2.5,2.5,0,0,0-.1-1.1c0-.2,0-.3-.1-.3h-.6v-.2l1.6-.7Zm-.5-2.8.4.2a.8.8,0,0,1,.2.4c0,.2-.1.3-.2.5h-.8a.6.6,0,0,1-.2-.5.4.4,0,0,1,.2-.4Z" transform="translate(-113.2 -26.2)"/>
    </g>
    <line class="cls-3" x1="202.7" y1="454.1" x2="305.3" y2="420.3"/>
    <g>
      <path class="cls-4" d="M254.8,484.9v4.3c0,.4,0,.6.1.7s.1.2.2.3h.5v.3H253v-.3h.5c.1-.1.2-.2.2-.3s.1-.3.1-.7V486l-.2-.2c0-.1-.1-.1-.2-.1H253v-.2l1.6-.7Zm-.5-2.8a.5.5,0,0,1,.4.2.8.8,0,0,1,.2.4.5.5,0,0,1-.2.4c-.1.2-.2.2-.4.2s-.3,0-.4-.2a.5.5,0,0,1-.2-.4.8.8,0,0,1,.2-.4A.5.5,0,0,1,254.3,482.1Z" transform="translate(-113.2 -26.2)"/>
      <path class="cls-4" d="M258.1,482.1v7.1c0,.4,0,.6.1.7s.1.2.2.3h.6v.3h-2.6v-.3h.5l.2-.3v-6.6a.4.4,0,0,0-.1-.3h-.6v-.2l1.6-.7Z" transform="translate(-113.2 -26.2)"/>
      <path class="cls-4" d="M261.2,486.1l.7-.7.6-.3.6-.2a1.1,1.1,0,0,1,.8.3,1.3,1.3,0,0,1,.5.9,3.5,3.5,0,0,1,1-.9,1.6,1.6,0,0,1,.9-.3,1.3,1.3,0,0,1,.8.3c.2.1.3.3.5.7a2.8,2.8,0,0,1,.1,1v2.3c0,.4,0,.6.1.7s.1.2.2.3h.5v.3h-2.6v-.3h.6c.1,0,.2-.1.2-.3v-2.9a2.2,2.2,0,0,0-.1-.9,1,1,0,0,0-.8-.4l-.6.2-.7.6h-.1v3.5c.1.1.1.2.3.3h.5v.3h-2.7v-.3h.6q.2,0,.3-.3v-2.9a2,2,0,0,0-.2-.9.8.8,0,0,0-.7-.4l-.6.2-.8.6v2.8c0,.4,0,.6.1.7s.1.2.2.3h.6v.3h-2.7v-.3h.5l.3-.3v-3.8a.4.4,0,0,0-.1-.3h-.7v-.2l1.6-.7h.3Z" transform="translate(-113.2 -26.2)"/>
      <path class="cls-4" d="M272,489.7c-.6.4-.9.7-1.1.7l-.6.2a1.3,1.3,0,0,1-.9-.4,1.3,1.3,0,0,1-.4-1,1.4,1.4,0,0,1,.2-.7c.1-.3.4-.5.8-.7a7.7,7.7,0,0,1,2-.9v-.2a1.6,1.6,0,0,0-.3-1.1.8.8,0,0,0-.7-.3l-.6.2-.2.4v.4c0,.2-.1.3-.1.4l-.4.2a.5.5,0,0,1-.4-.2c-.1-.1-.1-.2-.1-.4a1.1,1.1,0,0,1,.5-.9,2.3,2.3,0,0,1,1.5-.5,2,2,0,0,1,1.1.3.8.8,0,0,1,.5.5,3.1,3.1,0,0,1,.1,1.1v1.8a5.5,5.5,0,0,0,.1.9c0,.2,0,.2.1.3h.3l.5-.4v.3c-.5.6-.9.9-1.3.9a.5.5,0,0,1-.4-.2A.8.8,0,0,1,272,489.7Zm0-.4v-2l-1.2.5a1,1,0,0,0-.6.5.7.7,0,0,0-.2.6,1.4,1.4,0,0,0,.2.7.9.9,0,0,0,.6.3A2.2,2.2,0,0,0,272,489.3Z" transform="translate(-113.2 -26.2)"/>
      <path class="cls-4" d="M275.9,482.1v5.4l1.3-1.3c.3-.2.5-.4.5-.5h.1a.3.3,0,0,0-.1-.2h-.3v-.2h2.3v.2h-.8l-.7.5-1.4,1.3,1.4,1.7c.4.5.6.8.8.9a1,1,0,0,0,.5.4h.5v.3h-2.6v-.3h.3V490c0-.1,0-.2-.2-.4l-1.6-2.1v2.4l.2.3h.6v.3H274v-.3h.8a1.5,1.5,0,0,0,.1-.7v-4.9a2.5,2.5,0,0,0-.1-1.1c0-.2,0-.3-.1-.3h-.6v-.2l1.6-.7Z" transform="translate(-113.2 -26.2)"/>
      <path class="cls-4" d="M282.9,484.9a2.1,2.1,0,0,1,1.9,1,2.4,2.4,0,0,1,.7,1.8,2.5,2.5,0,0,1-.4,1.4,2,2,0,0,1-.9,1.1,2.3,2.3,0,0,1-1.4.4,2.3,2.3,0,0,1-1.9-.9,3.3,3.3,0,0,1-.6-1.9,2.3,2.3,0,0,1,.4-1.4,2,2,0,0,1,.9-1.1A2.8,2.8,0,0,1,282.9,484.9Zm-.2.4-.6.2a1,1,0,0,0-.5.6,5,5,0,0,0-.2,1.2,3.6,3.6,0,0,0,.5,2.1,1.4,1.4,0,0,0,1.2.8.9.9,0,0,0,.9-.5,2.2,2.2,0,0,0,.4-1.6,3.6,3.6,0,0,0-.6-2.2A1.4,1.4,0,0,0,282.7,485.3Z" transform="translate(-113.2 -26.2)"/>
      <path class="cls-4" d="M287.9,486.1l.7-.7a.9.9,0,0,1,.5-.3l.6-.2a1.4,1.4,0,0,1,.9.3,1.9,1.9,0,0,1,.5.9,2.6,2.6,0,0,1,1-.9,1.6,1.6,0,0,1,.9-.3,1.1,1.1,0,0,1,.7.3,1,1,0,0,1,.5.7,2.5,2.5,0,0,1,.2,1v3l.3.3h.5v.3h-2.7v-.3h.7c.1,0,.1-.1.2-.3v-2.9a2,2,0,0,0-.2-.9.8.8,0,0,0-.7-.4l-.6.2-.8.6h0v2.8c0,.4,0,.6.1.7s.1.2.2.3h.6v.3h-2.7v-.3h.6c.1,0,.2-.1.2-.3a1.5,1.5,0,0,0,.1-.6v-2.3a2,2,0,0,0-.2-.9.9.9,0,0,0-.8-.4l-.6.2a2.2,2.2,0,0,0-.7.6v3.5l.3.3h.5v.3h-2.6v-.3h.5c.1-.1.2-.2.2-.3s.1-.3.1-.7v-2a2.5,2.5,0,0,0-.1-1.1c0-.2,0-.3-.1-.3s-.1-.1-.2-.1h-.4v-.2l1.6-.7h.3Z" transform="translate(-113.2 -26.2)"/>
      <path class="cls-4" d="M295.2,485.6l1.7-.6h.2v1.2a2.9,2.9,0,0,1,.8-1,1.6,1.6,0,0,1,.9-.3,1.7,1.7,0,0,1,1.4.7,3.2,3.2,0,0,1,.6,2,3.6,3.6,0,0,1-.8,2.3,2,2,0,0,1-1.6.7h-.8l-.5-.4v1.7c0,.4,0,.6.1.7a.2.2,0,0,0,.2.2h.6v.2h-2.8v-.2h.7l.2-.2V486l-.2-.2h-.6Zm1.9,1v2.8a2.1,2.1,0,0,0,.4.6,1.3,1.3,0,0,0,.8.3,1.2,1.2,0,0,0,1-.5,2.6,2.6,0,0,0,.5-1.7,2.9,2.9,0,0,0-.6-1.9,1,1,0,0,0-.9-.4h-.5A2.2,2.2,0,0,0,297.1,486.6Z" transform="translate(-113.2 -26.2)"/>
      <path class="cls-4" d="M303.2,484.9v1.2c.4-.8.9-1.2,1.4-1.2l.5.2c.1.2.2.3.2.5l-.2.4h-.3a.6.6,0,0,1-.5-.2l-.4-.2h-.2a5.6,5.6,0,0,0-.5.8v2.6a1.5,1.5,0,0,0,.1.7c0,.1.1.2.3.2h.5v.3h-2.7v-.3h.6c.1,0,.1-.1.2-.3v-3.7l-.2-.3c0-.1-.1-.1-.2-.1h-.4v-.2l1.6-.7Z" transform="translate(-113.2 -26.2)"/>
      <path class="cls-4" d="M306.5,487.1a2.9,2.9,0,0,0,.6,1.9,1.9,1.9,0,0,0,1.4.7,1.6,1.6,0,0,0,.9-.3,1.9,1.9,0,0,0,.6-1h.2a3.4,3.4,0,0,1-.7,1.5,2,2,0,0,1-1.5.6,2,2,0,0,1-1.6-.7,3.5,3.5,0,0,1,0-4.2,2.1,2.1,0,0,1,1.7-.8,2,2,0,0,1,1.5.6,2.3,2.3,0,0,1,.6,1.6Zm0-.3H309c0-.4-.1-.6-.1-.8s-.3-.3-.5-.5l-.6-.2a1.8,1.8,0,0,0-.9.4A1.8,1.8,0,0,0,306.5,486.8Z" transform="translate(-113.2 -26.2)"/>
      <path class="cls-4" d="M314.4,484.9v1.9h-.2c-.2-.6-.3-1-.6-1.2a1.2,1.2,0,0,0-.9-.3l-.6.2a.5.5,0,0,0-.3.5.8.8,0,0,0,.2.5,1.2,1.2,0,0,0,.8.5l.8.5q1.2.6,1.2,1.5a1.4,1.4,0,0,1-.6,1.2,1.6,1.6,0,0,1-1.2.4,2.3,2.3,0,0,1-1.1-.2h-.3c-.1,0-.2,0-.2.1h-.2v-1.9h.2a2.3,2.3,0,0,0,.6,1.3,1.8,1.8,0,0,0,1,.4.9.9,0,0,0,.7-.3.8.8,0,0,0,.2-.5.9.9,0,0,0-.3-.7c-.1-.2-.5-.4-1.1-.7a2.6,2.6,0,0,1-1.1-.8,1.1,1.1,0,0,1-.3-.8,1.4,1.4,0,0,1,.5-1.1,1.7,1.7,0,0,1,1.2-.5l.7.2h.6a.3.3,0,0,0,.1-.2Z" transform="translate(-113.2 -26.2)"/>
      <path class="cls-4" d="M319.1,484.9v1.9h-.2a3.3,3.3,0,0,0-.6-1.2,1.2,1.2,0,0,0-.9-.3l-.7.2a.7.7,0,0,0,0,1,1,1,0,0,0,.7.5l.9.5q1.2.6,1.2,1.5a1.4,1.4,0,0,1-.6,1.2,1.9,1.9,0,0,1-1.2.4,2.7,2.7,0,0,1-1.2-.2h-.7v-1.9h.2a2.3,2.3,0,0,0,.6,1.3,2.5,2.5,0,0,0,1.1.4.6.6,0,0,0,.6-.3.5.5,0,0,0,.3-.5.9.9,0,0,0-.3-.7l-1.1-.7c-.6-.3-1-.5-1.1-.8a1.1,1.1,0,0,1-.3-.8,1.4,1.4,0,0,1,.5-1.1,1.6,1.6,0,0,1,1.1-.5l.8.2h.5c.1,0,.1-.1.2-.2Z" transform="translate(-113.2 -26.2)"/>
      <path class="cls-4" d="M322.9,484.9a2.1,2.1,0,0,1,1.9,1,2.4,2.4,0,0,1,.7,1.8,2.5,2.5,0,0,1-.4,1.4,2,2,0,0,1-.9,1.1,2.3,2.3,0,0,1-1.4.4,2.3,2.3,0,0,1-1.9-.9,3.3,3.3,0,0,1-.6-1.9,2.3,2.3,0,0,1,.4-1.4,2,2,0,0,1,.9-1.1A2.8,2.8,0,0,1,322.9,484.9Zm-.2.4-.6.2a1,1,0,0,0-.5.6,2.5,2.5,0,0,0-.2,1.2,4.6,4.6,0,0,0,.4,2.1,1.7,1.7,0,0,0,1.3.8.9.9,0,0,0,.9-.5,2.2,2.2,0,0,0,.4-1.6,3.6,3.6,0,0,0-.6-2.2A1.4,1.4,0,0,0,322.7,485.3Z" transform="translate(-113.2 -26.2)"/>
      <path class="cls-4" d="M327.8,484.9v1.2c.5-.8.9-1.2,1.4-1.2l.5.2c.2.2.3.3.3.5l-.2.4h-.4c-.1,0-.2,0-.4-.2l-.4-.2h-.2l-.6.8v2.6c0,.3.1.5.1.7l.3.2h.6v.3H326v-.3h.6c.1,0,.2-.1.2-.3s.1-.2.1-.5v-2.1c0-.7,0-1-.1-1.1s0-.2-.1-.3H326v-.2l1.6-.7Z" transform="translate(-113.2 -26.2)"/>
      <path class="cls-4" d="M332.1,484.9v4.3c0,.4,0,.6.1.7s.1.2.2.3h.5v.3h-2.6v-.3h.5l.3-.3V486a.3.3,0,0,0-.1-.2h-.7v-.2l1.7-.7Zm-.5-2.8a.5.5,0,0,1,.4.2.4.4,0,0,1,.2.4c0,.2,0,.3-.2.4s-.2.2-.4.2a.4.4,0,0,1-.4-.2.5.5,0,0,1-.2-.4l.2-.4Z" transform="translate(-113.2 -26.2)"/>
    </g>
    <line class="cls-3" x1="39.3" y1="429.6" x2="117.2" y2="382.7"/>
    <g>
      <path class="cls-4" d="M116.5,461.8v1.8h-.2a1.7,1.7,0,0,0-.6-1.2,1.2,1.2,0,0,0-.9-.3l-.6.2c-.2.2-.3.3-.3.5a1.4,1.4,0,0,0,.2.6l.8.5.8.4q1.2.6,1.2,1.5a1.7,1.7,0,0,1-.5,1.2,2.1,2.1,0,0,1-1.3.5l-1.1-.2h-.3a.2.2,0,0,0-.2.2h-.2v-1.9h.2a2.3,2.3,0,0,0,.6,1.2,1.3,1.3,0,0,0,1,.4l.7-.2a.7.7,0,0,0,.2-.6,1.4,1.4,0,0,0-.2-.7l-1.2-.7a3.5,3.5,0,0,1-1.1-.7,1.2,1.2,0,0,1-.3-.9,1.5,1.5,0,0,1,1.7-1.5h1.3c0-.1.1-.1.1-.2Z" transform="translate(-113.2 -26.2)"/>
      <path class="cls-4" d="M120.7,466.5a7.8,7.8,0,0,1-1,.8H119a1.2,1.2,0,0,1-.9-.4,1.5,1.5,0,0,1-.3-1c0-.2,0-.5.1-.6a2.4,2.4,0,0,1,.9-.8l1.9-.9v-.2c0-.5,0-.9-.2-1.1a1,1,0,0,0-.8-.3l-.5.2c-.2.2-.3.3-.3.5v.3c0,.2,0,.4-.1.4l-.3.2-.4-.2c-.1-.1-.1-.2-.1-.4a1.1,1.1,0,0,1,.5-.9,2,2,0,0,1,1.4-.4l1.2.2a1,1,0,0,1,.5.6,2.5,2.5,0,0,1,.1,1v2.8a.3.3,0,0,1,.1.2h.4l.4-.4v.3q-.6.9-1.2.9l-.5-.2A1,1,0,0,1,120.7,466.5Zm-1.7-7c.2,0,.3,0,.4.2a.5.5,0,0,1,.2.4c0,.2-.1.3-.2.5h-.9c-.1-.2-.2-.3-.2-.5a.5.5,0,0,1,.2-.4C118.6,459.5,118.8,459.5,119,459.5Zm1.7,6.6v-2l-1.1.5-.7.5a1.4,1.4,0,0,0-.2.7,1.1,1.1,0,0,0,.3.7l.6.2A1.7,1.7,0,0,0,120.7,466.1Zm.3-6.6c.2,0,.4,0,.5.2a.5.5,0,0,1,.2.4c0,.2-.1.3-.2.5h-.9c-.1-.2-.2-.3-.2-.5a.5.5,0,0,1,.2-.4A.4.4,0,0,1,121,459.5Z" transform="translate(-113.2 -26.2)"/>
      <path class="cls-4" d="M126.1,466.5l-1.1.8h-.6a1.3,1.3,0,0,1-1-.4,1.5,1.5,0,0,1-.3-1c0-.2,0-.5.2-.6a1.5,1.5,0,0,1,.8-.8l2-.9v-.2a1.6,1.6,0,0,0-.3-1.1.9.9,0,0,0-.7-.3.8.8,0,0,0-.6.2.6.6,0,0,0-.2.5v.3c0,.2-.1.4-.2.4l-.3.2a.5.5,0,0,1-.4-.2c-.1-.1-.1-.2-.1-.4a1.4,1.4,0,0,1,.5-.9,2,2,0,0,1,1.4-.4l1.2.2a1,1,0,0,1,.5.6,2.5,2.5,0,0,1,.1,1v1.8c0,.6,0,.9.1,1s0,.2.1.2h.3l.5-.4v.3c-.5.6-.9.9-1.3.9l-.5-.2C126.1,467.1,126.1,466.9,126.1,466.5Zm-1.8-7a.6.6,0,0,1,.5.2c.1.1.1.2.1.4a.6.6,0,0,1-.2.5h-.8a.6.6,0,0,1-.2-.5c0-.2,0-.3.2-.4S124.1,459.5,124.3,459.5Zm1.8,6.6v-2l-1.2.5-.6.5a.8.8,0,0,0-.2.7,1,1,0,0,0,.2.7l.6.2A2.2,2.2,0,0,0,126.1,466.1Zm.3-6.6a.4.4,0,0,1,.4.2.5.5,0,0,1,.2.4c0,.2-.1.3-.2.5h-.9c-.1-.2-.2-.3-.2-.5a.5.5,0,0,1,.2-.4C126,459.5,126.2,459.5,126.4,459.5Z" transform="translate(-113.2 -26.2)"/>
      <path class="cls-4" d="M129.9,460.2v1.7h1.3v.4h-1.3v3.5a1,1,0,0,0,.2.7c.1.2.2.2.3.2h.4l.3-.4h.2a1.5,1.5,0,0,1-.6.9,1.1,1.1,0,0,1-.7.3l-.6-.2c-.1-.1-.3-.2-.3-.4a1.9,1.9,0,0,1-.2-.8v-3.7h-.8l.7-.5.6-.7c0-.2.2-.4.3-.8Z" transform="translate(-113.2 -26.2)"/>
      <path class="cls-4" d="M134.3,461.8a2.5,2.5,0,0,1,2,.9,2.8,2.8,0,0,1,.6,1.8,4,4,0,0,1-.3,1.5,3.6,3.6,0,0,1-1,1.1,3.3,3.3,0,0,1-1.4.4,2.4,2.4,0,0,1-1.9-1,3,3,0,0,1-.6-1.8,2.8,2.8,0,0,1,.4-1.5,2.4,2.4,0,0,1,.9-1.1A3.1,3.1,0,0,1,134.3,461.8Zm-1-2.3a.4.4,0,0,1,.4.2.5.5,0,0,1,.2.4c0,.2-.1.3-.2.5h-.9c-.1-.2-.2-.3-.2-.5a.5.5,0,0,1,.2-.4C132.9,459.5,133.1,459.5,133.3,459.5Zm.8,2.7h-.6a1.8,1.8,0,0,0-.5.7,3.7,3.7,0,0,0-.2,1.2,4.2,4.2,0,0,0,.5,2,1.4,1.4,0,0,0,1.2.9,1.1,1.1,0,0,0,.9-.5,2.4,2.4,0,0,0,.4-1.6,3.9,3.9,0,0,0-.6-2.3A1.2,1.2,0,0,0,134.1,462.2Zm1.2-2.7c.2,0,.4,0,.5.2a.5.5,0,0,1,.2.4c0,.2-.1.3-.2.5h-.9c-.1-.2-.2-.3-.2-.5a.5.5,0,0,1,.2-.4A.4.4,0,0,1,135.3,459.5Z" transform="translate(-113.2 -26.2)"/>
      <path class="cls-4" d="M137.4,461.9h2.5v.3h-.5c-.1,0-.1.1-.1.3a.6.6,0,0,0,.1.4l1.3,3,1.2-3.1c.1-.2.2-.3.2-.5H142a.1.1,0,0,0-.1-.1h-.5v-.3h1.8v.3h-.4a.9.9,0,0,0-.4.6l-1.9,4.6h-.2l-2-4.6a.5.5,0,0,0-.2-.4l-.3-.2h-.4Z" transform="translate(-113.2 -26.2)"/>
      <path class="cls-4" d="M144.6,464a2.4,2.4,0,0,0,.6,1.8,1.6,1.6,0,0,0,1.3.7,1.7,1.7,0,0,0,1-.3,2.9,2.9,0,0,0,.6-1h.2a2.6,2.6,0,0,1-.7,1.5,2.1,2.1,0,0,1-1.5.7,2.5,2.5,0,0,1-1.7-.8,3.2,3.2,0,0,1-.6-2,3.2,3.2,0,0,1,.7-2.2,2.1,2.1,0,0,1,1.7-.7,2,2,0,0,1,1.5.6,2.1,2.1,0,0,1,.6,1.6Zm0-.4h2.5a5.6,5.6,0,0,0-.1-.7l-.5-.5-.6-.2a1.2,1.2,0,0,0-.9.4A1.5,1.5,0,0,0,144.6,463.6Z" transform="translate(-113.2 -26.2)"/>
      <path class="cls-4" d="M150.6,462.9a2.6,2.6,0,0,1,1.8-1.1l.7.2a1.3,1.3,0,0,1,.5.7,3.1,3.1,0,0,1,.2,1.1v3l.3.2h.5v.2h-2.7v-.2h.7l.2-.4v-2.7a3.1,3.1,0,0,0-.2-1.1.6.6,0,0,0-.6-.3,1.9,1.9,0,0,0-1.4.8v3.5l.3.2h.6v.2h-2.7v-.2h.1a.8.8,0,0,0,.6-.2,1.7,1.7,0,0,0,.1-.8v-3.2l-.2-.3h-.6v-.2l1.6-.6h.3Z" transform="translate(-113.2 -26.2)"/>
      <path class="cls-4" d="M156.6,460.2v1.7h1.2v.4h-1.2v3.5c0,.4,0,.6.1.7s.2.2.4.2h.4l.3-.4h.2a1.5,1.5,0,0,1-.6.9,1.1,1.1,0,0,1-.8.3l-.5-.2a.8.8,0,0,1-.4-.4,1.9,1.9,0,0,1-.1-.8v-3.7h-.8l.6-.5.6-.7.4-.8Z" transform="translate(-113.2 -26.2)"/>
      <path class="cls-4" d="M159.9,460.2v1.7h1.3v.4h-1.3v3.5a1,1,0,0,0,.2.7c.1.2.2.2.3.2h.4l.3-.4h.2a1.5,1.5,0,0,1-.6.9,1.1,1.1,0,0,1-.7.3l-.6-.2c-.1-.1-.3-.2-.3-.4a1.9,1.9,0,0,1-.2-.8v-3.7h-.8l.6-.5a1.3,1.3,0,0,0,.6-.7,2.9,2.9,0,0,0,.4-.8Z" transform="translate(-113.2 -26.2)"/>
      <path class="cls-4" d="M163.5,461.8v4.3a5.6,5.6,0,0,0,.1.7c.1.1.1.2.2.2h.5v.2h-2.6v-.2h.6c.1,0,.1-.1.2-.2s.1-.4.1-.7V464a10.4,10.4,0,0,0-.1-1.1v-.3h-.7v-.2l1.6-.6ZM163,459h.5a.9.9,0,0,1,.1.5.6.6,0,0,1-.1.4l-.5.2-.4-.2-.2-.4c0-.2.1-.3.2-.5Z" transform="translate(-113.2 -26.2)"/>
      <path class="cls-4" d="M166.9,461.8v5l.3.2h.5v.2h-2.6v-.2h.5l.2-.2a1.5,1.5,0,0,0,.1-.7V464a2.8,2.8,0,0,0-.1-1.1.4.4,0,0,0-.1-.3h-.6v-.2l1.6-.6Zm-.5-2.8h.4c.1.2.2.3.2.5l-.2.4-.4.2a.5.5,0,0,1-.4-.2.4.4,0,0,1-.2-.4.6.6,0,0,1,.2-.5Z" transform="translate(-113.2 -26.2)"/>
      <path class="cls-4" d="M170.2,459v7.1a1.5,1.5,0,0,0,.1.7.2.2,0,0,0,.2.2h.6v.2h-2.7v-.2h.5a.2.2,0,0,0,.2-.2,1.5,1.5,0,0,0,.1-.7v-6c0-.1-.1-.2-.2-.3h-.6v-.2l1.6-.6Z" transform="translate(-113.2 -26.2)"/>
      <path class="cls-4" d="M173.5,461.8v4.3a5.6,5.6,0,0,0,.1.7c.1.1.1.2.2.2h.5v.2h-2.6v-.2h.6c.1,0,.1-.1.2-.2s.1-.4.1-.7V464a10.4,10.4,0,0,0-.1-1.1v-.3h-.7v-.2l1.6-.6ZM173,459h.5a.9.9,0,0,1,.1.5.6.6,0,0,1-.1.4l-.5.2-.4-.2a.6.6,0,0,1-.1-.4.9.9,0,0,1,.1-.5Z" transform="translate(-113.2 -26.2)"/>
    </g>
  </g>
  <g id="Layer_6" data-name="Layer 6">
    <path class="cls-13" d="M307.5,367.3l1.4-.2" transform="translate(-113.2 -26.2)"/>
    <path class="cls-13" d="M295.4,380.3a32.6,32.6,0,0,1-4.2-1.5c-1.5-.8-2.4-1.7-2.4-2.6s1.9-2.5,5.2-3.6a78.1,78.1,0,0,1,12.5-2.5" transform="translate(-113.2 -26.2)"/>
    <path class="cls-13" d="M298.1,377.9l-1.8-.5" transform="translate(-113.2 -26.2)"/>
    <path class="cls-13" d="M308.9,367.1a218.4,218.4,0,0,1,22.8-1.2c23.2,0,42,3.4,42,7.5s-18.8,7.5-42,7.5c-13.7,0-26.8-.4-34.4-2.2" transform="translate(-113.2 -26.2)"/>
    <line class="cls-14" x1="260.4" y1="347.3" x2="297.8" y2="346.8"/>
    <ellipse class="cls-13" cx="72.2" cy="337.6" rx="26.3" ry="5.1"/>
    <path class="cls-8" d="M213.8,363.8A197.9,197.9,0,0,0,315,380" transform="translate(-113.2 -26.2)"/>
    <line class="cls-14" x1="302.5" y1="346.8" x2="319" y2="346.6"/>
  </g>
  <g id="pullo_2" data-name="pullo 2">
    <line class="cls-3" x1="221.7" y1="101" x2="221.7" y2="109.4"/>
    <line class="cls-3" x1="224.2" y1="101" x2="224.2" y2="109.4"/>
    <ellipse class="cls-3" cx="222.9" cy="100.9" rx="1.2" ry="0.4"/>
    <path class="cls-3" d="M337.4,135.4c0,.2-.5.3-1.2.3s-1.2-.1-1.2-.3" transform="translate(-113.2 -26.2)"/>
  </g>
</svg>
