<svg id="Layer_1" data-name="Layer 1" xmlns="http://www.w3.org/2000/svg" viewBox="0 0 409.4 469.3">
  <defs>
    <style>
      .cls-1, .cls-10, .cls-11, .cls-12, .cls-13, .cls-15, .cls-16, .cls-17, .cls-18, .cls-2, .cls-4, .cls-5, .cls-6, .cls-7, .cls-8, .cls-9 {
        fill: none;
      }

      .cls-1, .cls-10, .cls-11, .cls-12, .cls-13, .cls-14, .cls-15, .cls-16, .cls-17, .cls-18, .cls-2, .cls-4, .cls-5, .cls-6, .cls-7, .cls-8, .cls-9 {
        stroke: #1d1d1b;
        stroke-miterlimit: 10;
      }

      .cls-2, .cls-7, .cls-9 {
        opacity: 0.4;
      }

      .cls-3 {
        fill: #1d1d1b;
      }

      .cls-4, .cls-6, .cls-8, .cls-9 {
        stroke-width: 0.75px;
      }

      .cls-11, .cls-15, .cls-16, .cls-17, .cls-18, .cls-5, .cls-7 {
        stroke-width: 0.5px;
      }

      .cls-10, .cls-6 {
        opacity: 0.2;
      }

      .cls-20, .cls-8 {
        opacity: 0.3;
      }

      .cls-11 {
        opacity: 0.6;
      }

      .cls-12 {
        opacity: 0.5;
      }

      .cls-13 {
        stroke-width: 3px;
      }

      .cls-14 {
        fill: #fff;
      }

      .cls-15 {
        stroke-dasharray: 3.02 3.02;
      }

      .cls-16 {
        stroke-dasharray: 3.02 3.02;
      }

      .cls-17 {
        stroke-dasharray: 1.97 1.97;
      }

      .cls-18 {
        stroke-dasharray: 2.26 2.26;
      }

      .cls-19 {
        opacity: 0.1;
      }
    </style>
  </defs>
  <path class="cls-1" d="M464.9,370.2" transform="translate(-77 -171.2)"/>
  <path class="cls-1" d="M459.9,370.2" transform="translate(-77 -171.2)"/>
  <line class="cls-1" x1="338.5" y1="3.9" x2="338.5" y2="289.5"/>
  <line class="cls-1" x1="374.5" y1="3.9" x2="374.5" y2="289.5"/>
  <path class="cls-1" d="M415.5,479.6c-6-6.3-6-12.6,0-18.8" transform="translate(-77 -171.2)"/>
  <path class="cls-1" d="M451.5,460.8c6,6.2,6,12.5,0,18.8" transform="translate(-77 -171.2)"/>
  <path class="cls-2" d="M413.1,591.8c-6.8-13.3-9-20-9-36.6" transform="translate(-77 -171.2)"/>
  <ellipse class="cls-1" cx="356.5" cy="3.9" rx="18" ry="3.4"/>
  <line class="cls-1" x1="315.5" y1="377.5" x2="315.5" y2="386.5"/>
  <line class="cls-1" x1="400.3" y1="377.5" x2="400.3" y2="386.5"/>
  <line class="cls-1" x1="320.3" y1="389" x2="320.3" y2="447.9"/>
  <line class="cls-1" x1="393.1" y1="389" x2="393.1" y2="447.9"/>
  <g>
    <g>
      <ellipse class="cls-1" cx="356.5" cy="224.8" rx="14.7" ry="3.5"/>
      <ellipse class="cls-1" cx="356.5" cy="160.9" rx="14.7" ry="3.5"/>
    </g>
    <line class="cls-1" x1="341.7" y1="224.8" x2="341.7" y2="160.9"/>
    <line class="cls-1" x1="371.2" y1="224.8" x2="371.2" y2="160.9"/>
  </g>
  <g>
    <path class="cls-3" d="M420,466.5l-.4,1.4a5.6,5.6,0,0,1,1.1-1.1l1-.3a1,1,0,0,1,.9.4,1.5,1.5,0,0,1,.4,1.1,4.1,4.1,0,0,1-1,2.6,3.1,3.1,0,0,1-2.5,1.3H419l-.5-.2-.4,1.5-.2.5c0,.1.1.2.1.3h.8v.2H416v-.2l.7-.2a1.9,1.9,0,0,0,.4-.9l1.5-5.2a1.8,1.8,0,0,0,.1-.6c0-.1,0-.2-.1-.2s-.1-.1-.2-.1H418v-.2Zm-1.4,4.7a1.3,1.3,0,0,0,1,.4h.6l.6-.5.6-.8.4-1a5,5,0,0,0,.2-1.2,1.2,1.2,0,0,0-.2-.7c-.2-.2-.3-.3-.5-.3a2.4,2.4,0,0,0-1.3.7,5.6,5.6,0,0,0-.9,1.7Z" transform="translate(-77 -171.2)"/>
    <path class="cls-3" d="M430.4,471v-2.9h-3v-.5h3v-2.9h.4v2.9h3v.5h-3V471Z" transform="translate(-77 -171.2)"/>
    <path class="cls-3" d="M444.1,471.8h-7l3.7-8.1Zm-1.4-.5-2.3-5.6-2.6,5.6Z" transform="translate(-77 -171.2)"/>
    <path class="cls-3" d="M447.4,466.5l-.4,1.4a5.7,5.7,0,0,1,1.2-1.1,1.7,1.7,0,0,1,1-.3,1.2,1.2,0,0,1,.9.4,2,2,0,0,1,.3,1.1,4.1,4.1,0,0,1-1,2.6,3,3,0,0,1-2.4,1.3h-.6l-.5-.2-.4,1.5a1.8,1.8,0,0,0-.1.5v.3h.9v.2h-2.7v-.2l.7-.2c.2-.1.3-.4.4-.9l1.5-5.2.2-.6a.3.3,0,0,0-.1-.2h-.8v-.2Zm-1.3,4.7a1,1,0,0,0,.9.4h.7l.6-.5a3.5,3.5,0,0,0,.5-.8l.5-1a4.9,4.9,0,0,0,.1-1.2c0-.3,0-.6-.2-.7a.5.5,0,0,0-.5-.3,1.9,1.9,0,0,0-1.2.7,5.6,5.6,0,0,0-.9,1.7Z" transform="translate(-77 -171.2)"/>
  </g>
  <g>
    <line class="cls-4" x1="312.2" y1="188" x2="312.6" y2="244"/>
    <path class="cls-3" d="M389.7,419.8a23.5,23.5,0,0,0-3.6-6.4l3.5,1.3,3.6-1.4A21.4,21.4,0,0,0,389.7,419.8Z" transform="translate(-77 -171.2)"/>
  </g>
  <path class="cls-3" d="M384.3,381.9l-.2.6h-1a1.3,1.3,0,0,1,.1.6,1.8,1.8,0,0,1-.6,1.3,2.9,2.9,0,0,1-1.9.7,1.9,1.9,0,0,0-.9.5h-.1a.4.4,0,0,0,.1.3l.5.2,1.2.2a3.5,3.5,0,0,1,1.2.5,1.3,1.3,0,0,1,.3.8,1.1,1.1,0,0,1-.3.8,3,3,0,0,1-1.1.7l-1.5.2-1.3-.2-.9-.4a1.4,1.4,0,0,1-.2-.7,1.1,1.1,0,0,1,.1-.5l.5-.4.9-.6c-.2-.1-.3-.2-.3-.4s.1-.3.2-.5l1-.6a3.1,3.1,0,0,1-1-.5,1.8,1.8,0,0,1-.4-1,1.9,1.9,0,0,1,.8-1.4,2.5,2.5,0,0,1,1.9-.7h.7a.9.9,0,0,1,.6.3Zm-4.9,4.9a1.3,1.3,0,0,0-.7.6.7.7,0,0,0-.2.6.9.9,0,0,0,.3.7,2.8,2.8,0,0,0,1.5.3,3.2,3.2,0,0,0,1.4-.3.7.7,0,0,0,.6-.7.8.8,0,0,0-.2-.4,1.5,1.5,0,0,0-.9-.4Zm2.8-4a1.9,1.9,0,0,0-.2-.8l-.7-.2a1.3,1.3,0,0,0-1.1.6,2.5,2.5,0,0,0-.4,1.4,1.1,1.1,0,0,0,.2.8.8.8,0,0,0,.7.2h.6a1.2,1.2,0,0,0,.5-.5,3.4,3.4,0,0,0,.3-.8A1.8,1.8,0,0,0,382.2,382.8Z" transform="translate(-77 -171.2)"/>
  <line class="cls-5" x1="356.5" y1="160.9" x2="398.6" y2="146.7"/>
  <path class="cls-3" d="M486.1,310l-.6,6.7a1.8,1.8,0,0,0-.1.6c0,.1.1.2.1.3l.3.3h.7v.2h-3.1V318h.2l.6-.2.3-.4a3.2,3.2,0,0,1,.1-.8v-1h-2.3l-.8,1.1-.4.5v.3a.4.4,0,0,0,.1.3l.5.2v.2h-2.4V318l.7-.3a4.4,4.4,0,0,0,1-1.2l4.8-6.5Zm-1.2,2-2.3,3.1h2Z" transform="translate(-77 -171.2)"/>
  <path class="cls-3" d="M431.5,362.7l-.7,2.7a5.6,5.6,0,0,1,.9-1.4,3.6,3.6,0,0,1,1-1.1l.7-.2.5.2c.1.2.2.3.2.5a3.1,3.1,0,0,1-.2.8l-.4,1.4a16.5,16.5,0,0,1,1.8-2.5,2.1,2.1,0,0,1,1-.4l.4.2a.8.8,0,0,1,.2.6c0,.2-.1.5-.1.7l-.7,2.3a7.3,7.3,0,0,1-.2.8v.2h.3l.6-.7h.2l-.5.7-.7.5-.5.2-.3-.2a.4.4,0,0,1-.1-.3,2.8,2.8,0,0,1,.2-1.1l.5-1.9a1.7,1.7,0,0,0,.2-.7c0-.1.1-.2.1-.3a.3.3,0,0,1-.1-.2h-.2l-.5.3a9.5,9.5,0,0,0-1.5,2.1,16.5,16.5,0,0,0-.9,2.2h-.9l1-3.5a1.5,1.5,0,0,0,.2-.8c0-.1,0-.2-.1-.2s0-.1-.1-.1l-.4.2a1.9,1.9,0,0,0-.9.9,6,6,0,0,0-.9,1.5l-.7,2h-.8l1-3.8.2-.4v-.2c0-.1,0-.2-.1-.2h-.7v-.2Z" transform="translate(-77 -171.2)"/>
  <g>
    <path class="cls-3" d="M431.2,282.2l-.4,1.3a4.7,4.7,0,0,1,1.1-1,1.9,1.9,0,0,1,1-.3,1,1,0,0,1,.9.4,1.2,1.2,0,0,1,.4,1,4.5,4.5,0,0,1-1.1,2.7,3,3,0,0,1-2.4,1.3h-.5l-.5-.2-.5,1.5a3.5,3.5,0,0,1-.1.6c0,.1,0,.2.1.2l.2.2h.6v.2h-2.7v-.2a1.3,1.3,0,0,0,.8-.2,4.1,4.1,0,0,0,.4-.9l1.5-5.1a1.8,1.8,0,0,0,.1-.6.4.4,0,0,0-.1-.3h-.7v-.2Zm-1.4,4.6a1.2,1.2,0,0,0,1,.5l.6-.2.6-.5.6-.8a10.4,10.4,0,0,0,.4-1,5,5,0,0,0,.2-1.2,1.4,1.4,0,0,0-.2-.7.6.6,0,0,0-.5-.2,1.6,1.6,0,0,0-1.3.7,4.6,4.6,0,0,0-.9,1.7Z" transform="translate(-77 -171.2)"/>
    <path class="cls-3" d="M436.9,286.7a.9.9,0,0,1,.8.4,1.6,1.6,0,0,1,.3,1.1,3.2,3.2,0,0,1-.3,1.4,2.3,2.3,0,0,1-.6,1.2,1.3,1.3,0,0,1-.7.6H436a1.1,1.1,0,0,1-.8-.3,2.1,2.1,0,0,1-.3-1.2,5,5,0,0,1,.3-1.6,8.5,8.5,0,0,1,.9-1.4A1.3,1.3,0,0,1,436.9,286.7Zm0,.2-.4.2-.4.6a10.4,10.4,0,0,0-.4,1.3,6.1,6.1,0,0,0-.3,1.7.8.8,0,0,0,.2.5c.1.2.2.2.4.2h.3a3.2,3.2,0,0,0,.7-1.3,8,8,0,0,0,.4-2.4.7.7,0,0,0-.1-.5A.5.5,0,0,0,436.9,286.9Z" transform="translate(-77 -171.2)"/>
  </g>
  <path class="cls-6" d="M417.6,481.4c12.9,2.4,23.1,2,31.8,0" transform="translate(-77 -171.2)"/>
  <path class="cls-1" d="M415.5,479.6c-19,2-9.1,59.7-18.2,68.8" transform="translate(-77 -171.2)"/>
  <ellipse class="cls-1" cx="357.9" cy="377.2" rx="42.4" ry="4.5"/>
  <ellipse class="cls-7" cx="356.5" cy="377.2" rx="31.1" ry="2.1"/>
  <path class="cls-7" d="M397.3,548.4c0-1.9,16.2-3.5,36.2-3.5s36.2,1.6,36.2,3.5" transform="translate(-77 -171.2)"/>
  <path class="cls-5" d="M469.7,548.4c0,1.7-16.2,3.2-36.2,3.2s-36.2-1.5-36.2-3.2" transform="translate(-77 -171.2)"/>
  <path class="cls-1" d="M477.4,557.7c0,2.5-19,4.5-42.5,4.5s-42.4-2-42.4-4.5" transform="translate(-77 -171.2)"/>
  <path class="cls-2" d="M452.6,591.8c6.7-13.3,9-20,9-36.6" transform="translate(-77 -171.2)"/>
  <path class="cls-1" d="M451.5,479.6c19.1,2,9.1,59.7,18.2,68.8" transform="translate(-77 -171.2)"/>
  <polyline class="cls-1" points="150.3 170.1 199.1 170.2 199.1 172.1 149.3 172.1"/>
  <path class="cls-1" d="M169,449.6a46.7,46.7,0,0,1,8.9-2.7V410.6" transform="translate(-77 -171.2)"/>
  <path class="cls-1" d="M160.7,502.1c-10.2-9.4-10.2-23.4-10.2-23.4,0-15.6,11.9-24.7,13.2-25.7" transform="translate(-77 -171.2)"/>
  <path class="cls-1" d="M201.7,504.5c-8,6.4-19.1,6.3-19.1,6.3a32.4,32.4,0,0,1-19-6.3" transform="translate(-77 -171.2)"/>
  <path class="cls-1" d="M187.4,410.6v36.2h-.1a32.3,32.3,0,0,1,27.5,31.8c0,11.4-6.2,20.1-10.6,23.6" transform="translate(-77 -171.2)"/>
  <path class="cls-1" d="M182.6,478.7" transform="translate(-77 -171.2)"/>
  <path class="cls-1" d="M177.8,446.6" transform="translate(-77 -171.2)"/>
  <path class="cls-1" d="M209.4,496.4c5.4,1.1,8.9,1.8,8.9,2.6s-16.1,4-36,4-36-1.8-36-4,4.6-1.7,9.5-2.5" transform="translate(-77 -171.2)"/>
  <path class="cls-1" d="M182.3,495" transform="translate(-77 -171.2)"/>
  <path class="cls-1" d="M208.2,498c3.8.5,13.1,1.7,13.1,3s-17.5,4-39,4-39-1.8-39-4,5.3-2.3,13.7-3" transform="translate(-77 -171.2)"/>
  <polyline class="cls-1" points="72.8 331.7 58.8 418 52.2 458.5"/>
  <line class="cls-1" x1="135.1" y1="332.6" x2="147.4" y2="469.3"/>
  <line class="cls-1" x1="106.2" y1="339.6" x2="106.2" y2="431.8"/>
  <path class="cls-1" d="M175.7,409.7c0,.8,3.1,1.4,7,1.4s6.9-.6,6.9-1.4" transform="translate(-77 -171.2)"/>
  <line class="cls-1" x1="98.7" y1="238.9" x2="98.7" y2="235.2"/>
  <path class="cls-1" d="M189.6,410.2v0Z" transform="translate(-77 -171.2)"/>
  <line class="cls-1" x1="87.9" y1="285.8" x2="85.9" y2="279.4"/>
  <line class="cls-1" x1="90.5" y1="276.1" x2="96.4" y2="283.1"/>
  <path class="cls-1" d="M159.5,441.4c-1,.9-1.9,2.6-1.4,3.6s3.2,1.2,5,.2,3.1-3,2.5-4.3-3.1-1-4-.7" transform="translate(-77 -171.2)"/>
  <path class="cls-1" d="M165.9,441.3l2.3,4.2-.5-.9c.9,1.6-.1,3.8-2.1,5s-4.5.7-5.3-1h-.1l-1.7-3.2" transform="translate(-77 -171.2)"/>
  <path class="cls-8" d="M164.9,451.1,194.3,505" transform="translate(-77 -171.2)"/>
  <path class="cls-9" d="M162.4,446.6l.6,1" transform="translate(-77 -171.2)"/>
  <path class="cls-4" d="M158.3,439l2.8,5.3" transform="translate(-77 -171.2)"/>
  <path class="cls-4" d="M163.1,443.3c0-.1-2.7-5.1-2.8-5.3" transform="translate(-77 -171.2)"/>
  <path class="cls-9" d="M164.9,446.6l-.6-1" transform="translate(-77 -171.2)"/>
  <path class="cls-8" d="M195.3,503l-28.5-52.8" transform="translate(-77 -171.2)"/>
  <path class="cls-1" d="M180.4,345.6v34.9a2.2,2.2,0,0,0-1.5,2c0,1.5.9,1.2,1.5,2s-1.7,3.2-2,5,0,17,0,17" transform="translate(-77 -171.2)"/>
  <ellipse class="cls-1" cx="105.7" cy="235.1" rx="6.9" ry="1.4"/>
  <path class="cls-1" d="M187.4,406.5v-17c.3-2.1-3-4.6-2-5s1.1-.6,1.5-1.8-1.5-2.2-1.5-2.2V345.6" transform="translate(-77 -171.2)"/>
  <line class="cls-1" x1="103.3" y1="160.8" x2="103.3" y2="135.4"/>
  <line class="cls-1" x1="108.3" y1="160.8" x2="108.3" y2="135.4"/>
  <path class="cls-1" d="M185.4,307.1" transform="translate(-77 -171.2)"/>
  <path class="cls-1" d="M180.4,307.1" transform="translate(-77 -171.2)"/>
  <path class="cls-1" d="M180.4,306.6c0-.5,1.1-1,2.5-1s2.5.5,2.5,1" transform="translate(-77 -171.2)"/>
  <path class="cls-1" d="M168.5,449.7" transform="translate(-77 -171.2)"/>
  <path class="cls-1" d="M163.6,452.8" transform="translate(-77 -171.2)"/>
  <path class="cls-10" d="M157.4,498a349.8,349.8,0,0,1,51.2,0" transform="translate(-77 -171.2)"/>
  <path class="cls-10" d="M155.8,496.5a368.9,368.9,0,0,1,53.6-.1" transform="translate(-77 -171.2)"/>
  <line class="cls-10" x1="106.2" y1="325.7" x2="106.2" y2="339.5"/>
  <line class="cls-10" x1="102" y1="236.6" x2="103.6" y2="243.6"/>
  <line class="cls-10" x1="109.6" y1="236.5" x2="108" y2="243.6"/>
  <path class="cls-11" d="M192.8,453.5c6.5,6.2,8.5,11.7,9,15.8s-.6,9.4,1.2,10.2,4.5-1.5,5.5-4.4c1.7-4.5-2-9.7-3.9-12.4A27.4,27.4,0,0,0,192.8,453.5Z" transform="translate(-77 -171.2)"/>
  <path class="cls-12" d="M180.4,306.6a6.2,6.2,0,0,0,5,0" transform="translate(-77 -171.2)"/>
  <path class="cls-1" d="M192.4,428.4H279V426H192.4" transform="translate(-77 -171.2)"/>
  <line class="cls-1" x1="70.3" y1="176.8" x2="123.3" y2="176.8"/>
  <path class="cls-1" d="M175.4,343" transform="translate(-77 -171.2)"/>
  <path class="cls-1" d="M147.4,348" transform="translate(-77 -171.2)"/>
  <line class="cls-1" x1="123.3" y1="176.8" x2="150.3" y2="171.8"/>
  <rect class="cls-1" x="98.3" y="160.8" width="52" height="11"/>
  <line class="cls-1" x1="70.3" y1="176.8" x2="70.3" y2="168.8"/>
  <path class="cls-1" d="M155.4,346.6" transform="translate(-77 -171.2)"/>
  <line class="cls-1" x1="87.3" y1="163.8" x2="87.3" y2="173.8"/>
  <line class="cls-1" x1="79.3" y1="165.8" x2="79.3" y2="174.8"/>
  <line class="cls-1" x1="70.3" y1="176.8" x2="79.3" y2="174.8"/>
  <line class="cls-1" x1="87.3" y1="173.8" x2="98.3" y2="171.8"/>
  <line class="cls-1" x1="87.3" y1="173.8" x2="120.3" y2="173.8"/>
  <line class="cls-1" x1="78.8" y1="174.8" x2="112.3" y2="174.8"/>
  <line class="cls-1" x1="79.3" y1="165.8" x2="70.3" y2="168.8"/>
  <line class="cls-1" x1="87.3" y1="163.8" x2="98.3" y2="160.8"/>
  <line class="cls-1" x1="79.3" y1="165.8" x2="87.3" y2="165.8"/>
  <line class="cls-13" x1="118.8" y1="175.8" x2="118.8" y2="188.3"/>
  <line class="cls-13" x1="123.3" y1="174.3" x2="123.3" y2="186.8"/>
  <path class="cls-2" d="M200.5,357.8c-.6,7.8,2.1,15.4,4.8,22.6a38.5,38.5,0,0,0,2.8,6.6c5,9.2,15,13.3,24.1,17.6s19.4,18.9,20.7,21.1" transform="translate(-77 -171.2)"/>
  <path class="cls-2" d="M195.4,359.2a83.5,83.5,0,0,0,3.9,18.5c1.9,5.7,4.6,11.4,9.2,15.5a41.2,41.2,0,0,0,6.5,4.4c6.7,3.9,13.9,7.1,20.3,11.5s12,9.9,14.2,16.9" transform="translate(-77 -171.2)"/>
  <path class="cls-14" d="M192.4,431.7a29,29,0,0,1-16.5,0V424a43.6,43.6,0,0,0,16.5,0Z" transform="translate(-77 -171.2)"/>
  <path class="cls-1" d="M187.4,420.9l3.5.2v2.6" transform="translate(-77 -171.2)"/>
  <path class="cls-1" d="M175.6,428.6l-1.2.2v-7.7l3.3-.2" transform="translate(-77 -171.2)"/>
  <path class="cls-10" d="M178.5,420.9h8.3" transform="translate(-77 -171.2)"/>
  <rect class="cls-14" x="115.3" y="253.7" width="8" height="4.93"/>
  <polyline class="cls-1" points="121.8 253.2 121.8 251.2 113.9 251.2"/>
  <path class="cls-1" d="M196.1,426.7c-.1-.1-.2,0-.4.1l-1.1,1.1c-.2.2-.4.5-.2.7h3.7v-.3a2.1,2.1,0,0,0-2-1.9" transform="translate(-77 -171.2)"/>
  <path class="cls-1" d="M193.8,422.6a3.8,3.8,0,0,1,0-1.5c0-.1.1-.2.1-.3a.5.5,0,0,1,.7.1,1.1,1.1,0,0,1,.3.7,1.1,1.1,0,0,0,.3.8" transform="translate(-77 -171.2)"/>
  <line class="cls-5" x1="104.7" y1="200.5" x2="104.7" y2="208.8"/>
  <line class="cls-5" x1="107.1" y1="200.5" x2="107.1" y2="208.8"/>
  <ellipse class="cls-5" cx="105.9" cy="200.4" rx="1.2" ry="0.4"/>
  <path class="cls-5" d="M184.2,379.9c0,.2-.6.4-1.2.4s-1.3-.2-1.3-.4" transform="translate(-77 -171.2)"/>
  <g>
    <line class="cls-5" x1="332.3" y1="7.2" x2="331" y2="8"/>
    <line class="cls-15" x1="328.3" y1="9.5" x2="115.2" y2="132.9"/>
    <line class="cls-5" x1="113.9" y1="133.6" x2="112.6" y2="134.4"/>
  </g>
  <g>
    <line class="cls-5" x1="312.4" y1="378.8" x2="311.2" y2="377.9"/>
    <line class="cls-16" x1="308.7" y1="376.1" x2="118.2" y2="240.2"/>
    <line class="cls-5" x1="117" y1="239.4" x2="115.8" y2="238.5"/>
  </g>
  <path class="cls-1" d="M156.5,439.2a4.9,4.9,0,0,0,4.5-2.4" transform="translate(-77 -171.2)"/>
  <path class="cls-1" d="M161.3,437.2a73.6,73.6,0,0,0-16.5-23" transform="translate(-77 -171.2)"/>
  <path class="cls-1" d="M156.5,439.2c-2.8-8.3-7.9-15.5-14.5-21.9" transform="translate(-77 -171.2)"/>
  <g>
    <path class="cls-3" d="M77.1,383.7l1.6-.7H79v1.3a2.1,2.1,0,0,1,.8-1,1.6,1.6,0,0,1,2.2.3,2.7,2.7,0,0,1,.7,2,3.4,3.4,0,0,1-.8,2.3,2.3,2.3,0,0,1-1.7.8h-.7a1,1,0,0,1-.5-.4v2.3l.3.3h.6v.2H77v-.2h.7c.1-.1.2-.2.2-.3s.1-.3.1-.7v-5.1c0-.3,0-.5-.1-.6a.3.3,0,0,0-.1-.2h-.7Zm1.9.9v2.9l.4.6a1.1,1.1,0,0,0,.8.2,1.3,1.3,0,0,0,1-.4,2.9,2.9,0,0,0,.4-1.7,2.7,2.7,0,0,0-.5-1.9,1.4,1.4,0,0,0-.9-.5l-.6.2Z" transform="translate(-77 -171.2)"/>
    <path class="cls-3" d="M86.5,387.8l-1,.7h-.7a1.2,1.2,0,0,1-.9-.3,1.3,1.3,0,0,1-.4-1,1.4,1.4,0,0,1,.2-.7,3,3,0,0,1,.8-.8l2-.8v-.2a1.4,1.4,0,0,0-.3-1.1.8.8,0,0,0-.7-.3.7.7,0,0,0-.6.2.5.5,0,0,0-.2.4v.4a.6.6,0,0,1-.1.4h-.7a.8.8,0,0,1-.2-.5,1.4,1.4,0,0,1,.5-.9,2.4,2.4,0,0,1,1.5-.4l1.2.2c.2.2.4.3.5.6s.1.5.1,1v3h.3a2.3,2.3,0,0,0,.5-.5v.4a1.9,1.9,0,0,1-1.3.8c-.2,0-.3,0-.4-.2A.8.8,0,0,1,86.5,387.8Zm0-.4v-2.1l-1.1.5a2.2,2.2,0,0,0-.7.6,1.1,1.1,0,0,0-.2.6.9.9,0,0,0,.3.7.5.5,0,0,0,.5.3A2.2,2.2,0,0,0,86.5,387.4Z" transform="translate(-77 -171.2)"/>
    <path class="cls-3" d="M90.6,383v4.3a5.6,5.6,0,0,0,.1.7c.1.1.1.2.2.2h.6v.2H88.8v-.2h.6l.2-.2a5.6,5.6,0,0,0,.1-.7v-2.1c0-.5-.1-.9-.1-1.1a.3.3,0,0,0-.1-.2h-.7v-.2l1.6-.7Zm-.4-2.8a.4.4,0,0,1,.4.2c.1.1.1.2.1.4a.6.6,0,0,1-.1.4l-.4.2-.5-.2a.6.6,0,0,1-.1-.4c0-.2,0-.3.1-.4S90,380.2,90.2,380.2Z" transform="translate(-77 -171.2)"/>
    <path class="cls-3" d="M93.7,384.1a2.6,2.6,0,0,1,1.8-1.1l.7.2a1.2,1.2,0,0,1,.5.7,3.1,3.1,0,0,1,.2,1.1v2.3c0,.4,0,.6.1.7a.2.2,0,0,0,.2.2h.5v.2H95v-.2h.7l.2-.3v-2.8a2.2,2.2,0,0,0-.2-1,.5.5,0,0,0-.6-.4,1.9,1.9,0,0,0-1.4.8v2.8c0,.4,0,.6.1.7a.2.2,0,0,0,.2.2h.6v.2H91.9v-.2H92l.6-.2c.1-.1.1-.4.1-.8v-3.2c-.1-.1-.1-.2-.2-.2h-.6v-.2l1.6-.7h.3Z" transform="translate(-77 -171.2)"/>
    <path class="cls-3" d="M99,385.2a2.9,2.9,0,0,0,.6,1.9,2,2,0,0,0,1.4.6,1.6,1.6,0,0,0,.9-.3,2.2,2.2,0,0,0,.7-.9h.1a2.1,2.1,0,0,1-.7,1.4,1.8,1.8,0,0,1-1.5.7,2.1,2.1,0,0,1-1.6-.8,2.6,2.6,0,0,1-.7-2,2.8,2.8,0,0,1,.7-2.1,2.2,2.2,0,0,1,1.8-.8,2,2,0,0,1,1.5.6,2.5,2.5,0,0,1,.5,1.6Zm0-.4h2.5c0-.3-.1-.5-.1-.7a1.2,1.2,0,0,0-.5-.5.8.8,0,0,0-.6-.2.9.9,0,0,0-.8.4A1.6,1.6,0,0,0,99,384.8Z" transform="translate(-77 -171.2)"/>
    <path class="cls-3" d="M105.3,383v4.3c0,.3,0,.6.1.7a.2.2,0,0,0,.2.2h.5v.2h-2.6v-.2h.5a.2.2,0,0,0,.2-.2c.1-.1.1-.4.1-.7v-3.2c-.1-.1-.1-.2-.2-.2h-.6v-.2l1.6-.7Zm-.5-2.8c.2,0,.3,0,.4.2a.5.5,0,0,1,.2.4.8.8,0,0,1-.2.4.5.5,0,0,1-.8,0,.8.8,0,0,1-.2-.4.5.5,0,0,1,.2-.4C104.5,380.2,104.6,380.2,104.8,380.2Z" transform="translate(-77 -171.2)"/>
    <path class="cls-3" d="M108.6,380.2v7.1a5.6,5.6,0,0,0,.1.7c.1.1.1.2.2.2h.6v.2h-2.6v-.2h.5l.2-.2a5.6,5.6,0,0,0,.1-.7v-4.9a10.4,10.4,0,0,0-.1-1.1c0-.1-.1-.2-.1-.3h-.6v-.3l1.6-.6Z" transform="translate(-77 -171.2)"/>
    <path class="cls-3" d="M111.7,384.1l.7-.6.6-.4h.6a1.1,1.1,0,0,1,.8.3,1.4,1.4,0,0,1,.5.8l1-.9.9-.2.8.2a1.8,1.8,0,0,1,.5.7,3.4,3.4,0,0,1,.1,1.1v2.3c0,.3,0,.6.1.7a.2.2,0,0,0,.2.2h.5v.2h-2.6v-.2h.6c.1-.1.2-.2.2-.3V385a2.2,2.2,0,0,0-.1-.9.8.8,0,0,0-.7-.4l-.7.2-.7.5h0V388c.1.1.1.2.3.2h.5v.2h-2.7v-.2h.6c.2-.1.2-.2.3-.3V385a2,2,0,0,0-.2-.9.8.8,0,0,0-.7-.4.7.7,0,0,0-.6.2,1.6,1.6,0,0,0-.8.5v2.9c0,.4,0,.6.1.7a.2.2,0,0,0,.2.2h.6v.2h-2.7v-.2h.5l.3-.2v-3.9a.3.3,0,0,0-.1-.2h-.7v-.2l1.7-.7h.2Z" transform="translate(-77 -171.2)"/>
    <path class="cls-3" d="M122.5,387.8l-1,.7h-.7a1.2,1.2,0,0,1-.9-.3,1.3,1.3,0,0,1-.4-1,1.4,1.4,0,0,1,.2-.7c.1-.3.4-.5.8-.8l2-.8v-.2a1.4,1.4,0,0,0-.3-1.1.8.8,0,0,0-.7-.3c-.3,0-.4,0-.6.2a.5.5,0,0,0-.2.4v.4a.6.6,0,0,1-.1.4h-.8a4.3,4.3,0,0,1-.1-.5,1.4,1.4,0,0,1,.5-.9,2.2,2.2,0,0,1,1.5-.4l1.1.2a1.7,1.7,0,0,1,.6.6c0,.2.1.5.1,1v2.8c0,.1,0,.2.1.2h.3l.5-.5v.4c-.5.5-.9.8-1.3.8s-.3,0-.4-.2A.8.8,0,0,1,122.5,387.8Zm0-.4v-2.1l-1.2.5a1.7,1.7,0,0,0-.6.6,1.1,1.1,0,0,0-.2.6,1.4,1.4,0,0,0,.2.7.9.9,0,0,0,.6.3A2.2,2.2,0,0,0,122.5,387.4Z" transform="translate(-77 -171.2)"/>
  </g>
  <g>
    <path class="cls-5" d="M137.5,409.4a72.6,72.6,0,0,0-12.3-8.6,67.7,67.7,0,0,0-21.1-7.4" transform="translate(-77 -171.2)"/>
    <path class="cls-3" d="M136.8,408.8l-2,.6h0l3,1.1,2.7,1.6-1.8-2.6-1.4-2.8h-.1Z" transform="translate(-77 -171.2)"/>
  </g>
  <path class="cls-3" d="M182.8,460.1l-.2.8a1.9,1.9,0,0,1,.7-.6.7.7,0,0,1,.6-.2l.5.2a1.4,1.4,0,0,1,.2.7,2.4,2.4,0,0,1-.6,1.5,1.9,1.9,0,0,1-1.4.8H182l-.3.9a1,1,0,0,1-.1.3h.1c0,.1,0,.1.1.1h.4v.2h-1.6v-.2h.4c.1,0,.1-.2.2-.5l.9-3a.4.4,0,0,1,.1-.3c0-.1-.1-.1-.1-.2h-.4Zm-.8,2.7a.9.9,0,0,0,.6.3h.4l.3-.3c.2-.2.3-.3.3-.5a1.6,1.6,0,0,0,.3-.6,1.5,1.5,0,0,0,.1-.7.6.6,0,0,0-.1-.4h-.3a.8.8,0,0,0-.7.4,2.1,2.1,0,0,0-.6,1Z" transform="translate(-77 -171.2)"/>
  <path class="cls-10" d="M404.1,548.4c3.9-6.8,2.8-12.9,3.6-25.8" transform="translate(-77 -171.2)"/>
  <path class="cls-10" d="M462.4,548.4c-3.9-6.8-2.8-12.9-3.6-25.8" transform="translate(-77 -171.2)"/>
  <g>
    <line class="cls-5" x1="371.2" y1="251.3" x2="372.2" y2="251.3"/>
    <line class="cls-17" x1="374.2" y1="251.2" x2="388.9" y2="251.1"/>
    <line class="cls-5" x1="389.9" y1="251.1" x2="390.9" y2="251.1"/>
  </g>
  <g>
    <line class="cls-5" x1="372.4" y1="226.4" x2="373.4" y2="226.4"/>
    <line class="cls-18" x1="375.6" y1="226.4" x2="388" y2="226.4"/>
    <line class="cls-5" x1="389.2" y1="226.4" x2="390.2" y2="226.4"/>
  </g>
  <g class="cls-19">
    <g>
      <ellipse class="cls-1" cx="356.5" cy="251.3" rx="14.7" ry="3.5"/>
      <path class="cls-1" d="M448.2,358.6" transform="translate(-77 -171.2)"/>
      <path class="cls-1" d="M433.5,355.1" transform="translate(-77 -171.2)"/>
      <path class="cls-1" d="M418.8,358.6" transform="translate(-77 -171.2)"/>
      <path class="cls-1" d="M433.5,362.1" transform="translate(-77 -171.2)"/>
    </g>
    <line class="cls-1" x1="341.7" y1="251.3" x2="341.7" y2="187.4"/>
    <line class="cls-1" x1="371.2" y1="251.3" x2="371.2" y2="187.4"/>
  </g>
  <g class="cls-20">
    <ellipse class="cls-1" cx="356.5" cy="236.4" rx="14.7" ry="3.5"/>
    <line class="cls-1" x1="341.7" y1="236.4" x2="341.7" y2="172.5"/>
    <line class="cls-1" x1="371.2" y1="236.4" x2="371.2" y2="172.5"/>
  </g>
  <g>
    <line class="cls-5" x1="390.2" y1="229.4" x2="390.2" y2="248.1"/>
    <path class="cls-3" d="M467.2,397.6a14,14,0,0,1-2.4,4.3l2.4-.9,2.4.9A14,14,0,0,1,467.2,397.6Z" transform="translate(-77 -171.2)"/>
    <path class="cls-3" d="M467.2,422.3a14,14,0,0,0-2.4-4.3l2.4.9,2.4-.9A14,14,0,0,0,467.2,422.3Z" transform="translate(-77 -171.2)"/>
  </g>
  <path class="cls-3" d="M475,405.5l.3.6c0,.2.1.6.1,1.2l.3,2.9,1-1.4.8-1.2.4-.6v-.2h-.3l-.3-.2c0-.1-.1-.2-.1-.4a.8.8,0,0,1,.2-.4h.3l.5.2c.1.1.1.3.1.6a1.9,1.9,0,0,1-.3,1,13.1,13.1,0,0,1-1.2,1.9c-.6.8-1.3,1.7-2.2,2.7l-1.3,1.2-.7.3-.3-.2c-.1,0-.2-.2-.2-.3a.8.8,0,0,1,.2-.4l.4-.2h.2c.1,0,.1,0,.1.1v.2h.2l.8-.6.8-1-.3-3.7a3,3,0,0,0-.3-1.1l-.5-.2h-.5v-.2Z" transform="translate(-77 -171.2)"/>
</svg>
