<svg id="Layer_1" data-name="Layer 1" xmlns="http://www.w3.org/2000/svg" viewBox="0 0 233.9 126.2">
  <defs>
    <style>
      .cls-1, .cls-3, .cls-4, .cls-5 {
        fill: none;
        stroke: #1d1d1b;
        stroke-miterlimit: 10;
      }

      .cls-2 {
        fill: #1d1d1b;
      }

      .cls-3 {
        stroke-width: 0.75px;
      }

      .cls-4, .cls-5 {
        stroke-width: 0.5px;
      }

      .cls-5 {
        stroke-dasharray: 3.08 3.08;
      }
    </style>
  </defs>
  <line class="cls-1" y1="54.2" x2="73" y2="54.2"/>
  <line class="cls-1" x1="145" y1="54.2" x2="73" y2="54.2"/>
  <line class="cls-1" x1="73" y1="126.2" x2="73" y2="54.2"/>
  <path class="cls-2" d="M247.9,418.2c3.2,0,3.2-5,0-5s-3.2,5,0,5Z" transform="translate(-174.8 -361.3)"/>
  <g>
    <line class="cls-3" x1="46.9" y1="44.2" x2="7.2" y2="44.2"/>
    <polygon class="cls-2" points="52.2 44.2 44.7 41.1 46.5 44.2 44.7 47.2 52.2 44.2"/>
  </g>
  <g>
    <line class="cls-3" x1="130.2" y1="44.2" x2="90.5" y2="44.2"/>
    <polygon class="cls-2" points="135.5 44.2 128 41.2 129.8 44.2 128 47.3 135.5 44.2"/>
  </g>
  <g>
    <line class="cls-3" x1="82" y1="111.4" x2="82" y2="71.7"/>
    <polygon class="cls-2" points="82 116.7 85 109.2 82 111 79 109.2 82 116.7"/>
  </g>
  <path class="cls-2" d="M205.3,396.2v.2h-3.3v-.2h.7c.1,0,.3-.1.3-.2a1.9,1.9,0,0,0,.4-1l1.4-4.8a5.1,5.1,0,0,0,.2-.9.4.4,0,0,0-.1-.3h-.8v-.2h3.1v.2h-.6l-.4.3-.4,1-1.3,4.8a1.7,1.7,0,0,0-.2.8v.3h1Z" transform="translate(-174.8 -361.3)"/>
  <g>
    <path class="cls-2" d="M277.2,396.3v.2h-3.2v-.2h.6l.4-.2.4-1,1.4-4.8a3.4,3.4,0,0,0,.1-.9V389H276v-.2h3.1v.2h-.6l-.4.3c0,.2-.2.5-.3,1l-1.4,4.8c-.1.4-.2.7-.2.8a.4.4,0,0,0,.1.3h.9Z" transform="translate(-174.8 -361.3)"/>
    <path class="cls-2" d="M281.2,395.8l-1.1,3.8a1.3,1.3,0,0,0-.1.5c0,.1,0,.2.1.2h-1l.2-.2c.1-.1.1-.3.2-.6l.8-2.7v-.3h0c0-.1,0-.2-.1-.2a.1.1,0,0,0-.1-.1h-.3v-.2l1.2-.3Z" transform="translate(-174.8 -361.3)"/>
  </g>
  <g>
    <path class="cls-2" d="M268,459.8v.2h-3.3v-.2h.7c.2-.1.3-.1.4-.3s.2-.5.4-.9l1.3-4.8a1.8,1.8,0,0,0,.2-.9.4.4,0,0,0-.1-.3c0-.1-.1-.1-.2-.2h-.6v-.2h3v.2h-.6c-.2,0-.3.2-.4.3a2.9,2.9,0,0,0-.3,1l-1.4,4.8c-.1.4-.2.7-.2.8s0,.2.1.2a.2.2,0,0,0,.2.2Z" transform="translate(-174.8 -361.3)"/>
    <path class="cls-2" d="M271.4,464h-2.3a17.4,17.4,0,0,0,2.4-2.4,2.9,2.9,0,0,0,.2-.9,1.4,1.4,0,0,0-.2-.6.8.8,0,0,0-.6-.2,1,1,0,0,0-.8.5H270a1.8,1.8,0,0,1,.5-.7l.8-.2a1.1,1.1,0,0,1,.7.3.9.9,0,0,1,.3.7,1.3,1.3,0,0,1-.1.6l-.6.9-1.8,1.7h1.6l.3-.3h.1Z" transform="translate(-174.8 -361.3)"/>
  </g>
  <g>
    <path class="cls-4" d="M247.3,406c.1-.5.1-1,.2-1.4" transform="translate(-174.8 -361.3)"/>
    <path class="cls-5" d="M248.1,401.5c4.8-20.4,24.6-30.9,59.1-31.4" transform="translate(-174.8 -361.3)"/>
    <path class="cls-4" d="M308.8,370h1.5" transform="translate(-174.8 -361.3)"/>
  </g>
  <g>
    <path class="cls-2" d="M321.1,361.5h6.1l-.3,1.7h-.2v-.3a.9.9,0,0,0-.3-.7,2.4,2.4,0,0,0-1.4-.3h-2.6l1.6,3-3.7,3.5h3l1.5-.2a2.4,2.4,0,0,0,.8-1.1h.2l-.8,2.3h-6.1v-.2l4.1-3.9-1.9-3.6Z" transform="translate(-174.8 -361.3)"/>
    <path class="cls-2" d="M332.4,369.2v.2h-3.2v-.2h.7a.5.5,0,0,0,.4-.2l.4-1,1.3-4.8a1.8,1.8,0,0,0,.2-.9.4.4,0,0,0-.1-.3h-.8v-.2h3v.2h-.6l-.4.3a4.1,4.1,0,0,0-.3,1l-1.4,4.8-.2.8a.4.4,0,0,0,.1.3h.9Z" transform="translate(-174.8 -361.3)"/>
    <path class="cls-2" d="M337.6,364.3h6.3v.4h-6.3Zm0,1.9h6.3v.5h-6.3Z" transform="translate(-174.8 -361.3)"/>
    <path class="cls-2" d="M350.5,369.2v.2h-3.3v-.2h.7l.4-.2.4-1,1.3-4.8a1.8,1.8,0,0,0,.2-.9.4.4,0,0,0-.1-.3h-.8v-.2h3v.2h-.6l-.4.3a4.1,4.1,0,0,0-.3,1l-1.4,4.8-.2.8a.4.4,0,0,0,.1.3h.9Z" transform="translate(-174.8 -361.3)"/>
    <path class="cls-2" d="M361.7,365.7h-6.3v-.5h6.3Z" transform="translate(-174.8 -361.3)"/>
    <path class="cls-2" d="M368.6,369.2v.2h-3.3v-.2h.7l.4-.2.4-1,1.3-4.8a5.1,5.1,0,0,0,.2-.9.4.4,0,0,0-.1-.3h-.8v-.2h3v.2h-.6l-.4.3a4.1,4.1,0,0,0-.3,1l-1.4,4.8-.2.8a.4.4,0,0,0,.1.3h.9Z" transform="translate(-174.8 -361.3)"/>
    <path class="cls-2" d="M372.5,368.7l-1.1,3.8a2,2,0,0,1-.1.5.3.3,0,0,0,.1.2h-.9c0-.1.1-.1.2-.2a3.9,3.9,0,0,1,.2-.6l.8-2.7a.4.4,0,0,1,.1-.3h0c0-.1,0-.2-.1-.2h-.5l1.2-.3Z" transform="translate(-174.8 -361.3)"/>
    <path class="cls-2" d="M380.3,365.7H374v-.5h6.3Z" transform="translate(-174.8 -361.3)"/>
    <path class="cls-2" d="M387.2,369.2v.2h-3.3v-.2h.7c.1,0,.3-.1.3-.2a1.9,1.9,0,0,0,.4-1l1.4-4.8a5.1,5.1,0,0,0,.2-.9.4.4,0,0,0-.1-.3H386v-.2h3v.2h-.6l-.4.3a4.1,4.1,0,0,0-.3,1l-1.4,4.8a1.7,1.7,0,0,0-.2.8.4.4,0,0,0,.1.3h.9Z" transform="translate(-174.8 -361.3)"/>
    <path class="cls-2" d="M390.6,373.4h-2.3a9.5,9.5,0,0,0,2.3-2.4,1.6,1.6,0,0,0,.3-.9.8.8,0,0,0-.2-.5.9.9,0,0,0-.6-.3,1,1,0,0,0-.8.5h-.1a1.8,1.8,0,0,1,.5-.7l.7-.2a1.1,1.1,0,0,1,.8.3,1.1,1.1,0,0,1,.3.7c0,.2-.1.4-.1.6a2.4,2.4,0,0,1-.6.9l-1.8,1.7h1.6l.3-.3h.1Z" transform="translate(-174.8 -361.3)"/>
    <path class="cls-2" d="M392.9,364.3h6.3v.4h-6.3Zm0,1.9h6.3v.5h-6.3Z" transform="translate(-174.8 -361.3)"/>
    <path class="cls-2" d="M406.9,361.3a1.5,1.5,0,0,1,1.3.7,3.1,3.1,0,0,1,.5,1.9,6.7,6.7,0,0,1-.4,2.4,6.8,6.8,0,0,1-1,2.1,3.5,3.5,0,0,1-1.2,1l-.8.2a1.8,1.8,0,0,1-1.3-.6,3.7,3.7,0,0,1-.5-2,8.6,8.6,0,0,1,.5-2.7,4.8,4.8,0,0,1,1.6-2.4A1.8,1.8,0,0,1,406.9,361.3Zm.1.3a.9.9,0,0,0-.7.3,2.6,2.6,0,0,0-.8,1.1l-.7,2.2a11.1,11.1,0,0,0-.4,2.9,1.3,1.3,0,0,0,.3,1,.6.6,0,0,0,.6.3.9.9,0,0,0,.6-.3,5,5,0,0,0,1.2-2.1,15.1,15.1,0,0,0,.7-4.1,2.5,2.5,0,0,0-.2-1Z" transform="translate(-174.8 -361.3)"/>
  </g>
</svg>
