<svg id="Layer_1" data-name="Layer 1" xmlns="http://www.w3.org/2000/svg" viewBox="0 0 420.6 286.1">
  <defs>
    <style>
      .cls-1 {
        fill: none;
        stroke: #1d1d1b;
        stroke-miterlimit: 10;
      }

      .cls-2 {
        fill: #1d1d1b;
      }
    </style>
  </defs>
  <line class="cls-1" x1="36.7" y1="38" x2="144.7" y2="38"/>
  <line class="cls-1" x1="144.7" y1="20" x2="144.7" y2="56"/>
  <line class="cls-1" x1="153.7" y1="29" x2="153.7" y2="47"/>
  <line class="cls-1" x1="252.2" y1="38.5" x2="153.7" y2="38.5"/>
  <line class="cls-1" x1="252.2" y1="182.5" x2="252.2" y2="38.5"/>
  <line class="cls-1" x1="36.2" y1="182.5" x2="108.2" y2="182.5"/>
  <rect class="cls-1" x="108.2" y="173.5" width="72" height="18"/>
  <line class="cls-1" x1="180.7" y1="182.5" x2="252.7" y2="182.5"/>
  <line class="cls-1" x1="252.2" y1="253.5" x2="252.2" y2="181.5"/>
  <line class="cls-1" x1="36.2" y1="37.5" x2="36.2" y2="253.5"/>
  <line class="cls-1" x1="36.7" y1="253.5" x2="108.7" y2="253.5"/>
  <rect class="cls-1" x="108.5" y="245.5" width="72" height="18"/>
  <line class="cls-1" x1="180.5" y1="253.4" x2="252.5" y2="253.4"/>
  <g>
    <path class="cls-1" d="M249.1,417.1a40.5,40.5,0,1,1-52.5-44.3" transform="translate(-69.3 -297.3)"/>
    <polygon class="cls-2" points="180.2 112.7 175.5 122.3 179.7 120.3 183.6 122.9 180.2 112.7"/>
  </g>
  <path class="cls-1" d="M200,411.3" transform="translate(-69.3 -297.3)"/>
  <g>
    <path class="cls-2" d="M199.8,418.7v.2a5.8,5.8,0,0,1-1.5-1.1,4.6,4.6,0,0,1-1.3-2,6,6,0,0,1-.5-2.4,6.3,6.3,0,0,1,.9-3.3,4.9,4.9,0,0,1,2.4-2.1v.2a4.3,4.3,0,0,0-1.2,1.1,7.5,7.5,0,0,0-.7,1.8,7.8,7.8,0,0,0-.2,2.2,8.6,8.6,0,0,0,.2,2.3l.3,1.3.6.9Z" transform="translate(-69.3 -297.3)"/>
    <path class="cls-2" d="M201.5,409.2l1.9-1h.2v7.6l.3.2h.7v.2h-3v-.2h.7l.2-.2c.1-.1.1-.4.1-.9v-5.4l-.2-.3h-.9Z" transform="translate(-69.3 -297.3)"/>
    <path class="cls-2" d="M206.3,408.2V408a5.6,5.6,0,0,1,1.5,1,6.3,6.3,0,0,1,1.3,2,6.7,6.7,0,0,1,.4,2.4,6.2,6.2,0,0,1-.8,3.3,5.1,5.1,0,0,1-2.4,2.2v-.2a4.3,4.3,0,0,0,1.2-1.1,7.5,7.5,0,0,0,.7-1.8,15,15,0,0,0,.2-2.2,8.6,8.6,0,0,0-.2-2.3l-.3-1.3-.6-.9Z" transform="translate(-69.3 -297.3)"/>
  </g>
  <g>
    <path class="cls-1" d="M70,406.8c-.4,142.8-8.2,178.9,120,171.9" transform="translate(-69.3 -297.3)"/>
    <path class="cls-2" d="M196,578.3a32.3,32.3,0,0,0-8.3,5.2l1.5-4.9-1.9-4.6A30.7,30.7,0,0,0,196,578.3Z" transform="translate(-69.3 -297.3)"/>
  </g>
  <g>
    <path class="cls-2" d="M82.8,499.7v.2a5.8,5.8,0,0,1-1.5-1.1,4.6,4.6,0,0,1-1.3-2,6,6,0,0,1-.5-2.4,6.3,6.3,0,0,1,.9-3.3,4.9,4.9,0,0,1,2.4-2.1v.2a4.3,4.3,0,0,0-1.2,1.1,7.5,7.5,0,0,0-.7,1.8,7.8,7.8,0,0,0-.2,2.2,8.6,8.6,0,0,0,.2,2.3l.3,1.3.6.9Z" transform="translate(-69.3 -297.3)"/>
    <path class="cls-2" d="M88.5,495.8l-.5,1.5H83.3v-.2a18.5,18.5,0,0,0,2.9-3.1,3.7,3.7,0,0,0,.9-2.2,1.7,1.7,0,0,0-.5-1.2,1.6,1.6,0,0,0-1.1-.5,1.5,1.5,0,0,0-1.1.4,2,2,0,0,0-.7,1h-.2a2.7,2.7,0,0,1,.8-1.7,2,2,0,0,1,1.5-.6,2.3,2.3,0,0,1,1.6.6,2.1,2.1,0,0,1,.7,1.5,2.7,2.7,0,0,1-.3,1.2,10.5,10.5,0,0,1-1.4,2l-1.8,1.9h2.9l.5-.2.3-.4Z" transform="translate(-69.3 -297.3)"/>
    <path class="cls-2" d="M89.3,489.2V489a5.6,5.6,0,0,1,1.5,1,6.3,6.3,0,0,1,1.3,2,6.7,6.7,0,0,1,.4,2.4,6.2,6.2,0,0,1-.8,3.3,5.1,5.1,0,0,1-2.4,2.2v-.2a4.3,4.3,0,0,0,1.2-1.1,7.5,7.5,0,0,0,.7-1.8,15,15,0,0,0,.2-2.2,8.6,8.6,0,0,0-.2-2.3l-.3-1.3-.6-.9Z" transform="translate(-69.3 -297.3)"/>
  </g>
  <path class="cls-2" d="M200,324.7v-3h-3v-.4h3v-3h.4v3h3v.4h-3v3Z" transform="translate(-69.3 -297.3)"/>
  <path class="cls-2" d="M235.2,321.6h-6.3v-.5h6.3Z" transform="translate(-69.3 -297.3)"/>
  <g>
    <path class="cls-2" d="M210.3,482.9,209,479h-.9l-.6,2.4a3.1,3.1,0,0,0-.2.8.5.5,0,0,0,.2.4l.7.2v.2h-3v-.2h.6l.3-.3.4-1,1.3-4.8a2.5,2.5,0,0,0,.2-.7c0-.2-.1-.3-.2-.5a.8.8,0,0,0-.7-.1v-.3h2.5a3.1,3.1,0,0,1,1.9.5,2.1,2.1,0,0,1,.5,1.3,2.4,2.4,0,0,1-.5,1.4,2.5,2.5,0,0,1-1.6.8l.7,2.4a3.6,3.6,0,0,0,.6,1.1l.9.3v.2Zm-2.1-4.3h.7a2,2,0,0,0,1.5-.6,1.8,1.8,0,0,0,.6-1.4,1.2,1.2,0,0,0-.4-1,1.5,1.5,0,0,0-1-.3h-.5Z" transform="translate(-69.3 -297.3)"/>
    <path class="cls-2" d="M215.4,482.2l-1.1,3.8a4.3,4.3,0,0,1-.1.5c0,.1,0,.1.1.2h-.9l.2-.2c0-.1.1-.2.2-.5l.8-2.8v-.3h.1c0-.1-.1-.1-.1-.2h-.5l1.1-.3Z" transform="translate(-69.3 -297.3)"/>
  </g>
  <g>
    <path class="cls-2" d="M210.3,554.9,209,551h-.9l-.6,2.4a3.1,3.1,0,0,0-.2.8.5.5,0,0,0,.2.4l.7.2v.2h-3v-.2h.6l.3-.3.4-1,1.3-4.8a2.5,2.5,0,0,0,.2-.7c0-.2-.1-.3-.2-.5a.8.8,0,0,0-.7-.1v-.3h2.5a3.1,3.1,0,0,1,1.9.5,2.1,2.1,0,0,1,.5,1.3,2.4,2.4,0,0,1-.5,1.4,2.5,2.5,0,0,1-1.6.8l.7,2.4a3.6,3.6,0,0,0,.6,1.1l.9.3v.2Zm-2.1-4.3h.7a2,2,0,0,0,1.5-.6,1.8,1.8,0,0,0,.6-1.4,1.2,1.2,0,0,0-.4-1,1.5,1.5,0,0,0-1-.3h-.5Z" transform="translate(-69.3 -297.3)"/>
    <path class="cls-2" d="M214.9,558.9h-2.3a14.8,14.8,0,0,0,2.3-2.5,1.1,1.1,0,0,0,.3-.8.8.8,0,0,0-.2-.6.7.7,0,0,0-.6-.2.9.9,0,0,0-.8.4h-.1a1.8,1.8,0,0,1,.5-.7,1,1,0,0,1,.7-.2,1,1,0,0,1,1,1,.7.7,0,0,1-.1.5,2.4,2.4,0,0,1-.6.9l-1.7,1.8h1.6c.1-.1.2-.2.2-.3h.2Z" transform="translate(-69.3 -297.3)"/>
  </g>
  <line class="cls-1" x1="27.2" y1="111.5" x2="36.2" y2="120.5"/>
  <line class="cls-1" x1="45.2" y1="111.5" x2="36.2" y2="120.5"/>
  <line class="cls-1" x1="206.7" y1="191.3" x2="215.7" y2="182.3"/>
  <line class="cls-1" x1="206.7" y1="173.3" x2="215.7" y2="182.3"/>
  <line class="cls-1" x1="206.7" y1="262.3" x2="215.7" y2="253.3"/>
  <line class="cls-1" x1="206.7" y1="244.3" x2="215.7" y2="253.3"/>
  <path class="cls-2" d="M122.7,421.9v.2h-3.8v-.2h.8l.4-.3a3.5,3.5,0,0,0,.5-1.2l1.6-5.6a5.8,5.8,0,0,0,.2-1,.4.4,0,0,0-.1-.3c0-.1-.1-.2-.3-.2h-.7v-.2H125v.2h-.6a1,1,0,0,0-.5.4l-.4,1.1-1.6,5.6a2.7,2.7,0,0,0-.2,1,.4.4,0,0,0,.1.3l.2.2Z" transform="translate(-69.3 -297.3)"/>
  <g>
    <path class="cls-2" d="M266.7,462.4v.2h-3.8v-.2h.7a1,1,0,0,0,.5-.4,4.3,4.3,0,0,0,.4-1.1l1.7-5.6a6.5,6.5,0,0,0,.2-1.1c0-.1-.1-.2-.1-.3h-1v-.3H269v.3h-.7a.8.8,0,0,0-.4.4,2.5,2.5,0,0,0-.4,1.1l-1.7,5.6a8.4,8.4,0,0,0-.2,1c0,.1.1.2.1.3h.3Z" transform="translate(-69.3 -297.3)"/>
    <path class="cls-2" d="M271.3,461.8l-1.3,4.4a1.8,1.8,0,0,0-.1.6c0,.1,0,.2.1.2h.5v.2h-2v-.2h.5c.1-.1.2-.1.2-.2a2.4,2.4,0,0,0,.3-.7l.9-3.2a.8.8,0,0,0,.1-.3v-.2c0-.1,0-.1-.1-.2h-.5v-.2l1.3-.3Z" transform="translate(-69.3 -297.3)"/>
  </g>
  <g>
    <path class="cls-2" d="M266.5,532v.2h-3.8V532h.8a.8.8,0,0,0,.4-.4l.5-1.1,1.6-5.6a6.5,6.5,0,0,0,.2-1.1.4.4,0,0,0-.1-.3h-1v-.3h3.6v.3h-.6a.7.7,0,0,0-.5.4,2.5,2.5,0,0,0-.4,1.1l-1.6,5.6a3.3,3.3,0,0,0-.3,1c0,.1.1.2.1.3h.3Z" transform="translate(-69.3 -297.3)"/>
    <path class="cls-2" d="M270.5,536.9h-2.7v-.2a13,13,0,0,0,2.7-2.8,2.1,2.1,0,0,0,.4-1,.9.9,0,0,0-.3-.7.8.8,0,0,0-.7-.2,1.1,1.1,0,0,0-.9.5h-.1a1.6,1.6,0,0,1,.6-.8,1.1,1.1,0,0,1,.8-.2,1.4,1.4,0,0,1,.9.3,1.2,1.2,0,0,1,.3.9,1.3,1.3,0,0,1-.1.6,4.9,4.9,0,0,1-.7,1.1l-2.1,2h1.9l.3-.4h.2Z" transform="translate(-69.3 -297.3)"/>
  </g>
  <path class="cls-2" d="M195.3,297.9l-1.1,3.9h.9a2,2,0,0,0,2.2-1.4h.3l-1,3.6h-.3a2.5,2.5,0,0,0,.1-.8.7.7,0,0,0-.1-.5l-.4-.3H194l-.9,3.3a4.1,4.1,0,0,0-.2.7.8.8,0,0,0,.2.4h1.5a4.9,4.9,0,0,0,2.3-.5,4.5,4.5,0,0,0,1.5-1.8h.3l-.9,2.8h-7.7V307h.8a.8.8,0,0,0,.4-.4,8.7,8.7,0,0,0,.5-1.2l1.7-6a8.9,8.9,0,0,0,.2-1.1.5.5,0,0,0-.2-.4c-.1-.2-.4-.2-.7-.2h-.2v-.3h7.1l-.6,2.4H199a1.1,1.1,0,0,0,.1-.5,1.4,1.4,0,0,0-.2-.7,1.8,1.8,0,0,0-.7-.5h-2.9Z" transform="translate(-69.3 -297.3)"/>
  <g>
    <path class="cls-2" d="M369.8,366.7v.2a4.3,4.3,0,0,1-1.7-1.2,5.1,5.1,0,0,1-1.5-2.3,6.7,6.7,0,0,1-.6-2.8,7.7,7.7,0,0,1,1.1-3.9,6.5,6.5,0,0,1,2.7-2.5v.3a3.5,3.5,0,0,0-1.4,1.3,7.6,7.6,0,0,0-.8,2,11.5,11.5,0,0,0-.3,2.6,11.2,11.2,0,0,0,.3,2.7,5.4,5.4,0,0,0,.4,1.5l.7,1.1A5.5,5.5,0,0,0,369.8,366.7Z" transform="translate(-69.3 -297.3)"/>
    <path class="cls-2" d="M371.8,355.6l2.2-1.1h.2v7.8a7.7,7.7,0,0,0,.1,1q0,.1.3.3h.8v.2h-3.5v-.2h.9l.2-.3c.1-.1.1-.4.1-1v-5a3.8,3.8,0,0,0-.1-1.3.4.4,0,0,0-.1-.3h-.3l-.7.2Z" transform="translate(-69.3 -297.3)"/>
    <path class="cls-2" d="M377.4,354.5v-.3l1.8,1.2a9.7,9.7,0,0,1,1.5,2.4,8.7,8.7,0,0,1,.5,2.8,7,7,0,0,1-1,3.8,5.7,5.7,0,0,1-2.8,2.5v-.2a2.9,2.9,0,0,0,1.4-1.3,5.2,5.2,0,0,0,.8-2,11.5,11.5,0,0,0,.3-2.6,21.3,21.3,0,0,0-.2-2.7,13.1,13.1,0,0,0-.5-1.5,6,6,0,0,0-.6-1.1A6.3,6.3,0,0,0,377.4,354.5Z" transform="translate(-69.3 -297.3)"/>
    <path class="cls-2" d="M390.9,354.7h7l-.3,1.9h-.2v-.3a.9.9,0,0,0-.4-.8,2.8,2.8,0,0,0-1.6-.3h-3l1.9,3.5-4.4,4.1h3.6a3.4,3.4,0,0,0,1.7-.3,2.5,2.5,0,0,0,.9-1.3h.3l-.9,2.7h-7.2v-.2l4.8-4.5-2.2-4.3Z" transform="translate(-69.3 -297.3)"/>
    <path class="cls-2" d="M402.4,354.7h3.9v.2h-.9l-.4.4a3.9,3.9,0,0,0-.4.9l-1,3.3a5,5,0,0,1-.3,1.2v.8a2,2,0,0,0,.6,1.4,2.1,2.1,0,0,0,1.6.5,2.2,2.2,0,0,0,1.2-.2l1-.7a8.1,8.1,0,0,0,.6-1.3,7.6,7.6,0,0,0,.6-1.6l.8-2.8a7,7,0,0,0,.3-1.4.4.4,0,0,0-.2-.4l-.8-.2v-.2h3v.2h-.7a.8.8,0,0,0-.4.4,3.4,3.4,0,0,0-.4,1l-1,3.4a11.3,11.3,0,0,1-.9,2.5,3.3,3.3,0,0,1-1.3,1.3,3.2,3.2,0,0,1-2,.6,3.6,3.6,0,0,1-2.3-.8,2.9,2.9,0,0,1-.8-1.8,2.8,2.8,0,0,1,.1-.9,8.4,8.4,0,0,1,.2-1l.9-3.2a2.2,2.2,0,0,0,.2-1c0-.2,0-.3-.2-.4l-.9-.2Z" transform="translate(-69.3 -297.3)"/>
    <path class="cls-2" d="M415.6,357.9H423v.6h-7.4Zm0,2.2H423v.6h-7.4Z" transform="translate(-69.3 -297.3)"/>
    <path class="cls-2" d="M431.7,355.2l-1.1,3.6h.9l1.3-.2a2.4,2.4,0,0,0,.8-1.1h.2l-.9,3.4h-.3a2.5,2.5,0,0,0,.1-.8.6.6,0,0,0-.1-.4l-.3-.3h-1.8l-.9,3.1a2,2,0,0,0-.1.7c0,.1,0,.2.2.3s.2.1.5.1h.9a4.3,4.3,0,0,0,2.1-.5,3.8,3.8,0,0,0,1.4-1.6h.3l-.9,2.5h-7.2v-.2h.7l.4-.3a3.5,3.5,0,0,0,.5-1.2l1.6-5.6a5.8,5.8,0,0,0,.2-1,.5.5,0,0,0-.2-.4,1,1,0,0,0-.7-.2h-.1v-.2H436l-.6,2.2h-.2v-.5c0-.3,0-.5-.1-.6a1.8,1.8,0,0,0-.7-.5h-2.7Z" transform="translate(-69.3 -297.3)"/>
    <path class="cls-2" d="M447.6,359.6h-7.4V359h7.4Z" transform="translate(-69.3 -297.3)"/>
    <path class="cls-2" d="M452.1,363.7v.2h-3.8v-.2h.8l.4-.3a3.5,3.5,0,0,0,.5-1.2l1.6-5.6a5.8,5.8,0,0,0,.2-1,.4.4,0,0,0-.1-.3c0-.1-.1-.2-.3-.2h-.7v-.2h3.6v.2h-.6a1,1,0,0,0-.5.4l-.4,1.1-1.6,5.6a2.7,2.7,0,0,0-.2,1,.4.4,0,0,0,.1.3c0,.1.1.1.2.2Z" transform="translate(-69.3 -297.3)"/>
    <path class="cls-2" d="M456.7,363.1l-1.3,4.5a4.3,4.3,0,0,1-.1.5v.3h-1.1l.3-.2.2-.6.9-3.2a1,1,0,0,0,.1-.4h0v-.3h-.6l1.3-.4Z" transform="translate(-69.3 -297.3)"/>
    <path class="cls-2" d="M463.2,363.9l-1.5-4.5h-1l-.8,2.8a4.4,4.4,0,0,0-.2,1,.5.5,0,0,0,.2.4l.8.2v.2h-3.6v-.2h.6l.4-.3a3.5,3.5,0,0,0,.5-1.2l1.6-5.6a3.1,3.1,0,0,0,.2-.8.9.9,0,0,0-.3-.6l-.7-.2v-.2h3a3.4,3.4,0,0,1,2.2.6,1.8,1.8,0,0,1,.7,1.5,2.6,2.6,0,0,1-.7,1.6,3.1,3.1,0,0,1-1.9.9l.9,2.8a4,4,0,0,0,.6,1.3,1.8,1.8,0,0,0,1.1.3v.2Zm-2.4-4.9h.8a2.6,2.6,0,0,0,1.8-.6,2.2,2.2,0,0,0,.7-1.7,1.2,1.2,0,0,0-.4-1.1,1.7,1.7,0,0,0-1.3-.4h-.5Z" transform="translate(-69.3 -297.3)"/>
    <path class="cls-2" d="M469.4,363.1l-1.3,4.5a1.1,1.1,0,0,0-.1.5.4.4,0,0,0,.1.3h-1.2l.3-.2a1.6,1.6,0,0,0,.3-.6l.9-3.2a1,1,0,0,1,.1-.4h0a.4.4,0,0,0-.1-.3h-.6l1.4-.4Z" transform="translate(-69.3 -297.3)"/>
    <path class="cls-2" d="M471.4,357.9h7.4v.6h-7.4Zm0,2.2h7.4v.6h-7.4Z" transform="translate(-69.3 -297.3)"/>
    <path class="cls-2" d="M487.8,354.5a1.8,1.8,0,0,1,1.5.7,3.7,3.7,0,0,1,.6,2.3,9.2,9.2,0,0,1-.5,2.8,6.8,6.8,0,0,1-1.2,2.4,3.1,3.1,0,0,1-1.4,1.2l-.9.2a1.8,1.8,0,0,1-1.5-.7,3.7,3.7,0,0,1-.6-2.3,9.1,9.1,0,0,1,.6-3.2,8.5,8.5,0,0,1,1.8-2.8A2.5,2.5,0,0,1,487.8,354.5Zm0,.3a1.2,1.2,0,0,0-.8.4,4.2,4.2,0,0,0-.8,1.3,10.5,10.5,0,0,0-.8,2.5,12.2,12.2,0,0,0-.6,3.4,1.6,1.6,0,0,0,.3,1.1c.3.2.5.4.8.4a.9.9,0,0,0,.7-.3,5.3,5.3,0,0,0,1.3-2.5,15.1,15.1,0,0,0,1-4.8,1.6,1.6,0,0,0-.3-1.1C488.3,355,488.1,354.8,487.8,354.8Z" transform="translate(-69.3 -297.3)"/>
    <path class="cls-2" d="M369.8,400.3v.2a4.3,4.3,0,0,1-1.7-1.2,5.1,5.1,0,0,1-1.5-2.3,6.7,6.7,0,0,1-.6-2.8,7.7,7.7,0,0,1,1.1-3.9,6.5,6.5,0,0,1,2.7-2.5v.3a3.5,3.5,0,0,0-1.4,1.3,7.6,7.6,0,0,0-.8,2,11.5,11.5,0,0,0-.3,2.6,11.2,11.2,0,0,0,.3,2.7,5.4,5.4,0,0,0,.4,1.5l.7,1.1A5.5,5.5,0,0,0,369.8,400.3Z" transform="translate(-69.3 -297.3)"/>
    <path class="cls-2" d="M376.5,395.8l-.6,1.7h-5.5v-.2a25.3,25.3,0,0,0,3.4-3.6,4.2,4.2,0,0,0,1-2.5,2.5,2.5,0,0,0-.5-1.5,1.8,1.8,0,0,0-1.3-.6,2.8,2.8,0,0,0-1.3.4,3.6,3.6,0,0,0-.8,1.2h-.2a2.9,2.9,0,0,1,.9-1.9,2.1,2.1,0,0,1,1.7-.7,2.6,2.6,0,0,1,2.7,2.4,2.3,2.3,0,0,1-.4,1.4,6.7,6.7,0,0,1-1.6,2.4,24.9,24.9,0,0,1-2.1,2.2h3.4l.6-.3.4-.4Z" transform="translate(-69.3 -297.3)"/>
    <path class="cls-2" d="M377.4,388.1v-.3l1.8,1.2a9.7,9.7,0,0,1,1.5,2.4,8.7,8.7,0,0,1,.5,2.8,7,7,0,0,1-1,3.8,5.7,5.7,0,0,1-2.8,2.5v-.2a2.9,2.9,0,0,0,1.4-1.3,5.2,5.2,0,0,0,.8-2,11.5,11.5,0,0,0,.3-2.6,21.3,21.3,0,0,0-.2-2.7,13.1,13.1,0,0,0-.5-1.5,6,6,0,0,0-.6-1.1A6.3,6.3,0,0,0,377.4,388.1Z" transform="translate(-69.3 -297.3)"/>
    <path class="cls-2" d="M390.9,388.3h7l-.3,1.9h-.2v-.3a.9.9,0,0,0-.4-.8,2.8,2.8,0,0,0-1.6-.3h-3l1.9,3.5-4.4,4.1h3.6a3.4,3.4,0,0,0,1.7-.3,2.5,2.5,0,0,0,.9-1.3h.3l-.9,2.7h-7.2v-.2l4.8-4.5-2.2-4.3Z" transform="translate(-69.3 -297.3)"/>
    <path class="cls-2" d="M402.4,388.3h3.9v.2h-.9a.8.8,0,0,0-.4.4,3.9,3.9,0,0,0-.4.9l-1,3.3a5,5,0,0,1-.3,1.2v.8a2,2,0,0,0,.6,1.4,2.1,2.1,0,0,0,1.6.5,2.2,2.2,0,0,0,1.2-.2l1-.7a8.1,8.1,0,0,0,.6-1.3,7.6,7.6,0,0,0,.6-1.6l.8-2.8a7,7,0,0,0,.3-1.4.4.4,0,0,0-.2-.4l-.8-.2v-.2h3v.2h-.7a.8.8,0,0,0-.4.4,3.4,3.4,0,0,0-.4,1l-1,3.4a11.3,11.3,0,0,1-.9,2.5,3.3,3.3,0,0,1-1.3,1.3,3.2,3.2,0,0,1-2,.6,3.6,3.6,0,0,1-2.3-.8,2.9,2.9,0,0,1-.8-1.8,2.8,2.8,0,0,1,.1-.9,8.4,8.4,0,0,1,.2-1l.9-3.2a2.2,2.2,0,0,0,.2-1c0-.2,0-.3-.2-.4l-.9-.2Z" transform="translate(-69.3 -297.3)"/>
    <path class="cls-2" d="M415.6,391.5H423v.6h-7.4Zm0,2.2H423v.6h-7.4Z" transform="translate(-69.3 -297.3)"/>
    <path class="cls-2" d="M431.7,388.8l-1.1,3.6h.9l1.3-.2a2.4,2.4,0,0,0,.8-1.1h.2l-.9,3.4h-.3a2.5,2.5,0,0,0,.1-.8.6.6,0,0,0-.1-.4l-.3-.3h-1.8l-.9,3.1a2,2,0,0,0-.1.7c0,.1,0,.2.2.3s.2.1.5.1h.9a4.3,4.3,0,0,0,2.1-.5,3.8,3.8,0,0,0,1.4-1.6h.3l-.9,2.5h-7.2v-.2h.7c.2-.1.4-.2.4-.3a3.5,3.5,0,0,0,.5-1.2l1.6-5.6a5.8,5.8,0,0,0,.2-1,.5.5,0,0,0-.2-.4,1,1,0,0,0-.7-.2h-.1v-.2H436l-.6,2.2h-.2V390c0-.3,0-.5-.1-.6a1.8,1.8,0,0,0-.7-.5h-2.7Z" transform="translate(-69.3 -297.3)"/>
    <path class="cls-2" d="M447.6,393.2h-7.4v-.6h7.4Z" transform="translate(-69.3 -297.3)"/>
    <path class="cls-2" d="M452.1,397.3v.2h-3.8v-.2h.8l.4-.3a3.5,3.5,0,0,0,.5-1.2l1.6-5.6a5.8,5.8,0,0,0,.2-1,.4.4,0,0,0-.1-.3c0-.1-.1-.2-.3-.2h-.7v-.2h3.6v.2h-.6a1,1,0,0,0-.5.4l-.4,1.1-1.6,5.6a2.7,2.7,0,0,0-.2,1,.4.4,0,0,0,.1.3c0,.1.1.1.2.2Z" transform="translate(-69.3 -297.3)"/>
    <path class="cls-2" d="M456.1,402.2h-2.7a17.5,17.5,0,0,0,2.8-2.9,1.7,1.7,0,0,0,.3-1,.7.7,0,0,0-.3-.6.9.9,0,0,0-.6-.3,1.4,1.4,0,0,0-1,.5h-.1a1.2,1.2,0,0,1,.6-.8,1.1,1.1,0,0,1,.8-.3,1.2,1.2,0,0,1,.9.3,1.6,1.6,0,0,1,.3.9,1.7,1.7,0,0,1-.1.7,2.6,2.6,0,0,1-.7,1,13.7,13.7,0,0,1-2.1,2h1.9c.2-.1.3-.2.3-.4h.2Z" transform="translate(-69.3 -297.3)"/>
    <path class="cls-2" d="M463.2,397.5l-1.5-4.5h-1l-.8,2.8a4.4,4.4,0,0,0-.2,1,.5.5,0,0,0,.2.4l.8.2v.2h-3.6v-.2h.6c.2-.1.4-.2.4-.3a3.5,3.5,0,0,0,.5-1.2l1.6-5.6a3.1,3.1,0,0,0,.2-.8.9.9,0,0,0-.3-.6l-.7-.2v-.2h3a3.4,3.4,0,0,1,2.2.6,1.8,1.8,0,0,1,.7,1.5,2.6,2.6,0,0,1-.7,1.6,3.1,3.1,0,0,1-1.9.9l.9,2.8a4,4,0,0,0,.6,1.3,1.8,1.8,0,0,0,1.1.3v.2Zm-2.4-4.9h.8a2.6,2.6,0,0,0,1.8-.6,2.2,2.2,0,0,0,.7-1.7,1.2,1.2,0,0,0-.4-1.1,1.7,1.7,0,0,0-1.3-.4h-.5Z" transform="translate(-69.3 -297.3)"/>
    <path class="cls-2" d="M468.8,402.2h-2.7a16,16,0,0,0,2.7-2.9,1.7,1.7,0,0,0,.3-1,.7.7,0,0,0-.3-.6.6.6,0,0,0-.6-.3,1.1,1.1,0,0,0-.9.5h-.2a2.8,2.8,0,0,1,.6-.8,1.6,1.6,0,0,1,.9-.3,1.1,1.1,0,0,1,.8.3,1.2,1.2,0,0,1,.4.9c0,.2-.1.5-.1.7a5.8,5.8,0,0,1-.8,1l-2,2h1.9l.3-.4h.1Z" transform="translate(-69.3 -297.3)"/>
    <path class="cls-2" d="M471.4,391.5h7.4v.6h-7.4Zm0,2.2h7.4v.6h-7.4Z" transform="translate(-69.3 -297.3)"/>
    <path class="cls-2" d="M487.8,388.1a1.8,1.8,0,0,1,1.5.7,3.7,3.7,0,0,1,.6,2.3,9.2,9.2,0,0,1-.5,2.8,6.8,6.8,0,0,1-1.2,2.4,3.1,3.1,0,0,1-1.4,1.2l-.9.2a1.8,1.8,0,0,1-1.5-.7,3.7,3.7,0,0,1-.6-2.3,9.1,9.1,0,0,1,.6-3.2,8.5,8.5,0,0,1,1.8-2.8A2.5,2.5,0,0,1,487.8,388.1Zm0,.3a1.2,1.2,0,0,0-.8.4,4.2,4.2,0,0,0-.8,1.3,10.5,10.5,0,0,0-.8,2.5,12.2,12.2,0,0,0-.6,3.4,1.6,1.6,0,0,0,.3,1.1c.3.2.5.4.8.4a.9.9,0,0,0,.7-.3,5.3,5.3,0,0,0,1.3-2.5,15.1,15.1,0,0,0,1-4.8,1.6,1.6,0,0,0-.3-1.1C488.3,388.6,488.1,388.4,487.8,388.4Z" transform="translate(-69.3 -297.3)"/>
  </g>
</svg>
