<svg id="Layer_1" data-name="Layer 1" xmlns="http://www.w3.org/2000/svg" viewBox="0 0 396.9 97.1">
  <defs>
    <style>
      .cls-1, .cls-3 {
        fill: none;
        stroke: #1d1d1b;
        stroke-miterlimit: 10;
      }

      .cls-2 {
        fill: #1d1d1b;
      }

      .cls-3 {
        stroke-width: 0.75px;
      }
    </style>
  </defs>
  <line class="cls-1" y1="53.2" x2="27" y2="53.2"/>
  <line class="cls-1" x1="27" y1="44.2" x2="27" y2="62.2"/>
  <line class="cls-1" x1="36" y1="35.2" x2="36" y2="71.2"/>
  <line class="cls-1" x1="63" y1="53.2" x2="36" y2="53.2"/>
  <path class="cls-2" d="M121,128.1V131h2.7v.7H121v2.8h-.8v-2.8h-2.7V131h2.7v-2.9Z" transform="translate(-71.5 -90.3)"/>
  <path class="cls-2" d="M90,131.1v.8H84.8v-.8Z" transform="translate(-71.5 -90.3)"/>
  <line class="cls-1" x1="108.1" y1="53.5" x2="135.1" y2="53.5"/>
  <line class="cls-1" x1="135.1" y1="44.5" x2="135.1" y2="62.5"/>
  <line class="cls-1" x1="144.1" y1="35.5" x2="144.1" y2="71.5"/>
  <line class="cls-1" x1="171.1" y1="53.5" x2="144.1" y2="53.5"/>
  <path class="cls-2" d="M229.1,128.4v2.8h2.7v.8h-2.7v2.8h-.8V132h-2.7v-.8h2.7v-2.8Z" transform="translate(-71.5 -90.3)"/>
  <path class="cls-2" d="M198.2,131.4v.7h-5.3v-.7Z" transform="translate(-71.5 -90.3)"/>
  <g>
    <path class="cls-1" d="M80,116c10-8.2,28.3-8.5,40.7-3" transform="translate(-71.5 -90.3)"/>
    <path class="cls-2" d="M126,116a32.1,32.1,0,0,0-9.8.1l3.8-3.4.8-5A28.9,28.9,0,0,0,126,116Z" transform="translate(-71.5 -90.3)"/>
  </g>
  <g>
    <path class="cls-1" d="M236.4,119.8c-10-8.2-28.3-8.5-40.7-2.9" transform="translate(-71.5 -90.3)"/>
    <path class="cls-2" d="M190.4,119.8a28.9,28.9,0,0,0,5.2-8.3l.8,5,3.8,3.4A32.1,32.1,0,0,0,190.4,119.8Z" transform="translate(-71.5 -90.3)"/>
  </g>
  <line class="cls-1" x1="217" y1="53.2" x2="235" y2="53.2"/>
  <line class="cls-1" x1="271" y1="53.2" x2="289" y2="53.2"/>
  <rect class="cls-1" x="235" y="44.2" width="36" height="18"/>
  <g>
    <path class="cls-1" d="M297.4,123.8c10-8.5,28.4-8.8,40.8-3" transform="translate(-71.5 -90.3)"/>
    <path class="cls-2" d="M343.4,123.8a32.2,32.2,0,0,0-9.8-.1l3.9-3.3.8-4.9A32.6,32.6,0,0,0,343.4,123.8Z" transform="translate(-71.5 -90.3)"/>
  </g>
  <line class="cls-1" x1="396.9" y1="54" x2="378.9" y2="54"/>
  <line class="cls-1" x1="342.9" y1="54" x2="324.9" y2="54"/>
  <rect class="cls-1" x="414.4" y="135.3" width="36" height="18" transform="translate(793.3 198.3) rotate(180)"/>
  <g>
    <path class="cls-1" d="M459.5,124.6c-10-8.5-28.4-8.8-40.8-3.1" transform="translate(-71.5 -90.3)"/>
    <path class="cls-2" d="M413.5,124.6a31.5,31.5,0,0,0,5.1-8.4l.8,5,3.9,3.3A29.3,29.3,0,0,0,413.5,124.6Z" transform="translate(-71.5 -90.3)"/>
  </g>
  <g>
    <line class="cls-3" x1="235" y1="81.2" x2="264.9" y2="81.2"/>
    <path class="cls-2" d="M335,171.5l-1.6-2.7h.1l4.4,1.8,4.6,1-4.6,1-4.4,1.8h-.1Z" transform="translate(-71.5 -90.3)"/>
  </g>
  <g>
    <path class="cls-2" d="M90.3,98.4l3.6-8.1h.2l3.3,8.1Zm5.7-.5-2.4-5.8-2.5,5.8Z" transform="translate(-71.5 -90.3)"/>
    <path class="cls-2" d="M99.3,90.5h3.3v.2h-.8l-.3.3-.4.8-.8,2.8a8.4,8.4,0,0,0-.2,1,1.7,1.7,0,0,0-.1.7,2.1,2.1,0,0,0,.5,1.2,2.4,2.4,0,0,0,1.4.5,2,2,0,0,0,1.1-.3,2.1,2.1,0,0,0,.8-.6,3.6,3.6,0,0,0,.6-1.1l.4-1.3.7-2.4a6.3,6.3,0,0,0,.3-1.2.5.5,0,0,0-.2-.4h-.7v-.2h2.5v.2h-.6c-.2,0-.3.1-.4.3a2.2,2.2,0,0,0-.3.8l-.9,3a12.7,12.7,0,0,1-.7,2.1,3.8,3.8,0,0,1-1.1,1.1,3.4,3.4,0,0,1-1.7.5,2.7,2.7,0,0,1-2-.7,1.9,1.9,0,0,1-.7-1.5,2.2,2.2,0,0,1,.1-.8,5.1,5.1,0,0,1,.2-.9l.8-2.7a3.2,3.2,0,0,0,.1-.8c0-.2,0-.3-.1-.4h-.9Z" transform="translate(-71.5 -90.3)"/>
    <path class="cls-2" d="M116.6,94.6l-6.3,2.7v-.5l5.4-2.4-5.4-2.3v-.6l6.3,2.8Z" transform="translate(-71.5 -90.3)"/>
    <path class="cls-2" d="M124.6,90.3a1.8,1.8,0,0,1,1.3.6,3.4,3.4,0,0,1,.5,2,6.7,6.7,0,0,1-.4,2.4,6.8,6.8,0,0,1-1,2.1,5.3,5.3,0,0,1-1.2,1H123a1.6,1.6,0,0,1-1.3-.6,3.4,3.4,0,0,1-.5-2,8.6,8.6,0,0,1,.5-2.7,6,6,0,0,1,1.6-2.4A2.1,2.1,0,0,1,124.6,90.3Zm0,.3-.7.3c-.2.1-.4.5-.7,1.1a17.1,17.1,0,0,0-.7,2.1,12.4,12.4,0,0,0-.4,3,2,2,0,0,0,.2.9.9.9,0,0,0,.7.3l.6-.2a5.6,5.6,0,0,0,1.1-2.2,11.7,11.7,0,0,0,.8-4,2.2,2.2,0,0,0-.2-1A.9.9,0,0,0,124.6,90.6Z" transform="translate(-71.5 -90.3)"/>
  </g>
  <g>
    <path class="cls-2" d="M198,98.4l3.5-8.1h.2l3.4,8.1Zm5.7-.5-2.4-5.8-2.6,5.8Z" transform="translate(-71.5 -90.3)"/>
    <path class="cls-2" d="M207,90.5h3.3v.2h-.7a.5.5,0,0,0-.4.3,2.2,2.2,0,0,0-.3.8l-.8,2.8a4.1,4.1,0,0,1-.3,1v.7a1.6,1.6,0,0,0,.5,1.2,2.2,2.2,0,0,0,1.4.5,1.7,1.7,0,0,0,1-.3,1.2,1.2,0,0,0,.8-.6,3.6,3.6,0,0,0,.6-1.1,6.9,6.9,0,0,0,.5-1.3l.7-2.4a6.3,6.3,0,0,0,.3-1.2.5.5,0,0,0-.2-.4h-.7v-.2h2.6v.2h-.7l-.3.3a2.2,2.2,0,0,0-.3.8l-.9,3a11.7,11.7,0,0,1-.8,2.1,3,3,0,0,1-2.8,1.6,2.5,2.5,0,0,1-1.9-.7,1.9,1.9,0,0,1-.7-1.5v-.8a9.2,9.2,0,0,1,.3-.9l.7-2.7a1.7,1.7,0,0,0,.2-.8c0-.2,0-.3-.2-.4h-.8Z" transform="translate(-71.5 -90.3)"/>
    <path class="cls-2" d="M217.9,94.3l6.3-2.8V92l-5.4,2.4,5.4,2.4v.5l-6.3-2.7Z" transform="translate(-71.5 -90.3)"/>
    <path class="cls-2" d="M232.3,90.3a1.8,1.8,0,0,1,1.3.6,3.4,3.4,0,0,1,.5,2,10,10,0,0,1-.4,2.4,7,7,0,0,1-1.1,2.1,3.5,3.5,0,0,1-1.1,1h-.8a1.5,1.5,0,0,1-1.3-.6,2.8,2.8,0,0,1-.5-2,6.5,6.5,0,0,1,.5-2.7,7,7,0,0,1,1.5-2.4A2.4,2.4,0,0,1,232.3,90.3Zm0,.3a1.1,1.1,0,0,0-.7.3,2,2,0,0,0-.7,1.1,8.6,8.6,0,0,0-.7,2.1,13.3,13.3,0,0,0-.5,3,1.2,1.2,0,0,0,.3.9.9.9,0,0,0,.6.3l.7-.2a5.6,5.6,0,0,0,1.1-2.2,14.7,14.7,0,0,0,.8-4,1.3,1.3,0,0,0-.3-1A.7.7,0,0,0,232.3,90.6Z" transform="translate(-71.5 -90.3)"/>
  </g>
  <g>
    <path class="cls-2" d="M297.5,99.2l3.6-8.2h.2l3.3,8.2Zm5.7-.5-2.3-5.9-2.6,5.9Z" transform="translate(-71.5 -90.3)"/>
    <path class="cls-2" d="M306.5,91.2h3.4v.2h-.7l-.4.3-.3.8-.8,2.9a4.2,4.2,0,0,0-.3.9c0,.3-.1.5-.1.7a1.4,1.4,0,0,0,.6,1.2,1.6,1.6,0,0,0,1.4.5,1.6,1.6,0,0,0,1-.2,1.6,1.6,0,0,0,.8-.6,5.4,5.4,0,0,0,.6-1.1c.2-.4.3-.9.5-1.3l.7-2.5c.1-.6.2-1,.2-1.2s0-.2-.2-.3l-.7-.2v-.2h2.5v.2H314l-.3.3-.4.9-.8,2.9a23.2,23.2,0,0,1-.8,2.2,3.8,3.8,0,0,1-1.1,1.1,2.9,2.9,0,0,1-1.7.5,2.7,2.7,0,0,1-1.9-.7,2.3,2.3,0,0,1-.8-1.6,2,2,0,0,1,.1-.7,5.1,5.1,0,0,1,.2-.9l.8-2.7a5.1,5.1,0,0,0,.2-.9c0-.1-.1-.2-.2-.3l-.8-.2Z" transform="translate(-71.5 -90.3)"/>
    <path class="cls-2" d="M317.8,94h6.3v.5h-6.3Zm0,1.9h6.3v.5h-6.3Z" transform="translate(-71.5 -90.3)"/>
    <path class="cls-2" d="M330.7,99v.2h-3.3V99h.7c.1-.1.3-.2.3-.3a1.9,1.9,0,0,0,.4-1l1.4-4.8a5.1,5.1,0,0,0,.2-.9c0-.1,0-.2-.1-.2a.2.2,0,0,0-.2-.2h-.6v-.2h3v.2H332a.8.8,0,0,0-.4.4,2.2,2.2,0,0,0-.3.9l-1.4,4.8a8.1,8.1,0,0,0-.2.9v.2l.2.2Z" transform="translate(-71.5 -90.3)"/>
    <path class="cls-2" d="M336.7,99.2l-1.3-3.9h-.9l-.7,2.4a2.5,2.5,0,0,0-.1.8c0,.2,0,.3.2.4s.3.1.7.2v.2h-3.1V99h.6c.1-.1.3-.2.3-.3a1.9,1.9,0,0,0,.4-1l1.4-4.8a2.5,2.5,0,0,0,.2-.7c0-.2-.1-.3-.3-.5l-.6-.2v-.2h2.6a2.8,2.8,0,0,1,1.8.5,1.6,1.6,0,0,1,.6,1.3,2,2,0,0,1-.6,1.4,2.7,2.7,0,0,1-1.6.8l.8,2.4.5,1.1,1,.3v.2Zm-2.1-4.3h.7a2.2,2.2,0,0,0,1.6-.5,2,2,0,0,0,.6-1.4,1.5,1.5,0,0,0-.4-1,1.8,1.8,0,0,0-1.1-.4h-.5Z" transform="translate(-71.5 -90.3)"/>
    <path class="cls-2" d="M342.9,95l6.3-2.7v.5l-5.4,2.4,5.4,2.4v.5l-6.3-2.8Z" transform="translate(-71.5 -90.3)"/>
    <path class="cls-2" d="M357.3,91.1a1.4,1.4,0,0,1,1.2.6,2.8,2.8,0,0,1,.6,2,10.1,10.1,0,0,1-.4,2.3,7,7,0,0,1-1.1,2.1,3.5,3.5,0,0,1-1.2,1,1.1,1.1,0,0,1-.8.2,1.4,1.4,0,0,1-1.2-.6,2.8,2.8,0,0,1-.6-2,6.6,6.6,0,0,1,.6-2.7,6.2,6.2,0,0,1,1.5-2.4A1.9,1.9,0,0,1,357.3,91.1Zm0,.3-.7.2a3.5,3.5,0,0,0-.7,1.1,9.5,9.5,0,0,0-.7,2.2,13.3,13.3,0,0,0-.5,3,1.2,1.2,0,0,0,.3.9.9.9,0,0,0,.6.3l.6-.2a5.1,5.1,0,0,0,1.2-2.2,15.3,15.3,0,0,0,.8-4.1,1.2,1.2,0,0,0-.3-.9A.9.9,0,0,0,357.3,91.4Z" transform="translate(-71.5 -90.3)"/>
  </g>
  <path class="cls-2" d="M323,187.2v.2h-3.3v-.2h.7l.3-.3a1.9,1.9,0,0,0,.4-1l1.4-4.8a5.1,5.1,0,0,0,.2-.9v-.2l-.2-.2h-.6v-.2h3v.2h-.6c-.2,0-.3.1-.4.3s-.2.5-.4.9l-1.3,4.8a2.3,2.3,0,0,0-.2.9c0,.1,0,.2.1.2a.2.2,0,0,0,.2.2Z" transform="translate(-71.5 -90.3)"/>
  <g>
    <line class="cls-3" x1="342.5" y1="80.2" x2="372.4" y2="80.2"/>
    <path class="cls-2" d="M442.5,170.5l-1.6-2.7h.1l4.4,1.8,4.6,1-4.6,1-4.4,1.8h-.1Z" transform="translate(-71.5 -90.3)"/>
  </g>
  <path class="cls-2" d="M430.5,186.2v.2h-3.3v-.2h.7l.3-.3a1.9,1.9,0,0,0,.4-1L430,180a5.1,5.1,0,0,0,.2-.9v-.2l-.2-.2h-.6v-.2h3v.2h-.6c-.2,0-.3.1-.4.3s-.2.5-.4.9l-1.3,4.8a2.3,2.3,0,0,0-.2.9c0,.1,0,.2.1.2a.2.2,0,0,0,.2.2Z" transform="translate(-71.5 -90.3)"/>
  <g>
    <path class="cls-2" d="M401.3,99.2l3.6-8.2h.2l3.4,8.2Zm5.8-.5-2.4-5.9-2.6,5.9Z" transform="translate(-71.5 -90.3)"/>
    <path class="cls-2" d="M410.3,91.2h3.4v.2h-.7l-.4.3-.3.8-.8,2.9a8.5,8.5,0,0,1-.3.9v.7a1.3,1.3,0,0,0,.5,1.2,1.6,1.6,0,0,0,1.4.5,1.6,1.6,0,0,0,1-.2,1.6,1.6,0,0,0,.8-.6,5.4,5.4,0,0,0,.6-1.1c.2-.4.3-.9.5-1.3l.7-2.5a3.5,3.5,0,0,0,.2-1.2.4.4,0,0,0-.1-.3l-.8-.2v-.2h2.5v.2h-.7l-.3.3a4.6,4.6,0,0,0-.3.9l-.9,2.9a10.5,10.5,0,0,1-.8,2.2,2.9,2.9,0,0,1-1.1,1.1,2.9,2.9,0,0,1-1.7.5,2.9,2.9,0,0,1-1.9-.7,2.3,2.3,0,0,1-.8-1.6c0-.2.1-.4.1-.7a5.1,5.1,0,0,1,.2-.9l.8-2.7a5.1,5.1,0,0,0,.2-.9c0-.1-.1-.2-.2-.3l-.8-.2Z" transform="translate(-71.5 -90.3)"/>
    <path class="cls-2" d="M421.6,94h6.3v.5h-6.3Zm0,1.9h6.3v.5h-6.3Z" transform="translate(-71.5 -90.3)"/>
    <path class="cls-2" d="M434.5,99v.2h-3.2V99h.7l.4-.3.4-1,1.4-4.8a3.4,3.4,0,0,0,.1-.9v-.2l-.3-.2h-.6v-.2h3.1v.2h-.6l-.4.4a2.2,2.2,0,0,0-.3.9l-1.4,4.8a8.1,8.1,0,0,0-.2.9v.2l.2.2Z" transform="translate(-71.5 -90.3)"/>
    <path class="cls-2" d="M440.5,99.2l-1.3-3.9h-.9l-.7,2.4c0,.3-.1.6-.1.8a.5.5,0,0,0,.2.4l.7.2v.2h-3V99h.6l.4-.3a4.1,4.1,0,0,0,.3-1l1.4-4.8a2.5,2.5,0,0,0,.2-.7c0-.2-.1-.3-.2-.5l-.7-.2v-.2H440a3.1,3.1,0,0,1,1.9.5,1.9,1.9,0,0,1,.5,1.3,2,2,0,0,1-.6,1.4,2.4,2.4,0,0,1-1.6.8l.8,2.4a3.6,3.6,0,0,0,.6,1.1l.9.3v.2Zm-2.1-4.3h.7a2.1,2.1,0,0,0,1.6-.5,2,2,0,0,0,.6-1.4,1.2,1.2,0,0,0-.4-1,1.6,1.6,0,0,0-1.1-.4h-.4Z" transform="translate(-71.5 -90.3)"/>
    <path class="cls-2" d="M453,95.3l-6.3,2.8v-.5l5.5-2.4-5.5-2.4v-.5l6.3,2.8Z" transform="translate(-71.5 -90.3)"/>
    <path class="cls-2" d="M461.1,91.1a1.8,1.8,0,0,1,1.3.6,3.4,3.4,0,0,1,.5,2,6.6,6.6,0,0,1-.4,2.3,7,7,0,0,1-1.1,2.1,2.6,2.6,0,0,1-1.1,1,1.2,1.2,0,0,1-.8.2,1.5,1.5,0,0,1-1.3-.6,2.8,2.8,0,0,1-.5-2,6.5,6.5,0,0,1,.5-2.7,6.2,6.2,0,0,1,1.5-2.4A1.9,1.9,0,0,1,461.1,91.1Zm0,.3-.7.2a3.5,3.5,0,0,0-.7,1.1,19.4,19.4,0,0,0-.7,2.2,13.3,13.3,0,0,0-.5,3,1.2,1.2,0,0,0,.3.9.9.9,0,0,0,.7.3l.6-.2a6.4,6.4,0,0,0,1.1-2.2,15.3,15.3,0,0,0,.8-4.1,1.2,1.2,0,0,0-.3-.9A.7.7,0,0,0,461.1,91.4Z" transform="translate(-71.5 -90.3)"/>
  </g>
  <path class="cls-2" d="M296.3,132.2V135h2.8v.7h-2.8v2.8h-.7v-2.8h-2.7V135h2.7v-2.8Z" transform="translate(-71.5 -90.3)"/>
  <path class="cls-2" d="M404.3,133.2V136h2.8v.7h-2.8v2.8h-.7v-2.8h-2.7V136h2.7v-2.8Z" transform="translate(-71.5 -90.3)"/>
  <path class="cls-2" d="M353,135.1v.8h-5.2v-.8Z" transform="translate(-71.5 -90.3)"/>
  <path class="cls-2" d="M460,137.1v.8h-5.2v-.8Z" transform="translate(-71.5 -90.3)"/>
</svg>
