<svg id="Layer_1" data-name="Layer 1" xmlns="http://www.w3.org/2000/svg" viewBox="0 0 493.9 318.7">
  <defs>
    <style>
      .cls-1, .cls-3, .cls-4, .cls-5 {
        fill: none;
        stroke: #1d1d1b;
        stroke-miterlimit: 10;
      }

      .cls-2 {
        fill: #1d1d1b;
      }

      .cls-3, .cls-4, .cls-5 {
        stroke-width: 0.5px;
      }

      .cls-3 {
        stroke-dasharray: 3.01 3.01;
      }

      .cls-5 {
        stroke-dasharray: 2.63 2.63;
      }
    </style>
  </defs>
  <line class="cls-1" x1="1" y1="33" x2="109" y2="33"/>
  <line class="cls-1" x1="116.5" y1="15.7" x2="116.5" y2="51.7"/>
  <line class="cls-1" x1="109.5" y1="22.7" x2="109.5" y2="40.7"/>
  <line class="cls-1" x1="216.5" y1="33.5" x2="118" y2="33.5"/>
  <line class="cls-1" x1="216.5" y1="105.2" x2="216.5" y2="33.5"/>
  <line class="cls-1" x1="0.5" y1="177.5" x2="72.5" y2="177.5"/>
  <rect class="cls-1" x="72.5" y="168.2" width="72" height="18"/>
  <line class="cls-1" x1="145" y1="177.5" x2="217" y2="177.5"/>
  <line class="cls-1" x1="0.5" y1="32.5" x2="0.5" y2="177.2"/>
  <path class="cls-1" d="M167,435.3" transform="translate(-72 -326.3)"/>
  <path class="cls-2" d="M198,352.7v-3h-3v-.4h3v-3h.4v3h3v.4h-3v3Z" transform="translate(-72 -326.3)"/>
  <path class="cls-2" d="M175.2,349.6h-6.3v-.5h6.3Z" transform="translate(-72 -326.3)"/>
  <path class="cls-2" d="M186.3,326.9l-1.1,3.9h.9a2,2,0,0,0,2.2-1.4h.3l-1,3.6h-.3a2.5,2.5,0,0,0,.1-.8.7.7,0,0,0-.1-.5l-.4-.3H185l-.9,3.3a4.1,4.1,0,0,0-.2.7.8.8,0,0,0,.2.4h1.5a4.9,4.9,0,0,0,2.3-.5,4.5,4.5,0,0,0,1.5-1.8h.3l-.9,2.8h-7.7V336h.8a.8.8,0,0,0,.4-.4,8.7,8.7,0,0,0,.5-1.2l1.7-6a8.9,8.9,0,0,0,.2-1.1.5.5,0,0,0-.2-.4c-.1-.2-.4-.2-.7-.2h-.2v-.3h7.1l-.6,2.4H190a1.1,1.1,0,0,0,.1-.5,1.4,1.4,0,0,0-.2-.7,1.8,1.8,0,0,0-.7-.5h-2.9Z" transform="translate(-72 -326.3)"/>
  <line class="cls-1" x1="0.5" y1="250.2" x2="0.5" y2="169.2"/>
  <line class="cls-1" x1="216.5" y1="250.2" x2="216.5" y2="141.2"/>
  <line class="cls-1" x1="0.5" y1="250.2" x2="90.5" y2="250.2"/>
  <line class="cls-1" x1="126.5" y1="250.2" x2="216.5" y2="250.2"/>
  <circle class="cls-1" cx="109.5" cy="249.2" r="18"/>
  <path class="cls-2" d="M186.9,570.4v.3a1.9,1.9,0,0,0-.9.4,3.2,3.2,0,0,0-.8,1.3l-3.9,9.6H181l-4.3-9.8a4.1,4.1,0,0,0-.4-.9l-.5-.4-.8-.2v-.3h4.6v.3l-1.1.3a.8.8,0,0,0-.2.5,3,3,0,0,0,.4,1.3l2.9,6.6,2.6-6.5a3.8,3.8,0,0,0,.4-1.4.8.8,0,0,0-.2-.4,1.2,1.2,0,0,0-.9-.3h-.1v-.3Z" transform="translate(-72 -326.3)"/>
  <circle class="cls-1" cx="216.5" cy="123.2" r="18"/>
  <path class="cls-2" d="M290.4,450.6H286l-.8,1.7a3.3,3.3,0,0,0-.3,1c0,.2.1.3.3.5a2.3,2.3,0,0,0,1.1.2v.3h-3.6V454l.9-.3a6.4,6.4,0,0,0,1-1.6l3.9-9.3h.3l3.9,9.4a3.3,3.3,0,0,0,.9,1.4,1.2,1.2,0,0,0,1.1.4v.3h-4.5V454a1.4,1.4,0,0,0,.9-.2.5.5,0,0,0,.3-.5,2.4,2.4,0,0,0-.4-1.1Zm-.3-.7-1.9-4.5-1.9,4.5Z" transform="translate(-72 -326.3)"/>
  <path class="cls-2" d="M183.3,508.5l-1.6-4.8h-1.1l-.8,3a4.4,4.4,0,0,0-.2,1,.8.8,0,0,0,.2.5l.9.2v.2h-3.7v-.2h.7a1,1,0,0,0,.5-.4,8.7,8.7,0,0,0,.5-1.2l1.6-6a1.8,1.8,0,0,0,.2-.9.9.9,0,0,0-.3-.6l-.7-.2v-.3h3.1a3.5,3.5,0,0,1,2.3.6,2,2,0,0,1,.7,1.6,2.4,2.4,0,0,1-.7,1.8,3.2,3.2,0,0,1-2,1l1,2.9a2.6,2.6,0,0,0,.7,1.4,1.9,1.9,0,0,0,1.1.4v.2Zm-2.6-5.3h.8a3,3,0,0,0,2-.7,2.4,2.4,0,0,0,.7-1.8,1.7,1.7,0,0,0-.5-1.2,1.6,1.6,0,0,0-1.3-.5h-.5Z" transform="translate(-72 -326.3)"/>
  <polygon class="cls-2" points="198.3 180.9 196.7 177.2 198.3 173.5 189.5 177.2 198.3 180.9"/>
  <g>
    <line class="cls-1" x1="216.5" y1="80.1" x2="216.5" y2="60.2"/>
    <polygon class="cls-2" points="216.5 87.2 220.6 77.2 216.5 79.6 212.4 77.2 216.5 87.2"/>
  </g>
  <g>
    <path class="cls-2" d="M527.3,409.7v.3h-4.1v-.3h.8l.5-.3a4.8,4.8,0,0,0,.5-1.2l1.7-6a3.5,3.5,0,0,0,.3-1.2v-.3l-.3-.2h-.8v-.2h3.8v.2H529a.8.8,0,0,0-.5.5,3.6,3.6,0,0,0-.5,1.2l-1.7,6a2.7,2.7,0,0,0-.2,1,.4.4,0,0,0,.1.3c0,.1.1.2.3.2Z" transform="translate(-72 -326.3)"/>
    <path class="cls-2" d="M533.1,409.1l-.4,4.8a1,1,0,0,0-.1.4.4.4,0,0,0,.1.3l.2.2h.5v.2H531v-.2h.5c.1,0,.2-.1.2-.3s.1-.2.1-.6v-.7h-1.7l-.6.8c-.1.2-.2.3-.2.4s-.1.1-.1.2a.2.2,0,0,0,.2.2c0,.1.1.1.3.1v.2h-1.7v-.2a.7.7,0,0,0,.6-.2l.7-.8,3.4-4.7Zm-.9,1.4-1.6,2.3H532Z" transform="translate(-72 -326.3)"/>
  </g>
  <g>
    <path class="cls-2" d="M509.5,565.5v.3h-4.1v-.3h.8a1,1,0,0,0,.5-.4,3.5,3.5,0,0,0,.5-1.2l1.7-6a3.6,3.6,0,0,0,.3-1.1c0-.1-.1-.2-.1-.3l-.3-.2H508v-.3h3.8v.3h-.7a.7.7,0,0,0-.5.4,3.5,3.5,0,0,0-.5,1.2l-1.7,6a3.1,3.1,0,0,0-.2,1.1.4.4,0,0,0,.1.3l.2.2Z" transform="translate(-72 -326.3)"/>
    <path class="cls-2" d="M512.1,570.9l.5-4.8v-.5c0-.2,0-.3-.1-.3l-.5-.2h1.6l-.2.2a1.8,1.8,0,0,1-.1.6l-.3,3.4,2.3-3,.4-.7a.4.4,0,0,0,.1-.3v-.2h1l-.4.3-.8,1-3.2,4.4Z" transform="translate(-72 -326.3)"/>
  </g>
  <path class="cls-2" d="M251.5,495.5v.3h-4.1v-.3h.8a1,1,0,0,0,.5-.4,3.5,3.5,0,0,0,.5-1.2l1.7-6a3.6,3.6,0,0,0,.3-1.1c0-.1-.1-.2-.1-.3l-.3-.2H250v-.3h3.8v.3h-.7a.7.7,0,0,0-.5.4,3.5,3.5,0,0,0-.5,1.2l-1.7,6a3.1,3.1,0,0,0-.2,1.1.4.4,0,0,0,.1.3c0,.1.1.1.2.2Z" transform="translate(-72 -326.3)"/>
  <line class="cls-1" x1="260" y1="33" x2="368" y2="33"/>
  <line class="cls-1" x1="376.5" y1="16.7" x2="376.5" y2="52.7"/>
  <line class="cls-1" x1="368.5" y1="23.7" x2="368.5" y2="41.7"/>
  <line class="cls-1" x1="475.5" y1="33.5" x2="377" y2="33.5"/>
  <line class="cls-1" x1="475.5" y1="105.2" x2="475.5" y2="33.5"/>
  <line class="cls-1" x1="259.5" y1="177.5" x2="331.5" y2="177.5"/>
  <rect class="cls-1" x="331.4" y="168.2" width="72" height="18"/>
  <line class="cls-1" x1="404" y1="177.5" x2="476" y2="177.5"/>
  <line class="cls-1" x1="259.5" y1="32.5" x2="259.5" y2="177.2"/>
  <path class="cls-1" d="M426,435.3" transform="translate(-72 -326.3)"/>
  <path class="cls-2" d="M455.9,353.7v-3H453v-.4h2.9v-3h.4v3h3v.4h-3v3Z" transform="translate(-72 -326.3)"/>
  <path class="cls-2" d="M434.1,350.6h-6.3v-.5h6.3Z" transform="translate(-72 -326.3)"/>
  <path class="cls-2" d="M444.2,328.9l-1.1,3.9h.9a2,2,0,0,0,2.2-1.4h.3l-1,3.6h-.3a2.5,2.5,0,0,0,.1-.8.7.7,0,0,0-.1-.5c-.1-.2-.2-.2-.4-.3h-1.9l-.9,3.3a2.5,2.5,0,0,0-.2.7.8.8,0,0,0,.2.4h1.5a3.9,3.9,0,0,0,2.3-.6,4.4,4.4,0,0,0,1.6-1.7h.2l-.9,2.8H439V338h.8a.8.8,0,0,0,.4-.4,8.7,8.7,0,0,0,.5-1.2l1.7-6a2.8,2.8,0,0,0,.2-1.1.6.6,0,0,0-.2-.5h-.9v-.3h7.1l-.6,2.4H448v-.5a1.4,1.4,0,0,0-.2-.7,1.8,1.8,0,0,0-.7-.5h-2.9Z" transform="translate(-72 -326.3)"/>
  <line class="cls-1" x1="259.4" y1="250.2" x2="259.4" y2="169.2"/>
  <line class="cls-1" x1="475.4" y1="250.2" x2="475.4" y2="141.2"/>
  <line class="cls-1" x1="259.4" y1="250.2" x2="342.5" y2="250.2"/>
  <line class="cls-1" x1="387.5" y1="250.2" x2="475.4" y2="250.2"/>
  <circle class="cls-1" cx="300.5" cy="300.2" r="18"/>
  <path class="cls-2" d="M377.8,621.4v.3a1.9,1.9,0,0,0-.9.4,3.2,3.2,0,0,0-.8,1.3l-3.9,9.5h-.3l-4.2-9.7-.5-.9-.5-.4-.8-.2v-.3h4.6v.3l-1,.3a.5.5,0,0,0-.3.5,3,3,0,0,0,.4,1.3l2.9,6.6,2.6-6.5a3.8,3.8,0,0,0,.4-1.4.8.8,0,0,0-.2-.4,1.1,1.1,0,0,0-.8-.3h-.2v-.3Z" transform="translate(-72 -326.3)"/>
  <circle class="cls-1" cx="475.4" cy="123.2" r="18"/>
  <path class="cls-2" d="M549.3,450.6h-4.4l-.8,1.7a8.4,8.4,0,0,0-.2,1,.6.6,0,0,0,.2.5,2.3,2.3,0,0,0,1.1.2v.3h-3.6V454l.9-.3a6.4,6.4,0,0,0,1-1.6l3.9-9.3h.3l3.9,9.4a4.8,4.8,0,0,0,.9,1.4,1.4,1.4,0,0,0,1.1.4v.3h-4.5V454a1.4,1.4,0,0,0,.9-.2.5.5,0,0,0,.3-.5,2.4,2.4,0,0,0-.4-1.1Zm-.3-.7-1.9-4.5-1.9,4.5Z" transform="translate(-72 -326.3)"/>
  <path class="cls-2" d="M442.2,508.5l-1.6-4.8h-1.1l-.8,3a4.4,4.4,0,0,0-.2,1,.8.8,0,0,0,.2.5l.9.2v.2h-3.7v-.2h.8a.8.8,0,0,0,.4-.4,8.7,8.7,0,0,0,.5-1.2l1.7-6a3.4,3.4,0,0,0,.1-.9,1.4,1.4,0,0,0-.2-.6,1.1,1.1,0,0,0-.8-.2v-.3h3.1a3.3,3.3,0,0,1,2.3.6,2,2,0,0,1,.7,1.6,2.4,2.4,0,0,1-.7,1.8,3.2,3.2,0,0,1-2,1l1,2.9a2.6,2.6,0,0,0,.7,1.4,2.3,2.3,0,0,0,1.1.4v.2Zm-2.6-5.3h.9a2.5,2.5,0,0,0,1.9-.7,2.1,2.1,0,0,0,.7-1.7,1.6,1.6,0,0,0-.4-1.2,2,2,0,0,0-1.4-.5h-.5Z" transform="translate(-72 -326.3)"/>
  <polygon class="cls-2" points="458.7 254.4 457.1 250.7 458.7 247 449.9 250.7 458.7 254.4"/>
  <polygon class="cls-2" points="457.2 180.9 455.6 177.2 457.2 173.5 448.4 177.2 457.2 180.9"/>
  <g>
    <line class="cls-1" x1="475.4" y1="80.1" x2="475.4" y2="60.2"/>
    <polygon class="cls-2" points="475.4 87.2 479.5 77.2 475.4 79.6 471.3 77.2 475.4 87.2"/>
  </g>
  <path class="cls-2" d="M510.4,495.5v.3h-4.1v-.3h.8a.7.7,0,0,0,.5-.4,3.5,3.5,0,0,0,.5-1.2l1.7-6a3.6,3.6,0,0,0,.3-1.1c0-.1-.1-.2-.1-.3l-.3-.2h-.8v-.3h3.9v.3h-.7a1,1,0,0,0-.5.4,8.7,8.7,0,0,0-.5,1.2l-1.7,6c-.1.6-.2.9-.2,1.1a.4.4,0,0,0,.1.3c0,.1.1.1.3.2Z" transform="translate(-72 -326.3)"/>
  <path class="cls-2" d="M273.8,409.1v.2h-4.1v-.2h.8a1,1,0,0,0,.5-.4,3.5,3.5,0,0,0,.5-1.2l1.7-6a2.8,2.8,0,0,0,.2-1.1c0-.2,0-.3-.1-.4l-.2-.2h-.8v-.3h3.8v.3h-.7l-.5.4-.4,1.2-1.7,6a4.3,4.3,0,0,0-.3,1,.4.4,0,0,0,.1.3l.3.2Z" transform="translate(-72 -326.3)"/>
  <rect class="cls-1" x="342.5" y="237.2" width="45" height="24"/>
  <rect class="cls-3" x="324.5" y="223.2" width="99" height="54" rx="13.2"/>
  <g>
    <line class="cls-4" x1="330" y1="274.7" x2="328.8" y2="275.6"/>
    <line class="cls-5" x1="326.7" y1="277.2" x2="315.2" y2="286"/>
    <line class="cls-4" x1="314.2" y1="286.8" x2="313" y2="287.7"/>
  </g>
  <g>
    <path class="cls-2" d="M432,578.9l-1.5-4.9h-1.1l-.9,3a4.1,4.1,0,0,0-.1,1c0,.2,0,.4.2.5s.3.2.8.2v.3h-3.8v-.3h.7a.8.8,0,0,0,.4-.4,3.5,3.5,0,0,0,.5-1.2l1.7-6a5.1,5.1,0,0,0,.2-.9.9.9,0,0,0-.3-.6l-.8-.2v-.3h3.2a3.2,3.2,0,0,1,2.3.7,2.2,2.2,0,0,1,.7,1.6,2.5,2.5,0,0,1-.8,1.7,2.6,2.6,0,0,1-1.9,1l.9,2.9a2.9,2.9,0,0,0,.7,1.4,1.6,1.6,0,0,0,1.1.4v.3Zm-2.5-5.4h.8a2.7,2.7,0,0,0,1.9-.7,2.4,2.4,0,0,0,.7-1.8,1.6,1.6,0,0,0-.4-1.2,1.7,1.7,0,0,0-1.3-.4h-.6Z" transform="translate(-72 -326.3)"/>
    <path class="cls-2" d="M436.2,584l.4-4.8a1.3,1.3,0,0,0,.1-.5c0-.1-.1-.3-.2-.3l-.4-.2h1.6c-.1.1-.2.1-.2.3s-.1.2-.1.5l-.4,3.4,2.2-3,.5-.7v-.5h1l-.5.3-.7,1-3.2,4.4Z" transform="translate(-72 -326.3)"/>
  </g>
</svg>
