<svg id="Layer_1" data-name="Layer 1" xmlns="http://www.w3.org/2000/svg" viewBox="0 0 494.8 260.6">
  <defs>
    <style>
      .cls-1, .cls-3, .cls-4, .cls-5 {
        fill: none;
        stroke: #1d1d1b;
        stroke-miterlimit: 10;
      }

      .cls-2 {
        fill: #1d1d1b;
      }

      .cls-3, .cls-4, .cls-5 {
        stroke-width: 0.5px;
      }

      .cls-3 {
        stroke-dasharray: 2.98 2.98;
      }

      .cls-5 {
        stroke-dasharray: 2.84 2.84;
      }
    </style>
  </defs>
  <line class="cls-1" x1="1" y1="33" x2="109" y2="33"/>
  <line class="cls-1" x1="116.5" y1="15.7" x2="116.5" y2="51.7"/>
  <line class="cls-1" x1="109.5" y1="22.7" x2="109.5" y2="40.7"/>
  <line class="cls-1" x1="216.5" y1="33.5" x2="118" y2="33.5"/>
  <line class="cls-1" x1="0.5" y1="96.5" x2="89.5" y2="96.2"/>
  <rect class="cls-1" x="71.5" y="241.2" width="72" height="18"/>
  <line class="cls-1" x1="125.5" y1="96.2" x2="217" y2="96.5"/>
  <line class="cls-1" x1="0.5" y1="32.5" x2="0.5" y2="177.2"/>
  <path class="cls-1" d="M167,402.3" transform="translate(-72 -326.3)"/>
  <path class="cls-2" d="M198,352.7v-3h-3v-.4h3v-3h.4v3h3v.4h-3v3Z" transform="translate(-72 -326.3)"/>
  <path class="cls-2" d="M175.2,349.6h-6.3v-.5h6.3Z" transform="translate(-72 -326.3)"/>
  <path class="cls-2" d="M186.3,326.9l-1.1,3.9h.9a2,2,0,0,0,2.2-1.4h.3l-1,3.6h-.3a2.5,2.5,0,0,0,.1-.8.7.7,0,0,0-.1-.5l-.4-.3H185l-.9,3.3a4.1,4.1,0,0,0-.2.7.8.8,0,0,0,.2.4h1.5a4.9,4.9,0,0,0,2.3-.5,4.5,4.5,0,0,0,1.5-1.8h.3l-.9,2.8h-7.7V336h.8a.8.8,0,0,0,.4-.4,8.7,8.7,0,0,0,.5-1.2l1.7-6a8.9,8.9,0,0,0,.2-1.1.5.5,0,0,0-.2-.4c-.1-.2-.4-.2-.7-.2h-.2v-.3h7.1l-.6,2.4H190a1.1,1.1,0,0,0,.1-.5,1.4,1.4,0,0,0-.2-.7,1.8,1.8,0,0,0-.7-.5h-2.9Z" transform="translate(-72 -326.3)"/>
  <line class="cls-1" x1="0.5" y1="250.2" x2="0.5" y2="169.2"/>
  <line class="cls-1" x1="216.5" y1="250.2" x2="216.5" y2="214.7"/>
  <line class="cls-1" x1="0.5" y1="250.2" x2="71.5" y2="250.2"/>
  <line class="cls-1" x1="143.5" y1="250.2" x2="216.5" y2="250.2"/>
  <circle class="cls-1" cx="107.5" cy="96.2" r="18"/>
  <path class="cls-2" d="M185.9,417.4v.3a1.9,1.9,0,0,0-.9.4,3.2,3.2,0,0,0-.8,1.3l-3.9,9.6H180l-4.3-9.8a4.1,4.1,0,0,0-.4-.9l-.5-.4-.8-.2v-.3h4.6v.3l-1.1.3a.8.8,0,0,0-.2.5,3,3,0,0,0,.4,1.3l2.9,6.6,2.6-6.5a3.8,3.8,0,0,0,.4-1.4.8.8,0,0,0-.2-.4,1.2,1.2,0,0,0-.9-.3h-.1v-.3Z" transform="translate(-72 -326.3)"/>
  <circle class="cls-1" cx="216.5" cy="196.2" r="18"/>
  <path class="cls-2" d="M290.4,523.6H286l-.8,1.7a3.3,3.3,0,0,0-.3,1c0,.2.1.3.3.5a2.3,2.3,0,0,0,1.1.2v.3h-3.6V527l.9-.3a6.4,6.4,0,0,0,1-1.6l3.9-9.3h.3l3.9,9.4a3.3,3.3,0,0,0,.9,1.4,1.2,1.2,0,0,0,1.1.4v.3h-4.5V527a1.4,1.4,0,0,0,.9-.2.5.5,0,0,0,.3-.5,2.4,2.4,0,0,0-.4-1.1Zm-.3-.7-1.9-4.5-1.9,4.5Z" transform="translate(-72 -326.3)"/>
  <path class="cls-2" d="M182.3,581.5l-1.6-4.8h-1.1l-.8,3a4.4,4.4,0,0,0-.2,1,.8.8,0,0,0,.2.5l.9.2v.2h-3.7v-.2h.7a1,1,0,0,0,.5-.4,8.7,8.7,0,0,0,.5-1.2l1.6-6a1.8,1.8,0,0,0,.2-.9.9.9,0,0,0-.3-.6l-.7-.2v-.3h3.1a3.5,3.5,0,0,1,2.3.6,2,2,0,0,1,.7,1.6,2.4,2.4,0,0,1-.7,1.8,3.2,3.2,0,0,1-2,1l1,2.9a2.6,2.6,0,0,0,.7,1.4,1.9,1.9,0,0,0,1.1.4v.2Zm-2.6-5.3h.8a3,3,0,0,0,2-.7,2.4,2.4,0,0,0,.7-1.8,1.7,1.7,0,0,0-.5-1.2,1.6,1.6,0,0,0-1.3-.5h-.5Z" transform="translate(-72 -326.3)"/>
  <polygon class="cls-2" points="177.8 253.9 176.2 250.2 177.8 246.5 169 250.2 177.8 253.9"/>
  <g>
    <line class="cls-1" x1="216.5" y1="80.1" x2="216.5" y2="79.2"/>
    <polygon class="cls-2" points="216.5 87.2 220.6 77.2 216.5 79.6 212.4 77.2 216.5 87.2"/>
  </g>
  <path class="cls-2" d="M247.5,563.5v.3h-4.1v-.3h.8a1,1,0,0,0,.5-.4,3.5,3.5,0,0,0,.5-1.2l1.7-6a3.6,3.6,0,0,0,.3-1.1c0-.1-.1-.2-.1-.3l-.3-.2H246v-.3h3.8v.3h-.7a.7.7,0,0,0-.5.4,3.5,3.5,0,0,0-.5,1.2l-1.7,6a3.1,3.1,0,0,0-.2,1.1.4.4,0,0,0,.1.3l.2.2Z" transform="translate(-72 -326.3)"/>
  <line class="cls-1" x1="216.5" y1="178.7" x2="216.5" y2="33.2"/>
  <line class="cls-1" x1="251.8" y1="33.9" x2="359.8" y2="33.9"/>
  <line class="cls-1" x1="367.2" y1="16.6" x2="367.2" y2="52.6"/>
  <line class="cls-1" x1="360.2" y1="23.6" x2="360.2" y2="41.6"/>
  <line class="cls-1" x1="467.3" y1="34.4" x2="368.8" y2="34.4"/>
  <line class="cls-1" x1="467.3" y1="141.2" x2="467.3" y2="34.4"/>
  <line class="cls-1" x1="251.3" y1="97.4" x2="340.2" y2="97.1"/>
  <rect class="cls-1" x="322.2" y="242.1" width="72" height="18"/>
  <line class="cls-1" x1="376.2" y1="97.1" x2="467.8" y2="97.4"/>
  <line class="cls-1" x1="251.3" y1="33.4" x2="251.3" y2="250.2"/>
  <path class="cls-1" d="M417.8,403.2" transform="translate(-72 -326.3)"/>
  <path class="cls-2" d="M448.7,353.6v-2.9h-2.9v-.5h2.9v-2.9h.5v2.9h2.9v.5h-2.9v2.9Z" transform="translate(-72 -326.3)"/>
  <path class="cls-2" d="M426,350.6h-6.3v-.5H426Z" transform="translate(-72 -326.3)"/>
  <path class="cls-2" d="M437,327.8l-1.1,3.9h.9a2.8,2.8,0,0,0,1.5-.3,2.3,2.3,0,0,0,.7-1.1h.3l-1,3.6H438a2.5,2.5,0,0,0,.1-.8.7.7,0,0,0-.1-.5l-.3-.3h-1.9l-1,3.3a2.3,2.3,0,0,0-.1.7c0,.2,0,.3.2.4h1.5a4.5,4.5,0,0,0,2.2-.5,4.8,4.8,0,0,0,1.6-1.8h.3l-1,2.8h-7.7v-.3h.8l.4-.3a3.4,3.4,0,0,0,.5-1.3l1.7-6a2.6,2.6,0,0,0,.2-1.1c0-.2,0-.3-.1-.4a1.5,1.5,0,0,0-.8-.2h-.2v-.3h7.2l-.7,2.4h-.2v-.5a.8.8,0,0,0-.2-.7,1.3,1.3,0,0,0-.7-.5H437Z" transform="translate(-72 -326.3)"/>
  <line class="cls-1" x1="467.2" y1="251.1" x2="467.5" y2="180.2"/>
  <line class="cls-1" x1="251.2" y1="250.1" x2="322.2" y2="250.1"/>
  <line class="cls-1" x1="394.2" y1="251.1" x2="467.2" y2="251.1"/>
  <circle class="cls-1" cx="358.2" cy="97.1" r="18"/>
  <path class="cls-2" d="M436.6,418.4v.3a1.3,1.3,0,0,0-.9.4,3.1,3.1,0,0,0-.8,1.2l-3.9,9.6h-.3l-4.2-9.7a3.1,3.1,0,0,0-.5-.9,1,1,0,0,0-.5-.4l-.8-.2v-.3h4.6v.3l-1,.2c-.2.2-.3.3-.3.5a5.8,5.8,0,0,0,.4,1.3l2.9,6.6,2.7-6.5a5.3,5.3,0,0,0,.3-1.3.6.6,0,0,0-.2-.5l-.8-.3h-.2v-.3Z" transform="translate(-72 -326.3)"/>
  <circle class="cls-1" cx="400.5" cy="185.2" r="18"/>
  <path class="cls-2" d="M474.4,512.6H470l-.8,1.7a3.3,3.3,0,0,0-.3,1c0,.2.1.3.3.5a2.3,2.3,0,0,0,1.1.2v.3h-3.6V516l.9-.3a6.4,6.4,0,0,0,1-1.6l3.9-9.3h.3l3.9,9.4a3.3,3.3,0,0,0,.9,1.4,1.2,1.2,0,0,0,1.1.4v.3h-4.5V516a1.4,1.4,0,0,0,.9-.2.5.5,0,0,0,.3-.5,2.4,2.4,0,0,0-.4-1.1Zm-.3-.7-1.9-4.5-1.9,4.5Z" transform="translate(-72 -326.3)"/>
  <path class="cls-2" d="M433,582.5l-1.5-4.9h-1.2l-.8,3a5.8,5.8,0,0,0-.2,1,.8.8,0,0,0,.2.5,1.7,1.7,0,0,0,.9.2v.3h-3.7v-.3h.7a.8.8,0,0,0,.4-.4,3.5,3.5,0,0,0,.5-1.2l1.7-6a5.1,5.1,0,0,0,.2-.9.9.9,0,0,0-.3-.6,1.5,1.5,0,0,0-.8-.2v-.3h3.2a2.8,2.8,0,0,1,2.2.7,1.9,1.9,0,0,1,.7,1.6,2.3,2.3,0,0,1-.7,1.7,2.6,2.6,0,0,1-1.9,1l.9,2.9a2.9,2.9,0,0,0,.7,1.4,1.6,1.6,0,0,0,1.1.4v.3Zm-2.5-5.4h.8a2.9,2.9,0,0,0,1.9-.7,2.4,2.4,0,0,0,.7-1.8,1.6,1.6,0,0,0-.4-1.2,2,2,0,0,0-1.4-.4h-.5Z" transform="translate(-72 -326.3)"/>
  <polygon class="cls-2" points="428.5 254.8 426.9 251.1 428.5 247.4 419.7 251.1 428.5 254.8"/>
  <g>
    <line class="cls-1" x1="286.1" y1="250.2" x2="306" y2="250.2"/>
    <polygon class="cls-2" points="279 250.2 288.9 254.2 286.6 250.2 288.9 246.1 279 250.2"/>
  </g>
  <path class="cls-2" d="M359.2,564.4v.3h-4v-.3h.8l.4-.3a3.2,3.2,0,0,0,.5-1.3l1.8-6a5.2,5.2,0,0,0,.2-1.1.4.4,0,0,0-.1-.3l-.3-.2h-.7v-.2h3.9v.2h-.7l-.5.4a4,4,0,0,0-.4,1.2l-1.8,6c-.1.6-.2.9-.2,1.1a.4.4,0,0,0,.1.3c.1.1.1.2.3.2Z" transform="translate(-72 -326.3)"/>
  <rect class="cls-1" x="456.5" y="141.2" width="23" height="39"/>
  <rect class="cls-3" x="441.5" y="122.2" width="53" height="87" rx="6.8"/>
  <g>
    <line class="cls-4" x1="441.5" y1="160.2" x2="440.3" y2="161.1"/>
    <line class="cls-5" x1="438" y1="162.8" x2="420.9" y2="175.4"/>
    <line class="cls-4" x1="419.7" y1="176.3" x2="418.5" y2="177.2"/>
  </g>
  <g>
    <path class="cls-2" d="M539.6,491.8,538,487h-1.1l-.8,3a4.4,4.4,0,0,0-.2,1c0,.2.1.3.2.5l.9.2v.2h-3.7v-.2l.8-.2c.2,0,.3-.1.4-.3a8.7,8.7,0,0,0,.5-1.2l1.7-6a3.4,3.4,0,0,0,.1-.9.8.8,0,0,0-.2-.6,1.1,1.1,0,0,0-.8-.2v-.3h3.1a3.3,3.3,0,0,1,2.3.6,2,2,0,0,1,.7,1.6,2.4,2.4,0,0,1-.7,1.8,3.8,3.8,0,0,1-2,1l1,2.9a2.6,2.6,0,0,0,.7,1.4,2.3,2.3,0,0,0,1.1.4v.2Zm-2.6-5.3h.9a2.5,2.5,0,0,0,1.9-.7,2.1,2.1,0,0,0,.7-1.7,1.5,1.5,0,0,0-.4-1.2,2,2,0,0,0-1.4-.5h-.5Z" transform="translate(-72 -326.3)"/>
    <path class="cls-2" d="M546.8,490.9l-.4,4.8v.7l.2.2H545a.5.5,0,0,0,.4-.2.2.2,0,0,0,.2-.2,3.5,3.5,0,0,0,.1-.6v-.8h-1.7l-.5.8-.3.4v.2a.4.4,0,0,0,.1.3h-1.3l.5-.2.7-.9,3.4-4.7Zm-.8,1.4-1.6,2.3h1.4Z" transform="translate(-72 -326.3)"/>
  </g>
  <g>
    <path class="cls-2" d="M494.1,564.6v.2h-4.1v-.2h.9a.8.8,0,0,0,.4-.4,2.3,2.3,0,0,0,.5-1.2l1.8-6a8.9,8.9,0,0,0,.2-1.1c0-.2,0-.3-.1-.4l-.3-.2h-.8v-.3h3.9v.3h-.7a1,1,0,0,0-.5.4,8.7,8.7,0,0,0-.5,1.2l-1.7,6c-.1.5-.2.9-.2,1s0,.3.1.3.1.2.3.2Z" transform="translate(-72 -326.3)"/>
    <path class="cls-2" d="M499.9,563.9l-.4,4.8a4.3,4.3,0,0,1-.1.5v.2c.1.1.1.2.2.2H498l.5-.2.2-.2v-1.4h-1.6l-.6.8-.3.4v.2a.4.4,0,0,0,.1.3H495l.6-.2.7-.9,3.5-4.7Zm-.8,1.4-1.7,2.3h1.4Z" transform="translate(-72 -326.3)"/>
  </g>
</svg>
