<svg id="Layer_1" data-name="Layer 1" xmlns="http://www.w3.org/2000/svg" xmlns:xlink="http://www.w3.org/1999/xlink" viewBox="0 0 404.9 209.1">
  <defs>
    <style>
      .cls-1 {
        fill: #ededed;
      }

      .cls-1, .cls-2, .cls-3, .cls-4, .cls-5, .cls-6, .cls-7 {
        stroke: #1d1d1b;
        stroke-miterlimit: 10;
      }

      .cls-2 {
        fill: #fff;
      }

      .cls-3 {
        fill: none;
      }

      .cls-4 {
        fill: url(#linear-gradient);
      }

      .cls-5 {
        fill: url(#linear-gradient-2);
      }

      .cls-6 {
        fill: url(#linear-gradient-3);
      }

      .cls-7 {
        fill: url(#linear-gradient-4);
      }

      .cls-8 {
        fill: #1d1d1b;
      }
    </style>
    <linearGradient id="linear-gradient" x1="100.66" y1="378.67" x2="136.59" y2="378.67" gradientUnits="userSpaceOnUse">
      <stop offset="0" stop-color="#fff"/>
      <stop offset="1"/>
    </linearGradient>
    <linearGradient id="linear-gradient-2" x1="202.08" y1="493.99" x2="238.02" y2="493.99" xlink:href="#linear-gradient"/>
    <linearGradient id="linear-gradient-3" x1="303.95" y1="493.99" x2="339.88" y2="493.99" xlink:href="#linear-gradient"/>
    <linearGradient id="linear-gradient-4" x1="406.13" y1="378.67" x2="442.07" y2="378.67" xlink:href="#linear-gradient"/>
  </defs>
  <g>
    <path class="cls-1" d="M139.3,494c0,18.9-9.1,34.2-20.4,34.2S98.6,512.9,98.6,494s9.1-34.2,20.3-34.2S139.3,475.1,139.3,494Z" transform="translate(-97.8 -319.6)"/>
    <path class="cls-2" d="M176.7,459.8c11.3,0,20.4,15.3,20.4,34.2s-9.1,34.2-20.4,34.2" transform="translate(-97.8 -319.6)"/>
    <line class="cls-3" x1="21.2" y1="140.2" x2="78.9" y2="140.2"/>
    <line class="cls-3" x1="21.2" y1="208.6" x2="78.9" y2="208.6"/>
  </g>
  <g>
    <path class="cls-1" d="M139,378.7c0,18.9-9.1,34.2-20.4,34.2s-20.3-15.3-20.3-34.2,9.1-34.2,20.3-34.2S139,359.8,139,378.7Z" transform="translate(-97.8 -319.6)"/>
    <path class="cls-2" d="M176.4,344.5c11.2,0,20.3,15.3,20.3,34.2s-9.1,34.2-20.3,34.2" transform="translate(-97.8 -319.6)"/>
    <line class="cls-3" x1="20.8" y1="24.9" x2="78.6" y2="24.9"/>
    <line class="cls-3" x1="20.8" y1="93.3" x2="78.6" y2="93.3"/>
  </g>
  <path class="cls-4" d="M136.6,378.7c0,17.2-8.1,31.2-18,31.2s-17.9-14-17.9-31.2,8-31.3,17.9-31.3S136.6,361.4,136.6,378.7Z" transform="translate(-97.8 -319.6)"/>
  <g>
    <g>
      <path class="cls-1" d="M240.4,494c0,18.9-9.1,34.2-20.4,34.2s-20.3-15.3-20.3-34.2,9.1-34.2,20.3-34.2S240.4,475.1,240.4,494Z" transform="translate(-97.8 -319.6)"/>
      <path class="cls-2" d="M277.8,459.8c11.3,0,20.4,15.3,20.4,34.2s-9.1,34.2-20.4,34.2" transform="translate(-97.8 -319.6)"/>
      <line class="cls-3" x1="122.3" y1="140.2" x2="180" y2="140.2"/>
      <line class="cls-3" x1="122.3" y1="208.6" x2="180" y2="208.6"/>
    </g>
    <path class="cls-5" d="M238,494c0,17.2-8,31.2-18,31.2s-17.9-14-17.9-31.2,8-31.3,17.9-31.3S238,476.7,238,494Z" transform="translate(-97.8 -319.6)"/>
  </g>
  <g>
    <path class="cls-1" d="M240.1,378.7c0,18.9-9.1,34.2-20.4,34.2s-20.3-15.3-20.3-34.2,9.1-34.2,20.3-34.2S240.1,359.8,240.1,378.7Z" transform="translate(-97.8 -319.6)"/>
    <path class="cls-2" d="M277.5,344.5c11.2,0,20.3,15.3,20.3,34.2s-9.1,34.2-20.3,34.2" transform="translate(-97.8 -319.6)"/>
    <line class="cls-3" x1="121.9" y1="24.9" x2="179.7" y2="24.9"/>
    <line class="cls-3" x1="121.9" y1="93.3" x2="179.7" y2="93.3"/>
  </g>
  <g>
    <path class="cls-1" d="M342.3,378.7c0,18.9-9.2,34.2-20.4,34.2s-20.3-15.3-20.3-34.2,9.1-34.2,20.3-34.2S342.3,359.8,342.3,378.7Z" transform="translate(-97.8 -319.6)"/>
    <path class="cls-2" d="M379.7,344.5c11.2,0,20.3,15.3,20.3,34.2s-9.1,34.2-20.3,34.2" transform="translate(-97.8 -319.6)"/>
    <line class="cls-3" x1="224.1" y1="24.9" x2="281.9" y2="24.9"/>
    <line class="cls-3" x1="224.1" y1="93.3" x2="281.9" y2="93.3"/>
  </g>
  <g>
    <g>
      <path class="cls-1" d="M342.3,494c0,18.9-9.2,34.2-20.4,34.2s-20.3-15.3-20.3-34.2,9.1-34.2,20.3-34.2S342.3,475.1,342.3,494Z" transform="translate(-97.8 -319.6)"/>
      <path class="cls-2" d="M379.7,459.8c11.2,0,20.3,15.3,20.3,34.2s-9.1,34.2-20.3,34.2" transform="translate(-97.8 -319.6)"/>
      <line class="cls-3" x1="224.1" y1="140.2" x2="281.9" y2="140.2"/>
      <line class="cls-3" x1="224.1" y1="208.6" x2="281.9" y2="208.6"/>
    </g>
    <path class="cls-6" d="M339.9,494c0,17.2-8.1,31.2-18,31.2s-18-14-18-31.2,8.1-31.3,18-31.3S339.9,476.7,339.9,494Z" transform="translate(-97.8 -319.6)"/>
  </g>
  <g>
    <path class="cls-1" d="M444.1,494c0,18.9-9.1,34.2-20.3,34.2s-20.4-15.3-20.4-34.2,9.1-34.2,20.4-34.2S444.1,475.1,444.1,494Z" transform="translate(-97.8 -319.6)"/>
    <path class="cls-2" d="M481.6,459.8c11.2,0,20.3,15.3,20.3,34.2s-9.1,34.2-20.3,34.2" transform="translate(-97.8 -319.6)"/>
    <line class="cls-3" x1="326" y1="140.2" x2="383.8" y2="140.2"/>
    <line class="cls-3" x1="326" y1="208.6" x2="383.8" y2="208.6"/>
  </g>
  <g>
    <g>
      <path class="cls-1" d="M444.4,378.7c0,18.9-9.1,34.2-20.3,34.2s-20.3-15.3-20.3-34.2,9.1-34.2,20.3-34.2S444.4,359.8,444.4,378.7Z" transform="translate(-97.8 -319.6)"/>
      <path class="cls-2" d="M481.9,344.5c11.2,0,20.3,15.3,20.3,34.2s-9.1,34.2-20.3,34.2" transform="translate(-97.8 -319.6)"/>
      <line class="cls-3" x1="326.3" y1="24.9" x2="384.1" y2="24.9"/>
      <line class="cls-3" x1="326.3" y1="93.3" x2="384.1" y2="93.3"/>
    </g>
    <path class="cls-7" d="M442.1,378.7c0,17.2-8.1,31.2-18,31.2s-18-14-18-31.2,8.1-31.3,18-31.3S442.1,361.4,442.1,378.7Z" transform="translate(-97.8 -319.6)"/>
  </g>
  <g>
    <path class="cls-8" d="M100.1,440.5l-.7,2.1h-.9l2.3-6.7h1.1l2.3,6.7h-1l-.7-2.1Zm2.2-.7-.6-1.9a9.3,9.3,0,0,1-.4-1.3h0l-.3,1.3-.7,1.9Z" transform="translate(-97.8 -319.6)"/>
    <path class="cls-8" d="M105,441.7a1.8,1.8,0,0,0,1.1.4c.7,0,1-.4,1-.8s-.3-.6-.9-.9-1.3-.7-1.3-1.3a1.4,1.4,0,0,1,1.6-1.4,1.9,1.9,0,0,1,1.2.3l-.2.6a2,2,0,0,0-1-.3.7.7,0,0,0-.8.7c0,.4.3.6.9.8s1.3.7,1.3,1.5-.7,1.4-1.8,1.4a3.2,3.2,0,0,1-1.4-.3Z" transform="translate(-97.8 -319.6)"/>
    <path class="cls-8" d="M109.5,440.3a1.6,1.6,0,0,0,1.7,1.7l1.3-.2.2.6a5,5,0,0,1-1.6.3,2.3,2.3,0,0,1-2.4-2.4c0-1.5.8-2.6,2.3-2.6a2,2,0,0,1,2,2.2,1,1,0,0,1-.1.4Zm2.6-.6a1.2,1.2,0,0,0-1.2-1.4,1.5,1.5,0,0,0-1.4,1.4Z" transform="translate(-97.8 -319.6)"/>
    <path class="cls-8" d="M115.1,436.4v1.4h1.3v.6h-1.3V441c0,.6.2,1,.7,1h.5v.7h-.8a1,1,0,0,1-.9-.4,1.5,1.5,0,0,1-.4-1.2v-2.7h-.7v-.6h.7v-1.2Z" transform="translate(-97.8 -319.6)"/>
    <path class="cls-8" d="M118.4,436.4v1.4h1.3v.6h-1.3V441c0,.6.2,1,.7,1h.5v.7h-.8a1,1,0,0,1-.9-.4c-.3-.2-.3-.7-.3-1.2v-2.7h-.8v-.6h.8v-1.2Z" transform="translate(-97.8 -319.6)"/>
    <path class="cls-8" d="M121.1,440.3a1.6,1.6,0,0,0,1.7,1.7l1.3-.2v.6a4.5,4.5,0,0,1-1.6.3,2.2,2.2,0,0,1-2.3-2.4c0-1.5.8-2.6,2.2-2.6a2,2,0,0,1,2,2.2v.4Zm2.6-.6a1.3,1.3,0,0,0-1.2-1.4,1.5,1.5,0,0,0-1.4,1.4Z" transform="translate(-97.8 -319.6)"/>
    <path class="cls-8" d="M125.6,435.5h.9v7.1h-.9Z" transform="translate(-97.8 -319.6)"/>
    <path class="cls-8" d="M132,441.3a5.3,5.3,0,0,0,.1,1.3h-.8v-.8h0a1.7,1.7,0,0,1-1.6.9c-.7,0-1.7-.4-1.7-2.1v-2.8h.9v2.6c0,1,.3,1.6,1.1,1.6a1.4,1.4,0,0,0,1.2-.8v-3.4h.9Z" transform="translate(-97.8 -319.6)"/>
    <path class="cls-8" d="M133.8,437.8l1,2.7.4,1.2h0a5.6,5.6,0,0,1,.4-1.2l.9-2.7h1l-1.9,4.8h-.9l-1.8-4.8Z" transform="translate(-97.8 -319.6)"/>
    <path class="cls-8" d="M140.9,442.6V442h-.1a1.6,1.6,0,0,1-1.4.7,1.4,1.4,0,0,1-1.5-1.4c0-1.1,1-1.8,2.9-1.8h0a1,1,0,0,0-1.1-1.1,2,2,0,0,0-1.3.4l-.2-.6a2.7,2.7,0,0,1,1.6-.4,1.7,1.7,0,0,1,1.9,1.9v3Zm-.1-2.5c-1,0-2,.2-2,1.1s.3.9.8.9a1.4,1.4,0,0,0,1.2-.8v-1.2Z" transform="translate(-97.8 -319.6)"/>
    <path class="cls-8" d="M144.1,436.4a.6.6,0,0,1-.6.5.5.5,0,0,1,0-1A.6.6,0,0,1,144.1,436.4Zm-1,6.2v-4.8h.9v4.8Z" transform="translate(-97.8 -319.6)"/>
    <path class="cls-8" d="M145.4,435.5h.9v3h0l.6-.6.9-.2c.7,0,1.7.4,1.7,2v2.9h-.8v-2.8c0-.8-.3-1.4-1.2-1.4a1.2,1.2,0,0,0-1.1.9c-.1.1-.1.2-.1.4v2.9h-.9Z" transform="translate(-97.8 -319.6)"/>
    <path class="cls-8" d="M152,436.4v1.4h1.2v.6H152V441c0,.6.2,1,.6,1h.6v.7h-.8a1,1,0,0,1-.9-.4,1.5,1.5,0,0,1-.4-1.2v-2.7h-.7v-.6h.7v-1.2Z" transform="translate(-97.8 -319.6)"/>
    <path class="cls-8" d="M158.6,440.1a2.4,2.4,0,0,1-2.5,2.6,2.3,2.3,0,0,1-2.3-2.5,2.3,2.3,0,0,1,2.4-2.5A2.3,2.3,0,0,1,158.6,440.1Zm-3.9.1c0,1.1.6,1.9,1.5,1.9a1.7,1.7,0,0,0,1.5-1.9c0-.8-.5-1.9-1.5-1.9S154.7,439.3,154.7,440.2Z" transform="translate(-97.8 -319.6)"/>
    <path class="cls-8" d="M160.2,440.3a1.5,1.5,0,0,0,1.6,1.7l1.4-.2v.6a4.5,4.5,0,0,1-1.6.3,2.3,2.3,0,0,1-2.4-2.4,2.3,2.3,0,0,1,2.3-2.6,2,2,0,0,1,2,2.2v.4Zm2.5-.6a1.2,1.2,0,0,0-1.2-1.4,1.3,1.3,0,0,0-1.3,1.4Z" transform="translate(-97.8 -319.6)"/>
    <path class="cls-8" d="M164.7,435.5h.9v3h0l.6-.6.9-.2c.7,0,1.7.4,1.7,2v2.9h-.9v-2.8c0-.8-.3-1.4-1.1-1.4a1.3,1.3,0,0,0-1.2.9v3.3h-.9Z" transform="translate(-97.8 -319.6)"/>
    <path class="cls-8" d="M171.2,436.4v1.4h1.3v.6h-1.3V441c0,.6.2,1,.7,1h.5v.7h-.8a1.2,1.2,0,0,1-1-.4,1.9,1.9,0,0,1-.3-1.2v-2.7h-.8v-.6h.8v-1.2Z" transform="translate(-97.8 -319.6)"/>
    <path class="cls-8" d="M177.8,440.1a2.4,2.4,0,0,1-2.4,2.6,2.5,2.5,0,0,1,.1-5A2.2,2.2,0,0,1,177.8,440.1Zm-3.8.1c0,1.1.6,1.9,1.4,1.9s1.5-.8,1.5-1.9-.4-1.9-1.4-1.9S174,439.3,174,440.2Z" transform="translate(-97.8 -319.6)"/>
    <path class="cls-8" d="M181.1,436l1.6-.2a3,3,0,0,1,1.8.5,1.4,1.4,0,0,1,.6,1.2,1.8,1.8,0,0,1-1.2,1.5h0a1.8,1.8,0,0,1,.9,3,3.3,3.3,0,0,1-2.4.7h-1.3Zm.8,2.7h.8c1,0,1.5-.5,1.5-1.1s-.6-1.1-1.5-1.1h-.8Zm0,3.2h.8c.9,0,1.7-.3,1.7-1.3s-.8-1.3-1.7-1.3h-.8Z" transform="translate(-97.8 -319.6)"/>
    <path class="cls-8" d="M185.9,443.8a6.9,6.9,0,0,0,1.3-4.1,6,6,0,0,0-1.3-4h.7a5.9,5.9,0,0,1,1.3,4,6,6,0,0,1-1.3,4.1Z" transform="translate(-97.8 -319.6)"/>
    <path class="cls-8" d="M193.5,439.6v.6H191v-.6Z" transform="translate(-97.8 -319.6)"/>
    <path class="cls-8" d="M196.5,441.7a2.1,2.1,0,0,0,1.2.4.8.8,0,0,0,.9-.8c0-.4-.3-.6-.9-.9s-1.3-.7-1.3-1.3.6-1.4,1.7-1.4a2.1,2.1,0,0,1,1.2.3l-.2.6a2.4,2.4,0,0,0-1-.3c-.6,0-.8.3-.8.7s.2.6.9.8,1.2.7,1.2,1.5-.6,1.4-1.8,1.4a2.5,2.5,0,0,1-1.3-.3Z" transform="translate(-97.8 -319.6)"/>
    <path class="cls-8" d="M204.6,441.3a5.3,5.3,0,0,0,.1,1.3h-.8v-.8h0a1.7,1.7,0,0,1-1.6.9c-.7,0-1.7-.4-1.7-2.1v-2.8h.9v2.6c0,1,.3,1.6,1.1,1.6a1.4,1.4,0,0,0,1.2-.8v-3.4h.9Z" transform="translate(-97.8 -319.6)"/>
    <path class="cls-8" d="M210.1,441.3a5.3,5.3,0,0,0,.1,1.3h-.8v-.8h0a1.7,1.7,0,0,1-1.6.9c-.7,0-1.6-.4-1.6-2.1v-2.8h.8v2.6c0,1,.3,1.6,1.1,1.6a1.4,1.4,0,0,0,1.2-.8,4.3,4.3,0,0,0,.1-.5v-2.9h.8Z" transform="translate(-97.8 -319.6)"/>
    <path class="cls-8" d="M211.6,439.3v-1.5h.7v.9h0a1.4,1.4,0,0,1,1.3-1h.3v.8h-.3a1.3,1.3,0,0,0-1.2,1.1v3h-.9Z" transform="translate(-97.8 -319.6)"/>
    <path class="cls-8" d="M215.3,440.3a1.5,1.5,0,0,0,1.6,1.7l1.4-.2v.6a4.5,4.5,0,0,1-1.6.3,2.3,2.3,0,0,1-2.4-2.4,2.3,2.3,0,0,1,2.3-2.6,2,2,0,0,1,2,2.2v.4Zm2.5-.6a1.2,1.2,0,0,0-1.2-1.4,1.3,1.3,0,0,0-1.3,1.4Z" transform="translate(-97.8 -319.6)"/>
    <path class="cls-8" d="M219.8,439.1a5.3,5.3,0,0,0-.1-1.3h.8v.7h.1a1.6,1.6,0,0,1,1.5-.8,1.5,1.5,0,0,1,1.4.9h0a1.5,1.5,0,0,1,.5-.6,1.8,1.8,0,0,1,1.1-.3c.6,0,1.6.4,1.6,2.1v2.8h-.9v-2.7c0-1-.3-1.5-1-1.5a1.2,1.2,0,0,0-1.1.8v3.4h-.9v-2.9c0-.8-.3-1.3-1-1.3a1.1,1.1,0,0,0-1.1.9c0,.1-.1.2-.1.4v2.9h-.8Z" transform="translate(-97.8 -319.6)"/>
    <path class="cls-8" d="M228.1,439.3v-1.5h.8v.8h0a2,2,0,0,1,1.7-.9,2.1,2.1,0,0,1,2.1,2.4c0,1.8-1.1,2.6-2.2,2.6a2,2,0,0,1-1.5-.7h0v2.6h-.9Zm.9,1.3v.4a1.4,1.4,0,0,0,1.3,1c1,0,1.5-.7,1.5-1.8s-.5-1.8-1.4-1.8a1.5,1.5,0,0,0-1.4,1v1.2Z" transform="translate(-97.8 -319.6)"/>
    <path class="cls-8" d="M234.8,436.4c0,.3-.2.5-.6.5a.5.5,0,1,1,0-1C234.6,435.9,234.8,436.1,234.8,436.4Zm-1,6.2v-4.8h.9v4.8Z" transform="translate(-97.8 -319.6)"/>
    <path class="cls-8" d="M238.3,435.5h.8v3h.1l.6-.6.9-.2a1.8,1.8,0,0,1,1.7,2v2.9h-.9v-2.8c0-.8-.3-1.4-1.1-1.4a1.3,1.3,0,0,0-1.2.9c0,.1-.1.2-.1.4v2.9h-.8Z" transform="translate(-97.8 -319.6)"/>
    <path class="cls-8" d="M244.8,436.4c0,.3-.2.5-.6.5a.5.5,0,0,1-.5-.5c0-.3.2-.5.6-.5A.5.5,0,0,1,244.8,436.4Zm-1,6.2v-4.8h.9v4.8Z" transform="translate(-97.8 -319.6)"/>
    <path class="cls-8" d="M247.2,436.4v1.4h1.3v.6h-1.3V441c0,.6.2,1,.7,1h.5v.7h-.8a1,1,0,0,1-.9-.4c-.3-.2-.3-.7-.3-1.2v-2.7h-.8v-.6h.8v-1.2Z" transform="translate(-97.8 -319.6)"/>
    <path class="cls-8" d="M252.1,442.6V442H252a1.5,1.5,0,0,1-1.4.7,1.4,1.4,0,0,1-1.5-1.4c0-1.1,1-1.8,2.9-1.8h0a1,1,0,0,0-1.1-1.1,2,2,0,0,0-1.3.4l-.2-.6a2.7,2.7,0,0,1,1.6-.4,1.7,1.7,0,0,1,1.9,1.9v3Zm-.1-2.5c-.9,0-2,.2-2,1.1s.3.9.8.9a1.4,1.4,0,0,0,1.2-.8v-1.2Z" transform="translate(-97.8 -319.6)"/>
    <path class="cls-8" d="M258.3,441.3a5.3,5.3,0,0,0,.1,1.3h-.8v-.8h0a1.7,1.7,0,0,1-1.6.9c-.7,0-1.6-.4-1.6-2.1v-2.8h.8v2.6c0,1,.3,1.6,1.1,1.6a1.4,1.4,0,0,0,1.2-.8,4.3,4.3,0,0,0,.1-.5v-2.9h.8Z" transform="translate(-97.8 -319.6)"/>
    <path class="cls-8" d="M259.7,441.7a1.8,1.8,0,0,0,1.1.4c.7,0,1-.4,1-.8s-.3-.6-.9-.9-1.3-.7-1.3-1.3.6-1.4,1.7-1.4a2.1,2.1,0,0,1,1.2.3l-.3.6a2,2,0,0,0-1-.3.7.7,0,0,0-.8.7c0,.4.3.6,1,.8s1.2.7,1.2,1.5-.6,1.4-1.8,1.4a2.5,2.5,0,0,1-1.3-.3Z" transform="translate(-97.8 -319.6)"/>
    <path class="cls-8" d="M263.8,439.1c0-.5-.1-.9-.1-1.3h.8v.7h.1a1.6,1.6,0,0,1,1.5-.8,1.4,1.4,0,0,1,1.3.9h.1a1.5,1.5,0,0,1,.5-.6,1.8,1.8,0,0,1,1.1-.3c.6,0,1.6.4,1.6,2.1v2.8h-.9v-2.7c0-1-.3-1.5-1.1-1.5a1.1,1.1,0,0,0-1,.8c0,.1-.1.3-.1.4v3h-.8v-2.9c0-.8-.4-1.3-1-1.3a1.1,1.1,0,0,0-1.1.9c-.1.1-.1.2-.1.4v2.9h-.8Z" transform="translate(-97.8 -319.6)"/>
    <path class="cls-8" d="M276.5,440.1a2.4,2.4,0,0,1-2.4,2.6,2.5,2.5,0,0,1,0-5A2.3,2.3,0,0,1,276.5,440.1Zm-3.9.1c0,1.1.6,1.9,1.5,1.9a1.7,1.7,0,0,0,1.5-1.9c0-.8-.4-1.9-1.5-1.9S272.6,439.3,272.6,440.2Z" transform="translate(-97.8 -319.6)"/>
    <path class="cls-8" d="M277.6,439.1a5.3,5.3,0,0,0-.1-1.3h.8v.7h0a1.7,1.7,0,0,1,1.5-.8,1.5,1.5,0,0,1,1.4.9h0a1.5,1.5,0,0,1,.5-.6,1.8,1.8,0,0,1,1.1-.3c.6,0,1.6.4,1.6,2.1v2.8h-.9v-2.7c0-1-.3-1.5-1-1.5a1.2,1.2,0,0,0-1.1.8v3.4h-.9v-2.9c0-.8-.3-1.3-1-1.3a1.3,1.3,0,0,0-1.1.9c0,.1-.1.2-.1.4v2.9h-.8Z" transform="translate(-97.8 -319.6)"/>
    <path class="cls-8" d="M286.4,440.3a1.6,1.6,0,0,0,1.7,1.7l1.3-.2.2.6a5.7,5.7,0,0,1-1.6.3,2.3,2.3,0,0,1-2.4-2.4c0-1.5.8-2.6,2.2-2.6a2,2,0,0,1,2,2.2v.4Zm2.6-.6a1.2,1.2,0,0,0-1.2-1.4,1.5,1.5,0,0,0-1.4,1.4Z" transform="translate(-97.8 -319.6)"/>
    <path class="cls-8" d="M290.9,439.1v-1.3h.8v.8h0a1.8,1.8,0,0,1,1.6-.9c.7,0,1.7.4,1.7,2v2.9h-.8v-2.8c0-.8-.3-1.4-1.1-1.4a1.2,1.2,0,0,0-1.2.9c-.1.1-.1.2-.1.4v2.9h-.9Z" transform="translate(-97.8 -319.6)"/>
    <path class="cls-8" d="M297.5,436.4v1.4h1.3v.6h-1.3V441c0,.6.2,1,.7,1h.5v.7h-.8a1,1,0,0,1-.9-.4,1.5,1.5,0,0,1-.4-1.2v-2.7h-.7v-.6h.7v-1.2Z" transform="translate(-97.8 -319.6)"/>
    <path class="cls-8" d="M300.8,436.4v1.4h1.3v.6h-1.3V441c0,.6.2,1,.7,1h.5v.7h-.8a1,1,0,0,1-.9-.4c-.3-.2-.3-.7-.3-1.2v-2.7h-.8v-.6h.8v-1.2Z" transform="translate(-97.8 -319.6)"/>
    <path class="cls-8" d="M304,436.4c.1.3-.2.5-.5.5a.5.5,0,1,1,.5-.5Zm-.9,6.2v-4.8h.8v4.8Z" transform="translate(-97.8 -319.6)"/>
  </g>
  <g>
    <path class="cls-8" d="M100.1,324.6l-.7,2.1h-.9l2.3-6.8h1.1l2.3,6.8h-1l-.7-2.1Zm2.2-.7-.6-2a5.6,5.6,0,0,1-.4-1.2h0l-.3,1.2-.7,2Z" transform="translate(-97.8 -319.6)"/>
    <path class="cls-8" d="M105,325.8a2.9,2.9,0,0,0,1.1.3c.7,0,1-.3,1-.7s-.3-.6-.9-.9-1.3-.8-1.3-1.4a1.5,1.5,0,0,1,1.6-1.4,3,3,0,0,1,1.2.3l-.2.7a1.3,1.3,0,0,0-1-.3c-.5,0-.8.3-.8.6s.3.6.9.9,1.3.7,1.3,1.4-.7,1.5-1.8,1.5a3.3,3.3,0,0,1-1.4-.4Z" transform="translate(-97.8 -319.6)"/>
    <path class="cls-8" d="M109.5,324.4a1.6,1.6,0,0,0,1.7,1.7,2.3,2.3,0,0,0,1.3-.3l.2.7a5,5,0,0,1-1.6.3,2.3,2.3,0,0,1-2.4-2.5,2.3,2.3,0,0,1,2.3-2.6,2.1,2.1,0,0,1,2,2.3c0,.2-.1.3-.1.4Zm2.6-.6c0-.6-.2-1.4-1.2-1.4a1.5,1.5,0,0,0-1.4,1.4Z" transform="translate(-97.8 -319.6)"/>
    <path class="cls-8" d="M115.1,320.4v1.4h1.3v.7h-1.3v2.6c0,.6.2,1,.7,1h.5v.7h-.8a1.3,1.3,0,0,1-.9-.4,1.7,1.7,0,0,1-.4-1.3v-2.6h-.7v-.7h.7v-1.1Z" transform="translate(-97.8 -319.6)"/>
    <path class="cls-8" d="M118.4,320.4v1.4h1.3v.7h-1.3v2.6c0,.6.2,1,.7,1h.5v.7h-.8a1.3,1.3,0,0,1-.9-.4c-.3-.3-.3-.7-.3-1.3v-2.6h-.8v-.7h.8v-1.1Z" transform="translate(-97.8 -319.6)"/>
    <path class="cls-8" d="M121.1,324.4a1.6,1.6,0,0,0,1.7,1.7,2.3,2.3,0,0,0,1.3-.3v.7a4.5,4.5,0,0,1-1.6.3,2.2,2.2,0,0,1-2.3-2.5,2.3,2.3,0,0,1,2.2-2.6,2,2,0,0,1,2,2.3v.4Zm2.6-.6a1.3,1.3,0,0,0-1.2-1.4,1.5,1.5,0,0,0-1.4,1.4Z" transform="translate(-97.8 -319.6)"/>
    <path class="cls-8" d="M125.6,319.6h.9v7.1h-.9Z" transform="translate(-97.8 -319.6)"/>
    <path class="cls-8" d="M132,325.4a5.3,5.3,0,0,0,.1,1.3h-.8v-.8h0a1.7,1.7,0,0,1-1.6.9c-.7,0-1.7-.4-1.7-2.1v-2.9h.9v2.7c0,.9.3,1.6,1.1,1.6a1.5,1.5,0,0,0,1.2-.8v-3.5h.9Z" transform="translate(-97.8 -319.6)"/>
    <path class="cls-8" d="M133.8,321.8l1,2.8c.1.4.3.8.4,1.2h0a5.6,5.6,0,0,1,.4-1.2l.9-2.8h1l-1.9,4.9h-.9l-1.8-4.9Z" transform="translate(-97.8 -319.6)"/>
    <path class="cls-8" d="M140.9,326.7v-.6h-.1a1.9,1.9,0,0,1-1.4.7,1.4,1.4,0,0,1-1.5-1.4c0-1.2,1-1.8,2.9-1.8h0a1,1,0,0,0-1.1-1.1,2.8,2.8,0,0,0-1.3.3l-.2-.5a2.8,2.8,0,0,1,1.6-.5,1.8,1.8,0,0,1,1.9,2v3Zm-.1-2.5c-1,0-2,.2-2,1.1s.3.8.8.8a1.4,1.4,0,0,0,1.2-.8v-1.1Z" transform="translate(-97.8 -319.6)"/>
    <path class="cls-8" d="M144.1,320.5a.6.6,0,0,1-.6.5.5.5,0,0,1-.5-.5.6.6,0,0,1,.5-.6A.6.6,0,0,1,144.1,320.5Zm-1,6.2v-4.9h.9v4.9Z" transform="translate(-97.8 -319.6)"/>
    <path class="cls-8" d="M145.4,319.6h.9v3h0a1.7,1.7,0,0,1,.6-.6,1.6,1.6,0,0,1,.9-.3c.7,0,1.7.4,1.7,2.1v2.9h-.8v-2.8c0-.8-.3-1.4-1.2-1.4a1.2,1.2,0,0,0-1.1.8.9.9,0,0,0-.1.5v2.9h-.9Z" transform="translate(-97.8 -319.6)"/>
    <path class="cls-8" d="M152,320.4v1.4h1.2v.7H152v2.6c0,.6.2,1,.6,1h.6v.7h-.8a1.3,1.3,0,0,1-.9-.4,1.7,1.7,0,0,1-.4-1.3v-2.6h-.7v-.7h.7v-1.1Z" transform="translate(-97.8 -319.6)"/>
    <path class="cls-8" d="M158.6,324.2a2.4,2.4,0,0,1-2.5,2.6,2.3,2.3,0,0,1-2.3-2.5,2.4,2.4,0,0,1,2.4-2.6A2.3,2.3,0,0,1,158.6,324.2Zm-3.9.1a1.6,1.6,0,0,0,1.5,1.8,1.7,1.7,0,0,0,1.5-1.9,1.7,1.7,0,0,0-1.5-1.8C155.2,322.4,154.7,323.3,154.7,324.3Z" transform="translate(-97.8 -319.6)"/>
    <path class="cls-8" d="M160.2,324.4a1.5,1.5,0,0,0,1.6,1.7,2.9,2.9,0,0,0,1.4-.3v.7a4.5,4.5,0,0,1-1.6.3,2.3,2.3,0,0,1-2.4-2.5,2.4,2.4,0,0,1,2.3-2.6,2,2,0,0,1,2,2.3v.4Zm2.5-.6c0-.6-.2-1.4-1.2-1.4a1.3,1.3,0,0,0-1.3,1.4Z" transform="translate(-97.8 -319.6)"/>
    <path class="cls-8" d="M164.7,319.6h.9v3h0a.9.9,0,0,1,.6-.6,1.6,1.6,0,0,1,.9-.3c.7,0,1.7.4,1.7,2.1v2.9h-.9v-2.8c0-.8-.3-1.4-1.1-1.4a1.4,1.4,0,0,0-1.2.8v3.4h-.9Z" transform="translate(-97.8 -319.6)"/>
    <path class="cls-8" d="M171.2,320.4v1.4h1.3v.7h-1.3v2.6c0,.6.2,1,.7,1h.5v.7h-.8a1.5,1.5,0,0,1-1-.4,2.3,2.3,0,0,1-.3-1.3v-2.6h-.8v-.7h.8v-1.1Z" transform="translate(-97.8 -319.6)"/>
    <path class="cls-8" d="M177.8,324.2a2.4,2.4,0,0,1-2.4,2.6,2.3,2.3,0,0,1-2.3-2.5,2.4,2.4,0,0,1,2.4-2.6A2.3,2.3,0,0,1,177.8,324.2Zm-3.8.1a1.6,1.6,0,0,0,1.4,1.8c.9,0,1.5-.8,1.5-1.9s-.4-1.8-1.4-1.8S174,323.3,174,324.3Z" transform="translate(-97.8 -319.6)"/>
    <path class="cls-8" d="M182.2,324.6l-.7,2.1h-.9l2.3-6.8h1l2.3,6.8h-.9l-.7-2.1Zm2.2-.7-.7-2-.3-1.2h-.1l-.3,1.2-.7,2Z" transform="translate(-97.8 -319.6)"/>
    <path class="cls-8" d="M186.5,327.9a7.1,7.1,0,0,0,0-8.2h.7a7.1,7.1,0,0,1,0,8.2Z" transform="translate(-97.8 -319.6)"/>
    <path class="cls-8" d="M194.1,323.6v.7h-2.5v-.7Z" transform="translate(-97.8 -319.6)"/>
    <path class="cls-8" d="M197.2,323.4v-1.6h.8v.9h0a2.1,2.1,0,0,1,1.8-1c1.1,0,2,1,2,2.5a2.3,2.3,0,0,1-2.2,2.6,1.8,1.8,0,0,1-1.5-.8h0v2.7h-.9Zm.9,1.3v.4a1.4,1.4,0,0,0,1.4,1c.9,0,1.4-.8,1.4-1.9s-.5-1.8-1.4-1.8a1.4,1.4,0,0,0-1.3,1.1.6.6,0,0,0-.1.4Z" transform="translate(-97.8 -319.6)"/>
    <path class="cls-8" d="M203.9,320.5c0,.3-.2.5-.6.5a.5.5,0,0,1-.5-.5.6.6,0,0,1,.6-.6A.6.6,0,0,1,203.9,320.5Zm-1,6.2v-4.9h.9v4.9Z" transform="translate(-97.8 -319.6)"/>
    <path class="cls-8" d="M205.7,324.4a1.6,1.6,0,0,0,1.7,1.7,2.3,2.3,0,0,0,1.3-.3l.2.7a4.5,4.5,0,0,1-1.6.3,2.3,2.3,0,0,1-2.4-2.5,2.4,2.4,0,0,1,2.3-2.6,2,2,0,0,1,2,2.3c0,.2,0,.3-.1.4Zm2.6-.6c0-.6-.2-1.4-1.2-1.4a1.3,1.3,0,0,0-1.3,1.4Z" transform="translate(-97.8 -319.6)"/>
    <path class="cls-8" d="M210.3,323.1a5.3,5.3,0,0,0-.1-1.3h.8v.8h0a1.8,1.8,0,0,1,1.6-.9c.6,0,1.7.4,1.7,2.1v2.9h-.9v-2.8c0-.8-.3-1.4-1.1-1.4a1.3,1.3,0,0,0-1.2.9c0,.1-.1.2-.1.4v2.9h-.8Z" transform="translate(-97.8 -319.6)"/>
    <path class="cls-8" d="M216.3,324.4a1.6,1.6,0,0,0,1.7,1.7,2.3,2.3,0,0,0,1.3-.3l.2.7a5.8,5.8,0,0,1-1.7.3,2.3,2.3,0,0,1-2.3-2.5,2.3,2.3,0,0,1,2.2-2.6,2,2,0,0,1,2,2.3v.4Zm2.6-.6c0-.6-.2-1.4-1.2-1.4a1.5,1.5,0,0,0-1.4,1.4Z" transform="translate(-97.8 -319.6)"/>
    <path class="cls-8" d="M220.8,323.1v-1.3h.8v.8h0a1.8,1.8,0,0,1,1.5-.9,1.4,1.4,0,0,1,1.4,1h0a1.7,1.7,0,0,1,.6-.6,1.3,1.3,0,0,1,1-.4c.7,0,1.6.4,1.6,2.1v2.9h-.8v-2.8c0-.9-.4-1.5-1.1-1.5a1.1,1.1,0,0,0-1,.8.9.9,0,0,0-.1.5v3h-.8v-2.9c0-.8-.4-1.4-1.1-1.4a1.2,1.2,0,0,0-1,.9.9.9,0,0,0-.1.5v2.9h-.9Z" transform="translate(-97.8 -319.6)"/>
    <path class="cls-8" d="M229.2,323.4c0-.6-.1-1.1-.1-1.6h.8v.9h0a1.8,1.8,0,0,1,1.7-1c1.2,0,2,1,2,2.5s-1,2.6-2.2,2.6a1.5,1.5,0,0,1-1.4-.8H230v2.7h-.8Zm.8,1.3c0,.1.1.3.1.4a1.3,1.3,0,0,0,1.3,1c.9,0,1.5-.8,1.5-1.9a1.6,1.6,0,0,0-1.5-1.8,1.5,1.5,0,0,0-1.3,1.1c0,.1-.1.3-.1.4Z" transform="translate(-97.8 -319.6)"/>
    <path class="cls-8" d="M235.8,320.5a.5.5,0,0,1-.5.5.6.6,0,0,1-.6-.5.6.6,0,0,1,.6-.6A.6.6,0,0,1,235.8,320.5Zm-.9,6.2v-4.9h.8v4.9Z" transform="translate(-97.8 -319.6)"/>
    <path class="cls-8" d="M239.3,319.6h.9v3h0a1.7,1.7,0,0,1,.6-.6,1.6,1.6,0,0,1,.9-.3c.7,0,1.7.4,1.7,2.1v2.9h-.8v-2.8c0-.8-.3-1.4-1.2-1.4a1.2,1.2,0,0,0-1.1.8.9.9,0,0,0-.1.5v2.9h-.9Z" transform="translate(-97.8 -319.6)"/>
    <path class="cls-8" d="M245.8,320.5c.1.3-.2.5-.5.5a.5.5,0,0,1-.5-.5.5.5,0,1,1,1,0Zm-.9,6.2v-4.9h.8v4.9Z" transform="translate(-97.8 -319.6)"/>
    <path class="cls-8" d="M248.3,320.4v1.4h1.2v.7h-1.2v2.6c0,.6.1,1,.6,1h.5v.7h-.8a1.8,1.8,0,0,1-1-.4,2.3,2.3,0,0,1-.3-1.3v-2.6h-.7v-.7h.7v-1.1Z" transform="translate(-97.8 -319.6)"/>
    <path class="cls-8" d="M253.2,326.7v-.6h0a2.1,2.1,0,0,1-1.5.7,1.4,1.4,0,0,1-1.5-1.4c0-1.2,1.1-1.8,2.9-1.8h0a1,1,0,0,0-1.1-1.1,2.4,2.4,0,0,0-1.2.3l-.2-.5a2.8,2.8,0,0,1,1.6-.5c1.5,0,1.8,1,1.8,2v1.8a4.9,4.9,0,0,0,.1,1.2Zm-.1-2.5c-1,0-2.1.2-2.1,1.1a.7.7,0,0,0,.8.8,1.1,1.1,0,0,0,1.2-.8c0-.1.1-.2.1-.3Z" transform="translate(-97.8 -319.6)"/>
    <path class="cls-8" d="M259.4,325.4v1.3h-.8v-.8h0a2,2,0,0,1-1.6.9c-.8,0-1.7-.4-1.7-2.1v-2.9h.9v2.7c0,.9.3,1.6,1.1,1.6a1.2,1.2,0,0,0,1.1-.8.9.9,0,0,0,.1-.5v-3h.9Z" transform="translate(-97.8 -319.6)"/>
    <path class="cls-8" d="M260.7,325.8a3.5,3.5,0,0,0,1.2.3c.6,0,.9-.3.9-.7s-.2-.6-.9-.9-1.3-.8-1.3-1.4a1.6,1.6,0,0,1,1.7-1.4,3.5,3.5,0,0,1,1.2.3l-.2.7a1.5,1.5,0,0,0-1-.3c-.5,0-.8.3-.8.6s.3.6.9.9,1.3.7,1.3,1.4-.7,1.5-1.8,1.5a2.6,2.6,0,0,1-1.4-.4Z" transform="translate(-97.8 -319.6)"/>
    <path class="cls-8" d="M264.8,323.1v-1.3h.7v.8h0a1.8,1.8,0,0,1,1.5-.9,1.4,1.4,0,0,1,1.4,1h0l.5-.6a1.5,1.5,0,0,1,1.1-.4c.7,0,1.6.4,1.6,2.1v2.9h-.9v-2.8c0-.9-.3-1.5-1-1.5a1.1,1.1,0,0,0-1,.8.9.9,0,0,0-.1.5v3h-.9v-2.9c0-.8-.3-1.4-1-1.4s-.9.5-1.1.9v3.4h-.9Z" transform="translate(-97.8 -319.6)"/>
    <path class="cls-8" d="M277.5,324.2a2.4,2.4,0,0,1-2.4,2.6,2.3,2.3,0,0,1-2.3-2.5,2.4,2.4,0,0,1,2.4-2.6A2.3,2.3,0,0,1,277.5,324.2Zm-3.8.1a1.6,1.6,0,0,0,1.5,1.8c.8,0,1.4-.8,1.4-1.9s-.4-1.8-1.4-1.8S273.7,323.3,273.7,324.3Z" transform="translate(-97.8 -319.6)"/>
    <path class="cls-8" d="M278.6,323.1v-1.3h.8v.8h0a2,2,0,0,1,1.6-.9,1.4,1.4,0,0,1,1.3,1h0a1.7,1.7,0,0,1,.6-.6,1.3,1.3,0,0,1,1-.4c.7,0,1.6.4,1.6,2.1v2.9h-.8v-2.8c0-.9-.4-1.5-1.1-1.5a1.1,1.1,0,0,0-1,.8.9.9,0,0,0-.1.5v3h-.8v-2.9c0-.8-.4-1.4-1-1.4a1.2,1.2,0,0,0-1.1.9.9.9,0,0,0-.1.5v2.9h-.9Z" transform="translate(-97.8 -319.6)"/>
    <path class="cls-8" d="M287.5,324.4a1.5,1.5,0,0,0,1.6,1.7,2.6,2.6,0,0,0,1.4-.3v.7a4.5,4.5,0,0,1-1.6.3,2.3,2.3,0,0,1-2.4-2.5,2.4,2.4,0,0,1,2.3-2.6,2,2,0,0,1,2,2.3v.4Zm2.5-.6a1.1,1.1,0,0,0-1.2-1.4,1.3,1.3,0,0,0-1.3,1.4Z" transform="translate(-97.8 -319.6)"/>
    <path class="cls-8" d="M292,323.1a5.3,5.3,0,0,0-.1-1.3h.8v.8h0a1.8,1.8,0,0,1,1.6-.9c.7,0,1.7.4,1.7,2.1v2.9h-.9v-2.8c0-.8-.3-1.4-1.1-1.4a1.3,1.3,0,0,0-1.2.9v3.3H292Z" transform="translate(-97.8 -319.6)"/>
    <path class="cls-8" d="M298.6,320.4v1.4h1.2v.7h-1.2v2.6c0,.6.1,1,.6,1h.5v.7H299a1.5,1.5,0,0,1-1-.4,2.3,2.3,0,0,1-.3-1.3v-2.6h-.8v-.7h.8v-1.1Z" transform="translate(-97.8 -319.6)"/>
    <path class="cls-8" d="M301.9,320.4v1.4h1.2v.7h-1.2v2.6c0,.6.1,1,.6,1h.5v.7h-.8a1.8,1.8,0,0,1-1-.4,2.3,2.3,0,0,1-.3-1.3v-2.6h-.7v-.7h.7v-1.1Z" transform="translate(-97.8 -319.6)"/>
    <path class="cls-8" d="M305.1,320.5c0,.3-.2.5-.6.5a.5.5,0,0,1-.5-.5.6.6,0,0,1,.6-.6A.6.6,0,0,1,305.1,320.5Zm-1,6.2v-4.9h.9v4.9Z" transform="translate(-97.8 -319.6)"/>
  </g>
</svg>
