<svg id="Layer_1" data-name="Layer 1" xmlns="http://www.w3.org/2000/svg" viewBox="0 0 335.1 226.4">
  <defs>
    <style>
      .cls-1 {
        fill: #1d1d1b;
      }

      .cls-10, .cls-11, .cls-12, .cls-13, .cls-2, .cls-4, .cls-5, .cls-6, .cls-7, .cls-8, .cls-9 {
        fill: none;
      }

      .cls-10, .cls-11, .cls-12, .cls-13, .cls-2, .cls-3, .cls-4, .cls-6, .cls-7, .cls-8, .cls-9 {
        stroke: #1d1d1b;
        stroke-miterlimit: 10;
      }

      .cls-2, .cls-3 {
        stroke-width: 0.75px;
      }

      .cls-3 {
        fill: #fff;
      }

      .cls-6, .cls-7, .cls-8 {
        stroke-width: 0.5px;
      }

      .cls-7 {
        stroke-dasharray: 3.07 3.07;
      }

      .cls-8 {
        stroke-dasharray: 3 3;
      }

      .cls-10, .cls-11, .cls-12, .cls-13, .cls-9 {
        stroke-width: 0.25px;
      }

      .cls-10 {
        stroke-dasharray: 2.86 2.86;
      }

      .cls-11 {
        stroke-dasharray: 2.88 2.88;
      }

      .cls-12 {
        stroke-dasharray: 2.98 2.98;
      }

      .cls-13 {
        stroke-dasharray: 2.88 2.88;
      }
    </style>
  </defs>
  <g>
    <path class="cls-1" d="M176.7,504.4,176,507l.8-1.4a11.3,11.3,0,0,1,1.1-1.1h1.2c.1.2.2.3.2.5a3.1,3.1,0,0,1-.2.8l-.4,1.5a6.7,6.7,0,0,1,1.8-2.5,1.2,1.2,0,0,1,.9-.4h.5a1.4,1.4,0,0,1,.2.6c0,.2-.1.5-.1.7l-.7,2.3-.2.8c0,.1,0,.1.1.2h.3l.6-.7.2.2-.5.6-.7.6h-.8c-.1-.1-.1-.2-.1-.4a3.1,3.1,0,0,1,.2-1.1l.5-1.9.2-.7v-.5h-.2a.6.6,0,0,0-.5.2,9.5,9.5,0,0,0-1.5,2.1,13.8,13.8,0,0,0-.9,2.3h-.9l1-3.6a4.5,4.5,0,0,0,.2-.8c0-.1,0-.1-.1-.2h-.1l-.4.2a2.2,2.2,0,0,0-.9,1,5.5,5.5,0,0,0-.9,1.4l-.7,2.1h-.9l1.1-3.8.2-.5v-.2c0-.1,0-.2-.1-.2h-.7v-.2Z" transform="translate(-51.5 -342.3)"/>
    <path class="cls-1" d="M185.7,513.7l-.7-2.3h-.6l-.4,1.4v.4c0,.1,0,.2.1.2s.1.1.4.1v.2h-1.8v-.2h.3c.1-.1.2-.1.2-.2a.8.8,0,0,0,.2-.5l.9-2.8v-.5c0-.1,0-.2-.1-.2s-.2-.2-.4-.1V509h1.5a1.6,1.6,0,0,1,1.1.3,1.1,1.1,0,0,1,.3.8,1.3,1.3,0,0,1-.3.8,2.3,2.3,0,0,1-1,.5l.5,1.3a2.4,2.4,0,0,0,.3.7h.5v.2Zm-1.2-2.5h.4a1.2,1.2,0,0,0,.9-.3,1.3,1.3,0,0,0,.3-.8c0-.3,0-.5-.2-.6s-.3-.2-.6-.2H185Z" transform="translate(-51.5 -342.3)"/>
    <path class="cls-1" d="M187.9,512.4v.3c0,.2.1.3.2.5l.5.2h.5l.7-.5h0a1.9,1.9,0,0,1-1.5.8,1.1,1.1,0,0,1-.8-.3,1.4,1.4,0,0,1-.2-.7,1.9,1.9,0,0,1,.3-1,2,2,0,0,1,.8-.8,1.7,1.7,0,0,1,1-.3h.5a.5.5,0,0,1,.2.4l-.2.5-.9.6Zm0-.2.9-.2.6-.4.2-.5a.4.4,0,0,0-.1-.3h-.3c-.2,0-.4.2-.7.4A2.9,2.9,0,0,0,187.9,512.2Z" transform="translate(-51.5 -342.3)"/>
    <path class="cls-1" d="M193.5,510.6l-.6,2.1-.2.6h.3l.3-.4h.1l-.5.6h-.6a.3.3,0,0,1-.1-.2.4.4,0,0,1,.1-.3,3.6,3.6,0,0,1,.3-1.1l-1,1.3-.7.3h-.3c-.1,0-.1-.1-.1-.2a2.5,2.5,0,0,1,.1-.8l.3-1.1a1.1,1.1,0,0,0,.1-.5h-.2l-.3.4h-.1c.2-.3.3-.5.5-.6h.6a.4.4,0,0,1,.1.3,1.8,1.8,0,0,1-.1.6l-.3,1.1a3.9,3.9,0,0,0-.2.6h.5l.5-.5.5-.7.4-1.1v-.3Z" transform="translate(-51.5 -342.3)"/>
    <path class="cls-1" d="M195.2,510.6l-.4,1.5.9-1.2.7-.3h.3a.4.4,0,0,1,.1.3,1.1,1.1,0,0,1-.1.5l-.4,1.5a.4.4,0,0,0-.1.3h0a.1.1,0,0,0,.1.1h.1l.4-.4h.1a1.7,1.7,0,0,1-.6.6h-.6v-.2a1.5,1.5,0,0,1,.1-.6l.4-1.4v-.4h-.3a1.7,1.7,0,0,0-.6.6l-.5.9c-.2.2-.2.4-.3.6l-.2.6h-.5l.6-2.2a1,1,0,0,0,.1-.4v-.2H194Z" transform="translate(-51.5 -342.3)"/>
    <path class="cls-1" d="M200.5,510.6l-.7,2.3v.3h.1a.1.1,0,0,0,.1-.1c.1,0,.2-.2.4-.4h.1l-.5.6h-.7v-.9l-.8.8h-.6a.4.4,0,0,1-.4-.2.8.8,0,0,1-.2-.5,1.9,1.9,0,0,1,.4-1.2,2.4,2.4,0,0,1,.8-.9l.7-.3h.4c.1,0,.1.2.2.3v-.4Zm-1.3.1-.4.2a1.5,1.5,0,0,0-.6.9,2.2,2.2,0,0,0-.3,1c0,.2,0,.3.1.4h.3a1,1,0,0,0,.8-.5,2.4,2.4,0,0,0,.6-1.5.5.5,0,0,0-.2-.4C199.5,510.8,199.4,510.7,199.2,510.7Z" transform="translate(-51.5 -342.3)"/>
  </g>
  <path class="cls-2" d="M254.1,476.3c11.3,0,20.4,15.3,20.4,34.2s-9.1,34.2-20.4,34.2" transform="translate(-51.5 -342.3)"/>
  <ellipse class="cls-3" cx="93.3" cy="168.2" rx="19.6" ry="34.2"/>
  <path class="cls-3" d="M365.4,476.3c11.5,0,20.8,15.3,20.8,34.2s-9.3,34.2-20.8,34.2" transform="translate(-51.5 -342.3)"/>
  <line class="cls-2" x1="93.3" y1="202.4" x2="315.6" y2="202.4"/>
  <path class="cls-4" d="M253.3,457.4" transform="translate(-51.5 -342.3)"/>
  <path class="cls-4" d="M251.3,457.4" transform="translate(-51.5 -342.3)"/>
  <path class="cls-2" d="M309.8,476.3c11.2,0,20.3,15.3,20.3,34.2s-9.1,34.2-20.3,34.2" transform="translate(-51.5 -342.3)"/>
  <path class="cls-2" d="M198,476.3c11.2,0,20.3,15.3,20.3,34.2s-9.1,34.2-20.3,34.2" transform="translate(-51.5 -342.3)"/>
  <line class="cls-2" x1="93.3" y1="134" x2="316.6" y2="134.1"/>
  <line class="cls-5" x1="32.1" y1="74.8" y2="101.1"/>
  <g>
    <path class="cls-1" d="M230.7,504.4,230,507l.8-1.4a11.3,11.3,0,0,1,1.1-1.1h1.2c.1.2.2.3.2.5a3.1,3.1,0,0,1-.2.8l-.4,1.5a6.7,6.7,0,0,1,1.8-2.5,1.2,1.2,0,0,1,.9-.4h.5a1.4,1.4,0,0,1,.2.6c0,.2-.1.5-.1.7l-.7,2.3-.2.8c0,.1,0,.1.1.2h.3l.6-.7.2.2-.5.6-.7.6h-.8c-.1-.1-.1-.2-.1-.4a3.1,3.1,0,0,1,.2-1.1l.5-1.9.2-.7v-.5h-.2a.6.6,0,0,0-.5.2,9.5,9.5,0,0,0-1.5,2.1,13.8,13.8,0,0,0-.9,2.3h-.9l1-3.6a4.5,4.5,0,0,0,.2-.8c0-.1,0-.1-.1-.2h-.1l-.4.2a2.2,2.2,0,0,0-.9,1,5.5,5.5,0,0,0-.9,1.4l-.7,2.1h-.9l1.1-3.8.2-.5v-.2c0-.1,0-.2-.1-.2h-.7v-.2Z" transform="translate(-51.5 -342.3)"/>
    <path class="cls-1" d="M239,511l1.2,1.8.5.6h.5v.2h-2v-.2h.4v-.2c0-.1,0-.1-.1-.2l-.2-.3-.9-1.5-.5,1.5a1.2,1.2,0,0,1-.1.5v.2h.5v.2h-1.8v-.2h.3c.1-.1.2-.1.2-.2s.1-.3.2-.6l.8-2.8a.9.9,0,0,0,.1-.5v-.2h-.5V509h1.7v.2h-.3a.2.2,0,0,0-.2.2.6.6,0,0,0-.2.5l-.4,1.2,1.6-1.2.5-.4v-.2h-.2V509h1.5v.2h-.8c0,.1-.2.2-.7.5Z" transform="translate(-51.5 -342.3)"/>
    <path class="cls-1" d="M242.3,512.4v.3a.6.6,0,0,0,.2.5l.5.2h.5l.7-.5h0a1.9,1.9,0,0,1-1.5.8,1.1,1.1,0,0,1-.8-.3,1.4,1.4,0,0,1-.2-.7,1.9,1.9,0,0,1,.3-1,2,2,0,0,1,.8-.8,1.7,1.7,0,0,1,1-.3h.5a.5.5,0,0,1,.2.4.9.9,0,0,1-.3.5l-.8.6Zm0-.2a1.5,1.5,0,0,0,.8-.2l.7-.4.2-.5a.4.4,0,0,0-.1-.3h-.3c-.2,0-.4.2-.7.4A2,2,0,0,0,242.3,512.2Z" transform="translate(-51.5 -342.3)"/>
    <path class="cls-1" d="M247.1,510.6l-.2,1h-.1a1.4,1.4,0,0,0-.2-.7l-.5-.2-.3.2c-.1,0-.1.1-.1.2v.3c.1,0,.1.1.2.2l.6.8a.6.6,0,0,1,.1.4.9.9,0,0,1-.3.7l-.7.2h-1.1l.2-1.1h.1c.1.4.1.6.3.8l.5.2a.5.5,0,0,0,.4-.2.4.4,0,0,0,.1-.3v-.3l-.4-.5-.4-.6a.4.4,0,0,1-.1-.3.6.6,0,0,1,.3-.6c.1-.2.3-.2.6-.2h1Z" transform="translate(-51.5 -342.3)"/>
    <path class="cls-1" d="M249.3,508.8l-1,3.4.4-.4a2.9,2.9,0,0,0,.8-.8.1.1,0,0,0,.1-.1h-.4v-.2h1.5v.2h-.5l-.3.2-.5.3-.3.3c.1.1.1.4.2.7a2.2,2.2,0,0,0,.3.8c0,.1,0,.2.1.2h.1c.1-.1.3-.2.4-.4h.1l-.5.6h-.4c-.1,0-.2,0-.2-.1a4.6,4.6,0,0,1-.5-1.6l-.5.4-.3,1.3h-.5l1.1-3.9v-.4h0c0-.1,0-.1-.1-.2h-.4Z" transform="translate(-51.5 -342.3)"/>
    <path class="cls-1" d="M252,510.6l-.7,2.4v.3h0c0,.1,0,.1.1.1h.1c.1-.1.3-.2.4-.4h.1l-.5.6h-.7a.4.4,0,0,1-.1-.3,1,1,0,0,1,.1-.4l.4-1.5a1.3,1.3,0,0,0,.1-.5h-.5Zm0-1.4h.2a.4.4,0,0,1,.1.3v.2h-.5a.3.3,0,0,0-.1-.2c0-.1.1-.2.1-.3Z" transform="translate(-51.5 -342.3)"/>
  </g>
  <g>
    <path class="cls-1" d="M343.9,503.2l-.8,2.7.9-1.4a5.7,5.7,0,0,1,1.1-1.1l.6-.2.5.2a.6.6,0,0,1,.2.5,2.5,2.5,0,0,1-.1.8l-.4,1.5a8.3,8.3,0,0,1,1.8-2.6,1.8,1.8,0,0,1,.9-.4l.5.2a1.1,1.1,0,0,1,.1.6,1.7,1.7,0,0,1-.1.7l-.6,2.3a2.4,2.4,0,0,0-.2.8v.2h.3a4.6,4.6,0,0,0,.7-.7h.1a2.3,2.3,0,0,1-.5.7,1.3,1.3,0,0,1-.6.5l-.5.2-.3-.2c-.1,0-.2-.2-.2-.3a3.6,3.6,0,0,1,.3-1.1l.5-1.9.2-.7v-.2a.4.4,0,0,0-.1-.3h-.1c-.2,0-.3.1-.5.3a5.7,5.7,0,0,0-1.5,2.1,9.1,9.1,0,0,0-.9,2.2h-.9l1-3.5a4.5,4.5,0,0,0,.2-.8c0-.1-.1-.1-.1-.2h-.2l-.4.2a3.6,3.6,0,0,0-.9.9,10.9,10.9,0,0,0-.8,1.5,12.4,12.4,0,0,0-.7,2h-.9l1.1-3.7v-.7a.3.3,0,0,0-.1-.2h-.8v-.2Z" transform="translate(-51.5 -342.3)"/>
    <path class="cls-1" d="M352.9,512.5l-.8-2.2h-.5l-.4,1.4a1.1,1.1,0,0,0-.1.5.3.3,0,0,0,.1.2h-1l.2-.2c.1-.1.1-.3.2-.6l.8-2.8a.6.6,0,0,0,.1-.4.4.4,0,0,0-.1-.3h1.2a1.8,1.8,0,0,1,1.1.3,1,1,0,0,1,.3.8,1.3,1.3,0,0,1-.3.8,1.8,1.8,0,0,1-1,.4l.5,1.4a1.6,1.6,0,0,0,.3.6l.5.2h-1.1Zm-1.2-2.5h.3a1.5,1.5,0,0,0,1-.3,1.4,1.4,0,0,0,.3-.9.8.8,0,0,0-.2-.5c-.1-.2-.3-.2-.6-.2h-.3Z" transform="translate(-51.5 -342.3)"/>
    <path class="cls-1" d="M355.1,511.3v.2a.7.7,0,0,0,.2.6l.5.2h.5l.6-.5h.1a1.9,1.9,0,0,1-1.5.8,1,1,0,0,1-.8-.3.8.8,0,0,1-.2-.7,1.9,1.9,0,0,1,.3-1,1.8,1.8,0,0,1,.8-.9l.9-.2h.6l.2.3a.9.9,0,0,1-.3.6l-.8.5Zm0-.2.8-.2a1.8,1.8,0,0,0,.7-.5.8.8,0,0,0,.2-.5c0-.1-.1-.1-.1-.2h-.3a.9.9,0,0,0-.7.4A1.7,1.7,0,0,0,355.1,511.1Z" transform="translate(-51.5 -342.3)"/>
    <path class="cls-1" d="M360.6,509.5l-.6,2.1a1.2,1.2,0,0,1-.1.5h.2c.1,0,.2-.2.4-.4h.1a1.7,1.7,0,0,1-.6.6h-.5a.3.3,0,0,1-.1-.2V512a3,3,0,0,0,.3-1.1l-.9,1.4a1.3,1.3,0,0,1-.8.3c-.1,0-.2,0-.2-.1s-.1-.1-.1-.3a2.3,2.3,0,0,1,.1-.7l.3-1.1a1.3,1.3,0,0,0,.1-.5H358c-.1,0-.2.1-.3.4h-.1a1,1,0,0,1,.5-.6h.6v.2a2.5,2.5,0,0,1-.2.7l-.3,1.1a1.8,1.8,0,0,0-.1.6h.4l.5-.5.5-.7a2.8,2.8,0,0,0,.4-1.1v-.3Z" transform="translate(-51.5 -342.3)"/>
    <path class="cls-1" d="M362.4,509.5l-.5,1.5,1-1.2a1.1,1.1,0,0,1,.7-.3c.1,0,.2,0,.2.1s.2.1.2.3a4.3,4.3,0,0,0-.1.5l-.5,1.4v.3h.2l.4-.4h.1l-.6.7h-.6a.3.3,0,0,1-.1-.2,4.3,4.3,0,0,0,.1-.5l.4-1.4a.8.8,0,0,0,.1-.4H363l-.5.5-.6.9a1.9,1.9,0,0,0-.2.7l-.2.5H361l.6-2.1a1.3,1.3,0,0,0,.1-.5h-.5Z" transform="translate(-51.5 -342.3)"/>
    <path class="cls-1" d="M367.6,509.5l-.6,2.3v.3h.2c.1,0,.2-.2.3-.4h.2l-.5.5a.6.6,0,0,1-.5.2h-.2a.4.4,0,0,1-.1-.3.8.8,0,0,1,.1-.4v-.3l-.9.9h-.5a.4.4,0,0,1-.4-.2.8.8,0,0,1-.2-.5,2.7,2.7,0,0,1,.3-1.2,4.3,4.3,0,0,1,.9-1,1,1,0,0,1,.7-.2h.4l.2.3v-.4Zm-1.2.1-.5.2a3.5,3.5,0,0,0-.6.9,2,2,0,0,0-.2,1c0,.2,0,.3.1.4s.1.1.2.1a1,1,0,0,0,.8-.5,2.4,2.4,0,0,0,.6-1.5c0-.2,0-.4-.1-.4Z" transform="translate(-51.5 -342.3)"/>
  </g>
  <g>
    <path class="cls-1" d="M290.6,504.4l-.8,2.6.9-1.4a5.7,5.7,0,0,1,1.1-1.1h1.1a.6.6,0,0,1,.2.5,2.5,2.5,0,0,1-.1.8l-.4,1.5a6.7,6.7,0,0,1,1.8-2.5,1.2,1.2,0,0,1,.9-.4h.5a1.3,1.3,0,0,1,.1.6,1.7,1.7,0,0,1-.1.7l-.6,2.3a2.4,2.4,0,0,0-.2.8v.2h.3a4.6,4.6,0,0,0,.7-.7v.2l-.5.6a1.7,1.7,0,0,1-.6.6h-.8a.5.5,0,0,1-.2-.4,4.5,4.5,0,0,1,.3-1.1l.5-1.9.2-.7v-.2a.4.4,0,0,0-.1-.3h-.1c-.2,0-.4,0-.5.2a5.7,5.7,0,0,0-1.5,2.1,8.5,8.5,0,0,0-.9,2.3H291l1-3.6a4.5,4.5,0,0,0,.2-.8c0-.1-.1-.1-.1-.2h-.2l-.4.2a4.8,4.8,0,0,0-.9,1,10,10,0,0,0-.8,1.4,11.4,11.4,0,0,0-.7,2.1h-.9l1.1-3.8v-.5a.3.3,0,0,0,.1-.2V505h-.8v-.2Z" transform="translate(-51.5 -342.3)"/>
    <path class="cls-1" d="M298.9,511l1.1,1.8c.3.3.4.5.6.6h.5v.2h-1.9v-.2c.2,0,.3,0,.3-.1s.1-.1.1-.2V513l-.2-.3-.9-1.5-.5,1.5a1.8,1.8,0,0,0-.1.5c0,.1,0,.2.1.2h.5v.2h-1.8v-.2h.4l.2-.2.2-.6.8-2.8a.9.9,0,0,0,.1-.5v-.2h-.4V509h1.7v.2h-.4l-.2.2c0,.1-.1.2-.2.5l-.3,1.2,1.6-1.2c.2-.2.4-.3.4-.4v-.2h-.3V509h1.5v.2H301c0,.1-.3.2-.7.5Z" transform="translate(-51.5 -342.3)"/>
    <path class="cls-1" d="M302.2,512.4c0,.1-.1.2-.1.3s.1.3.3.5l.5.2h.5l.6-.5h.1a2,2,0,0,1-1.5.8,1,1,0,0,1-.8-.3.8.8,0,0,1-.2-.7,1.9,1.9,0,0,1,.3-1,1.6,1.6,0,0,1,.8-.8,1.6,1.6,0,0,1,.9-.3h.6c.1.1.1.2.1.4a.6.6,0,0,1-.2.5l-.9.6Zm0-.2.8-.2.6-.4a.9.9,0,0,0,.3-.5c0-.1-.1-.2-.1-.3h-.3a1.3,1.3,0,0,0-.7.4A2,2,0,0,0,302.2,512.2Z" transform="translate(-51.5 -342.3)"/>
    <path class="cls-1" d="M307,510.6l-.2,1h-.2a.8.8,0,0,0-.2-.7l-.4-.2-.3.2a.2.2,0,0,0-.2.2v.3l.2.2.6.8a.6.6,0,0,1,.1.4.9.9,0,0,1-.3.7l-.7.2h-1.1l.2-1.1h.1a1.5,1.5,0,0,0,.2.8,1.1,1.1,0,0,0,.6.2l.4-.2a.4.4,0,0,0,.1-.3v-.3l-.4-.5c-.2-.3-.4-.5-.4-.6a.4.4,0,0,1-.1-.3.8.8,0,0,1,.2-.6.7.7,0,0,1,.6-.2H307Z" transform="translate(-51.5 -342.3)"/>
    <path class="cls-1" d="M309.2,508.8l-1,3.4.4-.4a2.9,2.9,0,0,0,.8-.8.1.1,0,0,0,.1-.1H309v-.2h1.5v.2h-.4l-.4.2-.4.3-.3.3a4.1,4.1,0,0,0,.2.7c.1.4.2.7.2.8s.1.2.2.2a.1.1,0,0,1,.1-.1l.4-.4h.1c-.3.3-.4.5-.6.6H309a6.3,6.3,0,0,1-.4-1.6l-.5.4-.3,1.3h-.6l1.2-3.9v-.4h0c0-.1,0-.1-.1-.2H308Z" transform="translate(-51.5 -342.3)"/>
    <path class="cls-1" d="M311.9,510.6l-.7,2.4c0,.1-.1.2-.1.3h.3l.4-.4h.1l-.6.6h-.6a.4.4,0,0,1-.1-.3,1,1,0,0,1,.1-.4l.4-1.5a1.3,1.3,0,0,0,.1-.5h-.5Zm-.1-1.4h.3c0,.1.1.2.1.3a.3.3,0,0,0-.1.2h-.5v-.2a.4.4,0,0,1,.1-.3Z" transform="translate(-51.5 -342.3)"/>
  </g>
  <g>
    <line class="cls-6" x1="200.5" y1="134" x2="200.5" y2="132.5"/>
    <line class="cls-7" x1="200.5" y1="129.4" x2="200.5" y2="38.7"/>
    <line class="cls-6" x1="200.5" y1="37.2" x2="200.5" y2="35.7"/>
  </g>
  <g>
    <line class="cls-6" x1="200.5" y1="226.4" x2="200.5" y2="224.9"/>
    <line class="cls-8" x1="200.5" y1="221.9" x2="200.5" y2="205.4"/>
    <line class="cls-6" x1="200.5" y1="203.9" x2="200.5" y2="202.4"/>
  </g>
  <g>
    <line class="cls-6" x1="98.3" y1="8.7" x2="53.3" y2="8.7"/>
    <path class="cls-1" d="M152.9,351a14.7,14.7,0,0,1-4.3-2.3l.8,2.3-.8,2.4A17.8,17.8,0,0,1,152.9,351Z" transform="translate(-51.5 -342.3)"/>
    <path class="cls-1" d="M101.8,351a14.2,14.2,0,0,0,4.2-2.3l-.8,2.3.8,2.4A17.1,17.1,0,0,0,101.8,351Z" transform="translate(-51.5 -342.3)"/>
  </g>
  <path class="cls-1" d="M129.9,342.3l-1.2,4.4a1.1,1.1,0,0,0-.1.5h0c0,.1,0,.1.1.1h.1l.4-.4h.1l-.5.6-.5.2h-.2c-.1-.1-.1-.1-.1-.2a1.3,1.3,0,0,1,.1-.6v-.5a3.1,3.1,0,0,1-.9,1.2l-.6.2a.5.5,0,0,1-.5-.3.8.8,0,0,1-.2-.6,2.7,2.7,0,0,1,.3-1.2,3.2,3.2,0,0,1,1-1,1.3,1.3,0,0,1,.8-.3h.3l.3.3.4-1.3c0-.1,0-.1.1-.2v-.4h-.4Zm-1.3,2.7a.5.5,0,0,0-.2-.4l-.3-.2a1.4,1.4,0,0,0-1,.8,3,3,0,0,0-.5,1.5c0,.2,0,.3.1.4l.3.2c.3,0,.6-.3,1-.9A2.4,2.4,0,0,0,128.6,345Z" transform="translate(-51.5 -342.3)"/>
  <ellipse class="cls-3" cx="50.3" cy="48.8" rx="15.7" ry="27.4"/>
  <path class="cls-2" d="M149.9,363.8c9,0,16.3,12.2,16.3,27.3s-7.3,27.4-16.3,27.4" transform="translate(-51.5 -342.3)"/>
  <line class="cls-2" x1="99.7" y1="76.2" x2="50.3" y2="76.2"/>
  <line class="cls-2" x1="50.3" y1="21.4" x2="98.4" y2="21.4"/>
  <g>
    <line class="cls-9" x1="236.5" y1="122.4" x2="236.5" y2="123.9"/>
    <line class="cls-10" x1="236.5" y1="126.8" x2="236.5" y2="131.1"/>
    <line class="cls-9" x1="236.5" y1="132.5" x2="236.5" y2="134"/>
  </g>
  <g>
    <line class="cls-9" x1="236.5" y1="202.4" x2="236.5" y2="203.9"/>
    <line class="cls-11" x1="236.5" y1="206.8" x2="236.5" y2="222.6"/>
    <line class="cls-9" x1="236.5" y1="224.1" x2="236.5" y2="225.6"/>
  </g>
  <g>
    <line class="cls-9" x1="290.4" y1="98.7" x2="290.5" y2="100.2"/>
    <line class="cls-12" x1="290.5" y1="103.1" x2="291" y2="131.5"/>
    <line class="cls-9" x1="291" y1="133" x2="291" y2="134.5"/>
  </g>
  <g>
    <line class="cls-9" x1="291" y1="202.8" x2="291" y2="204.3"/>
    <line class="cls-13" x1="291" y1="207.2" x2="291.2" y2="223.1"/>
    <line class="cls-9" x1="291.2" y1="224.5" x2="291.2" y2="226"/>
  </g>
  <g>
    <path class="cls-1" d="M264.4,463.4a3.3,3.3,0,0,1,.3-1.5,1.6,1.6,0,0,1,.7-.9.7.7,0,0,1,.6-.2,1.6,1.6,0,0,1,1.1.5,3.1,3.1,0,0,1,.5,2,3.4,3.4,0,0,1-.2,1.5,3.5,3.5,0,0,1-.6.9l-.8.3a1.4,1.4,0,0,1-1.2-.9A3.1,3.1,0,0,1,264.4,463.4Zm.7.1a4.3,4.3,0,0,0,.3,1.7.6.6,0,0,0,.6.5h.4a2.1,2.1,0,0,0,.4-.6,9.7,9.7,0,0,0,.1-1.8,3.4,3.4,0,0,0-.2-1.5.9.9,0,0,0-.3-.6H266l-.4.2a2.3,2.3,0,0,0-.4,1C265.2,462.6,265.1,463.1,265.1,463.5Z" transform="translate(-51.5 -342.3)"/>
    <path class="cls-1" d="M268.9,465.2h.3c0,.1.1.2.1.3v.3h-.6a.5.5,0,0,1,0-.6Z" transform="translate(-51.5 -342.3)"/>
    <path class="cls-1" d="M273.1,460.9l-.3.6h-1.5l-.3.7a2.6,2.6,0,0,1,1.5.7,1.3,1.3,0,0,1,.5,1.2,1.7,1.7,0,0,1-.1.7l-.4.6-.6.4-.9.2-.6-.2c-.2-.1-.2-.2-.2-.3s0-.2.1-.2.1-.1.2-.1h.1l.3.2.6.2a1.1,1.1,0,0,0,.7-.3,1.3,1.3,0,0,0,.3-.8,1.6,1.6,0,0,0-.3-.9,1,1,0,0,0-.8-.6l-1.1-.2,1-1.9Z" transform="translate(-51.5 -342.3)"/>
    <path class="cls-1" d="M277.7,460.6l-1.3,4.4a1,1,0,0,1-.1.4c0,.1,0,.1.1.1h0a.1.1,0,0,0,.1-.1l.5-.4h.1a1.7,1.7,0,0,1-.6.6.5.5,0,0,1-.5.3h-.2v-.3a1.1,1.1,0,0,1,.1-.5v-.5a3.7,3.7,0,0,1-1,1.1.9.9,0,0,1-.6.3.5.5,0,0,1-.4-.3.9.9,0,0,1-.3-.7,3,3,0,0,1,.4-1.1,2.4,2.4,0,0,1,.9-1.1l.9-.3h.3l.3.3.4-1.3v-.2a.4.4,0,0,0,.1-.3h-.6v-.2Zm-1.4,2.6a.4.4,0,0,0-.1-.3l-.4-.2c-.3,0-.6.3-.9.8a2.3,2.3,0,0,0-.5,1.5.6.6,0,0,0,.1.4h.3c.2,0,.6-.2,1-.8A3.3,3.3,0,0,0,276.3,463.2Z" transform="translate(-51.5 -342.3)"/>
  </g>
  <g>
    <line class="cls-9" x1="202.3" y1="122.4" x2="209.5" y2="122.4"/>
    <path class="cls-1" d="M252.3,464.8a5.5,5.5,0,0,1,2.1,1.2l-.4-1.2.4-1.2A7.2,7.2,0,0,1,252.3,464.8Z" transform="translate(-51.5 -342.3)"/>
  </g>
  <g>
    <line class="cls-9" x1="202.3" y1="98.7" x2="236.5" y2="98.7"/>
    <path class="cls-1" d="M252.3,441a7.2,7.2,0,0,1,2.1,1.2L254,441l.4-1.2A7.2,7.2,0,0,1,252.3,441Z" transform="translate(-51.5 -342.3)"/>
  </g>
  <g>
    <line class="cls-9" x1="288.9" y1="98.7" x2="254.7" y2="98.7"/>
    <path class="cls-1" d="M341.9,441a7.2,7.2,0,0,1-2.1-1.2l.4,1.2-.4,1.2A7.2,7.2,0,0,1,341.9,441Z" transform="translate(-51.5 -342.3)"/>
  </g>
  <g>
    <line class="cls-9" x1="234.7" y1="122.4" x2="227.5" y2="122.4"/>
    <path class="cls-1" d="M287.7,464.8a7.2,7.2,0,0,1-2.1-1.2l.4,1.2-.4,1.2A5.5,5.5,0,0,1,287.7,464.8Z" transform="translate(-51.5 -342.3)"/>
  </g>
  <g>
    <path class="cls-1" d="M292.3,437.5l1.2-.6h.1v4.8H293v-4c-.1-.1-.1-.1-.1-.2h-.6Z" transform="translate(-51.5 -342.3)"/>
    <path class="cls-1" d="M296.1,441.3h.3a.5.5,0,0,1,0,.6h-.6a.5.5,0,0,1,0-.6Z" transform="translate(-51.5 -342.3)"/>
    <path class="cls-1" d="M300.3,437l-.2.6h-1.6l-.3.7a2.6,2.6,0,0,1,1.6.7,2.1,2.1,0,0,1,.5,1.2,1.4,1.4,0,0,1-.2.7.9.9,0,0,1-.4.6l-.5.4-.9.2-.7-.2-.2-.3c0-.1,0-.1.1-.2h.6a.7.7,0,0,0,.6.2,1.3,1.3,0,0,0,.8-.3,1.1,1.1,0,0,0,.3-.8,1.6,1.6,0,0,0-.3-.9l-.8-.6-1.1-.2.9-1.9Z" transform="translate(-51.5 -342.3)"/>
    <path class="cls-1" d="M304.9,436.7l-1.2,4.4a1.3,1.3,0,0,0-.1.5h.2l.4-.4h.1l-.5.6-.5.2c-.1,0-.2,0-.2-.1s-.1-.1-.1-.2a1.3,1.3,0,0,1,.1-.6v-.5a3.1,3.1,0,0,1-.9,1.2l-.6.2a.5.5,0,0,1-.5-.3.8.8,0,0,1-.2-.6,2.7,2.7,0,0,1,.3-1.2,3.2,3.2,0,0,1,1-1l.8-.3h.4c0,.1.1.2.2.3l.4-1.3c0-.1.1-.1.1-.2v-.4h-.5Zm-1.3,2.7a.5.5,0,0,0-.2-.4h-.3c-.3,0-.6.2-1,.7a3,3,0,0,0-.5,1.5c0,.2.1.3.1.4l.3.2c.3,0,.6-.3,1-.9A2.4,2.4,0,0,0,303.6,439.4Z" transform="translate(-51.5 -342.3)"/>
  </g>
  <g>
    <path class="cls-1" d="M244,462.1l1.6.5-.8-.5a4.5,4.5,0,0,1-.7-.7.6.6,0,0,1-.1-.4c0-.1,0-.3.1-.3l.3-.2h.5l.9.3a5.5,5.5,0,0,1-1.6-1.2c-.1-.2-.2-.3-.2-.5s0-.2.1-.3h.8l1.5.4.5.2h.1a.1.1,0,0,0-.1-.1.8.8,0,0,0-.4-.4v-.2l.4.4.3.4a.4.4,0,0,1,.1.3c0,.1,0,.1-.1.2h-.2l-.7-.2-1.2-.3h-.7a.1.1,0,0,0-.1.1c0,.1.1.2.2.3a3.4,3.4,0,0,0,1.3,1,4.6,4.6,0,0,0,1.4.5v.6l-2.2-.6-.5-.2h-.1c-.1,0-.1,0-.1.1s0,.2.1.2l.6.6.9.6,1.3.4v.5l-2.4-.6h-.5c-.1.1-.1.1-.1.2v.3h-.2Z" transform="translate(-51.5 -342.3)"/>
    <path class="cls-1" d="M244,454.7l2.5.8h.4a.1.1,0,0,0,.1-.1h0v-.2l-.5-.4h.1l.6.5a.6.6,0,0,1,.2.5.4.4,0,0,1-.1.3h-.9a2.2,2.2,0,0,1,.8.9.7.7,0,0,1,.2.6.8.8,0,0,1-.2.4.7.7,0,0,1-.6.2l-1.3-.3-1-.9a1.6,1.6,0,0,1-.3-.8c0-.2,0-.3.1-.4l.4-.2-.4-.2Zm.2,1.4a.6.6,0,0,0,.2.5l.9.6,1.1.3h.4l.2-.3q0-.3-.6-.9a2.7,2.7,0,0,0-1.6-.6h-.5C244.2,455.8,244.2,455.9,244.2,456.1Z" transform="translate(-51.5 -342.3)"/>
    <path class="cls-1" d="M244,451.8l1.1.2h0l-.7.2a.6.6,0,0,0-.2.5c0,.2,0,.3.1.4h.5l.3-.3.8-.6h.5a.9.9,0,0,1,.7.3,1.1,1.1,0,0,1,.3.8,1.3,1.3,0,0,1-.1.6c0,.1-.1.1-.1.2a.2.2,0,0,0,.2.2v.2l-1.2-.2v-.2l.8-.2c.2-.2.2-.3.2-.6s0-.3-.1-.4a.5.5,0,0,0-.4-.2h-.3l-.6.4c-.2.2-.4.4-.6.4h-.4l-.6-.2a1.4,1.4,0,0,1-.2-.7v-.2a.4.4,0,0,1,.1-.3v-.2l-.2-.3Z" transform="translate(-51.5 -342.3)"/>
    <path class="cls-1" d="M244,448.8l1.1.2v.2l-.7.2c-.2.1-.2.3-.2.5a.4.4,0,0,0,.1.3l.3.2h.2l.3-.2.8-.7h.5a.9.9,0,0,1,.7.3,1.1,1.1,0,0,1,.3.8,2,2,0,0,1-.1.7h-.1c0,.2.1.2.2.3h0l-1.2-.2h0c.4,0,.7-.1.8-.3s.2-.3.2-.5a.7.7,0,0,0-.1-.5.5.5,0,0,0-.4-.2h-.3l-.6.4a1.3,1.3,0,0,1-.6.5h-.4a.9.9,0,0,1-.6-.3,1.4,1.4,0,0,1-.2-.7v-.4c0-.2.1-.2.1-.3l-.2-.3Z" transform="translate(-51.5 -342.3)"/>
    <path class="cls-1" d="M244,445l2.5.8h.5v-.2l-.5-.4h.1l.6.5a.6.6,0,0,1,.2.5.4.4,0,0,1-.1.3h-.9a2.2,2.2,0,0,1,.8.9.7.7,0,0,1,.2.6.8.8,0,0,1-.2.4.7.7,0,0,1-.6.2l-1.3-.3-1-.9a1.6,1.6,0,0,1-.3-.8c0-.2,0-.3.1-.4l.4-.2-.4-.2Zm.2,1.4a.6.6,0,0,0,.2.5l.9.6,1.1.3h.4c.1-.1.2-.2.2-.3s-.2-.5-.6-.9a2.7,2.7,0,0,0-1.6-.6h-.5C244.2,446.1,244.2,446.2,244.2,446.4Z" transform="translate(-51.5 -342.3)"/>
    <path class="cls-1" d="M242.1,442.6l3.6,1.1-.4-.4a2.4,2.4,0,0,0-.8-.9h-.3v.4h-.1v-1.6h.1a.6.6,0,0,0,.1.4.5.5,0,0,0,.2.4l.4.5.3.3.7-.2,1-.2c.1-.1.1-.1.1-.2h-.1c0-.2-.2-.3-.4-.4v-.2l.7.7a.5.5,0,0,1,0,.6l-1.7.5.4.5,1.3.4v.5l-4.2-1.2h-.7v.4h-.1Z" transform="translate(-51.5 -342.3)"/>
    <path class="cls-1" d="M245.9,440.5h.3a.7.7,0,0,0,.6-.3c.2-.1.2-.3.2-.5a.7.7,0,0,0-.1-.5c0-.2-.2-.4-.5-.8h.1a2.2,2.2,0,0,1,.9,1.6c0,.4-.1.7-.3.8a1.1,1.1,0,0,1-.8.3l-1.1-.3a2.6,2.6,0,0,1-.9-.9,1.9,1.9,0,0,1-.3-1c0-.3,0-.5.1-.6l.4-.2.6.2.6,1A3.1,3.1,0,0,1,245.9,440.5Zm-.1,0-.3-.9a4.3,4.3,0,0,0-.4-.7l-.6-.2h-.2a.4.4,0,0,0-.1.3,1,1,0,0,0,.4.8A1.7,1.7,0,0,0,245.8,440.5Z" transform="translate(-51.5 -342.3)"/>
    <path class="cls-1" d="M244,435.3l1.1.3h0l-.7.2c-.2.1-.2.3-.2.5a.6.6,0,0,0,.1.4h.5l.3-.2.8-.6.5-.2a.8.8,0,0,1,.7.4,1,1,0,0,1,.3.8,1.8,1.8,0,0,1-.1.6c0,.1-.1.1-.1.2l.2.2v.2l-1.2-.3h0l.8-.2a.7.7,0,0,0,.2-.6.7.7,0,0,0-.1-.5h-.7l-.6.5-.6.4h-.4a.9.9,0,0,1-.6-.3,1.1,1.1,0,0,1-.2-.6V436c0-.1.1-.2.1-.3a.2.2,0,0,0-.2-.2Z" transform="translate(-51.5 -342.3)"/>
    <path class="cls-1" d="M242.1,433l3.6,1-.4-.4a2.4,2.4,0,0,0-.8-.9h-.3v.3h-.1v-1.6h.1c0,.2,0,.3.1.4a.5.5,0,0,0,.2.4l.4.5.3.3.7-.2,1-.2c.1-.1.1-.1.1-.2a.1.1,0,0,0-.1-.1l-.4-.4v-.2l.7.7c.1.1.1.2.1.4s0,.1-.1.2l-1.7.5.4.5,1.3.4v.6l-4.2-1.3h-.7v.4h-.1Z" transform="translate(-51.5 -342.3)"/>
    <path class="cls-1" d="M242.5,430.1a.4.4,0,0,1,.1-.3h.3c.1,0,.2,0,.2.1s.2.2.2.3l-.2.2h-.5C242.5,430.3,242.5,430.2,242.5,430.1Zm1.5-.1,2.6.8h.4c-.1-.2-.3-.3-.5-.5h.1l.6.6a.6.6,0,0,1,.2.5c0,.1,0,.2-.1.2h-.7l-1.6-.4-.5-.2h-.2v.5h-.1Z" transform="translate(-51.5 -342.3)"/>
    <path class="cls-1" d="M244,428l.8.2a1.9,1.9,0,0,1-.6-.7.7.7,0,0,1-.2-.6,1.4,1.4,0,0,1,.2-.6l.7-.2a2.9,2.9,0,0,1,1.7.6,2.3,2.3,0,0,1,.8,1.6v.3l-.2.3,1,.3h.4a.1.1,0,0,0,.1-.1h.1v-.4h.2v1.7h-.2c0-.3,0-.4-.1-.5l-.6-.3-3.2-.9h-.6v.5h-.1Zm2.9.9a.9.9,0,0,0,.3-.7.8.8,0,0,0-.1-.4l-.3-.3-.5-.4-.6-.3h-.8a.5.5,0,0,0-.4.2c-.1,0-.2.1-.2.3a1.5,1.5,0,0,0,.5.8l1,.5Z" transform="translate(-51.5 -342.3)"/>
    <path class="cls-1" d="M242.5,424.2a.4.4,0,0,1,.1-.3h.5l.2.3a.2.2,0,0,1-.2.2c0,.1-.1.1-.2.1h-.3C242.5,424.4,242.5,424.3,242.5,424.2Zm1.5-.1,2.6.8h.4a1,1,0,0,0-.5-.4v-.2l.6.6a.6.6,0,0,1,.2.5c0,.1,0,.2-.1.2s-.1.1-.2.1h-.5L245,425h-.7v.5h-.1Z" transform="translate(-51.5 -342.3)"/>
    <path class="cls-1" d="M244,421l1.1.2v.2l-.7.2c-.2.1-.2.3-.2.5a.4.4,0,0,0,.1.3l.3.2h.2l.3-.2.8-.6.5-.2a.9.9,0,0,1,.7.3,1.1,1.1,0,0,1,.3.8,2,2,0,0,1-.1.7h-.1c0,.2.1.2.2.3h0l-1.2-.2h0c.4,0,.7-.1.8-.3s.2-.3.2-.5a.7.7,0,0,0-.1-.5h-.7l-.6.4a1.3,1.3,0,0,1-.6.5h-.4a.9.9,0,0,1-.6-.3,1.4,1.4,0,0,1-.2-.7v-.4c0-.2.1-.2.1-.3l-.2-.2Z" transform="translate(-51.5 -342.3)"/>
    <path class="cls-1" d="M243.1,418.8l1,.3v-.5h.2v.6l2.2.6h.6l-.2-.2c0-.1-.2-.2-.4-.4h.1l.7.6a.8.8,0,0,1,.1.4.4.4,0,0,1-.1.3h-.9l-2.1-.6v.5h-.1a1.6,1.6,0,0,0-.4-.7,2.2,2.2,0,0,0-.7-.6Z" transform="translate(-51.5 -342.3)"/>
    <path class="cls-1" d="M245.9,417.8h.3c.3,0,.4,0,.6-.2s.2-.3.2-.6a1.1,1.1,0,0,0-.1-.5,1.8,1.8,0,0,0-.5-.7h.1a2.6,2.6,0,0,1,.9,1.7,1,1,0,0,1-1.1,1.1,1.9,1.9,0,0,1-1.1-.4,2.4,2.4,0,0,1-.9-.8,2.3,2.3,0,0,1-.3-1.1,1.3,1.3,0,0,1,.1-.6l.4-.2a.9.9,0,0,1,.6.3,3.5,3.5,0,0,1,.6.9A3.7,3.7,0,0,1,245.9,417.8Zm-.1,0-.3-.9a4.3,4.3,0,0,0-.4-.7l-.6-.2c-.1,0-.2,0-.2.1s-.1.1-.1.3a1.2,1.2,0,0,0,.4.8A3.3,3.3,0,0,0,245.8,417.8Z" transform="translate(-51.5 -342.3)"/>
    <path class="cls-1" d="M245.9,414.4h.3a.7.7,0,0,0,.6-.3c.2-.1.2-.3.2-.5a1.3,1.3,0,0,0-.1-.6,1.8,1.8,0,0,0-.5-.7h.1a2.6,2.6,0,0,1,.9,1.7,1,1,0,0,1-.3.8,1.1,1.1,0,0,1-.8.3l-1.1-.3a3.8,3.8,0,0,1-.9-.9,2,2,0,0,1-.3-1.1.7.7,0,0,1,.1-.5.4.4,0,0,1,.4-.2l.6.2a2.9,2.9,0,0,1,.6,1A2.7,2.7,0,0,1,245.9,414.4Zm-.1,0-.3-.9a4.3,4.3,0,0,0-.4-.7l-.6-.2h-.2a.4.4,0,0,0-.1.3,1.2,1.2,0,0,0,.4.8A1.7,1.7,0,0,0,245.8,414.4Z" transform="translate(-51.5 -342.3)"/>
    <path class="cls-1" d="M244,410.3l1.7.5a6.7,6.7,0,0,1-1.4-1.1.9.9,0,0,1-.3-.7.4.4,0,0,1,.1-.3h.9l1.6.5h.4l-.5-.4h.1l.7.6a.8.8,0,0,1,.1.4.4.4,0,0,1-.1.3h-.8l-1.5-.4h-.5v.2a.3.3,0,0,0,.1.2,1.7,1.7,0,0,0,.6.6l.9.6.7.3.6.2v.5l-2.3-.6-.5-.2h-.1c-.1,0-.1.1-.1.2h0v.2h-.1Z" transform="translate(-51.5 -342.3)"/>
    <path class="cls-1" d="M242.1,404.1l3.6,1.1-.4-.4a2.4,2.4,0,0,0-.8-.9h-.3v.4h-.1v-1.6h.1a.7.7,0,0,0,.1.5l.2.4.4.5.3.3.7-.2,1-.3a.1.1,0,0,0,.1-.1h-.1c0-.2-.2-.3-.4-.5h.1l.7.6a.8.8,0,0,1,.1.4.4.4,0,0,1-.1.3l-1.7.5.4.5,1.3.3v.6l-4.2-1.2h-.7v.5h-.1Z" transform="translate(-51.5 -342.3)"/>
    <path class="cls-1" d="M244,399.4l2.5.7h.5v-.2l-.5-.3v-.2l.6.6c.2.1.2.3.2.5s0,.1-.1.2-.1.1-.2.1h-.7a2.2,2.2,0,0,1,.8.9.7.7,0,0,1,.2.6.5.5,0,0,1-.2.4.7.7,0,0,1-.6.2l-1.3-.3a2.8,2.8,0,0,1-1-.9,1.6,1.6,0,0,1-.3-.8c0-.2,0-.3.1-.4l.4-.2h-.4Zm.2,1.3a.6.6,0,0,0,.2.5,3.5,3.5,0,0,0,.9.7l1.1.3.4-.2c.1-.1.2-.2.2-.3s-.2-.5-.6-.8a2.3,2.3,0,0,0-1.6-.7l-.5.2C244.2,400.4,244.2,400.5,244.2,400.7Z" transform="translate(-51.5 -342.3)"/>
    <path class="cls-1" d="M244.1,395.6l2.2.6h.7v-.2l-.5-.4h.1l.7.6a.8.8,0,0,1,.1.4c0,.1,0,.2-.1.2h-.5l-1.2-.4a6.7,6.7,0,0,1,1.4,1.1,1,1,0,0,1,.4.8.4.4,0,0,1-.1.3H247l-.9-.2-1.1-.3h-.6l.5.4h-.1l-.7-.6a.6.6,0,0,1-.1-.4.4.4,0,0,1,.1-.3h.9l1.2.4h.7c.1-.1.1-.1.1-.2s-.1-.2-.1-.3l-.6-.5-.8-.6-1.1-.4h-.3Z" transform="translate(-51.5 -342.3)"/>
    <path class="cls-1" d="M243.1,393.4l1,.2v-.5h.2v.6l2.2.6h.6l-.2-.2c0-.1-.2-.2-.4-.4h.1l.7.6a.8.8,0,0,1,.1.4c0,.2,0,.2-.1.3h-.9l-2.1-.6v.5h-.1a1.6,1.6,0,0,0-.4-.7,2.2,2.2,0,0,0-.7-.6Z" transform="translate(-51.5 -342.3)"/>
    <path class="cls-1" d="M243.1,391.3l1,.2V391h.2v.6l2.2.6h.5c.1,0,.1,0,.1-.1l-.2-.2c0-.1-.2-.2-.4-.4h.1l.7.6a.8.8,0,0,1,.1.4.4.4,0,0,1-.1.3h-.9l-2.1-.6v.5h-.1a1.6,1.6,0,0,0-.4-.7,2.2,2.2,0,0,0-.7-.6Z" transform="translate(-51.5 -342.3)"/>
    <path class="cls-1" d="M244,387.6l2.5.7h.5v-.2l-.5-.3v-.2a1.7,1.7,0,0,1,.6.6c.2.1.2.3.2.5s0,.1-.1.2-.1.1-.2.1h-.7a2.2,2.2,0,0,1,.8.9.7.7,0,0,1,.2.6c0,.2-.1.3-.2.5h-.6l-1.3-.3a2.8,2.8,0,0,1-1-.9,1.6,1.6,0,0,1-.3-.8c0-.2,0-.3.1-.4l.4-.2h-.4Zm.2,1.3a.6.6,0,0,0,.2.5,3.5,3.5,0,0,0,.9.7l1.1.3.4-.2c.1-.1.2-.2.2-.3s-.2-.5-.6-.8a2.3,2.3,0,0,0-1.6-.7l-.5.2C244.2,388.6,244.2,388.7,244.2,388.9Z" transform="translate(-51.5 -342.3)"/>
    <path class="cls-1" d="M242.1,383.3l3.6,1-.4-.4a2.4,2.4,0,0,0-.8-.9h-.2a.1.1,0,0,1-.1.1v.3h-.1v-1.6h.1c0,.2,0,.3.1.4a.5.5,0,0,0,.2.4c.2.3.3.5.4.5l.3.3.7-.2,1-.2v-.2a.1.1,0,0,0-.1-.1c0-.1-.2-.3-.4-.4v-.2l.7.7c.1.1.1.2.1.4s0,.1-.1.2l-1.7.5.4.5,1.3.4v.6l-4.2-1.3h-.7v.4h-.1Z" transform="translate(-51.5 -342.3)"/>
    <path class="cls-1" d="M244.1,378.5l2.2.6.6.2h.1l-.5-.4h.1l.7.6c.1.1.1.2.1.4v.2h-.5l-1.2-.3a4.6,4.6,0,0,1,1.4,1,1.2,1.2,0,0,1,.4.8.4.4,0,0,1-.1.3h-1.2l-1.1-.4h-.6v.2l.5.3h-.1a1.8,1.8,0,0,1-.7-.5,1.1,1.1,0,0,1-.1-.5c0-.1,0-.2.1-.2s.1-.1.2-.1l.7.2,1.2.3h.7a.1.1,0,0,0,.1-.1c0-.1-.1-.2-.1-.3s-.3-.3-.6-.6l-.8-.5-1.1-.5h-.3Z" transform="translate(-51.5 -342.3)"/>
    <path class="cls-1" d="M242.1,376l4.4,1.3h.4l-.4-.4h.1l.7.6a.8.8,0,0,1,.1.4.4.4,0,0,1-.1.3h-.7l-3.5-1.1h-.7v.5h-.1Z" transform="translate(-51.5 -342.3)"/>
    <path class="cls-1" d="M242.1,374l3.6,1.1-.4-.5-.8-.9h-.2a.1.1,0,0,0-.1.1v.2h-.1v-1.6h.1a.7.7,0,0,0,.1.5.8.8,0,0,0,.2.4l.4.5.3.3.7-.2,1-.3h.1c0-.1,0-.1-.1-.2l-.4-.4h.1l.7.6a.6.6,0,0,1,.1.4c0,.1,0,.2-.1.2l-1.7.5.4.5,1.3.4v.6l-4.2-1.2h-.7v.5h-.1Z" transform="translate(-51.5 -342.3)"/>
    <path class="cls-1" d="M245.9,371.9h.3l.6-.2a.7.7,0,0,0,.2-.6.9.9,0,0,0-.1-.5c0-.2-.2-.4-.5-.7h.1a2.4,2.4,0,0,1,.9,1.7,1,1,0,0,1-1.1,1.1,3,3,0,0,1-1.1-.4,2.4,2.4,0,0,1-.9-.8,2.3,2.3,0,0,1-.3-1.1c0-.3,0-.5.1-.6l.4-.2a.9.9,0,0,1,.6.3,3.5,3.5,0,0,1,.6.9A3.7,3.7,0,0,1,245.9,371.9Zm-.1,0-.3-.9a2.1,2.1,0,0,0-.4-.7.7.7,0,0,0-.6-.2h-.2c-.1,0-.1.1-.1.2a.9.9,0,0,0,.4.8A2.2,2.2,0,0,0,245.8,371.9Z" transform="translate(-51.5 -342.3)"/>
    <path class="cls-1" d="M244.2,369.3l-.2-1.1.5-.2,1-.2h1.3l-.7-.6-.8-.6h-.5a.2.2,0,0,0-.2.2l-.3.2c-.1,0-.2,0-.2-.1a.3.3,0,0,1-.1-.2.4.4,0,0,1,.1-.3h.7l.7.4,1.1.8.8.9h0a10.6,10.6,0,0,0-2.9.4c-.1,0-.2.1-.2.3v.2Z" transform="translate(-51.5 -342.3)"/>
    <path class="cls-1" d="M244,362.5l2.5.7h.5l-.5-.4h.1a1,1,0,0,1,.6.5.6.6,0,0,1,.2.5c0,.1,0,.2-.1.2h-.9a2.2,2.2,0,0,1,.8.9c.2.1.2.3.2.5a.8.8,0,0,1-.2.5l-.6.2a2.4,2.4,0,0,1-1.3-.4,2.8,2.8,0,0,1-1-.9,1.1,1.1,0,0,1-.3-.8.4.4,0,0,1,.1-.3l.4-.3h-.4Zm.2,1.3c0,.2,0,.4.2.5a2.2,2.2,0,0,0,.9.7l1.1.3h.4c.1-.1.2-.2.2-.3a1.2,1.2,0,0,0-.6-.9,2.7,2.7,0,0,0-1.6-.6h-.5A.4.4,0,0,0,244.2,363.8Z" transform="translate(-51.5 -342.3)"/>
    <path class="cls-1" d="M244,356.8l2.5.7h.5l-.5-.4h.1a1,1,0,0,1,.6.5.6.6,0,0,1,.2.5c0,.1,0,.2-.1.2h-.9a2.2,2.2,0,0,1,.8.9c.2.1.2.3.2.5a.8.8,0,0,1-.2.5l-.6.2a2.4,2.4,0,0,1-1.3-.4,2.8,2.8,0,0,1-1-.9,1.1,1.1,0,0,1-.3-.8.4.4,0,0,1,.1-.3l.4-.3h-.4Zm.2,1.3c0,.2,0,.4.2.5a2.2,2.2,0,0,0,.9.7l1.1.3h.4c.1-.1.2-.2.2-.3a1.2,1.2,0,0,0-.6-.9,2.7,2.7,0,0,0-1.6-.6h-.5A.4.4,0,0,0,244.2,358.1Z" transform="translate(-51.5 -342.3)"/>
    <path class="cls-1" d="M242.1,354.4l3.6,1.1-.4-.4a2.4,2.4,0,0,0-.8-.9h-.3v.4h-.1v-1.6h.1a.7.7,0,0,0,.1.5.8.8,0,0,0,.2.4l.4.5.3.3.7-.2,1-.3a.1.1,0,0,0,0-.2c0-.2-.2-.3-.4-.5h.1l.7.6a.8.8,0,0,1,.1.4.4.4,0,0,1-.1.3l-1.7.5.4.5,1.3.3v.6l-4.2-1.2h-.7v.5h-.1Z" transform="translate(-51.5 -342.3)"/>
    <path class="cls-1" d="M244,350.5l1.1.2h0l-.7.2a.6.6,0,0,0-.2.5c0,.2,0,.3.1.4h.5l.3-.3.8-.6h.5a.9.9,0,0,1,.7.3,1.1,1.1,0,0,1,.3.8,1.3,1.3,0,0,1-.1.6.3.3,0,0,1-.1.2c0,.1.1.2.2.3h0l-1.2-.2v-.2a1.3,1.3,0,0,0,.8-.2c.2-.1.2-.3.2-.6s0-.3-.1-.4a.5.5,0,0,0-.4-.2h-.3l-.6.4c-.2.2-.4.4-.6.4h-.4l-.6-.2a1.4,1.4,0,0,1-.2-.7v-.5a.3.3,0,0,1,.1-.2l-.2-.3Z" transform="translate(-51.5 -342.3)"/>
    <path class="cls-1" d="M245.9,349.4h.3l.6-.2a.7.7,0,0,0,.2-.6.7.7,0,0,0-.1-.5c0-.2-.2-.4-.5-.8h.1a2.4,2.4,0,0,1,.9,1.6,1.2,1.2,0,0,1-.3.9l-.8.2-1.1-.3a2,2,0,0,1-.9-.9,1.9,1.9,0,0,1-.3-1c0-.3,0-.5.1-.6l.4-.2.6.2.6,1A3.7,3.7,0,0,1,245.9,349.4Zm-.1-.1-.3-.9a1.5,1.5,0,0,0-.4-.6.9.9,0,0,0-.6-.3h-.2a.4.4,0,0,0-.1.3,1,1,0,0,0,.4.8A1.7,1.7,0,0,0,245.8,349.3Z" transform="translate(-51.5 -342.3)"/>
    <path class="cls-1" d="M242.1,344.6l4.4,1.3h.5v-.2l-.4-.4h.1a4.6,4.6,0,0,1,.7.7c.1.1.1.2.1.4v.2c0,.1-.1.1-.2.1h-.5l-3.5-1h-.7v.5h-.1Z" transform="translate(-51.5 -342.3)"/>
    <path class="cls-1" d="M242.5,343.1a.4.4,0,0,1,.1-.3h.5c.1.1.2.2.2.3l-.2.3h-.5A.4.4,0,0,1,242.5,343.1Zm1.5-.1,2.6.8h.4l-.5-.4V343l.6.6a.6.6,0,0,1,.2.5.4.4,0,0,1-.1.3h-.7l-1.6-.5h-.7v.5h-.1Z" transform="translate(-51.5 -342.3)"/>
  </g>
</svg>
