<svg id="Layer_1" data-name="Layer 1" xmlns="http://www.w3.org/2000/svg" xmlns:xlink="http://www.w3.org/1999/xlink" viewBox="0 0 214.6 245.5">
  <defs>
    <style>
      .cls-1 {
        fill: #fff;
      }

      .cls-1, .cls-10, .cls-2, .cls-3, .cls-7, .cls-8, .cls-9 {
        stroke: #1d1d1b;
      }

      .cls-1, .cls-10, .cls-2, .cls-3, .cls-4, .cls-7, .cls-8, .cls-9 {
        stroke-miterlimit: 10;
      }

      .cls-10, .cls-2, .cls-4, .cls-7, .cls-8, .cls-9 {
        fill: none;
      }

      .cls-3 {
        fill: url(#linear-gradient);
      }

      .cls-4 {
        stroke: #e30613;
      }

      .cls-5 {
        fill: #e30613;
      }

      .cls-6 {
        fill: #1d1d1b;
      }

      .cls-7, .cls-8, .cls-9 {
        stroke-width: 0.5px;
      }

      .cls-8 {
        stroke-dasharray: 2.96 2.96;
      }

      .cls-9 {
        stroke-dasharray: 3 3;
      }

      .cls-10 {
        stroke-width: 0.75px;
      }
    </style>
    <linearGradient id="linear-gradient" x1="106.32" y1="144.5" x2="178.32" y2="144.5" gradientUnits="userSpaceOnUse">
      <stop offset="0" stop-color="#fff"/>
      <stop offset="1"/>
    </linearGradient>
  </defs>
  <rect class="cls-1" x="34.6" y="27.5" width="72" height="72"/>
  <line class="cls-1" x1="34.6" y1="27.5" x2="61.6" y2="0.5"/>
  <line class="cls-1" x1="133.6" y1="0.5" x2="61.6" y2="0.5"/>
  <line class="cls-1" x1="106.6" y1="27.5" x2="133.6" y2="0.5"/>
  <line class="cls-2" x1="106.6" y1="99.5" x2="133.6" y2="72.5"/>
  <line class="cls-2" x1="133.6" y1="0.5" x2="133.6" y2="72.5"/>
  <g>
    <g>
      <polygon class="cls-1" points="106.6 243.5 34.6 243.5 67.1 171.5 139.1 171.5 106.6 243.5"/>
      <line class="cls-2" x1="106.3" y1="144.5" x2="67.1" y2="171.5"/>
      <line class="cls-3" x1="178.3" y1="144.5" x2="106.3" y2="144.5"/>
      <line class="cls-2" x1="139.1" y1="171.5" x2="178.3" y2="144.5"/>
      <line class="cls-2" x1="106.6" y1="243.5" x2="145.8" y2="216.5"/>
    </g>
    <line class="cls-2" x1="178.3" y1="144.5" x2="145.8" y2="216.5"/>
  </g>
  <g>
    <line class="cls-4" x1="211.1" y1="144.5" x2="178.6" y2="144.5"/>
    <polygon class="cls-5" points="214.6 144.5 209.7 142.5 210.8 144.5 209.7 146.5 214.6 144.5"/>
  </g>
  <g>
    <line class="cls-4" x1="3.5" y1="243.5" x2="34.6" y2="243.5"/>
    <polygon class="cls-5" points="0 243.5 5 245.5 3.8 243.5 5 241.5 0 243.5"/>
  </g>
  <g>
    <path class="cls-6" d="M379.6,421v2.9h1.3l.7-.2a1.5,1.5,0,0,0,.2-.8h.2v2.4h-.2c0-.2,0-.5-.1-.6s-.1-.2-.3-.3h-1.8v3c.1.1.1.2.3.3h.7v.2h-3.1v-.2h.3a.6.6,0,0,0,.6-.3c.1-.1.1-.4.1-.8v-5.4l-.3-.3h-.7v-.2h5.4v1.6h-.2a2.4,2.4,0,0,0-.3-.7l-.5-.4h-2.4Z" transform="translate(-180.7 -293.8)"/>
    <path class="cls-6" d="M384.2,427.1v5.8h-.3v-5.8Z" transform="translate(-180.7 -293.8)"/>
    <path class="cls-6" d="M385.5,427.1v5.8h-.3v-5.8Z" transform="translate(-180.7 -293.8)"/>
  </g>
  <g>
    <path class="cls-6" d="M190.6,520v2.9h1.3l.7-.2a1.5,1.5,0,0,0,.2-.8h.2v2.4h-.2c0-.2,0-.5-.1-.6s-.1-.2-.3-.3h-1.8v3c.1.1.1.2.3.3h.7v.2h-3.1v-.2h.3a.6.6,0,0,0,.6-.3c.1-.1.1-.4.1-.8v-5.4c-.1-.1-.1-.2-.3-.3h-.7v-.2h5.4v1.6h-.2a2.4,2.4,0,0,0-.3-.7l-.5-.4h-2.4Z" transform="translate(-180.7 -293.8)"/>
    <path class="cls-6" d="M195.2,526.1v5.8h-.3v-5.8Z" transform="translate(-180.7 -293.8)"/>
    <path class="cls-6" d="M196.5,526.1v5.8h-.3v-5.8Z" transform="translate(-180.7 -293.8)"/>
  </g>
  <path class="cls-6" d="M301.8,452.9h-3.1l-.5,1.3a2.5,2.5,0,0,0-.2.7c0,.1,0,.2.2.3l.7.2v.2h-2.5v-.2l.7-.3c.2-.1.4-.5.6-1.1l2.8-6.5h.2l2.8,6.6a2.9,2.9,0,0,0,.6,1,.9.9,0,0,0,.7.3v.2h-3.1v-.2l.7-.2a.4.4,0,0,0,.1-.3,3.1,3.1,0,0,0-.2-.8Zm-.2-.4-1.3-3.2-1.4,3.2Z" transform="translate(-180.7 -293.8)"/>
  <g>
    <line class="cls-7" x1="34.6" y1="99.5" x2="34.6" y2="101"/>
    <line class="cls-8" x1="34.6" y1="104" x2="34.6" y2="238.7"/>
    <line class="cls-7" x1="34.6" y1="240.2" x2="34.6" y2="241.7"/>
  </g>
  <g>
    <line class="cls-7" x1="67.1" y1="171.5" x2="67.1" y2="170"/>
    <line class="cls-9" x1="67.1" y1="167" x2="66.6" y2="102.5"/>
    <line class="cls-7" x1="66.6" y1="101" x2="66.6" y2="99.5"/>
  </g>
  <g>
    <line class="cls-10" x1="38.5" y1="144.5" x2="64.6" y2="144.5"/>
    <path class="cls-6" d="M216.9,438.2a12.6,12.6,0,0,1,3.2,1.8l-.7-1.8.7-1.7A9.9,9.9,0,0,1,216.9,438.2Z" transform="translate(-180.7 -293.8)"/>
    <path class="cls-6" d="M247.5,438.2a12.6,12.6,0,0,0-3.2,1.8l.7-1.8-.7-1.7A9.9,9.9,0,0,0,247.5,438.2Z" transform="translate(-180.7 -293.8)"/>
  </g>
  <path class="cls-6" d="M231.9,429a2.1,2.1,0,0,1,.4.6,5.3,5.3,0,0,1,.4,1.1l.5-.8.5-.5.5-.4h.7c.1.1.1.2.1.4v.3h-1.4l-.9,1.2.5,2,.2.6h.2l.3-.2a1.8,1.8,0,0,0,.5-.7h.2a2.7,2.7,0,0,1-.9,1.2l-.6.2a.5.5,0,0,1-.5-.3c-.1-.2-.2-.8-.5-2a6.2,6.2,0,0,1-1.5,2,.9.9,0,0,1-.7.3h-.4c-.1-.1-.1-.2-.1-.4a.4.4,0,0,1,.1-.3h.3a.4.4,0,0,1,.4.2h.2c.1,0,.2,0,.2-.1a4.9,4.9,0,0,0,.8-1l.6-1a9.5,9.5,0,0,0-.4-1.5,1.6,1.6,0,0,0-.3-.6h-1v-.2Z" transform="translate(-180.7 -293.8)"/>
  <g>
    <line class="cls-10" x1="17.3" y1="29.3" x2="17.3" y2="97.2"/>
    <path class="cls-6" d="M198,320.8a11.1,11.1,0,0,1-1.8,3.2l1.8-.6,1.8.6A11.1,11.1,0,0,1,198,320.8Z" transform="translate(-180.7 -293.8)"/>
    <path class="cls-6" d="M198,393.2a14.5,14.5,0,0,0-1.8-3.2l1.8.7,1.8-.7A14.5,14.5,0,0,0,198,393.2Z" transform="translate(-180.7 -293.8)"/>
  </g>
  <path class="cls-6" d="M190.6,351.3l-1.6,5.6a18,18,0,0,1,1.6-2.1,2.1,2.1,0,0,1,1.2-.5c.2,0,.3,0,.4.2s.2.3.2.5a3.1,3.1,0,0,1-.1.9l-.8,2.5a2,2,0,0,1-.1.5.1.1,0,0,0,.1.1.1.1,0,0,0,.1.1h.2l.6-.7h.2l-.6.7-.6.5h-.8c-.1-.1-.1-.2-.1-.4l.2-.9.7-2.4a2,2,0,0,0,.1-.7h-.1c0-.1-.1-.1-.2-.1h-.4l-.9.9-.9,1.5a3.6,3.6,0,0,0-.4.9l-.4,1.2h-.9l2-6.7.2-.7-.2-.3h-.7v-.2Z" transform="translate(-180.7 -293.8)"/>
</svg>
