<svg xmlns="http://www.w3.org/2000/svg" viewBox="0 0 529.6 291">
  <defs>
    <style>
      .cls-1 {
        fill: #fff;
      }

      .cls-1, .cls-4, .cls-7, .cls-8 {
        stroke: #1d1d1b;
      }

      .cls-1, .cls-2, .cls-4, .cls-7, .cls-8 {
        stroke-miterlimit: 10;
      }

      .cls-2, .cls-4, .cls-7, .cls-8 {
        fill: none;
      }

      .cls-2 {
        stroke: #95c11f;
      }

      .cls-3 {
        fill: #95c11f;
      }

      .cls-5 {
        opacity: 0.15;
      }

      .cls-6 {
        opacity: 0.4;
      }

      .cls-7, .cls-8 {
        stroke-width: 0.5px;
      }

      .cls-7 {
        stroke-dasharray: 3;
      }

      .cls-9 {
        fill: #1d1d1b;
      }
    </style>
  </defs>
  <g id="Layer_1" data-name="Layer 1">
    <ellipse class="cls-1" cx="105.5" cy="152.6" rx="4.8" ry="2"/>
    <g>
      <path class="cls-2" d="M209.5,432.1a259.1,259.1,0,0,0-132.6-3.9" transform="translate(-14.3 -275.6)"/>
      <path class="cls-3" d="M215.3,433.8a28.6,28.6,0,0,1-6.9-7l.3,5.1-3,4A30.5,30.5,0,0,1,215.3,433.8Z" transform="translate(-14.3 -275.6)"/>
    </g>
    <circle class="cls-1" cx="62.8" cy="219.7" r="27"/>
    <line class="cls-1" x1="43.9" y1="200.4" x2="100.9" y2="159.1"/>
    <line class="cls-1" x1="82.5" y1="238.2" x2="147.5" y2="162.8"/>
    <line class="cls-4" x1="138.4" y1="132.9" x2="138.4" y2="132.9"/>
    <g>
      <path class="cls-2" d="M20.1,501a259.2,259.2,0,0,0,132.6-1.5" transform="translate(-14.3 -275.6)"/>
      <path class="cls-3" d="M14.3,499.5a30.2,30.2,0,0,1,7.1,6.7l-.5-5,2.8-4.2A29.7,29.7,0,0,1,14.3,499.5Z" transform="translate(-14.3 -275.6)"/>
    </g>
    <line class="cls-1" x1="105.5" y1="152.6" x2="105.5" y2="2.2"/>
    <path class="cls-1" d="M124.6,434.3c0,1.1-2.2,2-4.9,2s-4.8-.9-4.8-2" transform="translate(-14.3 -275.6)"/>
    <path class="cls-1" d="M124.6,428.5l15.6-11.6a15.2,15.2,0,0,1,21.6,0,15.4,15.4,0,0,1,0,21.6" transform="translate(-14.3 -275.6)"/>
    <line class="cls-1" x1="100.6" y1="152.9" x2="100.6" y2="159.1"/>
    <line class="cls-4" x1="110.3" y1="151.9" x2="110.3" y2="159.1"/>
    <g>
      <circle class="cls-4" cx="403.9" cy="160.4" r="13.2"/>
      <rect class="cls-4" x="288.4" y="417" width="259.4" height="37.96" transform="translate(-198.8 119.2) rotate(-42.3)"/>
      <circle class="cls-4" cx="403.9" cy="160.4" r="6.6"/>
    </g>
    <g class="cls-5">
      <circle class="cls-4" cx="403.9" cy="160.4" r="13.2"/>
      <rect class="cls-4" x="288.4" y="417" width="259.4" height="37.96" transform="translate(-129 444.9) rotate(-74.3)"/>
      <circle class="cls-4" cx="403.9" cy="160.4" r="6.6"/>
    </g>
    <g class="cls-6">
      <circle class="cls-4" cx="403.9" cy="160.4" r="13.2"/>
      <rect class="cls-4" x="288.4" y="417" width="259.4" height="37.96" transform="translate(-185.2 294.5) rotate(-59)"/>
      <circle class="cls-4" cx="403.9" cy="160.4" r="6.6"/>
    </g>
    <line class="cls-7" x1="529.3" y1="19.9" x2="529.6" y2="19.9"/>
    <g>
      <path class="cls-2" d="M463.6,292.3q36.8,4.9,60.4,35.2" transform="translate(-14.3 -275.6)"/>
      <path class="cls-3" d="M457.6,291.7a30.6,30.6,0,0,1,8,5.7l-1.2-4.9,2.2-4.6A28.7,28.7,0,0,1,457.6,291.7Z" transform="translate(-14.3 -275.6)"/>
      <path class="cls-3" d="M527.6,332.3a31.4,31.4,0,0,0-9-4l4.9-1.5,2.8-4.2A27.1,27.1,0,0,0,527.6,332.3Z" transform="translate(-14.3 -275.6)"/>
    </g>
    <line class="cls-8" x1="403.9" y1="160.4" x2="481" y2="31.5"/>
  </g>
  <g id="Layer_2" data-name="Layer 2">
    <g>
      <path class="cls-9" d="M486.4,275.6v4.3a3.2,3.2,0,0,1,1.1-1l.8-.2a1.6,1.6,0,0,1,.9.3,1.2,1.2,0,0,1,.5.8,5.8,5.8,0,0,1,.1,1.5v2.1c0,.3,0,.6.1.7l.2.2h.6v.3h-2.9v-.3h.7a.5.5,0,0,0,.2-.4v-2.6a4.2,4.2,0,0,0-.1-1.3c0-.2-.1-.3-.3-.4l-.5-.2-.6.2a1.7,1.7,0,0,0-.8.7v3.8l.3.2h.6v.3h-2.9v-.3h.6a.2.2,0,0,0,.2-.2c.1-.1.1-.4.1-.7v-6.5c-.1-.2-.1-.3-.2-.3h-.7v-.2l1.8-.8Z" transform="translate(-14.3 -275.6)"/>
      <path class="cls-9" d="M492.1,281a2.8,2.8,0,0,0,.7,2.1,1.7,1.7,0,0,0,1.4.7,1.5,1.5,0,0,0,1-.3,2.4,2.4,0,0,0,.8-1.1h.1a2.4,2.4,0,0,1-.7,1.6,2.1,2.1,0,0,1-1.6.7,2.2,2.2,0,0,1-1.8-.8,2.9,2.9,0,0,1-.8-2.2,3.4,3.4,0,0,1,.8-2.3,2.6,2.6,0,0,1,1.9-.8,2.1,2.1,0,0,1,1.6.6,2.4,2.4,0,0,1,.6,1.7Zm0-.3h2.7c0-.4,0-.7-.1-.8s-.3-.4-.5-.6l-.6-.2a1.8,1.8,0,0,0-1,.4A2.2,2.2,0,0,0,492.1,280.7Z" transform="translate(-14.3 -275.6)"/>
      <path class="cls-9" d="M498.9,278.7v4.7a5.6,5.6,0,0,0,.1.7l.2.2h.6v.3H497v-.3h.6l.2-.3a5.6,5.6,0,0,0,.1-.7v-2.3a3.5,3.5,0,0,0-.1-1.2v-.3H497v-.2l1.7-.7Zm-.5-3.1.5.2a.9.9,0,0,1,.1.5c0,.2,0,.3-.1.4a.7.7,0,0,1-1,0c-.1-.1-.1-.2-.1-.4a.9.9,0,0,1,.1-.5Z" transform="translate(-14.3 -275.6)"/>
      <path class="cls-9" d="M502.5,275.6v7.8a5.6,5.6,0,0,0,.1.7c.1.1.1.2.3.2h.6v.3h-2.9v-.3h.6l.2-.3c.1-.1.1-.4.1-.7v-5.3c0-.7,0-1.1-.1-1.2s0-.3-.1-.3h-.7v-.2l1.7-.8Z" transform="translate(-14.3 -275.6)"/>
      <path class="cls-9" d="M509.2,278.9v3.5a10.5,10.5,0,0,0,.1,1.2.4.4,0,0,0,.1.3h.7v.2l-1.7.7h-.3v-1.2a4.1,4.1,0,0,1-1.1,1,1.5,1.5,0,0,1-.9.2l-.8-.2a1.4,1.4,0,0,1-.5-.8,3.7,3.7,0,0,1-.2-1.2V280c0-.3,0-.5-.1-.6l-.2-.2h-.6v-.2h2v3.8a1.4,1.4,0,0,0,.3,1.1.9.9,0,0,0,.7.3l.6-.2a2.3,2.3,0,0,0,.8-.7v-3.3a.8.8,0,0,0-.2-.6l-.7-.2v-.2Z" transform="translate(-14.3 -275.6)"/>
      <path class="cls-9" d="M512.3,278.7V280c.5-.9,1-1.3,1.5-1.3a.8.8,0,0,1,.6.2c.2.1.2.3.2.5a.6.6,0,0,1-.1.4l-.4.2-.5-.2-.4-.3-.3.2a1.8,1.8,0,0,0-.6.8v2.8a1.2,1.2,0,0,0,.2.7c0,.2.1.2.3.3h.6v.3h-3v-.3h.6l.3-.3v-4.1l-.2-.3h-.7v-.2l1.8-.7Z" transform="translate(-14.3 -275.6)"/>
      <path class="cls-9" d="M517,278.7v4.7c0,.3,0,.6.1.7l.2.2h.6v.3H515v-.3h.6l.2-.3c.1-.1.1-.4.1-.7v-3.5l-.2-.3H515v-.2l1.8-.7Zm-.5-3.1.4.2c.1.2.2.3.2.5a.5.5,0,0,1-.2.4.4.4,0,0,1-.4.2c-.2,0-.4,0-.5-.2a.5.5,0,0,1-.2-.4c0-.2.1-.3.2-.5Z" transform="translate(-14.3 -275.6)"/>
      <path class="cls-9" d="M520.6,275.6v7.8c0,.3,0,.6.1.7a.2.2,0,0,0,.2.2h.6v.3h-2.8v-.3h.5l.2-.3c.1-.1.1-.4.1-.7v-6.5c0-.2-.1-.3-.2-.3s-.1-.1-.2-.1h-.4v-.2l1.7-.8Z" transform="translate(-14.3 -275.6)"/>
      <path class="cls-9" d="M524.2,278.7v4.7c0,.3,0,.6.1.7l.2.2h.6v.3h-2.8v-.3h.5l.3-.3v-4.5h-.7v-.2l1.7-.7Zm-.5-3.1.4.2a.6.6,0,0,1,.2.5c0,.2,0,.3-.2.4s-.2.2-.4.2-.4,0-.5-.2a.5.5,0,0,1-.2-.4c0-.2.1-.3.2-.5Z" transform="translate(-14.3 -275.6)"/>
      <path class="cls-9" d="M527.8,278.7v4.7c0,.3,0,.6.1.7l.2.2h.6v.3h-2.8v-.3h.5l.3-.3a5.6,5.6,0,0,0,.1-.7v-2.3c0-.6-.1-1-.1-1.2v-.3h-.7v-.2l1.7-.7Zm-.5-3.1a.5.5,0,0,1,.4.2.6.6,0,0,1,.2.5c0,.2,0,.3-.2.4s-.2.2-.4.2a.6.6,0,0,1-.5-.2.5.5,0,0,1-.2-.4c0-.2.1-.3.2-.5Z" transform="translate(-14.3 -275.6)"/>
      <path class="cls-9" d="M531.1,275.6v5.8l1.5-1.3.6-.6h0c0-.1,0-.2-.1-.2h-.3v-.2h2.5v.2h-.9l-.7.5-1.5,1.4,1.5,1.9.8,1,.5.4h.6v.3h-2.8v-.3h.3c0-.1.1-.1.1-.2a.9.9,0,0,0-.3-.5l-1.8-2.3v2a5.6,5.6,0,0,0,.1.7l.2.3h.7v.3h-3v-.3h.7l.2-.2c.1-.1.1-.4.1-.7v-5.3c0-.7,0-1.1-.1-1.2s0-.3-.1-.3h-.7v-.2l1.7-.8Z" transform="translate(-14.3 -275.6)"/>
      <path class="cls-9" d="M536.9,281a3.3,3.3,0,0,0,.6,2.1,1.8,1.8,0,0,0,1.5.7,1.7,1.7,0,0,0,1-.3,2.3,2.3,0,0,0,.7-1.1h.2a2.5,2.5,0,0,1-.8,1.6,1.9,1.9,0,0,1-1.6.7,2.2,2.2,0,0,1-1.8-.8,2.9,2.9,0,0,1-.7-2.2,3,3,0,0,1,.8-2.3,2.6,2.6,0,0,1,1.9-.8,2.3,2.3,0,0,1,1.6.6,2.4,2.4,0,0,1,.6,1.7Zm0-.3h2.7a5.4,5.4,0,0,0-.1-.8l-.5-.6-.7-.2a1.8,1.8,0,0,0-.9.4A1.7,1.7,0,0,0,536.9,280.7Z" transform="translate(-14.3 -275.6)"/>
    </g>
    <path class="cls-9" d="M430.4,405.1v.2c-.7.2-1.1.9-1.1,2s.5,2.1,1.4,2.3v-3.7a1,1,0,0,1,.4-.5.9.9,0,0,1,.6-.3,1.3,1.3,0,0,1,1.2.7,2.1,2.1,0,0,1,.6,1.6,2.5,2.5,0,0,1-.6,1.6,2.4,2.4,0,0,1-1.7.9v2h-.5v-2a2.5,2.5,0,0,1-1.7-.8,2.4,2.4,0,0,1-.6-1.7,2.2,2.2,0,0,1,2-2.3Zm.8,4.5a1.7,1.7,0,0,0,1.5-2,3.2,3.2,0,0,0-.3-1.4,1,1,0,0,0-.8-.5h-.3c0,.1-.1.2-.1.3v3.5Z" transform="translate(-14.3 -275.6)"/>
    <line class="cls-7" x1="403.9" y1="160.4" x2="442.4" y2="20.9"/>
  </g>
</svg>
