<svg id="Layer_1" data-name="Layer 1" xmlns="http://www.w3.org/2000/svg" xmlns:xlink="http://www.w3.org/1999/xlink" viewBox="0 0 352.1 253">
  <defs>
    <style>
      .cls-1, .cls-4 {
        fill: #fff;
      }

      .cls-2, .cls-3, .cls-5, .cls-7 {
        fill: none;
      }

      .cls-2, .cls-3, .cls-4, .cls-5, .cls-6, .cls-8 {
        stroke: #1d1d1b;
        stroke-miterlimit: 10;
      }

      .cls-2, .cls-3 {
        stroke-width: 0.5px;
      }

      .cls-3 {
        stroke-dasharray: 2.9 2.9;
      }

      .cls-6 {
        fill: #ededed;
      }

      .cls-8 {
        fill: url(#linear-gradient);
      }

      .cls-9 {
        fill: #1d1d1b;
      }
    </style>
    <linearGradient id="linear-gradient" x1="122.79" y1="510.52" x2="158.73" y2="510.52" gradientUnits="userSpaceOnUse">
      <stop offset="0" stop-color="#fff"/>
      <stop offset="1"/>
    </linearGradient>
  </defs>
  <g>
    <path class="cls-1" d="M254.1,476.3c11.3,0,20.4,15.3,20.4,34.2s-9.1,34.2-20.4,34.2" transform="translate(-112.2 -294)"/>
    <g>
      <path class="cls-2" d="M254.1,476.3h1.5" transform="translate(-112.2 -294)"/>
      <path class="cls-3" d="M258.4,477.1c9.2,3.3,16.1,17,16.1,33.4s-7.6,31.5-17.4,33.9" transform="translate(-112.2 -294)"/>
      <path class="cls-2" d="M255.6,544.6h-1.5" transform="translate(-112.2 -294)"/>
    </g>
  </g>
  <ellipse class="cls-4" cx="28.5" cy="216.5" rx="22.5" ry="36"/>
  <path class="cls-4" d="M365.4,474.6c11.7,0,21.3,16.1,21.3,35.9s-9.6,35.9-21.3,35.9" transform="translate(-112.2 -294)"/>
  <line class="cls-5" x1="28.5" y1="180.5" x2="133" y2="180.5"/>
  <line class="cls-5" x1="28.5" y1="252.5" x2="254.5" y2="252.5"/>
  <path class="cls-6" d="M161.1,510.5c0,18.9-9.1,34.2-20.3,34.2s-20.4-15.3-20.4-34.2,9.1-34.2,20.4-34.2S161.1,491.6,161.1,510.5Z" transform="translate(-112.2 -294)"/>
  <path class="cls-5" d="M253.3,457.4" transform="translate(-112.2 -294)"/>
  <path class="cls-5" d="M251.3,457.4" transform="translate(-112.2 -294)"/>
  <g>
    <g>
      <line class="cls-5" x1="142.8" x2="142.8" y2="164.6"/>
      <path class="cls-5" d="M255.2,457.4c4,.2,7,.7,7,1.4s-4,1.5-8.9,1.5-9-.7-9-1.5,2.9-1.2,6.8-1.4" transform="translate(-112.2 -294)"/>
      <line class="cls-5" x1="132.1" y1="164.8" x2="132.1" y2="180.5"/>
      <line class="cls-5" x1="150" y1="164.8" x2="150" y2="180.5"/>
      <path class="cls-5" d="M262.2,474.7c0,.9-4,1.6-8.9,1.6s-9-.7-9-1.6" transform="translate(-112.2 -294)"/>
      <line class="cls-5" x1="139.1" x2="139.1" y2="164.6"/>
    </g>
    <path class="cls-5" d="M251.1,458.1a8.6,8.6,0,0,0,3.9,0" transform="translate(-112.2 -294)"/>
  </g>
  <g>
    <path class="cls-1" d="M309.8,476.3c11.2,0,20.3,15.3,20.3,34.2s-9.1,34.2-20.3,34.2" transform="translate(-112.2 -294)"/>
    <g>
      <path class="cls-2" d="M309.8,476.3h1.4" transform="translate(-112.2 -294)"/>
      <path class="cls-3" d="M314.1,477.1c9.1,3.3,16,17,16,33.4s-7.6,31.5-17.4,33.9" transform="translate(-112.2 -294)"/>
      <path class="cls-2" d="M311.2,544.6h-1.4" transform="translate(-112.2 -294)"/>
    </g>
  </g>
  <g>
    <path class="cls-1" d="M198.5,476.3c11.3,0,20.4,15.3,20.4,34.2s-9.1,34.2-20.4,34.2" transform="translate(-112.2 -294)"/>
    <g>
      <path class="cls-2" d="M198.5,476.3H200" transform="translate(-112.2 -294)"/>
      <path class="cls-3" d="M202.8,477.1c9.2,3.3,16.1,17,16.1,33.4s-7.6,31.5-17.4,33.9" transform="translate(-112.2 -294)"/>
      <path class="cls-2" d="M200,544.6h-1.5" transform="translate(-112.2 -294)"/>
    </g>
  </g>
  <line class="cls-5" x1="150.9" y1="180.5" x2="256.5" y2="180.8"/>
  <line class="cls-7" x1="237.7" y1="144.7" x2="197.5" y2="177.5"/>
  <path class="cls-8" d="M158.7,510.5c0,17.3-8,31.3-17.9,31.3s-18-14-18-31.3,8-31.2,18-31.2S158.7,493.3,158.7,510.5Z" transform="translate(-112.2 -294)"/>
  <g>
    <path class="cls-9" d="M114,346.1v1.5h1.4v.8H114v2.9c0,.6.2,1,.7,1h.6v.8h-.8a1.6,1.6,0,0,1-1.1-.4,2,2,0,0,1-.4-1.4v-2.9h-.8v-.8h.8v-1.2Z" transform="translate(-112.2 -294)"/>
    <path class="cls-9" d="M120.9,351.5a6.6,6.6,0,0,0,.1,1.5h-.9v-.9H120a1.9,1.9,0,0,1-1.7,1c-.9,0-1.9-.5-1.9-2.3v-3.2h1v3c0,1,.3,1.7,1.2,1.7a1.6,1.6,0,0,0,1.3-.9,4.3,4.3,0,0,0,.1-.5v-3.3h.9Z" transform="translate(-112.2 -294)"/>
    <path class="cls-9" d="M123.7,346.1v1.5h1.4v.8h-1.4v2.9c0,.6.2,1,.7,1h.6v.8h-.8a1.8,1.8,0,0,1-1.1-.4,2,2,0,0,1-.4-1.4v-2.9h-.8v-.8h.8v-1.2Z" transform="translate(-112.2 -294)"/>
    <path class="cls-9" d="M127.1,350.1h0l.5-.6,1.6-1.9h1.1l-2,2.2,2.3,3.2h-1.1l-1.9-2.6-.5.6v2h-.9v-7.8h.9Z" transform="translate(-112.2 -294)"/>
    <path class="cls-9" d="M132.6,346.2c0,.3-.2.5-.6.5s-.6-.2-.6-.5.2-.7.6-.7S132.6,345.8,132.6,346.2Zm-1.1,6.8v-5.4h1V353Z" transform="translate(-112.2 -294)"/>
    <path class="cls-9" d="M135.3,346.1v1.5h1.3v.8h-1.3v2.9c0,.6.1,1,.7,1h.5v.8h-.9a1.5,1.5,0,0,1-1-.4,2,2,0,0,1-.4-1.4v-2.9h-.8v-.8h.8v-1.2Z" transform="translate(-112.2 -294)"/>
    <path class="cls-9" d="M138.9,346.1v1.5h1.4v.8h-1.4v2.9c0,.6.2,1,.7,1h.6v.8h-.8a1.8,1.8,0,0,1-1.1-.4,2,2,0,0,1-.4-1.4v-2.9h-.8v-.8h.8v-1.2Z" transform="translate(-112.2 -294)"/>
    <path class="cls-9" d="M144.3,353v-.7h0a2.1,2.1,0,0,1-1.6.8,1.5,1.5,0,0,1-1.6-1.5c0-1.3,1.1-2,3.2-2h0a1.2,1.2,0,0,0-1.3-1.3,2.5,2.5,0,0,0-1.3.4l-.3-.6a3.5,3.5,0,0,1,1.8-.5c1.6,0,2,1.1,2,2.2v2a5.3,5.3,0,0,0,.1,1.3Zm-.1-2.7c-1.1-.1-2.3.1-2.3,1.2a.8.8,0,0,0,.9.9,1.4,1.4,0,0,0,1.3-.9.4.4,0,0,0,.1-.3Z" transform="translate(-112.2 -294)"/>
    <path class="cls-9" d="M147,347.6l1,3a10.3,10.3,0,0,1,.4,1.4h.1a10.3,10.3,0,0,1,.4-1.4l1-3H151l-2.1,5.4h-1l-2-5.4Z" transform="translate(-112.2 -294)"/>
    <path class="cls-9" d="M154.8,353v-.7h0a2.1,2.1,0,0,1-1.7.8,1.6,1.6,0,0,1-1.6-1.5c0-1.3,1.2-2,3.2-2h0c0-.5-.1-1.3-1.2-1.3a3.3,3.3,0,0,0-1.4.4l-.2-.6a3.1,3.1,0,0,1,1.7-.5c1.7,0,2.1,1.1,2.1,2.2v2a5.3,5.3,0,0,0,.1,1.3Zm-.2-2.7c-1-.1-2.2.1-2.2,1.2a.8.8,0,0,0,.9.9,1.5,1.5,0,0,0,1.3-.9v-1.2Z" transform="translate(-112.2 -294)"/>
    <path class="cls-9" d="M159.5,349.1a7.1,7.1,0,0,0-.1-1.5h.9v.9h0a1.9,1.9,0,0,1,1.7-1,1.6,1.6,0,0,1,1.5,1.1h0l.6-.7a2.5,2.5,0,0,1,1.2-.4c.7,0,1.8.5,1.8,2.3V353h-1v-3c0-1.1-.4-1.7-1.1-1.7a1.3,1.3,0,0,0-1.2.9,4.3,4.3,0,0,0-.1.5V353h-.9v-3.2c0-.9-.4-1.5-1.1-1.5a1.3,1.3,0,0,0-1.2,1,.7.7,0,0,0-.1.5V353h-.9Z" transform="translate(-112.2 -294)"/>
    <path class="cls-9" d="M169.2,350.5a1.6,1.6,0,0,0,1.8,1.8l1.5-.2v.7a5.2,5.2,0,0,1-1.7.3,2.4,2.4,0,0,1-2.6-2.7c0-1.6.9-2.9,2.5-2.9A2.3,2.3,0,0,1,173,350a4.3,4.3,0,0,1-.1.5Zm2.8-.7c0-.6-.2-1.6-1.3-1.6s-1.4.9-1.5,1.6Z" transform="translate(-112.2 -294)"/>
    <path class="cls-9" d="M175.3,346.1v1.5h1.4v.8h-1.4v2.9c0,.6.2,1,.7,1h.6v.8h-.8a1.8,1.8,0,0,1-1.1-.4,2.6,2.6,0,0,1-.3-1.4v-2.9h-.9v-.8h.9v-1.2Z" transform="translate(-112.2 -294)"/>
    <path class="cls-9" d="M180.7,353v-.7h-.1a1.9,1.9,0,0,1-1.6.8,1.5,1.5,0,0,1-1.6-1.5c0-1.3,1.1-2,3.2-2h0c0-.5-.1-1.3-1.2-1.3a3.3,3.3,0,0,0-1.4.4l-.2-.6a2.9,2.9,0,0,1,1.7-.5c1.6,0,2,1.1,2,2.2v2c0,.5.1.9.1,1.3Zm-.1-2.7c-1.1-.1-2.3.1-2.3,1.2a.9.9,0,0,0,1,.9,1.3,1.3,0,0,0,1.2-.9.4.4,0,0,0,.1-.3Z" transform="translate(-112.2 -294)"/>
    <path class="cls-9" d="M183.1,345.2h1V353h-1Z" transform="translate(-112.2 -294)"/>
    <path class="cls-9" d="M185.7,345.2h1V353h-1Z" transform="translate(-112.2 -294)"/>
    <path class="cls-9" d="M189.4,346.2c0,.3-.3.5-.7.5a.5.5,0,0,1-.5-.5c0-.4.2-.7.6-.7A.7.7,0,0,1,189.4,346.2Zm-1.1,6.8v-5.4h1V353Z" transform="translate(-112.2 -294)"/>
    <path class="cls-9" d="M190.9,345.2h.9V353h-.9Z" transform="translate(-112.2 -294)"/>
    <path class="cls-9" d="M196.4,353v-.7h0a2.1,2.1,0,0,1-1.6.8,1.6,1.6,0,0,1-1.7-1.5c0-1.3,1.2-2,3.2-2h0c0-.5-.1-1.3-1.2-1.3a3.3,3.3,0,0,0-1.4.4l-.2-.6a3.5,3.5,0,0,1,1.8-.5c1.6,0,2,1.1,2,2.2v2a5.3,5.3,0,0,0,.1,1.3Zm-.1-2.7c-1.1-.1-2.3.1-2.3,1.2a.8.8,0,0,0,.9.9,1.5,1.5,0,0,0,1.3-.9c0-.1.1-.2.1-.3Z" transform="translate(-112.2 -294)"/>
    <path class="cls-9" d="M198.8,349.1c0-.6-.1-1-.1-1.5h.9v.9h0a2.1,2.1,0,0,1,1.8-1,2,2,0,0,1,1.9,2.3V353h-1v-3.1c0-.9-.3-1.6-1.2-1.6a1.4,1.4,0,0,0-1.3,1,.7.7,0,0,0-.1.5V353h-.9Z" transform="translate(-112.2 -294)"/>
    <path class="cls-9" d="M205.8,350.1h0l.5-.6,1.6-1.9H209l-2,2.2,2.3,3.2h-1.2l-1.8-2.6-.5.6v2h-.9v-7.8h.9Z" transform="translate(-112.2 -294)"/>
    <path class="cls-9" d="M213.2,353v-.7h0a2.1,2.1,0,0,1-1.7.8,1.5,1.5,0,0,1-1.6-1.5c0-1.3,1.1-2,3.2-2h0c0-.5-.1-1.3-1.2-1.3a3.3,3.3,0,0,0-1.4.4l-.2-.6a3.1,3.1,0,0,1,1.7-.5c1.7,0,2.1,1.1,2.1,2.2V353Zm-.2-2.7c-1-.1-2.2.1-2.2,1.2a.8.8,0,0,0,.9.9,1.5,1.5,0,0,0,1.3-.9v-1.2Z" transform="translate(-112.2 -294)"/>
  </g>
  <line class="cls-2" x1="50.6" y1="64.9" x2="133" y2="99.9"/>
  <line class="cls-2" x1="236.5" y1="128.1" x2="204" y2="172.7"/>
  <g>
    <path class="cls-9" d="M324.8,401.8c0-.6-.1-1.1-.1-1.5h.8v.8h.1a1.8,1.8,0,0,1,1.7-.9c1.2,0,2,.9,2,2.4s-1,2.6-2.2,2.6a2,2,0,0,1-1.5-.7h0v2.6h-.8Zm.8,1.3c0,.2,0,.3.1.4a1.3,1.3,0,0,0,1.3,1c.9,0,1.5-.7,1.5-1.8a1.6,1.6,0,0,0-1.5-1.8,1.4,1.4,0,0,0-1.3,1c0,.2-.1.3-.1.4Z" transform="translate(-112.2 -294)"/>
    <path class="cls-9" d="M334.5,403.8v1.3h-.7v-.8h0a1.8,1.8,0,0,1-1.6.9c-.8,0-1.7-.4-1.7-2.1v-2.8h.9v2.6c0,1,.3,1.6,1.1,1.6a1.1,1.1,0,0,0,1.1-.8.7.7,0,0,0,.1-.5v-2.9h.9Z" transform="translate(-112.2 -294)"/>
    <path class="cls-9" d="M337,398.9v1.4h1.3v.6H337v2.6c0,.6.2,1,.7,1h.5v.7h-.8a1,1,0,0,1-.9-.4c-.3-.2-.3-.7-.3-1.2v-2.7h-.8v-.6h.8v-1.2Z" transform="translate(-112.2 -294)"/>
    <path class="cls-9" d="M340.1,402.5h.1a2.1,2.1,0,0,1,.4-.6l1.4-1.6h1.1l-1.9,2,2.1,2.8h-1.1l-1.6-2.3-.5.5v1.8h-.8V398h.8Z" transform="translate(-112.2 -294)"/>
    <path class="cls-9" d="M345.1,398.9c0,.3-.2.5-.6.5a.5.5,0,0,1-.5-.5c0-.3.2-.5.6-.5A.5.5,0,0,1,345.1,398.9Zm-1,6.2v-4.8h.9v4.8Z" transform="translate(-112.2 -294)"/>
    <path class="cls-9" d="M345.9,406.3a14,14,0,0,0,.6-2.4h1a16.1,16.1,0,0,1-1,2.5Z" transform="translate(-112.2 -294)"/>
    <path class="cls-9" d="M349.5,406.5a1,1,0,0,0,.9-.4c.3-.3.4-.6.4-1.8v-4h.8v4.3a2.7,2.7,0,0,1-.5,2,2.4,2.4,0,0,1-1.5.6Zm2.2-7.6c.1.3-.2.5-.5.5a.5.5,0,1,1,.5-.5Z" transform="translate(-112.2 -294)"/>
    <path class="cls-9" d="M357.5,402.6a2.4,2.4,0,0,1-2.5,2.6,2.5,2.5,0,1,1,2.5-2.6Zm-3.9.1c0,1.1.6,1.8,1.5,1.8a1.6,1.6,0,0,0,1.5-1.8c0-.8-.5-1.9-1.5-1.9S353.6,401.8,353.6,402.7Z" transform="translate(-112.2 -294)"/>
    <path class="cls-9" d="M358.6,401.6a5.3,5.3,0,0,0-.1-1.3h.8v.8h0a1.7,1.7,0,0,1,1.6-.9,1.8,1.8,0,0,1,1.7,2v2.9h-.9v-2.8c0-.8-.3-1.4-1.1-1.4a1.3,1.3,0,0,0-1.2.9v3.3h-.9Z" transform="translate(-112.2 -294)"/>
    <path class="cls-9" d="M365,402.5h0l.4-.6,1.5-1.6h1l-1.9,2,2.2,2.8h-1.1l-1.7-2.3-.4.5v1.8h-.9V398h.9Z" transform="translate(-112.2 -294)"/>
    <path class="cls-9" d="M371.7,405.1v-.6h0a1.8,1.8,0,0,1-1.5.7,1.4,1.4,0,0,1-1.5-1.4c0-1.1,1.1-1.8,2.9-1.8h0a1,1,0,0,0-1.1-1.1,1.7,1.7,0,0,0-1.2.4l-.2-.6a2.4,2.4,0,0,1,1.5-.4,1.7,1.7,0,0,1,1.9,1.9v1.8a4.1,4.1,0,0,0,.1,1.2Zm-.2-2.5c-.9,0-2,.2-2,1.1a.8.8,0,0,0,.8.9,1.4,1.4,0,0,0,1.2-.8v-1.2Z" transform="translate(-112.2 -294)"/>
    <path class="cls-9" d="M375.8,404.2a2.1,2.1,0,0,0,1.2.3c.6,0,.9-.3.9-.7s-.2-.6-.9-.9-1.3-.7-1.3-1.3a1.5,1.5,0,0,1,1.7-1.4,2.1,2.1,0,0,1,1.2.3l-.2.6a2.4,2.4,0,0,0-1-.3.7.7,0,0,0-.8.7c0,.4.3.6.9.8s1.3.7,1.3,1.5-.7,1.4-1.8,1.4a2.6,2.6,0,0,1-1.4-.3Z" transform="translate(-112.2 -294)"/>
    <path class="cls-9" d="M380.9,398.9c0,.3-.2.5-.6.5a.5.5,0,0,1,0-1C380.7,398.4,380.9,398.6,380.9,398.9Zm-1,6.2v-4.8h.9v4.8Z" transform="translate(-112.2 -294)"/>
    <path class="cls-9" d="M382.1,404.2a2.1,2.1,0,0,0,1.2.3c.6,0,.9-.3.9-.7s-.2-.6-.9-.9-1.3-.7-1.3-1.3a1.5,1.5,0,0,1,1.7-1.4,2.1,2.1,0,0,1,1.2.3l-.2.6a2.4,2.4,0,0,0-1-.3.7.7,0,0,0-.8.7c0,.4.3.6.9.8s1.3.7,1.3,1.5-.7,1.4-1.9,1.4a2.5,2.5,0,0,1-1.3-.3Z" transform="translate(-112.2 -294)"/>
    <path class="cls-9" d="M388.9,405.1v-.6h0a1.8,1.8,0,0,1-1.5.7,1.4,1.4,0,0,1-1.5-1.4c0-1.1,1.1-1.8,2.9-1.8h0a1,1,0,0,0-1.1-1.1,1.7,1.7,0,0,0-1.2.4l-.2-.6a2.5,2.5,0,0,1,1.6-.4,1.7,1.7,0,0,1,1.8,1.9v1.8a4.1,4.1,0,0,0,.1,1.2Zm-2.5-6.2a.6.6,0,0,1,.6-.5.5.5,0,0,1,0,1A.6.6,0,0,1,386.4,398.9Zm2.3,3.7c-.9,0-2,.2-2,1.1a.8.8,0,0,0,.8.9,1.4,1.4,0,0,0,1.2-.8v-1.2Zm-.4-3.7a.5.5,0,1,1,.5.5A.5.5,0,0,1,388.3,398.9Z" transform="translate(-112.2 -294)"/>
    <path class="cls-9" d="M391,398h.9v7.1H391Z" transform="translate(-112.2 -294)"/>
    <path class="cls-9" d="M393.4,398h.9v7.1h-.9Z" transform="translate(-112.2 -294)"/>
    <path class="cls-9" d="M396.2,402.8a1.6,1.6,0,0,0,1.7,1.7l1.3-.2.2.6a5,5,0,0,1-1.6.3,2.3,2.3,0,0,1-2.4-2.4c0-1.5.8-2.6,2.3-2.6a2,2,0,0,1,1.9,2.2v.4Zm2.6-.6a1.2,1.2,0,0,0-1.2-1.4,1.5,1.5,0,0,0-1.4,1.4Z" transform="translate(-112.2 -294)"/>
    <path class="cls-9" d="M405.5,405.1v-.6h-.1a1.5,1.5,0,0,1-1.4.7,1.4,1.4,0,0,1-1.5-1.4c0-1.1,1-1.8,2.9-1.8h0a1,1,0,0,0-1.1-1.1,2,2,0,0,0-1.3.4l-.2-.6a2.7,2.7,0,0,1,1.6-.4,1.7,1.7,0,0,1,1.9,1.9v3Zm-.1-2.5c-.9,0-2,.2-2,1.1s.3.9.8.9a1.4,1.4,0,0,0,1.2-.8v-1.2Z" transform="translate(-112.2 -294)"/>
    <path class="cls-9" d="M407.6,404.2a1.8,1.8,0,0,0,1.1.3c.7,0,1-.3,1-.7s-.3-.6-.9-.9-1.3-.7-1.3-1.3.6-1.4,1.7-1.4a1.8,1.8,0,0,1,1.1.3l-.2.6a2,2,0,0,0-1-.3.7.7,0,0,0-.8.7c0,.4.3.6.9.8s1.3.7,1.3,1.5-.6,1.4-1.8,1.4a3.2,3.2,0,0,1-1.4-.3Z" transform="translate(-112.2 -294)"/>
    <path class="cls-9" d="M412.1,402.8a1.6,1.6,0,0,0,1.7,1.7l1.3-.2.2.6a5,5,0,0,1-1.6.3,2.3,2.3,0,0,1-2.4-2.4,2.3,2.3,0,0,1,2.3-2.6,2,2,0,0,1,2,2.2,1,1,0,0,1-.1.4Zm2.6-.6a1.2,1.2,0,0,0-1.2-1.4,1.5,1.5,0,0,0-1.4,1.4Z" transform="translate(-112.2 -294)"/>
    <path class="cls-9" d="M417.7,398.9v1.4H419v.6h-1.3v2.6c0,.6.2,1,.7,1h.5v.7h-.8a1,1,0,0,1-.9-.4c-.3-.2-.3-.7-.3-1.2v-2.7h-.8v-.6h.8v-1.2Z" transform="translate(-112.2 -294)"/>
    <path class="cls-9" d="M420.4,402.8a1.5,1.5,0,0,0,1.6,1.7,4.1,4.1,0,0,0,1.4-.2v.6a4.5,4.5,0,0,1-1.6.3,2.2,2.2,0,0,1-2.3-2.4c0-1.5.8-2.6,2.2-2.6a2,2,0,0,1,2,2.2v.4Zm2.6-.6a1.3,1.3,0,0,0-1.2-1.4,1.5,1.5,0,0,0-1.4,1.4Z" transform="translate(-112.2 -294)"/>
    <path class="cls-9" d="M426,398.9v1.4h1.2v.6H426v2.6c0,.6.1,1,.6,1h.5v.7h-.8a1,1,0,0,1-.9-.4,1.5,1.5,0,0,1-.4-1.2v-2.7h-.7v-.6h.7v-1.2Z" transform="translate(-112.2 -294)"/>
    <path class="cls-9" d="M430.9,405.1v-.6h0a1.8,1.8,0,0,1-1.5.7,1.4,1.4,0,0,1-1.5-1.4c0-1.1,1.1-1.8,2.9-1.8h0c0-.4-.1-1.1-1-1.1a1.8,1.8,0,0,0-1.3.4l-.2-.6a2.7,2.7,0,0,1,1.6-.4c1.5,0,1.8,1,1.8,1.9v1.8a4.1,4.1,0,0,0,.1,1.2Zm-.1-2.5c-1,0-2.1.2-2.1,1.1a.8.8,0,0,0,.8.9,1.1,1.1,0,0,0,1.2-.8c0-.1.1-.2.1-.3Z" transform="translate(-112.2 -294)"/>
    <path class="cls-9" d="M435.7,405.1v-.6h0a1.8,1.8,0,0,1-1.5.7,1.4,1.4,0,0,1-1.4-1.4c0-1.1,1-1.8,2.9-1.8h0a1,1,0,0,0-1.1-1.1,2,2,0,0,0-1.3.4l-.2-.6a2.7,2.7,0,0,1,1.6-.4c1.5,0,1.8,1,1.8,1.9v1.8c0,.5.1.9.1,1.2Zm-.1-2.5c-1,0-2.1.2-2.1,1.1a.8.8,0,0,0,.9.9,1.1,1.1,0,0,0,1.1-.8.4.4,0,0,0,.1-.3Z" transform="translate(-112.2 -294)"/>
    <path class="cls-9" d="M437.9,401.6a5.3,5.3,0,0,0-.1-1.3h.8v.8h0a1.7,1.7,0,0,1,1.6-.9,1.8,1.8,0,0,1,1.7,2v2.9h-.9v-2.8c0-.8-.3-1.4-1.1-1.4a1.3,1.3,0,0,0-1.2.9c0,.1-.1.2-.1.4v2.9h-.8Z" transform="translate(-112.2 -294)"/>
    <path class="cls-9" d="M445.5,401.6v-1.3h.8v.8h0a1.8,1.8,0,0,1,1.6-.9c.7,0,1.7.4,1.7,2v2.9h-.8v-2.8c0-.8-.3-1.4-1.1-1.4a1.2,1.2,0,0,0-1.2.9c-.1.1-.1.2-.1.4v2.9h-.9Z" transform="translate(-112.2 -294)"/>
    <path class="cls-9" d="M451.6,402.8a1.5,1.5,0,0,0,1.6,1.7l1.4-.2v.6a4.5,4.5,0,0,1-1.6.3,2.3,2.3,0,0,1-2.4-2.4,2.3,2.3,0,0,1,2.3-2.6,2,2,0,0,1,2,2.2v.4Zm2.5-.6a1.2,1.2,0,0,0-1.2-1.4c-.9,0-1.2.8-1.3,1.4Z" transform="translate(-112.2 -294)"/>
    <path class="cls-9" d="M456.1,398h.9v7.1h-.9Z" transform="translate(-112.2 -294)"/>
    <path class="cls-9" d="M457.3,406.5a1,1,0,0,0,.9-.4c.3-.3.4-.6.4-1.8v-4h.8v4.3a2.7,2.7,0,0,1-.5,2,2.4,2.4,0,0,1-1.5.6Zm2.2-7.6c.1.3-.2.5-.5.5a.5.5,0,1,1,.5-.5Z" transform="translate(-112.2 -294)"/>
    <path class="cls-9" d="M463.6,405.1v-.6h0a1.8,1.8,0,0,1-1.5.7,1.4,1.4,0,0,1-1.5-1.4c0-1.1,1-1.8,2.9-1.8h0a1,1,0,0,0-1.1-1.1,1.7,1.7,0,0,0-1.2.4l-.2-.6a2.4,2.4,0,0,1,1.5-.4,1.7,1.7,0,0,1,1.9,1.9v1.8a4.1,4.1,0,0,0,.1,1.2Zm-2.5-6.2a.5.5,0,0,1,.5-.5.5.5,0,1,1-.5.5Zm2.3,3.7c-.9,0-2,.2-2,1.1a.8.8,0,0,0,.8.9,1.4,1.4,0,0,0,1.2-.8v-1.2Zm-.4-3.7a.5.5,0,1,1,.5.5A.5.5,0,0,1,463,398.9Z" transform="translate(-112.2 -294)"/>
    <path class="cls-9" d="M324.6,416.2a2.4,2.4,0,0,0,1.2.3c.6,0,.9-.3.9-.7s-.2-.6-.9-.9-1.2-.7-1.2-1.3a1.4,1.4,0,0,1,1.6-1.4,2.1,2.1,0,0,1,1.2.3l-.2.6a2,2,0,0,0-1-.3.7.7,0,0,0-.8.7c0,.4.3.6.9.8s1.3.7,1.3,1.5-.7,1.4-1.8,1.4a2.9,2.9,0,0,1-1.4-.3Z" transform="translate(-112.2 -294)"/>
    <path class="cls-9" d="M329,412.3l1.1,2.8.3,1h0l.3-1,1-2.8h.9l-1.3,3.4a6.5,6.5,0,0,1-1.7,3,1.8,1.8,0,0,1-1,.6l-.3-.7a1.4,1.4,0,0,0,.8-.5,2.4,2.4,0,0,0,.8-.9v-.5l-1.8-4.4Z" transform="translate(-112.2 -294)"/>
    <path class="cls-9" d="M333.4,410h.9v7.1h-.9Z" transform="translate(-112.2 -294)"/>
    <path class="cls-9" d="M336.8,410.9c0,.3-.2.5-.6.5a.5.5,0,1,1,0-1C336.6,410.4,336.8,410.6,336.8,410.9Zm-1,6.2v-4.8h.9v4.8Z" transform="translate(-112.2 -294)"/>
    <path class="cls-9" d="M338.1,413.6v-1.3h.8v.8h0a1.8,1.8,0,0,1,1.6-.9c.7,0,1.7.4,1.7,2v2.9h-.8v-2.8c0-.8-.3-1.4-1.2-1.4a1.2,1.2,0,0,0-1.1.9c-.1.1-.1.2-.1.4v2.9h-.9Z" transform="translate(-112.2 -294)"/>
    <path class="cls-9" d="M344.7,410.9v1.4H346v.6h-1.3v2.6c0,.6.2,1,.7,1h.5v.7h-.8a1,1,0,0,1-.9-.4,1.5,1.5,0,0,1-.4-1.2v-2.7h-.7v-.6h.7v-1.2Z" transform="translate(-112.2 -294)"/>
    <path class="cls-9" d="M347.4,414.8a1.5,1.5,0,0,0,1.6,1.7,4.6,4.6,0,0,0,1.4-.2v.6a4.5,4.5,0,0,1-1.6.3,2.3,2.3,0,0,1-2.4-2.4,2.3,2.3,0,0,1,2.3-2.6,2,2,0,0,1,2,2.2v.4Zm2.6-.6a1.3,1.3,0,0,0-1.3-1.4c-.9,0-1.2.8-1.3,1.4Z" transform="translate(-112.2 -294)"/>
    <path class="cls-9" d="M351.9,413.8v-1.5h.7v.9h0a1.4,1.4,0,0,1,1.3-1h.3v.8H354a1.3,1.3,0,0,0-1.2,1.1v3h-.9Z" transform="translate(-112.2 -294)"/>
    <path class="cls-9" d="M356.2,410.9c0,.3-.2.5-.6.5a.5.5,0,0,1,0-1C356,410.4,356.2,410.6,356.2,410.9Zm-1,6.2v-4.8h.9v4.8Z" transform="translate(-112.2 -294)"/>
    <path class="cls-9" d="M357.5,413.6v-1.3h.8v.7h0a1.9,1.9,0,0,1,1.6-.8,1.4,1.4,0,0,1,1.3.9h0l.6-.6a1.8,1.8,0,0,1,1.1-.3c.6,0,1.5.4,1.5,2.1v2.8h-.8v-2.7c0-1-.4-1.5-1.1-1.5a1,1,0,0,0-1,.8c0,.1-.1.3-.1.4v3h-.8v-2.9c0-.8-.4-1.3-1-1.3a1.1,1.1,0,0,0-1.1.9c-.1.1-.1.2-.1.4v2.9h-.9Z" transform="translate(-112.2 -294)"/>
    <path class="cls-9" d="M368.6,417.1v-.6h0a1.8,1.8,0,0,1-1.5.7,1.4,1.4,0,0,1-1.5-1.4c0-1.1,1-1.8,2.9-1.8h0a1,1,0,0,0-1.1-1.1,1.7,1.7,0,0,0-1.2.4l-.2-.6a2.4,2.4,0,0,1,1.5-.4,1.7,1.7,0,0,1,1.9,1.9v1.8a4.1,4.1,0,0,0,.1,1.2Zm-2.5-6.2a.5.5,0,0,1,.5-.5.5.5,0,1,1-.5.5Zm2.3,3.7c-.9,0-2,.2-2,1.1a.8.8,0,0,0,.8.9,1.4,1.4,0,0,0,1.2-.8v-1.2Zm-.4-3.7a.5.5,0,1,1,.5.5A.5.5,0,0,1,368,410.9Z" transform="translate(-112.2 -294)"/>
    <path class="cls-9" d="M371.7,410.9c0,.3-.2.5-.6.5a.5.5,0,0,1,0-1C371.5,410.4,371.7,410.6,371.7,410.9Zm-1,6.2v-4.8h.9v4.8Z" transform="translate(-112.2 -294)"/>
    <path class="cls-9" d="M372.9,416.2a2.1,2.1,0,0,0,1.2.3c.6,0,.9-.3.9-.7s-.2-.6-.9-.9-1.3-.7-1.3-1.3a1.5,1.5,0,0,1,1.7-1.4,2.1,2.1,0,0,1,1.2.3l-.2.6a2.4,2.4,0,0,0-1-.3.7.7,0,0,0-.8.7c0,.4.3.6.9.8s1.3.7,1.3,1.5-.7,1.4-1.8,1.4a2.6,2.6,0,0,1-1.4-.3Z" transform="translate(-112.2 -294)"/>
    <path class="cls-9" d="M378.1,410.9v1.4h1.2v.6h-1.2v2.6c0,.6.1,1,.6,1h.5v.7h-.8a1.3,1.3,0,0,1-1-.4,1.9,1.9,0,0,1-.3-1.2v-2.7h-.7v-.6h.7v-1.2Z" transform="translate(-112.2 -294)"/>
    <path class="cls-9" d="M383,417.1v-.6h0a1.8,1.8,0,0,1-1.5.7,1.4,1.4,0,0,1-1.5-1.4c0-1.1,1.1-1.8,2.9-1.8h0a1,1,0,0,0-1.1-1.1,1.7,1.7,0,0,0-1.2.4l-.2-.6a2.7,2.7,0,0,1,1.6-.4,1.7,1.7,0,0,1,1.8,1.9v1.8a4.1,4.1,0,0,0,.1,1.2Zm-2.4-6.2a.5.5,0,1,1,.5.5A.5.5,0,0,1,380.6,410.9Zm2.3,3.7c-1,0-2.1.2-2.1,1.1a.8.8,0,0,0,.8.9,1.1,1.1,0,0,0,1.2-.8c0-.1.1-.2.1-.3Zm-.5-3.7a.5.5,0,1,1,.5.5A.5.5,0,0,1,382.4,410.9Z" transform="translate(-112.2 -294)"/>
    <path class="cls-9" d="M388.1,414.5h0l.5-.6,1.4-1.6h1l-1.8,2,2.1,2.8h-1.1l-1.6-2.3-.5.5v1.8h-.8V410h.8Z" transform="translate(-112.2 -294)"/>
    <path class="cls-9" d="M394.8,417.1v-.6h0a1.8,1.8,0,0,1-1.5.7,1.4,1.4,0,0,1-1.5-1.4c0-1.1,1.1-1.8,3-1.8h0a1,1,0,0,0-1.1-1.1,1.8,1.8,0,0,0-1.3.4l-.2-.6a2.7,2.7,0,0,1,1.6-.4c1.5,0,1.8,1,1.8,1.9v1.8a4.1,4.1,0,0,0,.1,1.2Zm-.1-2.5c-1,0-2.1.2-2.1,1.1a.8.8,0,0,0,.9.9,1.1,1.1,0,0,0,1.1-.8.4.4,0,0,0,.1-.3Z" transform="translate(-112.2 -294)"/>
    <path class="cls-9" d="M396.9,413.8v-1.5h.8v.8h.1a1.8,1.8,0,0,1,1.7-.9,2.1,2.1,0,0,1,2,2.4c0,1.8-1,2.6-2.2,2.6a2,2,0,0,1-1.5-.7h0v2.6h-.9Zm.9,1.3c0,.2,0,.3.1.4a1.2,1.2,0,0,0,1.3,1c.9,0,1.4-.7,1.4-1.8s-.5-1.8-1.4-1.8a1.3,1.3,0,0,0-1.3,1,.8.8,0,0,0-.1.4Z" transform="translate(-112.2 -294)"/>
    <path class="cls-9" d="M402.6,413.8v-1.5h.8v.8h0a2,2,0,0,1,1.8-.9,2.1,2.1,0,0,1,2,2.4c0,1.8-1,2.6-2.2,2.6a2,2,0,0,1-1.5-.7h0v2.6h-.9Zm.9,1.3v.4a1.4,1.4,0,0,0,1.4,1c.9,0,1.4-.7,1.4-1.8s-.5-1.8-1.4-1.8a1.3,1.3,0,0,0-1.3,1,.8.8,0,0,0-.1.4Z" transform="translate(-112.2 -294)"/>
    <path class="cls-9" d="M411,417.1v-.6h0a1.8,1.8,0,0,1-1.5.7,1.4,1.4,0,0,1-1.5-1.4c0-1.1,1.1-1.8,2.9-1.8h0c0-.4-.1-1.1-1-1.1a1.8,1.8,0,0,0-1.3.4l-.2-.6a2.7,2.7,0,0,1,1.6-.4c1.5,0,1.8,1,1.8,1.9v1.8a4.1,4.1,0,0,0,.1,1.2Zm-.1-2.5c-1,0-2.1.2-2.1,1.1a.8.8,0,0,0,.9.9,1.1,1.1,0,0,0,1.1-.8c0-.1.1-.2.1-.3Z" transform="translate(-112.2 -294)"/>
    <path class="cls-9" d="M413.1,410h.9v7.1h-.9Z" transform="translate(-112.2 -294)"/>
    <path class="cls-9" d="M416,414.8a1.6,1.6,0,0,0,1.7,1.7l1.3-.2v.6a4.5,4.5,0,0,1-1.6.3,2.2,2.2,0,0,1-2.3-2.4c0-1.5.8-2.6,2.2-2.6a2,2,0,0,1,2,2.2v.4Zm2.6-.6a1.3,1.3,0,0,0-1.2-1.4,1.5,1.5,0,0,0-1.4,1.4Z" transform="translate(-112.2 -294)"/>
    <path class="cls-9" d="M421.6,410.9v1.4h1.2v.6h-1.2v2.6c0,.6.1,1,.6,1h.5v.7H422a1,1,0,0,1-.9-.4,1.5,1.5,0,0,1-.4-1.2v-2.7H420v-.6h.7v-1.2Z" transform="translate(-112.2 -294)"/>
    <path class="cls-9" d="M424.9,410.9v1.4h1.2v.6h-1.2v2.6c0,.6.2,1,.6,1h.5v.7h-.8a1,1,0,0,1-.9-.4,1.5,1.5,0,0,1-.4-1.2v-2.7h-.7v-.6h.7v-1.2Z" transform="translate(-112.2 -294)"/>
    <path class="cls-9" d="M429.8,417.1v-.6h0a1.8,1.8,0,0,1-1.5.7,1.4,1.4,0,0,1-1.4-1.4c0-1.1,1-1.8,2.9-1.8h0a1,1,0,0,0-1.1-1.1,1.8,1.8,0,0,0-1.3.4l-.2-.6a2.7,2.7,0,0,1,1.6-.4c1.5,0,1.8,1,1.8,1.9v1.8a4.1,4.1,0,0,0,.1,1.2Zm-.1-2.5c-1,0-2.1.2-2.1,1.1a.8.8,0,0,0,.9.9,1.1,1.1,0,0,0,1.1-.8.4.4,0,0,0,.1-.3Z" transform="translate(-112.2 -294)"/>
  </g>
</svg>
