<svg xmlns="http://www.w3.org/2000/svg" viewBox="0 0 444 212.3">
  <defs>
    <style>
      .cls-1, .cls-10, .cls-2, .cls-3, .cls-4, .cls-5, .cls-6, .cls-7, .cls-9 {
        fill: none;
        stroke-miterlimit: 10;
      }

      .cls-1, .cls-6, .cls-7 {
        stroke: #1d1d1b;
      }

      .cls-2, .cls-3, .cls-4, .cls-5 {
        stroke: #be1622;
      }

      .cls-2, .cls-3, .cls-4, .cls-7 {
        stroke-width: 0.25px;
      }

      .cls-3 {
        stroke-dasharray: 2.01 2.01;
      }

      .cls-4 {
        stroke-dasharray: 2.02 2.02;
      }

      .cls-5, .cls-6 {
        stroke-width: 0.5px;
      }

      .cls-8 {
        fill: #1d1d1b;
      }

      .cls-9 {
        stroke: #706f6f;
        stroke-width: 0.75px;
        stroke-dasharray: 4;
      }

      .cls-10 {
        stroke: #e30613;
      }

      .cls-11 {
        fill: #e30613;
      }
    </style>
  </defs>
  <g id="Layer_1" data-name="Layer 1">
    <line class="cls-1" x1="0.4" y1="0.5" x2="36.4" y2="54.5"/>
    <line class="cls-1" x1="207.2" y1="0.5" x2="0.4" y2="0.5"/>
    <line class="cls-1" x1="36.4" y1="54.5" x2="90.4" y2="54.5"/>
    <line class="cls-1" x1="207.2" y1="0.5" x2="171.4" y2="54.5"/>
    <line class="cls-1" x1="90.4" y1="27.5" x2="90.4" y2="180.5"/>
    <path class="cls-1" d="M189.4,99.4c0-4.9-6.1-9-13.5-9s-13.5,4.1-13.5,9" transform="translate(-72 -71.9)"/>
    <line class="cls-1" x1="117.4" y1="27.5" x2="117.4" y2="180.5"/>
    <line class="cls-1" x1="117.4" y1="54.5" x2="171.4" y2="54.5"/>
    <g>
      <line class="cls-2" x1="99.4" y1="18.5" x2="99.4" y2="19.5"/>
      <line class="cls-3" x1="99.4" y1="21.5" x2="99.4" y2="169.5"/>
      <line class="cls-2" x1="99.4" y1="170.5" x2="99.4" y2="171.5"/>
    </g>
    <g>
      <line class="cls-2" x1="108.4" y1="171.5" x2="108.4" y2="170.5"/>
      <line class="cls-4" x1="108.2" y1="168.5" x2="99.5" y2="20.5"/>
      <line class="cls-2" x1="99.5" y1="19.5" x2="99.4" y2="18.5"/>
    </g>
    <ellipse class="cls-1" cx="103.7" cy="180.5" rx="13.5" ry="9"/>
    <line class="cls-5" x1="99.4" y1="171.5" x2="103.7" y2="180.5"/>
    <line class="cls-5" x1="108.4" y1="171.5" x2="103.7" y2="180.5"/>
    <path class="cls-6" d="M173.5,247.9c1.8-1.2,3.3-1.1,4.5,0" transform="translate(-72 -71.9)"/>
    <line class="cls-7" x1="42.1" y1="200.6" x2="99.4" y2="176"/>
    <g>
      <path class="cls-8" d="M82.3,273.6v2.7H82a3.5,3.5,0,0,0-.3-1.2,2,2,0,0,0-.8-.8,2,2,0,0,0-1.1-.3,1.8,1.8,0,0,0-1,.4,1.5,1.5,0,0,0-.4.9.9.9,0,0,0,.3.6,5.7,5.7,0,0,0,1.7,1.2l1.5.9a2.7,2.7,0,0,1,.7.8,2,2,0,0,1,.2.9,1.8,1.8,0,0,1-.7,1.5,2.4,2.4,0,0,1-1.8.7h-.7l-.7-.2-.7-.2h-.3c0,.1-.1.2-.1.4h-.2v-2.7h.2a3.4,3.4,0,0,0,.4,1.2,1.9,1.9,0,0,0,.8.7,2.4,2.4,0,0,0,1.2.3,1.4,1.4,0,0,0,1.1-.4,1,1,0,0,0,.4-.9,1.3,1.3,0,0,0-.1-.6l-.5-.5-1.3-.8-1.4-.9a4.6,4.6,0,0,1-.7-.7,2.9,2.9,0,0,1-.2-.9,1.8,1.8,0,0,1,.7-1.5,2.3,2.3,0,0,1,1.6-.6,3.5,3.5,0,0,1,1.4.3h.7c.1,0,.1-.1.1-.3Z" transform="translate(-72 -71.9)"/>
      <path class="cls-8" d="M86.9,280.9l-1.1.8h-.7a1.2,1.2,0,0,1-.9-.4,1.5,1.5,0,0,1-.3-1,1.7,1.7,0,0,1,.1-.7,3.5,3.5,0,0,1,.9-.7l2-.9v-.2a1.6,1.6,0,0,0-.3-1.1.9.9,0,0,0-.7-.3.8.8,0,0,0-.6.2c-.2.2-.3.3-.3.5v.3a.5.5,0,0,1-.2.4l-.3.2a.5.5,0,0,1-.4-.2c-.1-.1-.1-.2-.1-.4a1.1,1.1,0,0,1,.5-.9,2,2,0,0,1,1.4-.4,2.2,2.2,0,0,1,1.2.2,1,1,0,0,1,.5.6,2.2,2.2,0,0,1,.1,1v2.8a.3.3,0,0,1,.1.2h.4l.4-.4v.3q-.6.9-1.2.9l-.5-.2C86.9,281.5,86.9,281.2,86.9,280.9Zm-1.8-7h.4a.6.6,0,0,1,.2.5c0,.2,0,.3-.2.4s-.2.2-.4.2a.6.6,0,0,1-.5-.2.5.5,0,0,1-.2-.4c0-.2.1-.3.2-.5Zm1.8,6.6v-2l-1.2.5-.7.5a1.4,1.4,0,0,0-.2.6.8.8,0,0,0,.3.7.9.9,0,0,0,.6.3A2.2,2.2,0,0,0,86.9,280.5Zm.2-6.6h.5c.1.2.2.3.2.5a.5.5,0,0,1-.2.4c-.1.2-.3.2-.5.2a.4.4,0,0,1-.4-.2.5.5,0,0,1-.2-.4c0-.2.1-.3.2-.5Z" transform="translate(-72 -71.9)"/>
      <path class="cls-8" d="M92.9,281.1a1.9,1.9,0,0,1-.7.6l-.8.2a2.3,2.3,0,0,1-1.6-.8,2.9,2.9,0,0,1-.6-1.9,3.5,3.5,0,0,1,.7-2.1,2.3,2.3,0,0,1,1.9-.9,1.5,1.5,0,0,1,1.1.4v-2.1c0-.1-.1-.2-.2-.3h-.6V274l1.6-.6h.3v7.3c.1.2.1.3.2.3s.1.1.2.1h.4v.2l-1.6.7h-.3Zm0-.4v-2.8a1.4,1.4,0,0,0-.2-.7l-.5-.5-.5-.2a1.1,1.1,0,0,0-.9.5,2.4,2.4,0,0,0-.6,1.8,3,3,0,0,0,.5,1.8,1.7,1.7,0,0,0,1.2.6A1.4,1.4,0,0,0,92.9,280.7Z" transform="translate(-72 -71.9)"/>
      <path class="cls-8" d="M96,278.3a2.7,2.7,0,0,0,.6,1.9,1.7,1.7,0,0,0,1.4.7,1.4,1.4,0,0,0,.9-.3,2,2,0,0,0,.7-1h.1a2.4,2.4,0,0,1-2.2,2.2,2.3,2.3,0,0,1-1.6-.8,2.7,2.7,0,0,1-.7-2,3.1,3.1,0,0,1,.7-2.2,2.4,2.4,0,0,1,1.8-.7,2,2,0,0,1,1.5.6,2,2,0,0,1,.5,1.5Zm0-.3h2.5c0-.3,0-.6-.1-.7a1,1,0,0,0-.4-.5.7.7,0,0,0-.6-.2,1,1,0,0,0-.9.4A1.6,1.6,0,0,0,96,278Z" transform="translate(-72 -71.9)"/>
      <path class="cls-8" d="M108.1,281.7l-1.3-3.9h-.9l-.7,2.4a2.8,2.8,0,0,0-.1.8c0,.2,0,.3.1.4l.7.2v.2h-3.1v-.2h.6l.3-.3a3.4,3.4,0,0,0,.4-1l1.4-4.8a2,2,0,0,0,.1-.7.6.6,0,0,0-.2-.5h-.6v-.3h2.5a3.1,3.1,0,0,1,1.9.5,1.8,1.8,0,0,1,.6,1.3,2,2,0,0,1-.6,1.4,2.3,2.3,0,0,1-1.6.8l.8,2.4a3.8,3.8,0,0,0,.5,1.1,1.2,1.2,0,0,0,.9.3v.2Zm-2.1-4.3h.7a1.9,1.9,0,0,0,1.5-.6,1.8,1.8,0,0,0,.6-1.4,1.5,1.5,0,0,0-.3-1,1.8,1.8,0,0,0-1.1-.3h-.5Z" transform="translate(-72 -71.9)"/>
    </g>
    <line class="cls-7" x1="103.7" y1="176" x2="144.4" y2="199"/>
    <g>
      <path class="cls-8" d="M200.8,276.3h2.6v.2h-.2c-.2,0-.3.1-.3.2s-.2.1-.2.3a.8.8,0,0,0,.2.4l1.2,3,1.3-3.1a4.3,4.3,0,0,1,.1-.5.1.1,0,0,0-.1-.1h-.5v-.2h1.7v.2l-.4.2a1.5,1.5,0,0,0-.4.6l-1.9,4.6h-.2l-1.9-4.6-.3-.4q0-.1-.3-.3h-.4Z" transform="translate(-72 -71.9)"/>
      <path class="cls-8" d="M210.2,280.9l-1.1.8h-.7a1.2,1.2,0,0,1-.9-.4,1.5,1.5,0,0,1-.3-1,1.7,1.7,0,0,1,.1-.7,3.5,3.5,0,0,1,.9-.7l2-.9v-.2a1.6,1.6,0,0,0-.3-1.1.9.9,0,0,0-.7-.3l-.6.2a.6.6,0,0,0-.2.5v.3a.5.5,0,0,1-.2.4l-.3.2a.5.5,0,0,1-.4-.2c-.1-.1-.1-.2-.1-.4a1.1,1.1,0,0,1,.5-.9,2,2,0,0,1,1.4-.4,2.2,2.2,0,0,1,1.2.2,1,1,0,0,1,.5.6,2.2,2.2,0,0,1,.1,1v1.8a2.2,2.2,0,0,0,.1,1v.2h.4l.4-.4v.3q-.6.9-1.2.9l-.5-.2C210.2,281.5,210.2,281.2,210.2,280.9Zm-1.8-7h.4a.6.6,0,0,1,.2.5c0,.2,0,.3-.2.4s-.2.2-.4.2a.6.6,0,0,1-.5-.2c-.1-.1-.1-.2-.1-.4a.9.9,0,0,1,.1-.5Zm1.8,6.6v-2l-1.2.5c-.3.2-.5.3-.6.5a.7.7,0,0,0-.2.6c0,.3,0,.6.2.7a.9.9,0,0,0,.6.3A2.2,2.2,0,0,0,210.2,280.5Zm.3-6.6h.4c.1.2.2.3.2.5a.5.5,0,0,1-.2.4.4.4,0,0,1-.4.2c-.2,0-.4,0-.5-.2a.5.5,0,0,1-.2-.4c0-.2.1-.3.2-.5Z" transform="translate(-72 -71.9)"/>
      <path class="cls-8" d="M215.5,280.9l-1.1.8h-.6a1,1,0,0,1-.9-.4,1.2,1.2,0,0,1-.4-1,1.9,1.9,0,0,1,.2-.7,1.9,1.9,0,0,1,.8-.7l2-.9v-.2a1.6,1.6,0,0,0-.3-1.1.8.8,0,0,0-.7-.3.8.8,0,0,0-.6.2c-.1.2-.2.3-.2.5v.3c0,.2-.1.3-.1.4l-.4.2a.5.5,0,0,1-.4-.2c-.1-.1-.1-.2-.1-.4a1.4,1.4,0,0,1,.5-.9,2.2,2.2,0,0,1,1.5-.4,2,2,0,0,1,1.1.2c.3.1.4.3.5.6a2.2,2.2,0,0,1,.1,1v1.8a7.7,7.7,0,0,0,.1,1c0,.1,0,.2.1.2h.3l.5-.4v.3c-.5.6-.9.9-1.3.9l-.4-.2C215.5,281.5,215.5,281.2,215.5,280.9Zm-1.8-7h.5c.1.2.2.3.2.5a.5.5,0,0,1-.2.4.6.6,0,0,1-.5.2c-.2,0-.3,0-.4-.2s-.2-.2-.2-.4a.6.6,0,0,1,.2-.5Zm1.8,6.6v-2l-1.2.5c-.3.2-.5.3-.6.5a.7.7,0,0,0-.2.6,1.2,1.2,0,0,0,.2.7.9.9,0,0,0,.6.3A2.2,2.2,0,0,0,215.5,280.5Zm.3-6.6h.4a.6.6,0,0,1,.2.5c0,.2,0,.3-.2.4s-.2.2-.4.2a.6.6,0,0,1-.5-.2.5.5,0,0,1-.2-.4c0-.2.1-.3.2-.5Z" transform="translate(-72 -71.9)"/>
      <path class="cls-8" d="M219.3,277.3a2.6,2.6,0,0,1,1.8-1.1,1.1,1.1,0,0,1,.8.2,1.3,1.3,0,0,1,.5.7,3.1,3.1,0,0,1,.1,1.1v2.3c0,.3,0,.6.1.7s.1.1.2.2h.5v.2h-2.6v-.2h.6a.5.5,0,0,0,.2-.4,1.2,1.2,0,0,0,.1-.5v-2.2a2.7,2.7,0,0,0-.2-1.1.9.9,0,0,0-.7-.3,1.9,1.9,0,0,0-1.4.8v2.8a5.6,5.6,0,0,0,.1.7.2.2,0,0,0,.2.2h.6v.2h-2.7v-.2h.2l.5-.2a1.5,1.5,0,0,0,.2-.8v-2a10.5,10.5,0,0,0-.1-1.2c0-.1-.1-.2-.1-.3h-.7v-.2l1.6-.6h.2Z" transform="translate(-72 -71.9)"/>
      <path class="cls-8" d="M225.3,274.6v1.7h1.3v.4h-1.3v3.5a1,1,0,0,0,.2.7.5.5,0,0,0,.4.2h.3c.2-.1.2-.2.3-.4h.2a1.9,1.9,0,0,1-.5.9,1.3,1.3,0,0,1-.8.3l-.5-.2a.8.8,0,0,1-.4-.4,2.2,2.2,0,0,1-.1-.9v-3.6h-.9v-.2c.2,0,.4-.2.7-.4l.6-.7a3.4,3.4,0,0,0,.3-.8Z" transform="translate(-72 -71.9)"/>
      <path class="cls-8" d="M229.7,276.2a2.5,2.5,0,0,1,2,.9,2.8,2.8,0,0,1,.6,1.8,4,4,0,0,1-.3,1.5,3.6,3.6,0,0,1-1,1.1,2.8,2.8,0,0,1-1.3.4,2.6,2.6,0,0,1-2-1,3.2,3.2,0,0,1-.6-1.8,4.2,4.2,0,0,1,.4-1.5,2.2,2.2,0,0,1,1-1.1A2.7,2.7,0,0,1,229.7,276.2Zm-1-2.3c.2,0,.3,0,.4.2s.2.2.2.4a.6.6,0,0,1-.2.5h-.9c-.1-.2-.2-.3-.2-.5a.5.5,0,0,1,.2-.4A.6.6,0,0,1,228.7,273.9Zm.8,2.6-.6.2a1.8,1.8,0,0,0-.5.7,3.7,3.7,0,0,0-.2,1.2,4.2,4.2,0,0,0,.5,2,1.2,1.2,0,0,0,1.2.8,1.3,1.3,0,0,0,1-.4,3.2,3.2,0,0,0,.3-1.6,3.9,3.9,0,0,0-.6-2.3A1.3,1.3,0,0,0,229.5,276.5Zm1.3-2.6a.4.4,0,0,1,.4.2.5.5,0,0,1,.2.4c0,.2-.1.3-.2.5h-.9c-.1-.2-.2-.3-.2-.5a.5.5,0,0,1,.2-.4C230.4,273.9,230.6,273.9,230.8,273.9Z" transform="translate(-72 -71.9)"/>
      <path class="cls-8" d="M234.7,273.4v5.3l1.4-1.2c.2-.3.4-.5.5-.5v-.2c0-.1,0-.1-.1-.2h-.3v-.2h2.3v.2l-.8.2-.7.4-1.4,1.3,1.4,1.8.8.9c.2.1.3.3.5.3h.5v.2h-2.6v-.2h.3a.3.3,0,0,0,.1-.2l-.3-.4-1.6-2.1v1.8c0,.3,0,.6.1.7a.2.2,0,0,0,.2.2h.6v.2h-2.8v-.2h.6c.1-.1.2-.1.2-.2s.1-.4.1-.7v-6l-.2-.3h-.6V274l1.6-.6Z" transform="translate(-72 -71.9)"/>
      <path class="cls-8" d="M243.8,276.3v4.4c.1.2.1.3.2.3h.6v.2l-1.6.7h-.3v-1.2l-1,1-.8.2a1.3,1.3,0,0,1-.8-.3,1.6,1.6,0,0,1-.4-.7,2.7,2.7,0,0,1-.2-1.1v-3l-.3-.2h-.6v-.2h1.9v3.6a1.3,1.3,0,0,0,.3,1,.7.7,0,0,0,.6.2h.6l.7-.6v-3.1c0-.3,0-.5-.1-.6l-.7-.2v-.2Z" transform="translate(-72 -71.9)"/>
      <path class="cls-8" d="M246.9,273.4v7.1a3.5,3.5,0,0,0,.1.6l.2.3h.6v.2h-2.6v-.2h.5c.1,0,.1-.1.2-.2s.1-.4.1-.7v-4.9a2.5,2.5,0,0,0-.1-1.1.4.4,0,0,0-.1-.3h-.6V274l1.6-.6Z" transform="translate(-72 -71.9)"/>
      <path class="cls-8" d="M250,277.3l.7-.7.6-.3h.6a1.6,1.6,0,0,1,.9.3,1,1,0,0,1,.4.8,2.7,2.7,0,0,1,1.1-.9,1.7,1.7,0,0,1,1.6,0,1.3,1.3,0,0,1,.5.7,3.1,3.1,0,0,1,.1,1.1v2.3c0,.3.1.5.1.7s.1.1.2.2h.5v.2h-2.6v-.2h.1l.5-.2c.1,0,.2-.1.2-.3s.1-.2.1-.5v-2.3a2.2,2.2,0,0,0-.2-1,.9.9,0,0,0-.7-.3H254l-.7.6h0v3.5l.3.2h.6v.2h-2.8v-.2h.7l.2-.3v-2.9c0-.5,0-.8-.2-1a.8.8,0,0,0-.7-.3h-.6l-.8.6v2.9a5.6,5.6,0,0,0,.1.7.2.2,0,0,0,.2.2h.6v.2h-2.7v-.2h.6c.1,0,.1-.1.2-.2s.1-.4.1-.7v-2.1a10.4,10.4,0,0,0-.1-1.1c0-.1-.1-.2-.1-.3h-.7v-.2l1.6-.6h.2Z" transform="translate(-72 -71.9)"/>
      <path class="cls-8" d="M260.8,280.9l-1,.8h-.7a1,1,0,0,1-.9-.4,1.2,1.2,0,0,1-.4-1,1.9,1.9,0,0,1,.2-.7,2.9,2.9,0,0,1,.8-.7l2-.9v-.2a2.7,2.7,0,0,0-.2-1.1,1.1,1.1,0,0,0-.8-.3l-.6.2c-.1.2-.2.3-.2.5v.3c0,.2,0,.3-.1.4a.5.5,0,0,1-.4.2l-.3-.2a.5.5,0,0,1-.2-.4,1.4,1.4,0,0,1,.5-.9,2.4,2.4,0,0,1,1.5-.4,2.2,2.2,0,0,1,1.2.2,1,1,0,0,1,.5.6,7.7,7.7,0,0,1,.1,1v3h.3l.5-.4v.3a1.7,1.7,0,0,1-1.3.9l-.4-.2A1.2,1.2,0,0,1,260.8,280.9Zm0-.4v-2l-1.1.5c-.3.2-.6.3-.7.5a1.4,1.4,0,0,0-.2.6.8.8,0,0,0,.3.7.5.5,0,0,0,.5.3A2.2,2.2,0,0,0,260.8,280.5Z" transform="translate(-72 -71.9)"/>
      <path class="cls-8" d="M267.8,284.3h-.6l.7-2.5a1.5,1.5,0,0,1-1.3-.5,2,2,0,0,1-.4-1.4,3.5,3.5,0,0,1,.8-2.4,2.5,2.5,0,0,1,2.1-1.1v.2a2.2,2.2,0,0,0-1.4,1.3,6.3,6.3,0,0,0-.5,2.2c0,.9.3,1.4.9,1.4l.8-2.6c.2-.7.4-1.2.5-1.5l.6-.8.8-.2a.9.9,0,0,1,.9.5,2.1,2.1,0,0,1,.3,1.2,4.1,4.1,0,0,1-.9,2.6,3.1,3.1,0,0,1-2.5,1.1Zm.8-2.8a1.9,1.9,0,0,0,1.8-1.2,4.1,4.1,0,0,0,.7-2.3c0-.7-.2-1-.6-1s-.3.1-.5.3a6.3,6.3,0,0,0-.6,1.7Z" transform="translate(-72 -71.9)"/>
    </g>
    <path class="cls-8" d="M203.9,227.3h-.2a2,2,0,0,1,.4-.8l.6-.5h3.4l-.3.8h-1.4l-.8,2.2a5.8,5.8,0,0,0-.2,1,.5.5,0,0,0,.6.6c.3,0,.5-.3.7-.8h.3q-.5,1.5-1.5,1.5a.7.7,0,0,1-.6-.3c-.2-.1-.3-.4-.3-.8a5.4,5.4,0,0,1,.4-1.7l.6-1.7h-1.1C204.3,226.8,204.1,227,203.9,227.3Z" transform="translate(-72 -71.9)"/>
    <g>
      <path class="cls-8" d="M140.4,79h3.1v.9h-3.1Z" transform="translate(-72 -71.9)"/>
      <path class="cls-8" d="M144.4,78.5h-.2a2.6,2.6,0,0,1,.5-.9,1,1,0,0,1,.6-.5h3.3l-.2.8h-1.5l-.7,2.2a5.8,5.8,0,0,0-.2,1c0,.4.2.6.5.6s.6-.3.8-.8h.2c-.3,1-.8,1.5-1.4,1.5a.9.9,0,0,1-.7-.3c-.2-.1-.3-.4-.3-.8a6.8,6.8,0,0,1,.5-1.7l.6-1.7h-1.1C144.8,77.9,144.6,78.1,144.4,78.5Z" transform="translate(-72 -71.9)"/>
    </g>
    <path class="cls-6" d="M171.3,126c.9.8,1.6.7,2.2,0" transform="translate(-72 -71.9)"/>
    <line class="cls-7" x1="101.6" y1="54.1" x2="147.5" y2="73.6"/>
    <g>
      <path class="cls-8" d="M226.3,145.5a1.1,1.1,0,0,0,.1-.5.4.4,0,0,0-.1-.3l-.6-.2v-.2h3v.2l-.8.2a1.2,1.2,0,0,0-.5.8,2.2,2.2,0,0,1,1.7.6,1.3,1.3,0,0,1,.5,1.2,2.5,2.5,0,0,1-.8,1.8,4.7,4.7,0,0,1-2.6.7,1.1,1.1,0,0,0-.1.5.6.6,0,0,0,.1.4h.7v.2h-3v-.2l.8-.2a1.2,1.2,0,0,0,.5-.8,2.1,2.1,0,0,1-1.7-.6,1.4,1.4,0,0,1-.6-1.2,2.2,2.2,0,0,1,.9-1.7A3.8,3.8,0,0,1,226.3,145.5Zm-.1.3a2.4,2.4,0,0,0-1.8.7,2.6,2.6,0,0,0-.7,1.7,1.2,1.2,0,0,0,1.4,1.3Zm-.1,3.7a2.1,2.1,0,0,0,1.8-.7,2.2,2.2,0,0,0,.7-1.7c0-.8-.4-1.3-1.4-1.3Z" transform="translate(-72 -71.9)"/>
      <path class="cls-8" d="M234,144v6a.7.7,0,0,0,.1.5.2.2,0,0,0,.2.2h.5v.2h-2.2v-.2h.4l.2-.2V145c0-.2-.1-.2-.1-.3h-.6l1.3-.6Z" transform="translate(-72 -71.9)"/>
      <path class="cls-8" d="M236.8,146.4V150a.7.7,0,0,0,.1.5l.2.2c0,.1.2.1.4.1v.2h-2.2v-.2h.5v-.2a.7.7,0,0,0,.1-.5v-2.7l-.2-.2h-.5v-.2l1.4-.5Zm-.4-2.4.4.2a.4.4,0,0,1,.1.3c0,.2,0,.3-.1.4h-.7a.5.5,0,0,1-.2-.4l.2-.3Z" transform="translate(-72 -71.9)"/>
      <path class="cls-8" d="M242,146.5v3.7a.3.3,0,0,0,.1.2h.6v.2l-1.3.5h-.2v-.9l-.9.7a.8.8,0,0,1-.7.2l-.6-.2a1.3,1.3,0,0,1-.4-.6,2.2,2.2,0,0,1-.1-.9v-2a.7.7,0,0,0-.1-.5l-.2-.2h-.5v-.2h1.6v3a1.3,1.3,0,0,0,.2.8l.6.2h.4l.7-.5v-2.6a.8.8,0,0,0-.2-.5h-.6v-.2Z" transform="translate(-72 -71.9)"/>
      <path class="cls-8" d="M244.4,144v4.5l1.1-1.1.4-.4h.1c0-.1-.1-.1-.1-.2h-.3v-.2h2v.2h-.7c-.2,0-.4.2-.6.4l-1.1,1,1.1,1.5a2.2,2.2,0,0,0,.7.7.5.5,0,0,0,.4.3c0,.1.2.1.4.1v.2h-2.2v-.2h.3c0-.1,0-.2-.2-.4l-1.3-1.7v2l.2.2h.5v.2h-2.3v-.2h.5l.2-.2a4.3,4.3,0,0,0,.1-.5v-4.1a5.5,5.5,0,0,0-.1-.9c0-.2,0-.2-.1-.3h-.6l1.3-.6Z" transform="translate(-72 -71.9)"/>
      <path class="cls-8" d="M252,146.5v3.7a.3.3,0,0,0,.1.2h.6v.2l-1.3.5h-.2v-.9l-.9.7a.8.8,0,0,1-.7.2l-.6-.2a1.3,1.3,0,0,1-.4-.6,2.2,2.2,0,0,1-.1-.9v-2a.7.7,0,0,0-.1-.5l-.2-.2h-.5v-.2h1.6v3a1.3,1.3,0,0,0,.2.8l.6.2h.4l.7-.5v-2.6a.8.8,0,0,0-.2-.5h-.6v-.2Z" transform="translate(-72 -71.9)"/>
      <path class="cls-8" d="M254.4,144v4.5l1.1-1.1.4-.4h.1c0-.1-.1-.1-.1-.2h-.3v-.2h2v.2h-.7c-.2,0-.4.2-.6.4l-1.1,1,1.1,1.5.7.7a.5.5,0,0,0,.4.3c0,.1.2.1.4.1v.2h-2.2v-.2h.3c0-.1,0-.2-.2-.4l-1.3-1.7v2l.2.2h.5v.2h-2.3v-.2h.5l.2-.2a4.3,4.3,0,0,0,.1-.5v-4.1a5.5,5.5,0,0,0-.1-.9c0-.2,0-.2-.1-.3h-.6l1.3-.6Z" transform="translate(-72 -71.9)"/>
      <path class="cls-8" d="M262,146.5v3.7a.3.3,0,0,0,.1.2h.6v.2l-1.3.5h-.2v-.9l-.9.7a.8.8,0,0,1-.7.2l-.6-.2a1.3,1.3,0,0,1-.4-.6,2.2,2.2,0,0,1-.1-.9v-2a.7.7,0,0,0-.1-.5l-.2-.2h-.5v-.2h1.6v3a1.3,1.3,0,0,0,.2.8l.6.2h.4l.7-.5v-2.6a.8.8,0,0,0-.2-.5h-.6v-.2Z" transform="translate(-72 -71.9)"/>
      <path class="cls-8" d="M264.6,144v6.5c.1.1.1.2.2.2h.5v.2h-2.2v-.2c.2,0,.4,0,.4-.1a.2.2,0,0,0,.2-.2.7.7,0,0,0,.1-.5v-4.1c0-.5,0-.8-.1-.9s0-.2-.1-.3H263l1.4-.6Z" transform="translate(-72 -71.9)"/>
      <path class="cls-8" d="M267.2,147.3l.5-.5c.2-.2.3-.3.5-.3h.5a.8.8,0,0,1,.7.2,1,1,0,0,1,.4.7l.9-.8H272l.5.6c0,.2.1.5.1.9v2.5c.1.1.1.2.2.2h.4v.2H271v-.2h.6a.4.4,0,0,0,.1-.3c.1,0,.1-.2.1-.4v-2a1.2,1.2,0,0,0-.2-.7.7.7,0,0,0-.6-.4l-.5.2a1.3,1.3,0,0,0-.6.5h0v2.9l.2.2h.5v.2h-2.3v-.2c.3,0,.5,0,.5-.1s.2-.1.2-.3.1-.2.1-.4v-2a1.9,1.9,0,0,0-.2-.8.6.6,0,0,0-.6-.3l-.5.2a1,1,0,0,0-.6.5v2.9l.2.2h.5v.2h-2.2v-.2h.4l.2-.2v-3.2a.3.3,0,0,0-.1-.2h-.5v-.2l1.3-.5h.3Z" transform="translate(-72 -71.9)"/>
      <path class="cls-8" d="M276.1,150.3l-.8.6-.6.2a.9.9,0,0,1-.8-.4,1,1,0,0,1-.3-.8,1.4,1.4,0,0,1,.2-.6,2.2,2.2,0,0,1,.7-.6l1.6-.7v-.2c0-.4,0-.7-.2-.9s-.3-.2-.6-.2h-.5a.8.8,0,0,0-.2.4v.3c0,.1,0,.3-.1.3s-.1.2-.3.2l-.3-.2c0-.1-.1-.2-.1-.3a1.2,1.2,0,0,1,.4-.8,2.3,2.3,0,0,1,1.3-.3c.4,0,.7,0,.9.2a1,1,0,0,1,.5.4v2.4a5.4,5.4,0,0,0,.1.8v.2h.3l.4-.4v.3c-.4.5-.7.8-1,.8l-.4-.2A.8.8,0,0,1,276.1,150.3Zm0-.3v-1.7l-.9.4c-.3.2-.5.3-.6.5a.7.7,0,0,0-.1.5.7.7,0,0,0,.2.6l.5.2A2.1,2.1,0,0,0,276.1,150Z" transform="translate(-72 -71.9)"/>
    </g>
    <line class="cls-1" x1="386.5" y1="129.9" x2="386.5" y2="45.1"/>
    <line class="cls-1" x1="353.7" y1="133.9" x2="419.3" y2="133.9"/>
    <line class="cls-1" x1="419.3" y1="144.3" x2="353.7" y2="144.3"/>
    <line class="cls-1" x1="384.5" y1="133.5" x2="384.5" y2="129.9"/>
    <line class="cls-1" x1="388.5" y1="133.5" x2="388.5" y2="129.9"/>
    <line class="cls-1" x1="384.5" y1="129.9" x2="388.5" y2="129.9"/>
    <path class="cls-1" d="M491.2,205.8c1.6,0,2.9,2.4,2.9,5.2s-1.3,5.3-2.9,5.3" transform="translate(-72 -71.9)"/>
    <ellipse class="cls-1" cx="353.7" cy="139.1" rx="2.8" ry="5.2"/>
    <path class="cls-8" d="M458.5,119.1c3.2,0,3.2-5,0-5s-3.2,5,0,5Z" transform="translate(-72 -71.9)"/>
    <line class="cls-9" x1="103.9" y1="18.5" x2="386.5" y2="45.1"/>
    <line class="cls-9" x1="103.7" y1="189.5" x2="386.5" y2="129.9"/>
    <g>
      <line class="cls-6" x1="432" y1="48.1" x2="432" y2="131.5"/>
      <path class="cls-8" d="M504,117a14,14,0,0,1-2.4,4.3l2.4-.9,2.4.9A14,14,0,0,1,504,117Z" transform="translate(-72 -71.9)"/>
      <polygon class="cls-8" points="432 135.1 430 130.1 432 131.3 434.1 130.1 432 135.1"/>
    </g>
    <path class="cls-8" d="M516,162.1l-1.7,5.8a1.3,1.3,0,0,0-.1.5h.3c.2-.1.4-.4.6-.6h.1a2.4,2.4,0,0,1-.8.9.7.7,0,0,1-.6.2h-.3a.4.4,0,0,1-.1-.3,2.3,2.3,0,0,1,.1-.7l1.4-4.6a2.8,2.8,0,0,0,.1-.6c0-.1,0-.2-.1-.2h-.6v-.2Z" transform="translate(-72 -71.9)"/>
    <g>
      <path class="cls-8" d="M451.6,90v4.5l1.2-1.1.4-.4h0v-.2h1.6l-.6.2c-.2,0-.4.2-.6.4l-1.2,1,1.2,1.5.6.7.4.3h-1.5a.1.1,0,0,0,.1-.1l-.2-.4-1.4-1.7v1.4a3.5,3.5,0,0,0,.1.6l.2.2h-1.3l.2-.2V90.9c0-.1-.1-.1-.1-.2h-.6l1.3-.6Z" transform="translate(-72 -71.9)"/>
      <path class="cls-8" d="M456.9,92.3v4.2c.1.1.1.2.2.2h-1.3l.2-.2V93.1h-.5v-.2l1.3-.6Zm-.4-2.3.3.2c.1,0,.1.2.1.3a.6.6,0,0,1-.1.4h-.7a.6.6,0,0,1-.1-.4c0-.1,0-.3.1-.3Z" transform="translate(-72 -71.9)"/>
      <path class="cls-8" d="M459.6,92.3v3.6a3.5,3.5,0,0,0,.1.6l.2.2h-1.3l.2-.2V93.1h-.6v-.2l1.3-.6Zm-.4-2.3.4.2c.1,0,.1.2.1.3a.6.6,0,0,1-.1.4h-.7l-.2-.4c0-.1.1-.3.2-.3Z" transform="translate(-72 -71.9)"/>
      <path class="cls-8" d="M462.2,93.3a2.2,2.2,0,0,1,1.5-1l.6.2.4.6a2.2,2.2,0,0,1,.1.9v1.9a3.5,3.5,0,0,0,.1.6.2.2,0,0,0,.2.2h-1.3l.2-.3V94.1a2.2,2.2,0,0,0-.1-.9.6.6,0,0,0-.6-.3c-.4,0-.7.3-1.1.7v2.9l.2.2h-1.6c.2,0,.4-.1.4-.2a1,1,0,0,0,.2-.7V94.3c0-.6,0-.9-.1-1s0-.2-.1-.2h-.5v-.2l1.4-.6h.2Z" transform="translate(-72 -71.9)"/>
      <path class="cls-8" d="M467.2,93.3a2.2,2.2,0,0,1,1.5-1l.6.2.4.6a2.2,2.2,0,0,1,.1.9v1.9a3.5,3.5,0,0,0,.1.6.2.2,0,0,0,.2.2h-1.3l.2-.3V94.1a2.2,2.2,0,0,0-.1-.9.6.6,0,0,0-.6-.3c-.4,0-.7.3-1.1.7v2.9l.2.2h-1.6c.2,0,.4-.1.4-.2a1,1,0,0,0,.2-.7V94.3c0-.6,0-.9-.1-1s0-.2-.1-.2h-.5v-.2l1.4-.6h.2Z" transform="translate(-72 -71.9)"/>
      <path class="cls-8" d="M472.4,92.3v3.6c0,.3,0,.5.1.6l.2.2h-1.3v-.2c.1-.1.1-.3.1-.6V93.3a.3.3,0,0,1-.1-.2h-.6v-.2l1.4-.6ZM472,90l.4.2c.1,0,.1.2.1.3a.6.6,0,0,1-.1.4h-.7l-.2-.4c0-.1.1-.3.2-.3S471.9,90,472,90Z" transform="translate(-72 -71.9)"/>
      <path class="cls-8" d="M474.9,91v1.5H476v.3h-1.1v2.9a.8.8,0,0,0,.2.6l.3.2h.3c.1-.1.2-.2.2-.3h.2a1.2,1.2,0,0,1-.5.7l-.6.2h-.4a.8.8,0,0,1-.4-.4,5.6,5.6,0,0,1-.1-.7v-3h-.7l.6-.4.5-.6a2.4,2.4,0,0,0,.3-.7Z" transform="translate(-72 -71.9)"/>
      <path class="cls-8" d="M476.2,92.5h2.1v.2h-.5V93l.2.5,1.1,2.3,1-2.5v-.4h-.4v-.2h1.5v.2h-.3c-.1.1-.2.1-.2.3s-.1.1-.2.3l-1.8,4.5a2.6,2.6,0,0,1-.7,1l-.8.3c-.2,0-.4,0-.5-.2s-.2-.2-.2-.3,0-.3.1-.4h1.1l.3-.2.4-.5.3-.8L477,93.4l-.3-.4a.2.2,0,0,0-.2-.2h-.3Z" transform="translate(-72 -71.9)"/>
      <path class="cls-8" d="M484.3,92.3v1.6h-.1a3,3,0,0,0-.5-1,1.1,1.1,0,0,0-.8-.3l-.5.2a.4.4,0,0,0-.2.4.7.7,0,0,0,.1.5l.6.4.8.4c.6.3,1,.7,1,1.2a1.2,1.2,0,0,1-.5,1,1.4,1.4,0,0,1-1,.4l-1-.2h-.6V95.4h.2a1.9,1.9,0,0,0,.5,1.1,1.4,1.4,0,0,0,.9.3l.5-.2c.2-.1.2-.3.2-.5s0-.4-.2-.5l-1-.6-.9-.7a1.2,1.2,0,0,1-.2-.7,1.2,1.2,0,0,1,.4-.9,1.5,1.5,0,0,1,1-.4l.6.2h.5v-.2Z" transform="translate(-72 -71.9)"/>
      <path class="cls-8" d="M485,92.9l1.4-.5h.2v1c.2-.4.4-.7.7-.8a.9.9,0,0,1,.7-.3,1.4,1.4,0,0,1,1.1.6,2.4,2.4,0,0,1,.6,1.7,3.2,3.2,0,0,1-.7,1.9,1.8,1.8,0,0,1-1.4.6H487l-.4-.3v1.9c.1.1.1.2.2.2h.5v.2H485v-.2h.6a.3.3,0,0,0,.1-.2V93.2h-.6Zm1.6.8v2.4c0,.2.2.3.3.5l.7.2a.9.9,0,0,0,.8-.4,2,2,0,0,0,.4-1.4,2.5,2.5,0,0,0-.5-1.6.9.9,0,0,0-.7-.3h-.5C487,93.2,486.8,93.4,486.6,93.7Z" transform="translate(-72 -71.9)"/>
      <path class="cls-8" d="M491.9,92.3v4.2c.1.1.1.2.2.2h-1.3l.2-.2V93.1h-.5v-.2l1.3-.6Zm-.4-2.3.3.2c.1,0,.1.2.1.3a.6.6,0,0,1-.1.4h-.7a.6.6,0,0,1-.1-.4c0-.1,0-.3.1-.3Z" transform="translate(-72 -71.9)"/>
      <path class="cls-8" d="M496,92.3v1.6h-.2a1.9,1.9,0,0,0-.5-1,.8.8,0,0,0-.7-.3l-.5.2a.5.5,0,0,0-.3.4.8.8,0,0,0,.2.5l.6.4.7.4c.7.3,1,.7,1,1.2a1.2,1.2,0,0,1-.4,1,1.5,1.5,0,0,1-1.1.4l-.9-.2h-.6V95.4h.2a1.4,1.4,0,0,0,.5,1.1,1.1,1.1,0,0,0,.8.3,1.1,1.1,0,0,0,.6-.2.7.7,0,0,0,0-1l-1-.6a2.5,2.5,0,0,1-.9-.7c-.2-.1-.2-.4-.2-.7a1.2,1.2,0,0,1,.4-.9,1.3,1.3,0,0,1,.9-.4l.7.2h.4c.1,0,.1-.1.1-.2Z" transform="translate(-72 -71.9)"/>
      <path class="cls-8" d="M498.3,91v1.5h1v.3h-1v2.9c0,.3,0,.5.1.6l.3.2h.3l.3-.3h.2a1.8,1.8,0,0,1-.5.7l-.7.2h-.4l-.3-.4c-.1-.1-.1-.4-.1-.7v-3h-.7l.5-.4.5-.6a2.4,2.4,0,0,0,.3-.7Z" transform="translate(-72 -71.9)"/>
      <path class="cls-8" d="M500.5,94.2a2.5,2.5,0,0,0,.5,1.5,1.4,1.4,0,0,0,1.1.6,1.1,1.1,0,0,0,.8-.3,1.8,1.8,0,0,0,.6-.8h.1a2.3,2.3,0,0,1-.6,1.2,1.4,1.4,0,0,1-1.2.6,1.8,1.8,0,0,1-1.4-.6,2.5,2.5,0,0,1-.6-1.7,2.4,2.4,0,0,1,.6-1.8,2.1,2.1,0,0,1,1.5-.7,1.7,1.7,0,0,1,1.2.5,2.2,2.2,0,0,1,.5,1.4Zm0-.3h2.1a3.5,3.5,0,0,0-.1-.6,1,1,0,0,0-.4-.5h-.5a.9.9,0,0,0-.7.3A1.9,1.9,0,0,0,500.5,93.9Z" transform="translate(-72 -71.9)"/>
    </g>
    <line class="cls-7" x1="390.4" y1="40.7" x2="401.8" y2="29.2"/>
  </g>
  <g id="Layer_2" data-name="Layer 2">
    <g>
      <path class="cls-10" d="M135.4,243.4c23.2-13.3,48.6-12.4,75.4-2.2" transform="translate(-72 -71.9)"/>
      <path class="cls-11" d="M216.4,243.4a31.2,31.2,0,0,0-9.7,1.3l3.3-3.8.2-5.1A28,28,0,0,0,216.4,243.4Z" transform="translate(-72 -71.9)"/>
    </g>
    <g>
      <path class="cls-10" d="M214,94.9c-23.3-17.1-48.8-16-75.6-2.8" transform="translate(-72 -71.9)"/>
      <path class="cls-11" d="M133,94.9a26.7,26.7,0,0,0,5.4-8.1l.7,5,3.7,3.4A32,32,0,0,0,133,94.9Z" transform="translate(-72 -71.9)"/>
    </g>
  </g>
</svg>
