<svg id="Layer_1" data-name="Layer 1" xmlns="http://www.w3.org/2000/svg" viewBox="0 0 244.6 64.6">
  <defs>
    <style>
      .cls-1, .cls-3, .cls-4, .cls-7 {
        fill: none;
      }

      .cls-1, .cls-2, .cls-7 {
        stroke: #1d1d1b;
      }

      .cls-1, .cls-2, .cls-3, .cls-4, .cls-7 {
        stroke-miterlimit: 10;
      }

      .cls-1 {
        stroke-width: 0.75px;
      }

      .cls-2 {
        fill: #fff;
      }

      .cls-3, .cls-4 {
        stroke: #009fe3;
        stroke-width: 0.5px;
      }

      .cls-4 {
        stroke-dasharray: 3.05 3.05;
      }

      .cls-5 {
        fill: #009fe3;
      }

      .cls-6 {
        fill: #1d1d1b;
      }

      .cls-7 {
        stroke-width: 0.25px;
      }
    </style>
  </defs>
  <line class="cls-1" x1="179.8" y1="19.2" x2="179.8" y2="64.6"/>
  <line class="cls-1" x1="8.8" y1="19.2" x2="8.8" y2="64.6"/>
  <path class="cls-2" d="M354.6,428.7H166.8v-6H354.6Z" transform="translate(-166.3 -391.8)"/>
  <g>
    <line class="cls-3" x1="8.8" y1="33.9" x2="10.3" y2="33.9"/>
    <line class="cls-4" x1="13.4" y1="33.9" x2="176.7" y2="33.9"/>
    <line class="cls-3" x1="178.3" y1="33.9" x2="179.8" y2="33.9"/>
  </g>
  <circle class="cls-2" cx="8.8" cy="38.8" r="1.4"/>
  <circle class="cls-2" cx="179.8" cy="38.8" r="1.4"/>
  <g>
    <line class="cls-3" x1="11.8" y1="10.1" x2="176.8" y2="10.1"/>
    <path class="cls-5" d="M175.1,401.9a17.1,17.1,0,0,1,4.2,2.4l-.8-2.4.8-2.3A14.2,14.2,0,0,1,175.1,401.9Z" transform="translate(-166.3 -391.8)"/>
    <path class="cls-5" d="M346,401.9a19.1,19.1,0,0,0-4.2,2.4l.8-2.4-.8-2.3A15.5,15.5,0,0,0,346,401.9Z" transform="translate(-166.3 -391.8)"/>
  </g>
  <g>
    <path class="cls-6" d="M376.4,406.9c.4-.5.7-.7,1.1-.7h.4l.3.4a1.5,1.5,0,0,1,.1.7v1.7h.2c0,.1.1.1.3.1h-1.2a.3.3,0,0,0,.1-.2v-1.6c0-.3,0-.5-.1-.6l-.4-.2a1.5,1.5,0,0,0-.8.5v1.6c0,.2,0,.3.1.4h-.7a4.3,4.3,0,0,0,.1-.5v-1.2c0-.3,0-.6-.1-.6v-.2h-.5l1-.4h.1Z" transform="translate(-166.3 -391.8)"/>
    <path class="cls-6" d="M379.5,407.5a2.1,2.1,0,0,0,.4,1.1,1.2,1.2,0,0,0,.8.4l.5-.2a.9.9,0,0,0,.4-.6h.1a1.2,1.2,0,0,1-.4.8,1,1,0,0,1-.9.4,1.1,1.1,0,0,1-.9-.4,1.6,1.6,0,0,1-.4-1.2,1.8,1.8,0,0,1,.4-1.3,1.2,1.2,0,0,1,1-.4,1.4,1.4,0,0,1,.9.3,1.7,1.7,0,0,1,.3,1Zm0-.2H381a.7.7,0,0,0-.1-.5c0-.1-.1-.2-.2-.3h-.4l-.5.2Z" transform="translate(-166.3 -391.8)"/>
    <path class="cls-6" d="M384.9,406.3v2.5c0,.1,0,.2.1.2h.4l-.9.4h-.2v-.7l-.6.6h-.9l-.3-.4c0-.2-.1-.4-.1-.7v-1.7a.1.1,0,0,0-.1-.1h.7v2.1a.8.8,0,0,0,.2.6h.7l.4-.4v-1.7c0-.2,0-.3-.1-.4h.7Z" transform="translate(-166.3 -391.8)"/>
    <path class="cls-6" d="M386.5,405.3v1h.8v.2h-.8v2.1c0,.2.1.3.1.4h.5v-.2h.2a1,1,0,0,1-.4.5l-.4.2h-.3l-.3-.3v-2.6h-.5l.4-.2.3-.5c.1-.1.1-.2.2-.4Z" transform="translate(-166.3 -391.8)"/>
    <path class="cls-6" d="M388.5,406.2v.7c.2-.5.5-.7.8-.7h.3a.4.4,0,0,1,.1.3v.2h-.8l-.3.5v1.5c0,.2,0,.3.1.4h-.8a.3.3,0,0,0,.1-.2v-2.2a.1.1,0,0,0-.1-.1h-.4l.9-.4Z" transform="translate(-166.3 -391.8)"/>
    <path class="cls-6" d="M391.7,409l-.6.4h-.4l-.6-.2a1.4,1.4,0,0,1-.2-.6c0-.2.1-.3.1-.4l.5-.5,1.2-.5h0a.8.8,0,0,0-.2-.6.5.5,0,0,0-.4-.2c-.1,0-.3,0-.3.1s-.2.2-.2.3v.2c0,.1,0,.2-.1.2s-.1.1-.2.1h-.2V407a.9.9,0,0,1,.3-.6l.8-.2h.7l.3.4v1.6c0,.3,0,.5.1.6h.2l.3-.2v.2c-.3.3-.5.5-.8.5h-.2A.6.6,0,0,1,391.7,409Zm0-.3v-1.2l-.7.3a.8.8,0,0,0-.4.4.4.4,0,0,0-.1.3.5.5,0,0,0,.2.4l.3.2C391.2,409.1,391.4,409,391.7,408.7Z" transform="translate(-166.3 -391.8)"/>
    <path class="cls-6" d="M394.8,409l-.6.4h-.4l-.6-.2a1.4,1.4,0,0,1-.2-.6c0-.2.1-.3.1-.4s.3-.3.5-.5l1.2-.5h0a.8.8,0,0,0-.2-.6.5.5,0,0,0-.4-.2c-.1,0-.3,0-.3.1s-.2.2-.2.3v.4h-.5V407a.9.9,0,0,1,.3-.6,1.5,1.5,0,0,1,.8-.2h.7l.3.4v1.6a3.5,3.5,0,0,0,.1.6h.2l.3-.2v.2c-.3.3-.5.5-.7.5h-.3A.6.6,0,0,1,394.8,409Zm0-.3v-1.2l-.7.3a.8.8,0,0,0-.4.4c0,.1-.1.2-.1.3a.5.5,0,0,0,.2.4l.3.2C394.3,409.1,394.5,409,394.8,408.7Z" transform="translate(-166.3 -391.8)"/>
    <path class="cls-6" d="M397.2,404.6v4.5h.2c0,.1.1.1.3.1h-1.1V405h-.3v-.2l.9-.3Z" transform="translate(-166.3 -391.8)"/>
    <path class="cls-6" d="M399.1,406.2v2.5c0,.2.1.3.1.4h-.7c.1-.1.1-.2.1-.4v-1.2c0-.3,0-.6-.1-.7H398l1-.4Zm-.2-1.6h.2c.1,0,.1.1.1.2s0,.2-.1.2h-.5c-.1,0-.1-.1-.1-.2s0-.2.1-.2Z" transform="translate(-166.3 -391.8)"/>
    <path class="cls-6" d="M400.9,405.3v1h.7v.2h-.7v2.1c0,.2,0,.3.1.4h.4a.2.2,0,0,0,.2-.2h.1a.9.9,0,0,1-.3.5l-.4.2h-.4l-.2-.3v-2.6h-.5l.3-.2.4-.5.2-.4Z" transform="translate(-166.3 -391.8)"/>
    <path class="cls-6" d="M403.7,409l-.6.4h-.4l-.5-.2a1.4,1.4,0,0,1-.2-.6c0-.2,0-.3.1-.4a1.2,1.2,0,0,1,.5-.5l1.1-.5h0c0-.3,0-.5-.1-.6l-.5-.2h-.3a.4.4,0,0,0-.1.3v.2c0,.1,0,.2-.1.2h-.2c-.1,0-.2,0-.2-.1s-.1-.1-.1-.2a.9.9,0,0,1,.3-.6l.8-.2h.7c.2.1.3.2.3.4s.1.3.1.6v1.6a.1.1,0,0,0,.1.1h.1l.3-.2v.2a1,1,0,0,1-.7.5h-.3C403.8,409.3,403.7,409.1,403.7,409Zm0-.3v-1.2l-.6.3a.8.8,0,0,0-.4.4.4.4,0,0,0-.1.3c0,.2,0,.3.1.4l.3.2C403.2,409.1,403.4,409,403.7,408.7Z" transform="translate(-166.3 -391.8)"/>
    <path class="cls-6" d="M407.1,406.2v1.1H407c-.1-.4-.2-.6-.4-.7l-.5-.2h-.4a.5.5,0,0,0,0,.6l.4.3.5.3a.9.9,0,0,1,.7.9.7.7,0,0,1-.3.6,1.1,1.1,0,0,1-.7.3h-.9a.1.1,0,0,0-.1.1h-.1v-1.2h.1a1.5,1.5,0,0,0,.4.8l.6.2h.4c.1-.1.1-.2.1-.4a.4.4,0,0,0-.2-.4l-.6-.4-.7-.4a.7.7,0,0,1-.1-.5.8.8,0,0,1,.2-.6,1.1,1.1,0,0,1,.7-.3h.8a.1.1,0,0,1,.1-.1Z" transform="translate(-166.3 -391.8)"/>
    <path class="cls-6" d="M409.3,406.2a1.7,1.7,0,0,1,1.2.5,2,2,0,0,1,.3,1.1,1.1,1.1,0,0,1-.2.8,1.8,1.8,0,0,1-.5.7l-.8.2a1.1,1.1,0,0,1-1.1-.6,1.3,1.3,0,0,1-.4-1,2.9,2.9,0,0,1,.2-.9c.2-.3.3-.5.6-.6Zm-.1.2h-.4l-.3.4c0,.2-.1.4-.1.7a2.7,2.7,0,0,0,.3,1.2c.2.3.4.5.7.5a.9.9,0,0,0,.6-.3,2,2,0,0,0,.2-.9,2.1,2.1,0,0,0-.4-1.4A.6.6,0,0,0,409.2,406.4Z" transform="translate(-166.3 -391.8)"/>
  </g>
  <path class="cls-6" d="M263.8,391.8l-1.5,5.3a1,1,0,0,0-.1.4h.3l.5-.5h.1a3,3,0,0,1-.7.8l-.5.2h-.3a.4.4,0,0,1-.1-.3,2.6,2.6,0,0,1,.1-.7l1.2-4.1a1.8,1.8,0,0,0,.1-.6h-.6Z" transform="translate(-166.3 -391.8)"/>
  <line class="cls-7" x1="169.1" y1="33.9" x2="204" y2="19.2"/>
</svg>
