<svg id="Layer_1" data-name="Layer 1" xmlns="http://www.w3.org/2000/svg" viewBox="0 0 326.9 93.5">
  <defs>
    <style>
      .cls-1, .cls-2, .cls-4, .cls-6 {
        fill: none;
        stroke-miterlimit: 10;
      }

      .cls-1, .cls-2, .cls-6 {
        stroke: #1d1d1b;
      }

      .cls-2, .cls-4, .cls-6 {
        stroke-width: 0.5px;
      }

      .cls-3 {
        fill: #1d1d1b;
      }

      .cls-4 {
        stroke: #e30613;
      }

      .cls-5 {
        fill: #e30613;
      }

      .cls-6 {
        stroke-dasharray: 3;
      }
    </style>
  </defs>
  <line class="cls-1" x1="10.9" y1="30.1" x2="181.9" y2="30.1"/>
  <line class="cls-1" x1="10.9" y1="75.1" x2="181.9" y2="75.1"/>
  <ellipse class="cls-1" cx="181.1" cy="52.6" rx="10.4" ry="22.5"/>
  <g>
    <line class="cls-2" x1="13.9" y1="20.3" x2="153.9" y2="20.3"/>
    <path class="cls-3" d="M162,143.2a14,14,0,0,1,4.3,2.4l-.9-2.4.9-2.4A14,14,0,0,1,162,143.2Z" transform="translate(-151.1 -122.9)"/>
    <path class="cls-3" d="M308,143.2a13.5,13.5,0,0,0-4.2,2.4l.8-2.4-.8-2.4A13.5,13.5,0,0,0,308,143.2Z" transform="translate(-151.1 -122.9)"/>
  </g>
  <g>
    <line class="cls-2" x1="160" y1="81.9" x2="178.1" y2="81.9"/>
    <path class="cls-3" d="M308,204.8a12.9,12.9,0,0,1,4.3,2.4l-.8-2.4.8-2.4A12.9,12.9,0,0,1,308,204.8Z" transform="translate(-151.1 -122.9)"/>
    <path class="cls-3" d="M332.2,204.8a14,14,0,0,0-4.3,2.4l.9-2.4-.9-2.4A14,14,0,0,0,332.2,204.8Z" transform="translate(-151.1 -122.9)"/>
  </g>
  <line class="cls-2" x1="250" y1="36" x2="250.5" y2="36"/>
  <g>
    <line class="cls-4" x1="181.9" y1="53" x2="218.8" y2="53"/>
    <path class="cls-5" d="M372.9,175.8a19.9,19.9,0,0,0-4.3,2.4l.9-2.4-.9-2.4A14,14,0,0,0,372.9,175.8Z" transform="translate(-151.1 -122.9)"/>
  </g>
  <line class="cls-4" x1="326.7" x2="326.7" y2="0.5"/>
  <path class="cls-3" d="M310.6,169.9l-.5,5.5a4.3,4.3,0,0,1-.1.5v.3l.3.2h.5v.2h-2.6v-.2h.6c.1,0,.2-.2.2-.3s.1-.3.1-.7v-.8h-1.9l-.6.9c-.2.2-.3.3-.3.4a.4.4,0,0,0-.1.3v.2h.5v.2h-2v-.2c.2,0,.5,0,.6-.2a4.8,4.8,0,0,0,.9-1l3.9-5.3Zm-1,1.6-1.9,2.6h1.7Z" transform="translate(-151.1 -122.9)"/>
  <g>
    <path class="cls-3" d="M353.3,165.4l-.7,2.6h.8l.9-.2a1.8,1.8,0,0,0,.6-.8h.2l-.7,2.5h-.2a1.1,1.1,0,0,0,.1-.5.8.8,0,0,0-.2-.5h-1.6l-.6,1.9a4.5,4.5,0,0,0-.2.8l.2.2.6.2h-2.1l.3-.2a3,3,0,0,0,.3-.9l1.2-3.9a2.8,2.8,0,0,0,.1-.8v-.2h-.7V165h5.2l-.5,1.7h-.2a4.3,4.3,0,0,1,.1-.5.8.8,0,0,0-.2-.5l-.5-.3h-2.2Z" transform="translate(-151.1 -122.9)"/>
    <path class="cls-3" d="M360.4,173.5h-4.3V173H358v-3.3h.5V173h1.9Z" transform="translate(-151.1 -122.9)"/>
  </g>
  <ellipse class="cls-6" cx="156.9" cy="52.6" rx="10.4" ry="22.5"/>
  <path class="cls-1" d="M162,153c-5.7,0-10.4,10.1-10.4,22.5S156.3,198,162,198" transform="translate(-151.1 -122.9)"/>
  <g>
    <path class="cls-3" d="M322,216.3h-5.9l3.1-6.8Zm-1.1-.4-2-4.7-2.1,4.7Z" transform="translate(-151.1 -122.9)"/>
    <path class="cls-3" d="M325.5,209.3l-1.6,5.8-.2.6h.4l.5-.7.2.2-.9.9-.5.2h-.3l-.2-.3.2-.7,1.3-4.6.2-.7v-.2h-.6v-.2Z" transform="translate(-151.1 -122.9)"/>
  </g>
  <path class="cls-3" d="M239.2,130.9l-1.6,5.8-.2.5a.1.1,0,0,0,.1.1h.3l.5-.6h.2c-.3.4-.6.8-.9.9a.6.6,0,0,1-.5.2h-.3l-.2-.3.2-.7,1.3-4.6.2-.7h-.7v-.2Z" transform="translate(-151.1 -122.9)"/>
</svg>
