<svg id="Layer_1" data-name="Layer 1" xmlns="http://www.w3.org/2000/svg" viewBox="0 0 270.9 372.2">
  <defs>
    <style>
      .cls-1, .cls-11, .cls-12, .cls-14, .cls-15, .cls-18, .cls-19, .cls-22, .cls-23, .cls-24, .cls-25, .cls-26, .cls-27, .cls-28, .cls-29, .cls-3, .cls-30, .cls-31, .cls-4, .cls-5, .cls-6, .cls-7, .cls-9 {
        fill: none;
      }

      .cls-1, .cls-11, .cls-18, .cls-19, .cls-2, .cls-3, .cls-4, .cls-6 {
        stroke: #1e1e1c;
      }

      .cls-1, .cls-11, .cls-12, .cls-14, .cls-15, .cls-18, .cls-19, .cls-2, .cls-22, .cls-23, .cls-24, .cls-25, .cls-26, .cls-27, .cls-28, .cls-29, .cls-3, .cls-30, .cls-31, .cls-4, .cls-6, .cls-7, .cls-9 {
        stroke-miterlimit: 10;
      }

      .cls-1, .cls-24, .cls-25, .cls-26, .cls-28, .cls-29 {
        stroke-width: 0.75px;
      }

      .cls-2 {
        fill: #fff;
      }

      .cls-12, .cls-14, .cls-15, .cls-19, .cls-27, .cls-30, .cls-31, .cls-4, .cls-6, .cls-9 {
        stroke-width: 0.5px;
      }

      .cls-4 {
        stroke-dasharray: 3;
      }

      .cls-7 {
        stroke: #1b9dd9;
        stroke-dasharray: 2;
      }

      .cls-11, .cls-18, .cls-7 {
        stroke-width: 0.25px;
      }

      .cls-17, .cls-8 {
        fill: #1e1e1c;
      }

      .cls-9 {
        stroke: #e20e18;
      }

      .cls-10 {
        fill: #e20e18;
      }

      .cls-12 {
        stroke: #3eab37;
      }

      .cls-13 {
        fill: #3eab37;
      }

      .cls-14 {
        stroke: #010101;
      }

      .cls-15, .cls-23 {
        stroke: #e30613;
      }

      .cls-16 {
        fill: #e30613;
      }

      .cls-17, .cls-18, .cls-19, .cls-20 {
        opacity: 0.5;
      }

      .cls-21 {
        fill: #1d1d1b;
      }

      .cls-22, .cls-27, .cls-28, .cls-30, .cls-31 {
        stroke: #1d1d1b;
      }

      .cls-24 {
        stroke: #706f6f;
      }

      .cls-25, .cls-26, .cls-29 {
        stroke: #009fe3;
      }

      .cls-26 {
        stroke-dasharray: 3.93 3.93;
      }

      .cls-29 {
        stroke-dasharray: 4.43 4.43;
      }

      .cls-30 {
        stroke-dasharray: 1.84 1.84;
      }

      .cls-31 {
        stroke-dasharray: 2.51 2.51;
      }
    </style>
  </defs>
  <line class="cls-1" x1="14.2" y1="99.5" x2="14.2" y2="123.9"/>
  <circle class="cls-2" cx="14.2" cy="98.1" r="1.4"/>
  <line class="cls-3" x1="78.7" y1="83.7" x2="78.7" y2="83.7"/>
  <line class="cls-4" x1="89.9" y1="0.2" x2="14.2" y2="96.8"/>
  <line class="cls-5" x1="165.1" y1="96.8" x2="89.9" y2="0.2"/>
  <path class="cls-3" d="M204.8,441.4q80.3,54,162,0" transform="translate(-195.9 -348.3)"/>
  <path class="cls-6" d="M274.6,362.3c7.5,5,15.1,5,22.7,0" transform="translate(-195.9 -348.3)"/>
  <line class="cls-1" x1="165.1" y1="99.5" x2="165.1" y2="123.9"/>
  <circle class="cls-2" cx="165.1" cy="98.1" r="1.4"/>
  <path class="cls-7" d="M212.4,442.4q73.4,44.7,146.6,0" transform="translate(-195.9 -348.3)"/>
  <path class="cls-3" d="M362.4,436.4" transform="translate(-195.9 -348.3)"/>
  <path class="cls-8" d="M287.3,368.3c.9,0,1.4.6,1.4,1.9a10.2,10.2,0,0,1-.6,2.5,6.7,6.7,0,0,1-1.2,2,1.9,1.9,0,0,1-1.5.7,1.2,1.2,0,0,1-1-.5,2,2,0,0,1-.4-1.3,7.8,7.8,0,0,1,.2-1.4,6.7,6.7,0,0,1,.7-1.8,4.8,4.8,0,0,1,1.1-1.5A2,2,0,0,1,287.3,368.3Zm-2.2,3.6a5.7,5.7,0,0,0-.4,2.2,1.1,1.1,0,0,0,.2.8.5.5,0,0,0,.6.3.9.9,0,0,0,.6-.3l.7-1.1c.2-.6.5-1.2.7-1.9Zm2.5-.3a6.4,6.4,0,0,0,.3-2c0-.7-.2-1.1-.6-1.1s-.7.3-1.1.9a7.2,7.2,0,0,0-1,2.2Z" transform="translate(-195.9 -348.3)"/>
  <path class="cls-8" d="M331.4,394.2l-.2.6-.6,1.5h-.7a3.5,3.5,0,0,0,.6-1.4l.7-2.5a6.1,6.1,0,0,1,.5-1.2l.7-.6.9-.2a1.2,1.2,0,0,1,.9.4,3.2,3.2,0,0,1,.3.9,2.8,2.8,0,0,1-.3,1.3,1.5,1.5,0,0,1-.8,1.1,1.9,1.9,0,0,1-1.2.4A.8.8,0,0,1,331.4,394.2Zm.1-.4a.7.7,0,0,0,.7.5l.7-.3a4.1,4.1,0,0,0,.7-1.1c.1-.5.1-1,.2-1.5s-.1-.4-.1-.6l-.5-.2-.6.2a2.1,2.1,0,0,0-.5,1.2Z" transform="translate(-195.9 -348.3)"/>
  <g>
    <line class="cls-9" x1="90.1" y1="116.5" x2="90.1" y2="141.5"/>
    <path class="cls-10" d="M286,492.7a36.2,36.2,0,0,0-2.4-4.3l2.4.9,2.3-.9A14.9,14.9,0,0,0,286,492.7Z" transform="translate(-195.9 -348.3)"/>
  </g>
  <path class="cls-8" d="M291.6,475.5l-.6,2.1h.7l.7-.2.5-.6h.1l-.5,1.9h-.2v-.4c0-.1-.1-.3-.2-.3l-.6-.2h-.7l-.4,1.6a1.4,1.4,0,0,0-.2.6c0,.1,0,.2.1.2h.6v.2h-2.1v-.2h.4l.2-.2.3-.7.9-3.2c0-.2.1-.4.1-.6h3.6l-.4,1.3h-.2c0-.1.1-.2.1-.4l-.2-.4-.3-.2h-1.8Z" transform="translate(-195.9 -348.3)"/>
  <line class="cls-11" x1="94.5" y1="125.1" x2="98.5" y2="125.1"/>
  <line class="cls-3" x1="8.9" y1="93.3" x2="12.7" y2="87.7"/>
  <path class="cls-3" d="M366.8,441.4l-3.4-5.5-1.1.5q-76.8,50.1-153.7-.5" transform="translate(-195.9 -348.3)"/>
  <g>
    <line class="cls-12" x1="91.8" y1="2.5" x2="161.3" y2="91.8"/>
    <path class="cls-13" d="M285.8,348.3a15.9,15.9,0,0,1,.7,4.8l1.4-2.1,2.4-.8A14.9,14.9,0,0,1,285.8,348.3Z" transform="translate(-195.9 -348.3)"/>
    <path class="cls-13" d="M359,442.4a14.9,14.9,0,0,0-4.5-1.9l2.4-.8,1.4-2.2A13.5,13.5,0,0,0,359,442.4Z" transform="translate(-195.9 -348.3)"/>
  </g>
  <line class="cls-6" x1="14.2" y1="88.4" x2="14.2" y2="76.3"/>
  <line class="cls-6" x1="165.1" y1="89.8" x2="165.1" y2="77.7"/>
  <line class="cls-14" x1="107.6" y1="116.5" x2="107.6" y2="129"/>
  <g>
    <line class="cls-15" x1="14.2" y1="96.7" x2="14.2" y2="87.2"/>
    <path class="cls-16" d="M210.1,432.5a16.1,16.1,0,0,0,2.3,4.3l-2.3-.9-2.4.9A19.9,19.9,0,0,0,210.1,432.5Z" transform="translate(-195.9 -348.3)"/>
  </g>
  <g>
    <line class="cls-15" x1="165.1" y1="96.7" x2="165.1" y2="87.2"/>
    <path class="cls-16" d="M361,432.5a16.1,16.1,0,0,0,2.3,4.3l-2.3-.9-2.4.9A19.9,19.9,0,0,0,361,432.5Z" transform="translate(-195.9 -348.3)"/>
  </g>
  <path class="cls-17" d="M200.9,430.6l-.6,2.1h.7l.7-.2.5-.6h.1l-.5,1.9h-.2v-.4c0-.1-.1-.3-.2-.3s-.3-.2-.6-.2h-.7l-.4,1.6a1.4,1.4,0,0,1-.2.6c.1.1.1.1.1.2h.6v.2h-2.1v-.2h.4l.2-.2a1.1,1.1,0,0,0,.3-.7l.9-3.2a.7.7,0,0,0,.1-.6h3.6l-.4,1.3H203c.1-.1.2-.3.1-.4s0-.3-.2-.4l-.3-.2h-1.8Z" transform="translate(-195.9 -348.3)"/>
  <line class="cls-18" x1="3.8" y1="80.1" x2="7.8" y2="80.1"/>
  <path class="cls-17" d="M371.8,431.7l-.6,2.1h.7l.7-.2.5-.6h.1l-.5,1.9h-.2v-.4c0-.1-.1-.3-.2-.3a.7.7,0,0,0-.6-.2H371l-.4,1.6a1.4,1.4,0,0,0-.2.6c0,.1,0,.1.1.2h.6v.2H369v-.2h.4l.2-.2.3-.7.9-3.2a1.3,1.3,0,0,0,.1-.6h3.6l-.4,1.3h-.2a.6.6,0,0,0,.1-.4.5.5,0,0,0-.2-.4l-.3-.2h-1.8Z" transform="translate(-195.9 -348.3)"/>
  <line class="cls-18" x1="174.7" y1="81.2" x2="178.7" y2="81.2"/>
  <line class="cls-19" x1="0.8" y1="88.4" x2="8.9" y2="88.4"/>
  <line class="cls-19" x1="172" y1="89.8" x2="180" y2="89.8"/>
  <g class="cls-20">
    <path class="cls-21" d="M202.7,443.5l-.4,1.2h-3.9v-.2a25.1,25.1,0,0,0,2.4-2.5,3.2,3.2,0,0,0,.7-1.8,1.4,1.4,0,0,0-.4-1.1,1.8,1.8,0,0,0-.9-.4,1.6,1.6,0,0,0-.9.3,2.4,2.4,0,0,0-.6.8h-.1a1.5,1.5,0,0,1,.6-1.3,1.3,1.3,0,0,1,1.2-.5,1.7,1.7,0,0,1,1.4.5,1.7,1.7,0,0,1,.5,1.2,3.6,3.6,0,0,1-.2,1,5.3,5.3,0,0,1-1.2,1.7l-1.5,1.6h2.5l.4-.2c.1-.1.2-.2.2-.3Z" transform="translate(-195.9 -348.3)"/>
  </g>
  <g class="cls-20">
    <path class="cls-21" d="M373.6,445.7l-.5,1.3h-3.9v-.2a16.8,16.8,0,0,0,2.4-2.6,2.7,2.7,0,0,0,.7-1.8,1.2,1.2,0,0,0-.4-1,1,1,0,0,0-.9-.4,1.6,1.6,0,0,0-.9.3,1.2,1.2,0,0,0-.5.8h-.2a2.6,2.6,0,0,1,.6-1.4,2.1,2.1,0,0,1,1.3-.5,1.9,1.9,0,0,1,1.3.5,1.8,1.8,0,0,1,.6,1.3,2.2,2.2,0,0,1-.3,1,6.6,6.6,0,0,1-1.1,1.6,21.2,21.2,0,0,1-1.6,1.6h2.5l.4-.2.3-.3Z" transform="translate(-195.9 -348.3)"/>
  </g>
  <circle class="cls-22" cx="71.2" cy="320.7" r="51.1"/>
  <line class="cls-23" x1="29.1" y1="290.7" x2="112.5" y2="290.7"/>
  <circle class="cls-24" cx="70.8" cy="320.7" r="29.8"/>
  <g>
    <line class="cls-25" x1="20.1" y1="320" x2="22.1" y2="320"/>
    <line class="cls-26" x1="26" y1="320" x2="118.3" y2="320"/>
    <line class="cls-25" x1="120.2" y1="320" x2="122.2" y2="320"/>
  </g>
  <g>
    <line class="cls-27" x1="83.6" y1="297.1" x2="72.6" y2="317.4"/>
    <path class="cls-21" d="M280.9,642.7a13.6,13.6,0,0,1-4.1,2.6l2.5.4,1.7,1.9A16,16,0,0,1,280.9,642.7Z" transform="translate(-195.9 -348.3)"/>
    <path class="cls-21" d="M267.1,668.3a16,16,0,0,0-.1-4.9l1.7,1.9,2.5.4A13.6,13.6,0,0,0,267.1,668.3Z" transform="translate(-195.9 -348.3)"/>
  </g>
  <g>
    <line class="cls-27" x1="71.2" y1="323.7" x2="71.2" y2="366.9"/>
    <path class="cls-21" d="M267.1,668.9a17.8,17.8,0,0,1-2.4,4.3l2.4-.9,2.3.9A14.7,14.7,0,0,1,267.1,668.9Z" transform="translate(-195.9 -348.3)"/>
    <path class="cls-21" d="M267.1,718.2a19.9,19.9,0,0,0-2.4-4.3l2.4.9,2.3-.9A16.1,16.1,0,0,0,267.1,718.2Z" transform="translate(-195.9 -348.3)"/>
  </g>
  <path class="cls-28" d="M266.7,668.9" transform="translate(-195.9 -348.3)"/>
  <g>
    <line class="cls-25" x1="146.4" y1="290.8" x2="148.4" y2="290.8"/>
    <line class="cls-29" x1="152.9" y1="290.8" x2="159.5" y2="290.8"/>
    <line class="cls-25" x1="161.7" y1="290.8" x2="163.7" y2="290.8"/>
  </g>
  <line class="cls-23" x1="146.4" y1="308.1" x2="163.7" y2="308.1"/>
  <path class="cls-21" d="M265.9,651.1l2-.3-.8,2.9a12.5,12.5,0,0,1,1.8-2.5,1.2,1.2,0,0,1,.8-.4h.3a.4.4,0,0,1,.1.3,1.1,1.1,0,0,1-.2.8c-.1.2-.2.2-.4.2h-.2a.4.4,0,0,1-.1-.3c0-.1-.1-.1-.1-.2h-.3l-.5.5-1,1.5a1.9,1.9,0,0,0-.4.9,2.7,2.7,0,0,0-.3.8l-.2.7h-.9l1.1-3.6c.1-.5.2-.8.2-.9s0-.2-.1-.2h-.8Z" transform="translate(-195.9 -348.3)"/>
  <path class="cls-21" d="M263,693.2l-1.3-3.8h-.9l-.7,2.4a2.5,2.5,0,0,0-.1.8.6.6,0,0,0,.1.4h.7v.2h-3.1V693h.5a.5.5,0,0,0,.4-.2,3.4,3.4,0,0,0,.4-1l1.4-4.8a2.5,2.5,0,0,0,.1-.8.8.8,0,0,0-.2-.4l-.6-.2v-.2h2.6a3.1,3.1,0,0,1,1.9.5,1.5,1.5,0,0,1,.6,1.3,2,2,0,0,1-.6,1.4,2.7,2.7,0,0,1-1.6.8l.8,2.3c.1.6.3,1,.5,1.1a1.2,1.2,0,0,0,.9.3v.2Zm-2.1-4.2h.6a2.1,2.1,0,0,0,1.6-.6,1.6,1.6,0,0,0,.6-1.3,1.3,1.3,0,0,0-.3-1,1.5,1.5,0,0,0-1.1-.4h-.5Z" transform="translate(-195.9 -348.3)"/>
  <g>
    <path class="cls-21" d="M369.4,636.4h6.3v.5h-6.3Zm0,1.9h6.3v.5h-6.3Z" transform="translate(-195.9 -348.3)"/>
    <path class="cls-21" d="M380.9,637.2a2.6,2.6,0,0,1,1.8-1.1.8.8,0,0,1,.7.2,1.3,1.3,0,0,1,.5.7,3.1,3.1,0,0,1,.2,1.1v3l.3.2c0,.1.2.1.5.1v.2h-2.7v-.2h.7c.1-.1.1-.2.2-.4v-2.7a2.7,2.7,0,0,0-.2-1.1.6.6,0,0,0-.6-.3,1.6,1.6,0,0,0-1.4.8v3.5l.3.2h.5v.2h-2.6v-.2h.1a.8.8,0,0,0,.6-.2,1.7,1.7,0,0,0,.1-.8v-3.2l-.2-.3h-.6v-.2l1.6-.6h.3Z" transform="translate(-195.9 -348.3)"/>
    <path class="cls-21" d="M387.9,636.1a2.5,2.5,0,0,1,2,.9,2.8,2.8,0,0,1,.6,1.8,4,4,0,0,1-.3,1.5,3.6,3.6,0,0,1-1,1.1,2.8,2.8,0,0,1-1.3.4,2.6,2.6,0,0,1-2-1,3,3,0,0,1-.6-1.8,4.2,4.2,0,0,1,.4-1.5,3.6,3.6,0,0,1,1-1.1A2.7,2.7,0,0,1,387.9,636.1Zm-.1.4h-.7l-.5.7a3.7,3.7,0,0,0-.2,1.2,4.2,4.2,0,0,0,.5,2,1.2,1.2,0,0,0,1.2.8,1.3,1.3,0,0,0,1-.4,3.2,3.2,0,0,0,.3-1.6,3.9,3.9,0,0,0-.6-2.3A1.1,1.1,0,0,0,387.8,636.5Z" transform="translate(-195.9 -348.3)"/>
    <path class="cls-21" d="M392.9,636.1v1.2c.4-.8.9-1.2,1.4-1.2s.4,0,.5.2a.8.8,0,0,1,.2.4c0,.2,0,.3-.1.4l-.4.2-.5-.2a.4.4,0,0,0-.3-.2h-.3l-.5.8v2.5c0,.3,0,.6.1.7s.1.2.3.3h.5v.2h-2.7v-.2h.6l.2-.3v-3.8c0-.1-.1-.2-.2-.3h-.6v-.2l1.6-.6Z" transform="translate(-195.9 -348.3)"/>
    <path class="cls-21" d="M396.9,637.2l.7-.7.6-.3h.6a1.4,1.4,0,0,1,1.3,1.1,3.5,3.5,0,0,1,1-.9,1.5,1.5,0,0,1,.9-.2,1.2,1.2,0,0,1,.8.2c.2.1.3.4.5.7a3.1,3.1,0,0,1,.1,1.1v2.3c0,.3,0,.6.1.7s.1.1.2.2h.5v.2h-2.6v-.2h.6c.1-.1.2-.2.2-.3v-2.9c0-.5,0-.8-.1-.9a.8.8,0,0,0-.8-.4h-.6l-.7.6h-.1v3.5l.3.2h.5v.2h-2.7v-.2h.6l.3-.3v-2.9a2.2,2.2,0,0,0-.2-1,.9.9,0,0,0-.7-.3h-.6l-.8.6v2.9c0,.3,0,.6.1.7a.2.2,0,0,0,.2.2h.6v.2h-2.7v-.2h.5l.3-.2v-3.9c0-.1-.1-.2-.1-.3h-.7v-.2l1.6-.6h.3Z" transform="translate(-195.9 -348.3)"/>
    <path class="cls-21" d="M407.7,640.8l-1.1.8H406a1,1,0,0,1-.9-.4,1.2,1.2,0,0,1-.4-1,1.9,1.9,0,0,1,.2-.7,1.9,1.9,0,0,1,.8-.7l2-.9v-.2a1.6,1.6,0,0,0-.3-1.1.8.8,0,0,0-.7-.3.8.8,0,0,0-.6.2c-.1.2-.2.3-.2.5v.3c0,.2-.1.3-.1.4l-.4.2a.5.5,0,0,1-.4-.2c-.1-.1-.1-.2-.1-.4a1.4,1.4,0,0,1,.5-.9,2.2,2.2,0,0,1,1.5-.4l1.1.2c.3.1.4.3.5.6a2.5,2.5,0,0,1,.1,1v1.8a7.7,7.7,0,0,0,.1,1c0,.1,0,.2.1.2h.3l.5-.4v.3c-.5.6-.9.9-1.3.9a.5.5,0,0,1-.4-.2C407.7,641.4,407.7,641.1,407.7,640.8Zm0-.4v-2l-1.2.5c-.3.2-.5.3-.6.5a.8.8,0,0,0-.2.7,1.9,1.9,0,0,0,.2.7l.6.2A2.2,2.2,0,0,0,407.7,640.4Z" transform="translate(-195.9 -348.3)"/>
    <path class="cls-21" d="M413,640.8l-1,.8h-.7a1,1,0,0,1-.9-.4,1.2,1.2,0,0,1-.4-1,1.9,1.9,0,0,1,.2-.7,2.9,2.9,0,0,1,.8-.7l2-.9v-.2a2.7,2.7,0,0,0-.2-1.1,1.1,1.1,0,0,0-.8-.3l-.6.2c-.1.2-.2.3-.2.5v.3c0,.2,0,.3-.1.4a.5.5,0,0,1-.4.2l-.3-.2a.5.5,0,0,1-.2-.4,1.4,1.4,0,0,1,.5-.9,2.4,2.4,0,0,1,1.5-.4l1.2.2a1,1,0,0,1,.5.6c0,.2.1.5.1,1v3h.2a.1.1,0,0,0,.1-.1l.5-.4v.3a1.7,1.7,0,0,1-1.3.9l-.4-.2A1.2,1.2,0,0,1,413,640.8Zm0-.4v-2l-1.1.5c-.3.2-.6.3-.7.5a1.4,1.4,0,0,0-.2.7,1.1,1.1,0,0,0,.3.7l.5.2A2.2,2.2,0,0,0,413,640.4Z" transform="translate(-195.9 -348.3)"/>
    <path class="cls-21" d="M417.1,633.3v7.1c0,.3.1.5.1.7l.2.2h.6v.2h-2.6v-.2h.5l.2-.2c0-.2.1-.4.1-.7v-4.9a2.5,2.5,0,0,0-.1-1.1.4.4,0,0,0-.1-.3h-.6v-.2l1.6-.6Z" transform="translate(-195.9 -348.3)"/>
    <path class="cls-21" d="M420.5,636.1v4.3a1.5,1.5,0,0,0,.1.7.2.2,0,0,0,.2.2h.5v.2h-2.6v-.2h.5a.2.2,0,0,0,.2-.2,1.5,1.5,0,0,0,.1-.7v-3.2l-.2-.3h-.6v-.2l1.6-.6Zm-.5-2.8h.4c.1.2.2.3.2.5a.8.8,0,0,1-.2.4.5.5,0,0,1-.8,0,.8.8,0,0,1-.2-.4c0-.2.1-.3.2-.5Z" transform="translate(-195.9 -348.3)"/>
    <path class="cls-21" d="M423.5,634.5v1.7h1.3v.4h-1.3v3.5a1,1,0,0,0,.2.7.5.5,0,0,0,.4.2h.3l.3-.4h.2a1.9,1.9,0,0,1-.5.9,1.3,1.3,0,0,1-.8.3l-.5-.2a.8.8,0,0,1-.4-.4,1.9,1.9,0,0,1-.1-.8v-3.7h-.9v-.2c.2,0,.4-.2.7-.4l.6-.7a3.4,3.4,0,0,0,.3-.8Z" transform="translate(-195.9 -348.3)"/>
    <path class="cls-21" d="M428.3,640.8l-1,.8h-.7a1.1,1.1,0,0,1-.9-.4,1.5,1.5,0,0,1-.4-1,1.9,1.9,0,0,1,.2-.7,3.5,3.5,0,0,1,.9-.7l1.9-.9v-.2c0-.5,0-.9-.2-1.1a1,1,0,0,0-.8-.3l-.5.2c-.2.2-.3.3-.3.5v.3c0,.2,0,.3-.1.4a.5.5,0,0,1-.4.2l-.3-.2c-.1-.1-.1-.2-.1-.4a1.1,1.1,0,0,1,.5-.9,2,2,0,0,1,1.4-.4l1.2.2a1,1,0,0,1,.5.6,2.5,2.5,0,0,1,.1,1v2.8a.3.3,0,0,1,.1.2h.2a.1.1,0,0,0,.1-.1l.5-.4v.3q-.6.9-1.2.9l-.5-.2A1.2,1.2,0,0,1,428.3,640.8Zm0-.4v-2l-1.1.5-.7.5a1.4,1.4,0,0,0-.2.7.9.9,0,0,0,.9.9A1.7,1.7,0,0,0,428.3,640.4Z" transform="translate(-195.9 -348.3)"/>
    <path class="cls-21" d="M434.1,636.1v1.8h-.2c-.2-.6-.3-1-.6-1.2a1.2,1.2,0,0,0-.9-.3l-.6.2c-.2.2-.3.3-.3.5a1.4,1.4,0,0,0,.2.6l.8.5.8.4q1.2.6,1.2,1.5a1.4,1.4,0,0,1-.6,1.2,1.7,1.7,0,0,1-1.2.5l-1.1-.2h-.3l-.3.2h-.1v-1.9h.1a3.5,3.5,0,0,0,.7,1.2,1.3,1.3,0,0,0,1,.4l.7-.2a1.4,1.4,0,0,0,.2-.6.9.9,0,0,0-.3-.7c-.1-.2-.5-.4-1.1-.7a2.6,2.6,0,0,1-1.1-.7,1.4,1.4,0,0,1-.3-.9,1.5,1.5,0,0,1,1.7-1.5h1.3c0-.1.1-.1.1-.2Z" transform="translate(-195.9 -348.3)"/>
    <path class="cls-21" d="M437.9,636.1a2.5,2.5,0,0,1,2,.9,2.8,2.8,0,0,1,.6,1.8,4,4,0,0,1-.3,1.5,3.6,3.6,0,0,1-1,1.1,3.3,3.3,0,0,1-1.3.4,2.5,2.5,0,0,1-2-1,3,3,0,0,1-.6-1.8,2.8,2.8,0,0,1,.4-1.5,2.7,2.7,0,0,1,1-1.1A2.4,2.4,0,0,1,437.9,636.1Zm-.2.4h-.6a1.8,1.8,0,0,0-.5.7,3.7,3.7,0,0,0-.2,1.2,4.2,4.2,0,0,0,.5,2,1.2,1.2,0,0,0,1.2.8,1,1,0,0,0,.9-.4,2.4,2.4,0,0,0,.4-1.6,3.9,3.9,0,0,0-.6-2.3A1.2,1.2,0,0,0,437.7,636.5Z" transform="translate(-195.9 -348.3)"/>
  </g>
  <g>
    <path class="cls-21" d="M369.4,655.1h6.3v.4h-6.3Zm0,1.9h6.3v.4h-6.3Z" transform="translate(-195.9 -348.3)"/>
    <path class="cls-21" d="M380.9,653.1v1.8h1.2v.4h-1.2v3.4a1.7,1.7,0,0,0,.1.8h.8l.3-.3h.2a1.6,1.6,0,0,1-.6.8,1.1,1.1,0,0,1-.8.3h-.5a1,1,0,0,1-.4-.5,1.7,1.7,0,0,1-.1-.8v-3.6h-.8v-.2l.6-.5.6-.7.4-.8Z" transform="translate(-195.9 -348.3)"/>
    <path class="cls-21" d="M385.7,659.5l-1.1.7H384a1.2,1.2,0,0,1-.9-.3,1.3,1.3,0,0,1-.4-1,1.4,1.4,0,0,1,.2-.7c.1-.3.4-.5.8-.8l2-.8v-.2a1.4,1.4,0,0,0-.3-1.1.8.8,0,0,0-.7-.3c-.3,0-.5,0-.6.2a.5.5,0,0,0-.2.4v.4c0,.1-.1.3-.1.4H383a.7.7,0,0,1-.1-.5,1.4,1.4,0,0,1,.5-.9,2.2,2.2,0,0,1,1.5-.4l1.1.2a1,1,0,0,1,.5.6,2.2,2.2,0,0,1,.2,1v2.8c0,.1,0,.2.1.2a.1.1,0,0,0,.1.1h.2l.5-.5v.4c-.5.5-.9.8-1.3.8s-.3,0-.4-.2S385.7,659.8,385.7,659.5Zm0-.4V657l-1.2.5a1.7,1.7,0,0,0-.6.6c-.2.1-.2.4-.2.6a1.4,1.4,0,0,0,.2.7.9.9,0,0,0,.6.3A2.2,2.2,0,0,0,385.7,659.1Z" transform="translate(-195.9 -348.3)"/>
    <path class="cls-21" d="M391.4,654.7v1.8h-.2a2.3,2.3,0,0,0-.5-1.1,1.2,1.2,0,0,0-.9-.4.9.9,0,0,0-.7.3.8.8,0,0,0-.2.4c0,.3,0,.4.2.6s.3.3.7.5l.9.4a1.8,1.8,0,0,1,1.1,1.6,1.3,1.3,0,0,1-.5,1.1,2.1,2.1,0,0,1-1.2.5l-1.2-.2h-.7v-1.9h.2a2.3,2.3,0,0,0,.6,1.2,1.5,1.5,0,0,0,1.1.4c.2,0,.5,0,.6-.2a.8.8,0,0,0,0-1.2,3.5,3.5,0,0,0-1.1-.7,4.8,4.8,0,0,1-1.2-.8,1.9,1.9,0,0,1-.2-.8,1.4,1.4,0,0,1,1.6-1.6h1.3c.1,0,.1-.1.1-.2Z" transform="translate(-195.9 -348.3)"/>
    <path class="cls-21" d="M395.3,654.7a2.3,2.3,0,0,1,1.9.9,3.4,3.4,0,0,1,.7,1.8,4.2,4.2,0,0,1-.4,1.5,2,2,0,0,1-.9,1.1,2.5,2.5,0,0,1-1.4.4,2.2,2.2,0,0,1-1.9-1,2.8,2.8,0,0,1-.6-1.8,4,4,0,0,1,.3-1.5,3.6,3.6,0,0,1,1-1.1A2.8,2.8,0,0,1,395.3,654.7Zm-.2.4a.7.7,0,0,0-.6.2,1,1,0,0,0-.5.6,2.2,2.2,0,0,0-.2,1.2,4,4,0,0,0,.4,2,1.2,1.2,0,0,0,2.2.4,2.8,2.8,0,0,0,.4-1.6,3.3,3.3,0,0,0-.7-2.3A1.2,1.2,0,0,0,395.1,655.1Z" transform="translate(-195.9 -348.3)"/>
    <path class="cls-21" d="M402.5,656.9a2.9,2.9,0,0,0,.6,1.9,2,2,0,0,0,1.4.6,1.2,1.2,0,0,0,.9-.3c.3-.1.5-.5.7-.9h.2a2.9,2.9,0,0,1-.8,1.4,1.7,1.7,0,0,1-1.4.7,2.3,2.3,0,0,1-1.7-.8,2.6,2.6,0,0,1-.7-2,2.8,2.8,0,0,1,.7-2.1,2.5,2.5,0,0,1,1.8-.8,2,2,0,0,1,1.5.6,2.1,2.1,0,0,1,.6,1.6Zm0-.4H405a1.5,1.5,0,0,0-.1-.7,1,1,0,0,0-.4-.5l-.6-.2a1,1,0,0,0-.9.4A1.6,1.6,0,0,0,402.5,656.5Z" transform="translate(-195.9 -348.3)"/>
    <path class="cls-21" d="M408.5,653.1v1.8h1.3v.4h-1.3v3.4a1.5,1.5,0,0,0,.2.8h.7c.2-.1.2-.2.3-.3h.2a2.2,2.2,0,0,1-.5.8,1.3,1.3,0,0,1-.8.3h-.5a1,1,0,0,1-.4-.5,1.7,1.7,0,0,1-.1-.8v-3.6h-.9v-.2l.7-.5.6-.7a2.2,2.2,0,0,0,.3-.8Z" transform="translate(-195.9 -348.3)"/>
    <path class="cls-21" d="M413.3,659.5l-1,.7h-.7a1.6,1.6,0,0,1-.9-.3,1.7,1.7,0,0,1-.3-1,1.5,1.5,0,0,1,.1-.7,3.6,3.6,0,0,1,.9-.8l1.9-.8v-.2c0-.6,0-.9-.2-1.1a1,1,0,0,0-.8-.3c-.2,0-.4,0-.5.2s-.3.2-.3.4v.4a.6.6,0,0,1-.1.4h-.7a.7.7,0,0,1-.1-.5,1.1,1.1,0,0,1,.5-.9,2,2,0,0,1,1.4-.4l1.2.2c.2.2.4.3.5.6a2.5,2.5,0,0,1,.1,1v2.8a.3.3,0,0,1,.1.2h.4c0-.1.2-.2.4-.5v.4a1.7,1.7,0,0,1-1.2.8c-.2,0-.4,0-.5-.2A.8.8,0,0,1,413.3,659.5Zm-1.7-7.1a.5.5,0,0,1,.4.2.4.4,0,0,1,.2.4.8.8,0,0,1-.2.5.5.5,0,0,1-.4.2l-.5-.2a.6.6,0,0,1,0-.9Zm1.7,6.7V657l-1.1.5-.7.6a1.1,1.1,0,0,0-.2.6.9.9,0,0,0,.3.7.9.9,0,0,0,.6.3A1.7,1.7,0,0,0,413.3,659.1Zm.3-6.7.5.2a.6.6,0,0,1,0,.9l-.5.2-.4-.2a.6.6,0,0,1,0-.9Z" transform="translate(-195.9 -348.3)"/>
    <path class="cls-21" d="M417.5,654.7V659c0,.3,0,.6.1.7a.2.2,0,0,0,.2.2h.5v.2h-2.6V660h.5a.2.2,0,0,0,.2-.2c.1-.1.1-.4.1-.7v-3.2l-.2-.2c0-.1-.1-.1-.2-.1h-.4v-.2l1.6-.7Zm-.5-2.8a.7.7,0,0,1,.6.6.8.8,0,0,1-.2.4.5.5,0,0,1-.8,0,.8.8,0,0,1-.2-.4.7.7,0,0,1,.6-.6Z" transform="translate(-195.9 -348.3)"/>
    <path class="cls-21" d="M422.4,654.7v1.8h-.2a2.3,2.3,0,0,0-.5-1.1,1.2,1.2,0,0,0-.9-.4.9.9,0,0,0-.7.3.4.4,0,0,0-.2.4c0,.3,0,.4.2.6s.3.3.7.5l.8.4a1.8,1.8,0,0,1,1.2,1.6,1.3,1.3,0,0,1-.5,1.1,2.1,2.1,0,0,1-1.3.5l-1.1-.2h-.7v-1.9h.2a2.3,2.3,0,0,0,.6,1.2,1.5,1.5,0,0,0,1.1.4.7.7,0,0,0,.6-.2.8.8,0,0,0,0-1.2,3.1,3.1,0,0,0-1.2-.7l-1.1-.8a1.9,1.9,0,0,1-.2-.8,1.4,1.4,0,0,1,1.6-1.6h1.3v-.2Z" transform="translate(-195.9 -348.3)"/>
    <path class="cls-21" d="M423.3,654.9h2.5v.2h-.5a.4.4,0,0,0-.1.3,1,1,0,0,0,.2.6l1.3,2.7,1.2-3c0-.1.1-.3.1-.4s0-.2-.1-.2a.1.1,0,0,0-.1-.1h-.4v-.2h1.8v.2c-.2,0-.3,0-.3.1l-.3.2c0,.1-.1.2-.2.5l-2.2,5.3a2.3,2.3,0,0,1-.8,1.2,1.6,1.6,0,0,1-1,.4l-.6-.2a.8.8,0,0,1-.2-.4.7.7,0,0,1,.6-.6h.8a.4.4,0,0,0,.4-.2,1.4,1.4,0,0,0,.4-.7l.4-.9-1.9-4-.3-.5-.2-.3h-.5Z" transform="translate(-195.9 -348.3)"/>
    <path class="cls-21" d="M429.3,654.9h2.5v.2h-.5a.4.4,0,0,0-.1.3,1,1,0,0,0,.2.6l1.3,2.7,1.2-3c0-.1.1-.3.1-.4s0-.2-.1-.2a.1.1,0,0,0-.1-.1h-.4v-.2h1.8v.2c-.2,0-.3,0-.3.1l-.3.2c0,.1-.1.2-.2.5l-2.2,5.3a2.3,2.3,0,0,1-.8,1.2,1.6,1.6,0,0,1-1,.4l-.6-.2a.8.8,0,0,1-.2-.4.7.7,0,0,1,.6-.6h.8a.4.4,0,0,0,.4-.2,1.4,1.4,0,0,0,.4-.7l.4-.9-1.9-4-.3-.5-.2-.3h-.5Z" transform="translate(-195.9 -348.3)"/>
    <path class="cls-21" d="M439.4,659.6a1.9,1.9,0,0,1-.7.6l-.9.2a2.3,2.3,0,0,1-1.5-.7,3.1,3.1,0,0,1-.6-1.9,3.1,3.1,0,0,1,.7-2.1,2.2,2.2,0,0,1,1.9-1,1.5,1.5,0,0,1,1.1.4V653l-.2-.3h-.6v-.3l1.6-.6h.3v7.3c.1.2.1.3.2.3s.1.1.2.1h.4v.2l-1.6.7h-.3Zm0-.4v-2.8a1.9,1.9,0,0,0-.2-.7,1.2,1.2,0,0,0-.5-.5h-.5a1,1,0,0,0-.9.4,2.4,2.4,0,0,0-.6,1.8,3,3,0,0,0,.5,1.8,1.7,1.7,0,0,0,1.2.6A1.2,1.2,0,0,0,439.4,659.2Z" transform="translate(-195.9 -348.3)"/>
    <path class="cls-21" d="M442.5,656.9a2.9,2.9,0,0,0,.6,1.9,2,2,0,0,0,1.4.6,1.6,1.6,0,0,0,.9-.3c.3-.1.5-.5.7-.9h.1a2.1,2.1,0,0,1-.7,1.4,1.8,1.8,0,0,1-1.5.7,2.1,2.1,0,0,1-1.6-.8,2.6,2.6,0,0,1-.7-2,2.8,2.8,0,0,1,.7-2.1,2.5,2.5,0,0,1,1.8-.8,2,2,0,0,1,1.5.6,2.5,2.5,0,0,1,.5,1.6Zm0-.4H445a1.5,1.5,0,0,0-.1-.7,1,1,0,0,0-.4-.5l-.6-.2a1,1,0,0,0-.9.4A1.6,1.6,0,0,0,442.5,656.5Z" transform="translate(-195.9 -348.3)"/>
    <path class="cls-21" d="M448.8,651.9V659c0,.3,0,.6.1.7a.2.2,0,0,0,.2.2h.6v.2H447V660c.3,0,.5,0,.5-.1l.3-.2V653c0-.1-.1-.2-.1-.3H447v-.3l1.6-.6Z" transform="translate(-195.9 -348.3)"/>
    <path class="cls-21" d="M452.1,651.9V659a5.6,5.6,0,0,0,.1.7l.2.2h.6v.2h-2.6V660h.5c.1,0,.1-.1.2-.2a5.6,5.6,0,0,0,.1-.7v-4.9a2.8,2.8,0,0,0-.1-1.1.4.4,0,0,0-.1-.3h-.6v-.3l1.6-.6Z" transform="translate(-195.9 -348.3)"/>
    <path class="cls-21" d="M456.7,659.5l-1.1.7H455a1.1,1.1,0,0,1-1.3-1.3.8.8,0,0,1,.2-.7c.1-.3.4-.5.8-.8a11.4,11.4,0,0,1,2-.8v-.2a1.4,1.4,0,0,0-.3-1.1.9.9,0,0,0-.7-.3c-.3,0-.5,0-.6.2s-.2.2-.2.4v.4a.8.8,0,0,1-.2.4H454a.7.7,0,0,1-.1-.5,1.4,1.4,0,0,1,.5-.9,2,2,0,0,1,1.4-.4l1.2.2c.2.2.4.3.5.6a2.5,2.5,0,0,1,.1,1v1.9c0,.5,0,.8.1.9s0,.2.1.2a.1.1,0,0,0,.1.1h.2l.5-.5v.4c-.5.5-.9.8-1.3.8a.6.6,0,0,1-.5-.2C456.7,660,456.7,659.8,456.7,659.5Zm-1.8-7.1.5.2a.6.6,0,0,1,.1.4c0,.2,0,.4-.2.5a.5.5,0,0,1-.8,0c-.2-.1-.2-.3-.2-.5a.6.6,0,0,1,.1-.4Zm1.8,6.7V657l-1.2.5a1.7,1.7,0,0,0-.6.6c-.2.1-.2.4-.2.6a.8.8,0,0,0,.2.7.9.9,0,0,0,.6.3A2.2,2.2,0,0,0,456.7,659.1Zm.3-6.7.4.2a.6.6,0,0,1,0,.9l-.4.2-.5-.2a.6.6,0,0,1,0-.9Z" transform="translate(-195.9 -348.3)"/>
    <path class="cls-21" d="M463.5,654.9l.3.7a10.4,10.4,0,0,1,.1,1.1l.3,2.9,1-1.3.8-1.2a2.6,2.6,0,0,0,.3-.7v-.2a.1.1,0,0,0-.1-.1h-.2l-.3-.2c0-.1-.1-.2-.1-.3a.5.5,0,0,1,.2-.4l.3-.2.5.2a1.3,1.3,0,0,1,.1.6,2.6,2.6,0,0,1-.3,1.1,13.6,13.6,0,0,1-1.2,1.8c-.6.8-1.3,1.7-2.2,2.7a7.6,7.6,0,0,1-1.3,1.3l-.7.2h-.3c-.1-.1-.2-.2-.2-.3s.1-.3.2-.5h.6a.3.3,0,0,1,.1.2c.1.1.1.1.1.2h.1a.1.1,0,0,0,.1-.1l.8-.6.8-.9-.3-3.8a3.9,3.9,0,0,0-.3-1.1l-.5-.2h-.5v-.3Z" transform="translate(-195.9 -348.3)"/>
  </g>
  <g>
    <line class="cls-27" x1="10.6" y1="293.8" x2="10.6" y2="316.5"/>
    <path class="cls-21" d="M206.5,639.1a14,14,0,0,1-2.4,4.3l2.4-.9,2.4.9A14,14,0,0,1,206.5,639.1Z" transform="translate(-195.9 -348.3)"/>
    <polygon class="cls-21" points="10.6 320 8.5 315 10.6 316.2 12.6 315 10.6 320"/>
  </g>
  <path class="cls-21" d="M198.8,649.3a1.4,1.4,0,0,1,.2.6,2.9,2.9,0,0,1,.2,1.2l.3,2.9,1-1.4.8-1.2a1.5,1.5,0,0,0,.3-.6.3.3,0,0,0,.1-.2.1.1,0,0,0-.1-.1c0-.1-.1-.1-.2-.1l-.3-.2a.6.6,0,0,1-.1-.4c0-.1.1-.3.1-.4h.4a.5.5,0,0,1,.4.2c.2.1.2.3.2.6a2.2,2.2,0,0,1-.3,1l-1.2,1.9a23.5,23.5,0,0,1-2.2,2.6,7.6,7.6,0,0,1-1.3,1.3l-.7.3a.5.5,0,0,1-.4-.2.4.4,0,0,1-.1-.3.8.8,0,0,1,.2-.4l.4-.2h.3a.3.3,0,0,0,.1.2h.2l.7-.6.9-1-.4-3.7a2,2,0,0,0-.2-1.1c-.1-.2-.3-.2-.6-.2h-.4v-.2Z" transform="translate(-195.9 -348.3)"/>
  <g>
    <line class="cls-27" x1="10.6" y1="290.8" x2="11.6" y2="290.8"/>
    <line class="cls-30" x1="13.4" y1="290.8" x2="27.2" y2="290.8"/>
    <line class="cls-27" x1="28.1" y1="290.8" x2="29.1" y2="290.8"/>
  </g>
  <g>
    <line class="cls-27" x1="10.6" y1="320" x2="11.6" y2="320"/>
    <line class="cls-31" x1="14.1" y1="320" x2="17.8" y2="320"/>
    <line class="cls-27" x1="19.1" y1="320" x2="20.1" y2="320"/>
  </g>
</svg>
