<svg xmlns="http://www.w3.org/2000/svg" viewBox="0 0 261.3 92">
  <defs>
    <style>
      .cls-1, .cls-3, .cls-4, .cls-6 {
        fill: none;
      }

      .cls-1, .cls-2, .cls-4, .cls-5 {
        stroke: #1d1d1b;
      }

      .cls-1, .cls-2, .cls-3, .cls-4, .cls-5, .cls-6 {
        stroke-miterlimit: 10;
      }

      .cls-1, .cls-3 {
        stroke-width: 0.75px;
      }

      .cls-2, .cls-5 {
        fill: #fff;
      }

      .cls-3 {
        stroke: #e30613;
      }

      .cls-4, .cls-5 {
        stroke-width: 0.5px;
      }

      .cls-6 {
        stroke: #009fe3;
        stroke-width: 0.25px;
      }

      .cls-7 {
        fill: #1d1d1b;
      }
    </style>
  </defs>
  <g id="Layer_1" data-name="Layer 1">
    <line class="cls-1" x1="216" x2="216" y2="86.9"/>
    <line class="cls-1" x1="45.1" x2="45.1" y2="86.9"/>
    <circle class="cls-2" cx="45.1" cy="19.6" r="1.4"/>
    <circle class="cls-2" cx="216" cy="19.6" r="1.4"/>
    <rect class="cls-1" x="25.8" y="86.9" width="38.6" height="3.47"/>
    <line class="cls-1" y1="90.3" x2="261.3" y2="90.3"/>
    <rect class="cls-1" x="196.7" y="86.9" width="38.6" height="3.47"/>
    <line class="cls-3" x1="131.1" y1="88.7" x2="131.1" y2="92"/>
  </g>
  <g id="Layer_3" data-name="Layer 3">
    <path class="cls-2" d="M368.2,259.3a575.2,575.2,0,0,1-187.9,0v-2.6a543.9,543.9,0,0,0,187.9,0Z" transform="translate(-143.6 -242.3)"/>
    <line class="cls-4" x1="131.1" y1="22.6" x2="131.1" y2="29.2"/>
    <g>
      <ellipse class="cls-4" cx="131.1" cy="31.1" rx="2.3" ry="0.5"/>
      <path class="cls-4" d="M277,278.2c0,.4-1.1.7-2.3.7s-2.3-.3-2.3-.7" transform="translate(-143.6 -242.3)"/>
      <line class="cls-4" x1="128.8" y1="31.1" x2="128.8" y2="35.9"/>
      <line class="cls-4" x1="133.4" y1="31.1" x2="133.4" y2="35.9"/>
      <circle class="cls-5" cx="131.1" cy="30.1" r="0.8"/>
    </g>
    <path class="cls-6" d="M275.1,332.4a2.3,2.3,0,0,0,2.7-2.5v-28l.9-1-.9-.8,1,.8-1-.8V269.8a2.5,2.5,0,0,0-2.7-2.5" transform="translate(-143.6 -242.3)"/>
    <path class="cls-7" d="M283,297.6l-.8,2.8.8-1.1.6-.2h.2c.1,0,.1.1.1.2a.9.9,0,0,1-.1.5l-.3,1.2v.3h0a.1.1,0,0,0,.1.1h.1l.3-.3h.1l-.3.4-.3.2h-.2c-.1,0-.2,0-.2-.1h-.1a4.3,4.3,0,0,0,.1-.5l.4-1.2v-.3h0a.1.1,0,0,0-.1-.1h-.2a2.3,2.3,0,0,0-.5.5l-.4.7a.8.8,0,0,0-.2.4l-.2.6h-.4l.9-3.3V298H282v-.2Z" transform="translate(-143.6 -242.3)"/>
  </g>
</svg>
