<?xml version="1.0" encoding="utf-8"?>
<!-- Generator: Adobe Illustrator 25.2.1, SVG Export Plug-In . SVG Version: 6.00 Build 0)  -->
<svg version="1.1" id="Layer_1" xmlns="http://www.w3.org/2000/svg" xmlns:xlink="http://www.w3.org/1999/xlink" x="0px" y="0px"
	 viewBox="0 0 261.3 110.6" style="enable-background:new 0 0 261.3 110.6;" xml:space="preserve">
<style type="text/css">
	.st0{fill:none;stroke:#1D1D1B;stroke-width:0.75;stroke-miterlimit:10;}
	.st1{fill:#FFFFFF;stroke:#1D1D1B;stroke-miterlimit:10;}
	.st2{fill:none;stroke:#009FE3;stroke-width:0.5;stroke-miterlimit:10;}
	.st3{fill:#009FE3;}
	.st4{fill:#1D1D1B;}
	.st5{fill:none;stroke:#E30613;stroke-width:0.75;stroke-miterlimit:10;}
	.st6{fill:none;stroke:#1D1D1B;stroke-width:0.25;stroke-miterlimit:10;}
	.st7{fill:none;stroke:#000000;stroke-width:0.5;stroke-miterlimit:10;}
	.st8{font-family:'MyriadPro-Regular';}
	.st9{font-size:12px;}
</style>
<line class="st0" x1="216" y1="0" x2="216" y2="86.9"/>
<line class="st0" x1="45.1" y1="0" x2="45.1" y2="86.9"/>
<path class="st1" d="M224.6,17.7H36.7v-2.5h187.9V17.7z"/>
<circle class="st1" cx="45.1" cy="19.6" r="1.4"/>
<circle class="st1" cx="216" cy="19.6" r="1.4"/>
<g>
	<line class="st2" x1="48.4" y1="11.1" x2="213.4" y2="11.1"/>
	<path class="st3" d="M45.4,11.1c1.5,0.6,2.9,1.4,4.2,2.4l-0.8-2.4l0.8-2.4C48.4,9.8,47,10.6,45.4,11.1z"/>
	<path class="st3" d="M216.4,11.1c-1.5,0.6-2.9,1.4-4.2,2.4l0.8-2.4l-0.8-2.4C213.4,9.8,214.8,10.6,216.4,11.1z"/>
</g>
<path class="st4" d="M132.3,3.3l-1.5,5.2c-0.1,0.3-0.2,0.4-0.2,0.5h0.4c0.2-0.2,0.3-0.4,0.4-0.6l0.2,0.2c-0.2,0.3-0.5,0.6-0.8,0.8
	l-0.5,0.2L130,9.4V9.2c0-0.1,0.1-0.3,0.2-0.7l1.2-4.1c0.1-0.2,0.1-0.4,0.1-0.6V3.6h-0.7V3.5L132.3,3.3z"/>
<rect x="25.8" y="86.9" class="st0" width="38.6" height="3.5"/>
<line class="st0" x1="0" y1="90.3" x2="261.3" y2="90.3"/>
<rect x="196.7" y="86.9" class="st0" width="38.6" height="3.5"/>
<line class="st5" x1="131.1" y1="88.7" x2="131.1" y2="92"/>
<line class="st6" x1="130.5" y1="90.3" x2="102.2" y2="103.1"/>
<g>
	<path class="st4" d="M75.8,103.6v4.4l1.1-1c0.2-0.1,0.3-0.2,0.4-0.4h0.1c0-0.1,0-0.2-0.1-0.2h1l-0.6,0.4l-1.1,1.1l1.1,1.4l0.7,0.8
		c0.1,0.2,0.2,0.3,0.4,0.3h0.4v0.2H77v-0.2h0.3c0.1-0.1,0.1-0.1,0.1-0.2l-0.2-0.3l-1.4-1.8v2.1l0.2,0.2h0.5v0.2h-2.3v-0.2h0.5
		c0.1-0.1,0.2-0.1,0.2-0.2c0.1-0.2,0.1-0.4,0.1-0.6v-4c0-0.3,0-0.7-0.1-1c0-0.1,0-0.2-0.1-0.2s-0.1-0.1-0.2-0.1h-0.3v-0.2l1.4-0.5
		L75.8,103.6z"/>
	<path class="st4" d="M80.2,107.7c0,0.6,0.2,1.1,0.5,1.6c0.3,0.4,0.7,0.6,1.1,0.6c0.3,0,0.6-0.1,0.8-0.3c0.3-0.2,0.5-0.5,0.6-0.8
		h0.1c-0.1,0.4-0.3,0.8-0.6,1.2c-0.3,0.4-0.7,0.6-1.2,0.6c-0.6,0-1.1-0.2-1.4-0.7c-0.4-0.5-0.7-1.1-0.6-1.7c0-0.6,0.2-1.2,0.6-1.7
		c0.4-0.5,0.9-0.7,1.5-0.7c0.5,0,0.9,0.2,1.2,0.5c0.3,0.4,0.5,0.8,0.5,1.3L80.2,107.7z M80.2,107.5h2.1c0-0.3-0.1-0.5-0.1-0.7
		l-0.4-0.4h-0.5c-0.3,0-0.5,0.1-0.7,0.3C80.4,106.9,80.2,107.2,80.2,107.5z"/>
	<path class="st4" d="M86.8,105.9v1.5h-0.2c-0.1-0.3-0.2-0.6-0.4-0.9c-0.2-0.2-0.5-0.3-0.8-0.3l-0.5,0.2c-0.2,0.1-0.2,0.2-0.2,0.4
		c0,0.2,0,0.3,0.1,0.5l0.6,0.4l0.7,0.3c0.6,0.2,1,0.7,1,1.3c0,0.4-0.1,0.7-0.4,1c-0.3,0.2-0.7,0.4-1.1,0.4l-0.9-0.2h-0.6v-1.6h0.2
		c0,0.4,0.2,0.8,0.5,1c0.2,0.3,0.5,0.4,0.8,0.4l0.6-0.2c0.1-0.2,0.2-0.3,0.2-0.5c0-0.2-0.1-0.4-0.2-0.6l-1-0.5
		c-0.4-0.3-0.8-0.5-0.9-0.7c-0.2-0.2-0.2-0.4-0.2-0.7c0-0.7,0.6-1.3,1.3-1.3h1.1c0.1-0.1,0.1-0.1,0.1-0.2L86.8,105.9z"/>
	<path class="st4" d="M89.1,103.6v4.4l1.2-1c0.2-0.2,0.3-0.4,0.4-0.4l0,0c0-0.1,0-0.2-0.1-0.2s-0.1-0.1-0.2-0.1h1.2l-0.5,0.4
		l-1.2,1.1l1.2,1.4l0.6,0.8l0.4,0.3h0.4v0.2h-2.1v-0.2h0.2c0.1,0,0.1-0.1,0.1-0.2l-0.2-0.3l-1.4-1.8v1.5c0,0.3,0,0.5,0.1,0.6
		s0.1,0.1,0.1,0.2h0.5v0.2h-2.2v-0.2h0.5c0-0.1,0.1-0.1,0.1-0.2s0.1-0.3,0.1-0.6v-5.2h-0.6v-0.2L89.1,103.6L89.1,103.6z"/>
	<path class="st4" d="M94.3,105.9v3.6c0,0.2,0,0.4,0.1,0.6c0,0.1,0.1,0.1,0.2,0.2H95v0.2h-2.2v-0.2h0.5l0.2-0.2v-3.3
		c0-0.1-0.1-0.1-0.1-0.2h-0.6l1.3-0.6L94.3,105.9z M93.9,103.6h0.4c0.1,0.1,0.1,0.2,0.1,0.4c0,0.1,0,0.2-0.1,0.3l-0.4,0.2l-0.3-0.2
		c-0.1-0.1-0.2-0.2-0.2-0.3c0-0.2,0.1-0.3,0.2-0.4H93.9z"/>
	<path class="st4" d="M96.9,103.6v4.4l1.1-1c0.2-0.1,0.3-0.2,0.4-0.4h0.1c0-0.1,0-0.2-0.1-0.2s-0.1-0.1-0.3-0.1h1.3l-0.6,0.4
		l-1.1,1.1l1.1,1.4l0.7,0.8c0.1,0.2,0.2,0.3,0.4,0.3h0.4v0.2h-2.2v-0.2h0.3c0.1-0.1,0.1-0.1,0.1-0.2l-0.2-0.3l-1.4-1.8v1.5
		c0,0.3,0,0.5,0.1,0.6s0.1,0.1,0.1,0.2h0.5v0.2h-2.3v-0.2h0.6c0-0.1,0.1-0.1,0.1-0.2s0.1-0.3,0.1-0.6v-4c0-0.3,0-0.7-0.1-1
		c0-0.1,0-0.2-0.1-0.2s-0.1-0.1-0.2-0.1h-0.3V104l1.4-0.5L96.9,103.6z"/>
	<path class="st4" d="M102.8,105.9c0.6,0,1.2,0.3,1.6,0.8c0.3,0.4,0.5,1,0.5,1.5c0,0.4-0.1,0.8-0.3,1.2c-0.2,0.4-0.4,0.7-0.8,0.9
		c-0.3,0.3-0.7,0.4-1.1,0.4c-0.6,0-1.2-0.3-1.6-0.8c-0.3-0.5-0.5-1-0.5-1.6c0-0.4,0.1-0.8,0.3-1.2c0.2-0.4,0.5-0.7,0.8-0.9
		C102,106,102.4,105.9,102.8,105.9z M102.6,106.2l-0.5,0.2c-0.2,0.1-0.3,0.3-0.4,0.5c-0.1,0.3-0.2,0.7-0.2,1c0,0.6,0.1,1.2,0.4,1.7
		c0.1,0.4,0.5,0.7,1,0.7c0.3,0,0.6-0.1,0.8-0.4c0.2-0.4,0.3-0.8,0.3-1.3c0-0.7-0.2-1.3-0.5-1.9C103.3,106.4,103,106.2,102.6,106.2z"
		/>
	<path class="st4" d="M106.9,103.6v3.3c0.2-0.3,0.5-0.6,0.8-0.8l0.7-0.2l0.6,0.2c0.2,0.2,0.3,0.4,0.4,0.7c0.1,0.4,0.1,0.7,0.1,1.1
		v1.6c0,0.2,0,0.4,0.1,0.6c0,0.1,0.1,0.1,0.2,0.2h0.4v0.2H108v-0.2h0.5l0.2-0.3v-2.1c0-0.5,0-0.8-0.1-0.9c0-0.2-0.1-0.3-0.2-0.4
		h-0.9l-0.6,0.5v3l0.2,0.2h0.5v0.2h-2.2v-0.2h0.5c0-0.1,0.1-0.1,0.1-0.2s0.1-0.3,0.1-0.6v-4c0-0.3,0-0.7-0.1-1c0-0.1,0-0.2-0.1-0.2
		s-0.1-0.1-0.2-0.1h-0.3V104l1.4-0.5L106.9,103.6z"/>
	<path class="st4" d="M111.9,104.6v1.5h1v0.3h-1v2.9c0,0.3,0,0.5,0.1,0.6h0.6c0.1,0,0.2-0.1,0.3-0.3h0.1c0,0.3-0.2,0.6-0.4,0.8
		l-0.7,0.2h-0.4c-0.2-0.1-0.3-0.2-0.3-0.4s-0.1-0.4-0.1-0.7v-3h-0.7v-0.2l0.5-0.3l0.5-0.6l0.3-0.7L111.9,104.6z"/>
	<path class="st4" d="M115.9,109.9l-0.9,0.6h-0.5c-0.3,0-0.6-0.1-0.8-0.3c-0.2-0.2-0.3-0.5-0.3-0.8c0-0.2,0-0.4,0.1-0.6l0.7-0.6
		c0.5-0.3,1.1-0.5,1.7-0.7v-0.2c0-0.3,0-0.6-0.2-0.9c-0.2-0.2-0.4-0.3-0.6-0.3c-0.2,0-0.4,0.1-0.5,0.2c-0.2,0.1-0.2,0.2-0.2,0.4v0.2
		c0,0.2-0.1,0.3-0.1,0.4h-0.6c-0.1-0.1-0.1-0.2-0.1-0.4c0-0.3,0.2-0.5,0.4-0.7c0.3-0.3,0.8-0.4,1.2-0.4l1,0.2
		c0.2,0.1,0.3,0.3,0.4,0.5c0.1,0.1,0.1,0.4,0.1,0.9v2.3h0.1c0,0.1,0,0.1,0.1,0.1l0,0h0.2c0-0.1,0.2-0.2,0.4-0.4v0.3
		c-0.3,0.4-0.7,0.6-1.1,0.7c-0.2,0-0.3,0-0.4-0.2C115.9,110.1,115.9,110,115.9,109.9z M115.9,109.6v-1.7l-1,0.4l-0.5,0.4
		c-0.1,0.2-0.2,0.3-0.2,0.5c0,0.2,0.1,0.4,0.2,0.6c0.1,0.1,0.3,0.2,0.5,0.2C115.3,110,115.6,109.8,115.9,109.6L115.9,109.6z"/>
</g>
<g>
	<g>
		<line class="st7" x1="131.1" y1="21.2" x2="131.1" y2="86.5"/>
		<g>
			<path d="M131.1,18.2c-0.5,1.4-1.4,3.2-2.4,4.3l2.4-0.9l2.4,0.9C132.6,21.4,131.7,19.6,131.1,18.2z"/>
		</g>
		<g>
			<path d="M131.1,89.5c-0.5-1.4-1.4-3.2-2.4-4.3l2.4,0.9l2.4-0.9C132.6,86.3,131.7,88.1,131.1,89.5z"/>
		</g>
	</g>
</g>
<text transform="matrix(1 0 0 1 144.6738 53.694)" class="st8 st9">L</text>
</svg>
