<svg id="Layer_1" data-name="Layer 1" xmlns="http://www.w3.org/2000/svg" viewBox="0 0 179.2 144.5">
  <defs>
    <style>
      .cls-1, .cls-11, .cls-12, .cls-14, .cls-17, .cls-18, .cls-3, .cls-4, .cls-5, .cls-6, .cls-7, .cls-9 {
        fill: none;
      }

      .cls-1, .cls-11, .cls-17, .cls-18, .cls-2, .cls-3, .cls-4, .cls-6 {
        stroke: #1e1e1c;
      }

      .cls-1, .cls-11, .cls-12, .cls-14, .cls-17, .cls-18, .cls-2, .cls-3, .cls-4, .cls-6, .cls-7, .cls-9 {
        stroke-miterlimit: 10;
      }

      .cls-1 {
        stroke-width: 0.75px;
      }

      .cls-2 {
        fill: #fff;
      }

      .cls-12, .cls-14, .cls-18, .cls-4, .cls-6, .cls-9 {
        stroke-width: 0.5px;
      }

      .cls-4 {
        stroke-dasharray: 3;
      }

      .cls-7 {
        stroke: #1b9dd9;
        stroke-dasharray: 2;
      }

      .cls-11, .cls-17, .cls-7 {
        stroke-width: 0.25px;
      }

      .cls-16, .cls-8 {
        fill: #1e1e1c;
      }

      .cls-9 {
        stroke: #e20e18;
      }

      .cls-10 {
        fill: #e20e18;
      }

      .cls-12 {
        stroke: #3eab37;
      }

      .cls-13 {
        fill: #3eab37;
      }

      .cls-14 {
        stroke: #e30613;
      }

      .cls-15 {
        fill: #e30613;
      }

      .cls-16, .cls-17, .cls-18, .cls-19 {
        opacity: 0.5;
      }

      .cls-20 {
        fill: #1d1d1b;
      }
    </style>
  </defs>
  <line class="cls-1" x1="13.3" y1="99.5" x2="13.3" y2="123.9"/>
  <circle class="cls-2" cx="13.3" cy="98.1" r="1.4"/>
  <line class="cls-3" x1="77.8" y1="83.7" x2="77.8" y2="83.7"/>
  <line class="cls-4" x1="89" y1="0.2" x2="13.3" y2="96.8"/>
  <line class="cls-5" x1="164.2" y1="96.8" x2="89" y2="0.2"/>
  <path class="cls-3" d="M204.8,441.4q80.3,54,162,0" transform="translate(-196.7 -348.3)"/>
  <path class="cls-6" d="M274.6,362.3c7.5,5,15.1,5,22.7,0" transform="translate(-196.7 -348.3)"/>
  <line class="cls-1" x1="164.2" y1="99.5" x2="164.2" y2="123.9"/>
  <circle class="cls-2" cx="164.2" cy="98.1" r="1.4"/>
  <path class="cls-7" d="M212.4,442.4q73.4,44.7,146.6,0" transform="translate(-196.7 -348.3)"/>
  <path class="cls-3" d="M362.4,436.4" transform="translate(-196.7 -348.3)"/>
  <path class="cls-8" d="M287.3,368.3c.9,0,1.4.6,1.4,1.9a10.2,10.2,0,0,1-.6,2.5,6.7,6.7,0,0,1-1.2,2,1.9,1.9,0,0,1-1.5.7,1.2,1.2,0,0,1-1-.5,2,2,0,0,1-.4-1.3,7.8,7.8,0,0,1,.2-1.4,6.7,6.7,0,0,1,.7-1.8,4.8,4.8,0,0,1,1.1-1.5A2,2,0,0,1,287.3,368.3Zm-2.2,3.6a5.7,5.7,0,0,0-.4,2.2,1.1,1.1,0,0,0,.2.8.5.5,0,0,0,.6.3.9.9,0,0,0,.6-.3l.7-1.1c.2-.6.5-1.2.7-1.9Zm2.5-.3a6.4,6.4,0,0,0,.3-2c0-.7-.2-1.1-.6-1.1s-.7.3-1.1.9a7.2,7.2,0,0,0-1,2.2Z" transform="translate(-196.7 -348.3)"/>
  <path class="cls-8" d="M331.4,394.2l-.2.6-.6,1.5h-.7a3.5,3.5,0,0,0,.6-1.4l.7-2.5a6.1,6.1,0,0,1,.5-1.2l.7-.6.9-.2a1.2,1.2,0,0,1,.9.4,3.2,3.2,0,0,1,.3.9,2.8,2.8,0,0,1-.3,1.3,1.5,1.5,0,0,1-.8,1.1,1.9,1.9,0,0,1-1.2.4A.8.8,0,0,1,331.4,394.2Zm.1-.4a.7.7,0,0,0,.7.5l.7-.3a4.1,4.1,0,0,0,.7-1.1c.1-.5.1-1,.2-1.5s-.1-.4-.1-.6l-.5-.2-.6.2a2.1,2.1,0,0,0-.5,1.2Z" transform="translate(-196.7 -348.3)"/>
  <g>
    <line class="cls-9" x1="89.2" y1="116.5" x2="89.2" y2="141.5"/>
    <path class="cls-10" d="M286,492.7a36.2,36.2,0,0,0-2.4-4.3l2.4.9,2.3-.9A14.9,14.9,0,0,0,286,492.7Z" transform="translate(-196.7 -348.3)"/>
  </g>
  <path class="cls-8" d="M291.6,475.5l-.6,2.1h.7l.7-.2.5-.6h.1l-.5,1.9h-.2v-.4c0-.1-.1-.3-.2-.3l-.6-.2h-.7l-.4,1.6a1.4,1.4,0,0,0-.2.6c0,.1,0,.2.1.2h.6v.2h-2.1v-.2h.4l.2-.2.3-.7.9-3.2c0-.2.1-.4.1-.6h3.6l-.4,1.3h-.2c0-.1.1-.2.1-.4l-.2-.4-.3-.2h-1.8Z" transform="translate(-196.7 -348.3)"/>
  <line class="cls-11" x1="93.6" y1="125.1" x2="97.6" y2="125.1"/>
  <line class="cls-3" x1="8" y1="93.3" x2="11.8" y2="87.7"/>
  <path class="cls-3" d="M366.8,441.4l-3.4-5.5-1.1.5q-76.8,50.1-153.7-.5" transform="translate(-196.7 -348.3)"/>
  <g>
    <line class="cls-12" x1="90.9" y1="2.5" x2="160.4" y2="91.8"/>
    <path class="cls-13" d="M285.8,348.3a15.9,15.9,0,0,1,.7,4.8l1.4-2.1,2.4-.8A14.9,14.9,0,0,1,285.8,348.3Z" transform="translate(-196.7 -348.3)"/>
    <path class="cls-13" d="M359,442.4a14.9,14.9,0,0,0-4.5-1.9l2.4-.8,1.4-2.2A13.5,13.5,0,0,0,359,442.4Z" transform="translate(-196.7 -348.3)"/>
  </g>
  <g>
    <line class="cls-14" x1="13.3" y1="96.7" x2="13.3" y2="87.2"/>
    <path class="cls-15" d="M210.1,432.5a16.1,16.1,0,0,0,2.3,4.3l-2.3-.9-2.4.9A19.9,19.9,0,0,0,210.1,432.5Z" transform="translate(-196.7 -348.3)"/>
  </g>
  <g>
    <line class="cls-14" x1="164.2" y1="96.7" x2="164.2" y2="87.2"/>
    <path class="cls-15" d="M361,432.5a16.1,16.1,0,0,0,2.3,4.3l-2.3-.9-2.4.9A19.9,19.9,0,0,0,361,432.5Z" transform="translate(-196.7 -348.3)"/>
  </g>
  <path class="cls-16" d="M200.9,430.6l-.6,2.1h.7l.7-.2.5-.6h.1l-.5,1.9h-.2v-.4c0-.1-.1-.3-.2-.3s-.3-.2-.6-.2h-.7l-.4,1.6a1.4,1.4,0,0,1-.2.6c.1.1.1.1.1.2h.6v.2h-2.1v-.2h.4l.2-.2a1.1,1.1,0,0,0,.3-.7l.9-3.2a.7.7,0,0,0,.1-.6h3.6l-.4,1.3H203c.1-.1.2-.3.1-.4s0-.3-.2-.4l-.3-.2h-1.8Z" transform="translate(-196.7 -348.3)"/>
  <line class="cls-17" x1="3" y1="80.1" x2="7" y2="80.1"/>
  <path class="cls-16" d="M371.8,431.7l-.6,2.1h.7l.7-.2.5-.6h.1l-.5,1.9h-.2v-.4c0-.1-.1-.3-.2-.3a.7.7,0,0,0-.6-.2H371l-.4,1.6a1.4,1.4,0,0,0-.2.6c0,.1,0,.1.1.2h.6v.2H369v-.2h.4l.2-.2.3-.7.9-3.2a1.3,1.3,0,0,0,.1-.6h3.6l-.4,1.3h-.2a.6.6,0,0,0,.1-.4.5.5,0,0,0-.2-.4l-.3-.2h-1.8Z" transform="translate(-196.7 -348.3)"/>
  <line class="cls-17" x1="173.8" y1="81.2" x2="177.8" y2="81.2"/>
  <line class="cls-18" y1="88.4" x2="8" y2="88.4"/>
  <line class="cls-18" x1="171.1" y1="89.8" x2="179.2" y2="89.8"/>
  <g class="cls-19">
    <path class="cls-20" d="M202.7,443.5l-.4,1.2h-3.9v-.2a25.1,25.1,0,0,0,2.4-2.5,3.2,3.2,0,0,0,.7-1.8,1.4,1.4,0,0,0-.4-1.1,1.8,1.8,0,0,0-.9-.4,1.6,1.6,0,0,0-.9.3,2.4,2.4,0,0,0-.6.8h-.1a1.5,1.5,0,0,1,.6-1.3,1.3,1.3,0,0,1,1.2-.5,1.7,1.7,0,0,1,1.4.5,1.7,1.7,0,0,1,.5,1.2,3.6,3.6,0,0,1-.2,1,5.3,5.3,0,0,1-1.2,1.7l-1.5,1.6h2.5l.4-.2c.1-.1.2-.2.2-.3Z" transform="translate(-196.7 -348.3)"/>
  </g>
  <g class="cls-19">
    <path class="cls-20" d="M373.6,445.7l-.5,1.3h-3.9v-.2a16.8,16.8,0,0,0,2.4-2.6,2.7,2.7,0,0,0,.7-1.8,1.2,1.2,0,0,0-.4-1,1,1,0,0,0-.9-.4,1.6,1.6,0,0,0-.9.3,1.2,1.2,0,0,0-.5.8h-.2a2.6,2.6,0,0,1,.6-1.4,2.1,2.1,0,0,1,1.3-.5,1.9,1.9,0,0,1,1.3.5,1.8,1.8,0,0,1,.6,1.3,2.2,2.2,0,0,1-.3,1,6.6,6.6,0,0,1-1.1,1.6,21.2,21.2,0,0,1-1.6,1.6h2.5l.4-.2.3-.3Z" transform="translate(-196.7 -348.3)"/>
  </g>
</svg>
