<svg id="Layer_1" data-name="Layer 1" xmlns="http://www.w3.org/2000/svg" viewBox="0 0 254.4 149.1">
  <defs>
    <style>
      .cls-1, .cls-2, .cls-3, .cls-5, .cls-6 {
        fill: none;
        stroke-miterlimit: 10;
      }

      .cls-1 {
        stroke: #009fe3;
        stroke-dasharray: 5;
      }

      .cls-1, .cls-2, .cls-3 {
        stroke-width: 0.75px;
      }

      .cls-2 {
        stroke: #be1622;
      }

      .cls-3, .cls-5, .cls-6 {
        stroke: #1d1d1b;
      }

      .cls-4 {
        fill: #1d1d1b;
      }

      .cls-5 {
        stroke-width: 2px;
      }

      .cls-6 {
        stroke-width: 0.5px;
      }
    </style>
  </defs>
  <line class="cls-1" x1="215.6" y1="82.2" y2="82.2"/>
  <line class="cls-2" y1="66.2" x2="215.5" y2="66.2"/>
  <g>
    <line class="cls-3" x1="223.6" y1="68.4" x2="223.6" y2="79.9"/>
    <path class="cls-4" d="M397.4,404.8a9.2,9.2,0,0,1-1.8,3.2l1.8-.6,1.8.6A11.1,11.1,0,0,1,397.4,404.8Z" transform="translate(-173.8 -338.7)"/>
    <path class="cls-4" d="M397.4,420.9a9.2,9.2,0,0,0-1.8-3.2l1.8.6,1.8-.6A11.1,11.1,0,0,0,397.4,420.9Z" transform="translate(-173.8 -338.7)"/>
  </g>
  <path class="cls-4" d="M405,409.7c.2.2.2.4.3.6s.1.6.1,1.2l.3,2.8,1-1.3.8-1.2.4-.7v-.2h-.2c-.2,0-.3-.1-.3-.2s-.2-.2-.2-.3a.5.5,0,0,1,.2-.4h.3c.2,0,.4,0,.5.2a.8.8,0,0,1,.2.6,1.6,1.6,0,0,1-.4,1l-1.2,1.8a17.4,17.4,0,0,1-2.2,2.7,5.1,5.1,0,0,1-1.3,1.3l-.7.3-.3-.2-.2-.3a.5.5,0,0,1,.2-.4l.4-.2h.2v.4h.2l.8-.7a5.7,5.7,0,0,0,.8-.9l-.3-3.7c-.1-.6-.1-1-.3-1.1s-.2-.2-.5-.2h-.4v-.2Z" transform="translate(-173.8 -338.7)"/>
  <polyline class="cls-5" points="0 113.8 215.8 113.8 215.4 50.6 0 49.9"/>
  <line class="cls-6" x1="187.9" y1="82.4" x2="205.2" y2="140.9"/>
  <g>
    <path class="cls-4" d="M350.1,483.2a2.3,2.3,0,0,1,1.8-1.1,1.1,1.1,0,0,1,.8.2,1.3,1.3,0,0,1,.5.7,3.1,3.1,0,0,1,.1,1.1v2.3c0,.3,0,.6.1.7l.2.2h.5v.2h-2.6v-.2h.6a.5.5,0,0,0,.2-.4v-2.7a3.1,3.1,0,0,0-.1-1.1.9.9,0,0,0-.7-.3,1.9,1.9,0,0,0-1.4.7v2.9c0,.3,0,.6.1.7l.2.2h.6v.2h-2.7v-.2h.2l.5-.2a1.5,1.5,0,0,0,.2-.8v-2a10.5,10.5,0,0,0-.1-1.2c0-.1-.1-.2-.1-.3h-.7v-.2l1.6-.6h.2Z" transform="translate(-173.8 -338.7)"/>
    <path class="cls-4" d="M355.5,484.2a2.7,2.7,0,0,0,.5,1.9,1.7,1.7,0,0,0,1.4.7,1.2,1.2,0,0,0,.9-.3,2,2,0,0,0,.7-1h.2a3.5,3.5,0,0,1-.7,1.5,2.1,2.1,0,0,1-1.5.7,2.3,2.3,0,0,1-1.7-.8,3.2,3.2,0,0,1-.7-2,3.6,3.6,0,0,1,.7-2.2,2.4,2.4,0,0,1,1.8-.7,2.1,2.1,0,0,1,2.1,2.1Zm0-.3h2.4c0-.3,0-.6-.1-.7a1,1,0,0,0-.4-.5.7.7,0,0,0-.6-.2,1.2,1.2,0,0,0-.9.4A1.5,1.5,0,0,0,355.5,483.9Z" transform="translate(-173.8 -338.7)"/>
    <path class="cls-4" d="M364.6,482.2v4.4c.1.2.1.3.2.3s.1.1.2.1h.4v.2l-1.6.7h-.3v-1.2l-1,1-.8.2a1.1,1.1,0,0,1-.8-.3,1,1,0,0,1-.4-.7,2.7,2.7,0,0,1-.2-1.1v-2.4c0-.3,0-.5-.1-.6l-.2-.2h-.6v-.2h1.9v3.6a1.3,1.3,0,0,0,.3,1c.1.2.3.2.6.2h.6l.7-.6v-3.1c0-.3,0-.5-.1-.6l-.7-.2v-.2Z" transform="translate(-173.8 -338.7)"/>
    <path class="cls-4" d="M367.4,480.5v1.7h1.3v.4h-1.3v3.5a1,1,0,0,0,.2.7.5.5,0,0,0,.4.2h.3c.2-.1.3-.2.3-.4h.3a3.5,3.5,0,0,1-.6.9,1.3,1.3,0,0,1-.8.3l-.5-.2a.8.8,0,0,1-.4-.4,2.2,2.2,0,0,1-.1-.9v-3.6h-.9v-.2a1.3,1.3,0,0,0,.7-.4l.6-.7.4-.8Z" transform="translate(-173.8 -338.7)"/>
    <path class="cls-4" d="M370.8,482.1v1.2c.4-.8.9-1.2,1.4-1.2s.4,0,.5.2a.5.5,0,0,1,.2.4c0,.2,0,.3-.1.4l-.4.2-.5-.2a.4.4,0,0,0-.3-.2h-.3l-.5.8v2.5c0,.3,0,.6.1.7s.1.2.3.3h.5v.2H369v-.2h.6c.1-.1.2-.2.2-.3v-3.8l-.2-.3H369v-.2l1.6-.6Z" transform="translate(-173.8 -338.7)"/>
    <path class="cls-4" d="M376.3,486.8l-1.1.8h-.7a1.2,1.2,0,0,1-.9-.4,1.5,1.5,0,0,1-.3-1,1.7,1.7,0,0,1,.1-.7,3.5,3.5,0,0,1,.9-.7l2-.9v-.2a1.6,1.6,0,0,0-.3-1.1.9.9,0,0,0-.7-.3.8.8,0,0,0-.6.2c-.2.2-.3.3-.3.5v.3a.5.5,0,0,1-.2.4l-.3.2a.5.5,0,0,1-.4-.2c-.1-.1-.1-.2-.1-.4a1.1,1.1,0,0,1,.5-.9,2,2,0,0,1,1.4-.4,2.2,2.2,0,0,1,1.2.2,1,1,0,0,1,.5.6,2.2,2.2,0,0,1,.1,1v3h.4l.4-.4v.3q-.6.9-1.2.9l-.5-.2C376.3,487.4,376.3,487.1,376.3,486.8Zm0-.4v-2l-1.2.5-.7.5a1.4,1.4,0,0,0-.2.6.8.8,0,0,0,.3.7.9.9,0,0,0,.6.3A2.2,2.2,0,0,0,376.3,486.4Z" transform="translate(-173.8 -338.7)"/>
    <path class="cls-4" d="M381.6,486.8l-1.1.8h-.6a1,1,0,0,1-.9-.4,1.2,1.2,0,0,1-.4-1,1,1,0,0,1,.2-.7,1.9,1.9,0,0,1,.8-.7l2-.9v-.2a1.6,1.6,0,0,0-.3-1.1.8.8,0,0,0-.7-.3.8.8,0,0,0-.6.2.6.6,0,0,0-.2.5v.3a.5.5,0,0,1-.2.4l-.3.2-.4-.2c-.1-.1-.1-.2-.1-.4a1.4,1.4,0,0,1,.5-.9,2.2,2.2,0,0,1,1.5-.4,2,2,0,0,1,1.1.2c.3.1.4.3.5.6a2.2,2.2,0,0,1,.1,1v1.8a7.7,7.7,0,0,0,.1,1c0,.1,0,.2.1.2h.3l.5-.4v.3c-.5.6-.9.9-1.3.9l-.4-.2C381.6,487.4,381.6,487.1,381.6,486.8Zm0-.4v-2l-1.2.5c-.3.2-.5.3-.6.5a.7.7,0,0,0-.2.6,1.2,1.2,0,0,0,.2.7.9.9,0,0,0,.6.3A2.2,2.2,0,0,0,381.6,486.4Z" transform="translate(-173.8 -338.7)"/>
    <path class="cls-4" d="M385.7,479.3v7.1c0,.3,0,.5.1.6s.1.2.2.3h.6v.2h-2.7v-.2h.6l.2-.2v-6.7c0-.2-.1-.2-.1-.3h-.7v-.2l1.6-.6Z" transform="translate(-173.8 -338.7)"/>
    <path class="cls-4" d="M389,482.1v4.3c0,.3.1.5.1.7l.2.2h.6v.2h-2.6v-.2h.5l.2-.2a1.5,1.5,0,0,0,.1-.7v-2.1a2.8,2.8,0,0,0-.1-1.1.4.4,0,0,0-.1-.3h-.6v-.2l1.6-.6Zm-.4-2.8h.4a.6.6,0,0,1,0,.9l-.4.2-.5-.2a.6.6,0,0,1-.1-.4.7.7,0,0,1,.1-.5Z" transform="translate(-173.8 -338.7)"/>
    <path class="cls-4" d="M392.1,480.5v1.7h1.2v.4h-1.2v3.5c0,.4,0,.6.1.7l.4.2h.4l.3-.4h.2a1.5,1.5,0,0,1-.6.9,1.1,1.1,0,0,1-.7.3l-.6-.2-.4-.4c0-.2-.1-.5-.1-.9v-3.6h-.8v-.2c.2,0,.4-.2.6-.4a1.3,1.3,0,0,0,.6-.7l.4-.8Z" transform="translate(-173.8 -338.7)"/>
    <path class="cls-4" d="M396.9,486.8l-1,.8h-.7a1,1,0,0,1-.9-.4,1.2,1.2,0,0,1-.4-1,1.9,1.9,0,0,1,.2-.7,2.9,2.9,0,0,1,.8-.7l2-.9v-.2a2.7,2.7,0,0,0-.2-1.1,1.1,1.1,0,0,0-.8-.3l-.6.2c-.1.2-.2.3-.2.5v.3c0,.2,0,.3-.1.4a.5.5,0,0,1-.4.2l-.3-.2a.5.5,0,0,1-.2-.4,1.4,1.4,0,0,1,.5-.9,2.4,2.4,0,0,1,1.5-.4,2.2,2.2,0,0,1,1.2.2,1,1,0,0,1,.5.6,7.7,7.7,0,0,1,.1,1v2.8a.3.3,0,0,0,.1.2h.3l.5-.4v.3a1.7,1.7,0,0,1-1.3.9l-.4-.2A1.2,1.2,0,0,1,396.9,486.8Zm0-.4v-2l-1.1.5c-.3.2-.6.3-.7.5a1.4,1.4,0,0,0-.2.6.8.8,0,0,0,.3.7.5.5,0,0,0,.5.3A2.2,2.2,0,0,0,396.9,486.4Z" transform="translate(-173.8 -338.7)"/>
    <path class="cls-4" d="M402.7,482.1v1.8h-.2a3.3,3.3,0,0,0-.6-1.2,1.2,1.2,0,0,0-.9-.3l-.7.2c-.1.2-.2.3-.2.5a1.4,1.4,0,0,0,.2.6l.7.5.9.4q1.2.6,1.2,1.5a1.4,1.4,0,0,1-.6,1.2,2.1,2.1,0,0,1-1.2.5l-1.2-.2h-.3c-.1,0-.1.1-.2.2h-.2v-1.9h.2a2.3,2.3,0,0,0,.6,1.2,1.7,1.7,0,0,0,1.1.4.8.8,0,0,0,.6-.2.9.9,0,0,0,.3-.6.9.9,0,0,0-.3-.7l-1.1-.7c-.6-.3-1-.5-1.1-.7a1.4,1.4,0,0,1-.3-.9,1.6,1.6,0,0,1,.5-1.1,1.5,1.5,0,0,1,1.1-.4h1.2c.1,0,.1,0,.1-.1h.4Z" transform="translate(-173.8 -338.7)"/>
    <path class="cls-4" d="M406.5,482.1a2.2,2.2,0,0,1,1.9.9,2.4,2.4,0,0,1,.7,1.8,2.8,2.8,0,0,1-.4,1.5,2.4,2.4,0,0,1-.9,1.1,3.3,3.3,0,0,1-1.4.4,2.4,2.4,0,0,1-1.9-1,3.2,3.2,0,0,1-.6-1.8,2.8,2.8,0,0,1,.4-1.5,2,2,0,0,1,.9-1.1A2.8,2.8,0,0,1,406.5,482.1Zm-.2.3-.6.2a1.8,1.8,0,0,0-.5.7,2.2,2.2,0,0,0-.2,1.2,4.2,4.2,0,0,0,.4,2,1.5,1.5,0,0,0,1.3.8,1,1,0,0,0,.9-.4,2.4,2.4,0,0,0,.4-1.6,3.9,3.9,0,0,0-.6-2.3A1.4,1.4,0,0,0,406.3,482.4Z" transform="translate(-173.8 -338.7)"/>
  </g>
  <line class="cls-6" x1="207.2" y1="10.9" x2="190.1" y2="62.6"/>
  <g>
    <path class="cls-4" d="M342.2,339.9v1.7h1.3v.4h-1.3v3.5a1,1,0,0,0,.2.7l.4.2h.3c.2-.1.3-.2.3-.4h.2a1.9,1.9,0,0,1-.5.9,1.3,1.3,0,0,1-.8.3l-.5-.2-.4-.4a2.2,2.2,0,0,1-.1-.9V342h-.9v-.2c.2,0,.4-.2.7-.4l.6-.7.3-.8Z" transform="translate(-173.8 -338.7)"/>
    <path class="cls-4" d="M347,346.2l-1,.8h-.7a1.2,1.2,0,0,1-.9-.4,1.5,1.5,0,0,1-.3-1,1.7,1.7,0,0,1,.1-.7,3.5,3.5,0,0,1,.9-.7l1.9-.9v-.2c0-.5,0-.9-.2-1.1a1,1,0,0,0-.8-.3l-.5.2c-.2.2-.3.3-.3.5v.3a.5.5,0,0,1-.2.4l-.3.2-.4-.2c-.1-.1-.1-.2-.1-.4a1.1,1.1,0,0,1,.5-.9,2,2,0,0,1,1.4-.4,2.2,2.2,0,0,1,1.2.2,1,1,0,0,1,.5.6,2.2,2.2,0,0,1,.1,1v2.8a.3.3,0,0,1,.1.2h.4l.4-.4v.3q-.6.9-1.2.9l-.5-.2A1.2,1.2,0,0,1,347,346.2Zm0-.4v-2l-1.1.5-.7.5a1.4,1.4,0,0,0-.2.6.8.8,0,0,0,.3.7.9.9,0,0,0,.6.3A1.7,1.7,0,0,0,347,345.8Z" transform="translate(-173.8 -338.7)"/>
    <path class="cls-4" d="M352.8,341.5v1.8h-.2a1.7,1.7,0,0,0-.6-1.2,1.2,1.2,0,0,0-.9-.3l-.6.2c-.2.2-.3.3-.3.5a1.4,1.4,0,0,0,.2.6l.8.5.8.4q1.2.6,1.2,1.5a1.4,1.4,0,0,1-.6,1.2,1.7,1.7,0,0,1-1.2.5l-1.1-.2H350a.2.2,0,0,0-.2.2h-.2v-1.9h.2a2.3,2.3,0,0,0,.6,1.2,1.3,1.3,0,0,0,1,.4l.7-.2a.7.7,0,0,0,.2-.6,1.4,1.4,0,0,0-.2-.7l-1.2-.7-1.1-.7a1.4,1.4,0,0,1-.3-.9,1.5,1.5,0,0,1,1.7-1.5h1.3a.1.1,0,0,0,.1-.1Z" transform="translate(-173.8 -338.7)"/>
    <path class="cls-4" d="M356.6,341.5a2.5,2.5,0,0,1,2,.9,2.8,2.8,0,0,1,.6,1.8,4,4,0,0,1-.3,1.5,3.6,3.6,0,0,1-1,1.1,2.8,2.8,0,0,1-1.3.4,2.6,2.6,0,0,1-2-1,3.2,3.2,0,0,1-.6-1.8,4.2,4.2,0,0,1,.4-1.5,2.2,2.2,0,0,1,1-1.1A2.7,2.7,0,0,1,356.6,341.5Zm-.2.3-.6.2a1.3,1.3,0,0,0-.5.7,3.7,3.7,0,0,0-.2,1.2,4.6,4.6,0,0,0,.5,2,1.2,1.2,0,0,0,1.2.8,1.3,1.3,0,0,0,1-.4,3.2,3.2,0,0,0,.3-1.6,3.9,3.9,0,0,0-.6-2.3A1.3,1.3,0,0,0,356.4,341.8Z" transform="translate(-173.8 -338.7)"/>
    <path class="cls-4" d="M363.9,343.6a2.7,2.7,0,0,0,.6,1.9,1.7,1.7,0,0,0,2.3.4,1.9,1.9,0,0,0,.6-1h.2a2.6,2.6,0,0,1-.7,1.5,2.1,2.1,0,0,1-1.5.7,2.1,2.1,0,0,1-1.6-.8,2.7,2.7,0,0,1-.7-2,3.1,3.1,0,0,1,.7-2.2,2.1,2.1,0,0,1,1.7-.7,1.9,1.9,0,0,1,2.1,2.1Zm0-.3h2.5a5.6,5.6,0,0,0-.1-.7,1.2,1.2,0,0,0-.5-.5.7.7,0,0,0-.6-.2,1.1,1.1,0,0,0-.8.3A1.6,1.6,0,0,0,363.9,343.3Z" transform="translate(-173.8 -338.7)"/>
    <path class="cls-4" d="M369.9,339.9v1.7h1.2v.4h-1.2v3.5c0,.4,0,.6.1.7l.4.2h.4l.3-.4h.2a1.5,1.5,0,0,1-.6.9,1.1,1.1,0,0,1-.8.3l-.5-.2a.8.8,0,0,1-.4-.4c0-.2-.1-.5-.1-.9V342h-.8v-.2c.2,0,.4-.2.6-.4a1.3,1.3,0,0,0,.6-.7l.4-.8Z" transform="translate(-173.8 -338.7)"/>
    <path class="cls-4" d="M374.7,346.2l-1,.8H373a1,1,0,0,1-.9-.4,1.2,1.2,0,0,1-.4-1,1.9,1.9,0,0,1,.2-.7,1.9,1.9,0,0,1,.8-.7l2-.9v-.2a1.6,1.6,0,0,0-.3-1.1.8.8,0,0,0-.7-.3l-.6.2c-.1.2-.2.3-.2.5v.3c0,.2,0,.3-.1.4a.5.5,0,0,1-.4.2c-.1,0-.3-.1-.3-.2a.5.5,0,0,1-.2-.4,1.4,1.4,0,0,1,.5-.9,2.4,2.4,0,0,1,1.5-.4,2.3,2.3,0,0,1,1.2.2,1,1,0,0,1,.5.6,7.7,7.7,0,0,1,.1,1v2.8c0,.1,0,.2.1.2h.3l.5-.4v.3a1.7,1.7,0,0,1-1.3.9.5.5,0,0,1-.4-.2A1.2,1.2,0,0,1,374.7,346.2Zm-1.8-7h.5c.1.2.2.3.2.5a.5.5,0,0,1-.2.4c-.1.2-.3.2-.5.2a.4.4,0,0,1-.4-.2.5.5,0,0,1-.2-.4c0-.2.1-.3.2-.5Zm1.8,6.6v-2l-1.1.5c-.4.2-.6.3-.7.5a1.4,1.4,0,0,0-.2.6,1.2,1.2,0,0,0,.2.7l.6.3A2.2,2.2,0,0,0,374.7,345.8Zm.3-6.6h.4a.6.6,0,0,1,.2.5c0,.2,0,.3-.2.4s-.2.2-.4.2a.6.6,0,0,1-.5-.2c-.1-.1-.1-.2-.1-.4a.9.9,0,0,1,.1-.5Z" transform="translate(-173.8 -338.7)"/>
    <path class="cls-4" d="M378.8,341.5v4.3a3.5,3.5,0,0,0,.1.6l.2.3h.6v.2H377v-.2h.6l.2-.3a3.5,3.5,0,0,0,.1-.6v-2.1a8,8,0,0,0-.1-1.1c0-.2-.1-.2-.1-.3H377v-.2l1.6-.6Zm-.4-2.8h.4a.6.6,0,0,1,.1.4.7.7,0,0,1-.1.5h-.9a.7.7,0,0,1-.1-.5.6.6,0,0,1,.1-.4Z" transform="translate(-173.8 -338.7)"/>
    <path class="cls-4" d="M383.8,341.5v1.8h-.2c-.2-.6-.3-1-.6-1.2a1.2,1.2,0,0,0-.9-.3l-.6.2c-.2.2-.3.3-.3.5a1.4,1.4,0,0,0,.2.6l.7.5.9.4q1.2.6,1.2,1.5a1.4,1.4,0,0,1-.6,1.2,1.7,1.7,0,0,1-1.2.5l-1.1-.2H381l-.3.2h-.1v-1.9h.1a3.5,3.5,0,0,0,.7,1.2,1.3,1.3,0,0,0,1,.4l.7-.2a1.4,1.4,0,0,0,.2-.6.9.9,0,0,0-.3-.7c-.1-.2-.5-.4-1.1-.7l-1.1-.7a1.4,1.4,0,0,1-.3-.9,1.5,1.5,0,0,1,1.7-1.5h1.6Z" transform="translate(-173.8 -338.7)"/>
    <path class="cls-4" d="M384.7,341.6h2.5v.2h-.1a.5.5,0,0,0-.4.2l-.2.2a2.5,2.5,0,0,0,.2.7l1.3,2.7,1.2-3a.9.9,0,0,0,.1-.5h0a.1.1,0,0,0-.1-.1h-.4v-.2h1.7v.2h-.3l-.2.3c-.1,0-.1.2-.2.4l-2.2,5.4a2.7,2.7,0,0,1-.9,1.2,1.8,1.8,0,0,1-.9.4.8.8,0,0,1-.6-.2.6.6,0,0,1-.2-.5.6.6,0,0,1,.1-.4h1.3l.4-.2.4-.7.4-.9-2-4.1-.2-.4q-.1-.3-.3-.3l-.4-.2Z" transform="translate(-173.8 -338.7)"/>
    <path class="cls-4" d="M390.7,341.6h2.5v.2h-.1a.5.5,0,0,0-.4.2l-.2.2a2.5,2.5,0,0,0,.2.7l1.3,2.7,1.2-3a.9.9,0,0,0,.1-.5h0a.1.1,0,0,0-.1-.1h-.4v-.2h1.7v.2h-.3l-.2.3c-.1,0-.1.2-.2.4l-2.2,5.4a2.7,2.7,0,0,1-.9,1.2,1.8,1.8,0,0,1-.9.4.8.8,0,0,1-.6-.2.6.6,0,0,1-.2-.5.6.6,0,0,1,.1-.4h1.3l.4-.2.4-.7.4-.9-2-4.1-.2-.4q-.1-.3-.3-.3l-.4-.2Z" transform="translate(-173.8 -338.7)"/>
    <path class="cls-4" d="M400.8,346.4a2.1,2.1,0,0,1-.8.6l-.8.2a1.9,1.9,0,0,1-1.5-.8,2.5,2.5,0,0,1-.7-1.9,4.4,4.4,0,0,1,.7-2.1,2.3,2.3,0,0,1,1.9-.9,1.6,1.6,0,0,1,1.2.4v-1a2.5,2.5,0,0,0-.1-1.1c0-.2,0-.3-.1-.3H400v-.2l1.6-.6h.2v6.2a8,8,0,0,0,.1,1.1c0,.1.1.2.1.3h.7v.2l-1.5.7h-.3Zm0-.4v-2.8a1.4,1.4,0,0,0-.2-.7l-.5-.5-.6-.2a1.4,1.4,0,0,0-.9.5,3.5,3.5,0,0,0,0,3.6,1.4,1.4,0,0,0,1.2.6A1.9,1.9,0,0,0,400.8,346Z" transform="translate(-173.8 -338.7)"/>
    <path class="cls-4" d="M403.9,343.6a2.7,2.7,0,0,0,.6,1.9,1.6,1.6,0,0,0,1.3.7,1.7,1.7,0,0,0,1-.3,2.9,2.9,0,0,0,.6-1h.2a2.6,2.6,0,0,1-.7,1.5,2.1,2.1,0,0,1-1.5.7,2.5,2.5,0,0,1-1.7-.8,3.2,3.2,0,0,1-.6-2,3.1,3.1,0,0,1,.7-2.2,2.1,2.1,0,0,1,1.7-.7,2.5,2.5,0,0,1,1.5.5,2.3,2.3,0,0,1,.6,1.6Zm0-.3h2.5a5.6,5.6,0,0,0-.1-.7,1.2,1.2,0,0,0-.5-.5.7.7,0,0,0-.6-.2,1.6,1.6,0,0,0-.9.3A2.1,2.1,0,0,0,403.9,343.3Z" transform="translate(-173.8 -338.7)"/>
    <path class="cls-4" d="M410.2,338.7v7.7c.1.2.2.2.3.3h.5v.2h-2.6v-.2h.5c.1-.1.2-.1.2-.3s.1-.3.1-.6v-4.9a2.5,2.5,0,0,0-.1-1.1c0-.2,0-.3-.1-.3s-.1-.1-.2-.1h-.4v-.2l1.6-.6Z" transform="translate(-173.8 -338.7)"/>
    <path class="cls-4" d="M413.5,338.7v7.1c0,.3,0,.5.1.6s.1.2.2.3h.6v.2h-2.7v-.2h.5c.1-.1.2-.1.2-.3s.1-.3.1-.6v-6a.4.4,0,0,0-.1-.3h-.7v-.2l1.6-.6Z" transform="translate(-173.8 -338.7)"/>
    <path class="cls-4" d="M418,346.2l-1,.8h-.7a1,1,0,0,1-.9-.4,1.5,1.5,0,0,1-.4-1,1.9,1.9,0,0,1,.2-.7l.8-.7,2-.9v-.2a2.7,2.7,0,0,0-.2-1.1,1,1,0,0,0-.8-.3l-.6.2c-.1.2-.2.3-.2.5v.3c0,.2,0,.3-.1.4l-.4.2-.3-.2a.5.5,0,0,1-.2-.4,1.2,1.2,0,0,1,.6-.9,2,2,0,0,1,1.4-.4,2.2,2.2,0,0,1,1.2.2,1,1,0,0,1,.5.6,2.2,2.2,0,0,1,.1,1v3h.3l.5-.4v.3q-.6.9-1.2.9l-.5-.2A1.2,1.2,0,0,1,418,346.2Zm-1.7-7h.4c.1.2.2.3.2.5a.5.5,0,0,1-.2.4.4.4,0,0,1-.4.2c-.2,0-.4,0-.5-.2a.5.5,0,0,1-.2-.4c0-.2.1-.3.2-.5Zm1.7,6.6v-2l-1.1.5-.7.5a1.4,1.4,0,0,0-.2.6.8.8,0,0,0,.3.7.6.6,0,0,0,.6.3C417.2,346.4,417.5,346.2,418,345.8Zm.3-6.6h.5c.1.2.2.3.2.5a.5.5,0,0,1-.2.4.6.6,0,0,1-.5.2c-.2,0-.3,0-.4-.2s-.2-.2-.2-.4a.6.6,0,0,1,.2-.5Z" transform="translate(-173.8 -338.7)"/>
    <path class="cls-4" d="M424.9,341.7a1.4,1.4,0,0,1,.2.6,7.1,7.1,0,0,1,.2,1.2l.2,2.9,1.1-1.4.8-1.2c.1-.3.3-.5.3-.6V343h-.2l-.3-.2a.9.9,0,0,1,0-.8h.4l.4.2a.8.8,0,0,1,.2.6,2.2,2.2,0,0,1-.3,1l-1.2,1.9-2.2,2.7-1.3,1.2-.8.3-.3-.2a.4.4,0,0,1-.1-.3.4.4,0,0,1,.2-.4.5.5,0,0,1,.4-.2h.3c0,.1,0,.2.1.2h.2l.7-.6.9-1-.4-3.7a2,2,0,0,0-.2-1.1l-.6-.2h-.4v-.2Z" transform="translate(-173.8 -338.7)"/>
  </g>
</svg>
